<svg width="202" height="30" viewBox="0 0 202 30" fill="none" xmlns="http://www.w3.org/2000/svg">
  <path d="M155.864 9.5647L154.675 11.1499H158.016V9.5647H155.864Z" fill="#363C4E"/>
  <path d="M134.237 6.62085V8.20608H135.426L134.237 6.62085Z" fill="#363C4E"/>
  <path d="M158.016 6.62085L156.883 8.20608H158.016V6.62085Z" fill="#363C4E"/>
  <path d="M151.505 15.396L150.373 16.9812H158.016V15.396H151.505Z" fill="#363C4E"/>
  <path d="M153.713 12.5088L152.524 14.0374H158.016V12.5088H153.713Z" fill="#363C4E"/>
  <path d="M158.016 19.9253V18.3401H149.354L148.165 19.9253H158.016Z" fill="#363C4E"/>
  <path d="M142.956 18.3401H134.237V19.9253H144.088L142.956 18.3401Z" fill="#363C4E"/>
  <path d="M158.016 21.2842H147.202L146.127 22.6429L145.107 21.2842H134.237V22.8128H158.016V21.2842Z" fill="#363C4E"/>
  <path d="M158.016 24.1714H134.237V25.7566H158.016V24.1714Z" fill="#363C4E"/>
  <path d="M158.016 27.1155H134.237V28.7007H158.016V27.1155Z" fill="#363C4E"/>
  <path d="M138.597 12.5088H134.237V14.0374H139.729L138.597 12.5088Z" fill="#363C4E"/>
  <path d="M140.748 15.396H134.237V16.9812H141.937L140.748 15.396Z" fill="#363C4E"/>
  <path d="M136.445 9.5647H134.237V11.1499H137.578L136.445 9.5647Z" fill="#363C4E"/>
  <path
    d="M180.152 9.79134L197.873 27.5119L199.855 25.5304L182.134 7.8098L180.152 9.79134ZM198.269 28.6443H197.477L179.02 10.1876V9.39503L181.738 6.67749H182.53L201.043 25.1907V25.9833L198.269 28.6443Z"
    fill="#363C4E"/>
  <path
    d="M180.152 25.5304L182.134 27.5119L199.855 9.79131L197.873 7.80977L180.152 25.5304ZM182.53 28.6442H181.738L179.02 25.9267V25.1341L197.533 6.62085H198.326L201.043 9.33839V10.1876L182.53 28.6442Z"
    fill="#363C4E"/>
  <path d="M173.302 13.6978H164.753V28.7008H173.302V13.6978Z" fill="#363C4E"/>
  <path
    d="M173.811 6.3377C173.811 8.99862 171.66 11.15 168.999 11.15C166.338 11.15 164.187 8.99862 164.187 6.3377C164.187 3.67677 166.338 1.52539 168.999 1.52539C171.66 1.52539 173.811 3.67677 173.811 6.3377Z"
    fill="#363C4E"/>
  <path
    d="M112.819 18.9005C112.519 21.7504 111.169 24.1503 109.219 24.1503C107.269 24.1503 106.669 21.7504 106.969 18.9005C107.269 16.0507 108.619 13.6508 110.419 13.6508C112.369 13.6508 113.119 15.9007 112.819 18.9005ZM121.668 26.7001C122.118 25.6502 119.418 27.0001 120.168 20.8504C120.468 18.1506 121.818 9.301 121.818 9.301C121.818 9.15101 121.668 9.151 121.668 9.151H114.018C114.018 9.151 113.718 9.15101 113.718 9.45099C113.718 9.45099 113.568 10.5009 113.418 12.1509C112.519 10.051 110.719 8.40104 108.169 8.40104C103.069 8.40104 99.7692 13.2008 99.1692 18.4506C98.5692 23.7003 100.519 29.55 105.469 29.55C108.169 29.55 110.419 27.7501 112.069 25.2002C112.219 27.9001 114.168 29.55 116.718 29.55C118.818 29.55 121.068 27.9001 121.668 26.7001ZM87.0198 10.201C87.4697 8.85102 88.5197 5.1012 90.1696 5.1012C91.0696 5.1012 91.2196 5.70117 91.0696 6.15115C90.7696 8.40104 87.0198 10.201 87.0198 10.201ZM87.6197 17.1006C89.5696 17.4006 90.1696 18.7505 90.0196 20.8504C90.0196 21.9004 88.9697 25.2002 87.0198 25.2002C84.1699 25.2002 85.0699 19.0505 85.3698 17.4006C85.3698 17.4006 86.5698 16.9506 87.6197 17.1006ZM97.0693 19.0505C96.6193 13.5008 90.4696 12.4508 85.9698 13.9508L86.1198 13.2008C101.869 11.4009 99.3192 -0.148545 91.5195 0.00144794C82.52 0.301433 77.5702 11.4009 77.5702 19.9505C77.5702 25.3502 80.7201 29.7 86.5698 29.7C92.5695 29.7 97.5193 25.3502 97.0693 19.0505ZM73.5204 28.8001C73.5204 28.8001 75.7703 10.6509 75.9203 9.75097C75.9203 9.60098 75.9203 9.60098 75.7703 9.60098C69.7706 8.40104 64.3708 8.40104 58.9711 9.60098C58.9711 9.60098 58.8212 9.60098 58.8212 9.75097C58.8212 9.75097 58.0712 16.0507 56.8712 19.0505C54.6213 24.6003 52.2214 24.9002 52.2214 25.6502C52.0714 26.4002 53.1214 29.85 56.7212 29.85C59.8711 29.85 61.971 27.9001 63.1709 23.2503C63.9209 20.2505 64.3709 16.8006 64.5209 13.2008H67.6707C66.9208 18.9005 65.7208 28.95 65.7208 28.95C65.7208 29.1 65.8708 29.1 65.8708 29.1H73.3704C73.3704 28.95 73.5204 28.95 73.5204 28.8001ZM42.022 18.9005C41.722 21.7504 40.372 24.1503 38.4221 24.1503C36.4722 24.1503 35.8723 21.7504 36.1722 18.9005C36.4722 16.0507 37.8222 13.6508 39.6221 13.6508C41.722 13.6508 42.3219 15.9007 42.022 18.9005ZM50.8715 26.7001C51.3215 25.6502 48.6216 27.0001 49.3716 20.8504C49.6716 18.1506 51.0215 9.301 51.0215 9.301C51.0215 9.15101 50.8715 9.151 50.8715 9.151H43.2219C43.2219 9.151 42.9219 9.15101 42.9219 9.45099C42.9219 9.45099 42.7719 10.5009 42.6219 12.1509C41.722 10.051 40.072 8.40104 37.3722 8.40104C32.2724 8.40104 28.9726 13.2008 28.3726 18.4506C27.7726 23.7003 29.7226 29.55 34.6723 29.55C37.3722 29.55 39.6221 27.7501 41.272 25.2002C41.422 27.9001 43.3719 29.55 45.9218 29.55C48.0217 29.55 50.2715 27.9001 50.8715 26.7001ZM26.5727 28.95H16.2232C16.0732 28.95 15.9232 28.8001 15.9232 28.8001L11.7234 18.6005C7.97359 21.3004 10.0735 25.5002 10.8235 26.2502C11.1235 26.7002 9.17357 30 5.57375 30C2.27391 30 -0.275987 27.3001 0.0239983 23.8503C0.323984 19.8005 4.5238 15.7507 10.0735 14.2508L3.77382 1.80137C3.77382 1.80137 3.77383 1.50137 4.07382 1.50137H13.8233C13.9733 1.50137 14.1233 1.80137 14.1233 1.80137L18.1731 12.0009C22.0729 9.60098 19.8231 4.35124 19.0731 3.60128C18.7731 3.30129 19.823 0.901406 23.4229 0.601421C27.3227 0.301436 29.7226 3.00131 29.5726 6.45114C29.5726 10.5009 25.5227 14.7007 19.973 16.3507L26.7227 29.25C26.5727 28.8001 26.7227 28.95 26.5727 28.95Z"
    fill="#363C4E"/>
</svg>
