<svg width="22" height="22" viewBox="0 0 22 22" fill="none" xmlns="http://www.w3.org/2000/svg">
  <path
    d="M7.75427 11.8879C7.75427 12.2079 7.71826 12.4979 7.64626 12.7579C7.57826 13.0179 7.47226 13.2399 7.32826 13.4239C7.18426 13.6079 7.00026 13.7499 6.77626 13.8499C6.55626 13.9499 6.29426 13.9999 5.99026 13.9999H4.79626V9.75194H5.99026C6.29426 9.75194 6.55626 9.80194 6.77626 9.90194C7.00026 10.0019 7.18426 10.1459 7.32826 10.3339C7.47226 10.5179 7.57826 10.7419 7.64626 11.0059C7.71826 11.2659 7.75427 11.5599 7.75427 11.8879ZM6.78826 11.8879C6.78826 11.4599 6.71426 11.1379 6.56626 10.9219C6.42226 10.7019 6.23426 10.5919 6.00226 10.5919H5.76826V13.1599H6.00226C6.23426 13.1599 6.42226 13.0519 6.56626 12.8359C6.71426 12.6159 6.78826 12.2999 6.78826 11.8879Z"
    fill="#363C4E"/>
  <path
    d="M11.3053 11.8639C11.3053 12.1999 11.2673 12.5079 11.1913 12.7879C11.1153 13.0639 11.0073 13.2999 10.8673 13.4959C10.7273 13.6919 10.5553 13.8439 10.3513 13.9519C10.1513 14.0599 9.92533 14.1139 9.67333 14.1139C9.42133 14.1139 9.19333 14.0599 8.98933 13.9519C8.78933 13.8439 8.61933 13.6919 8.47933 13.4959C8.33933 13.2999 8.23133 13.0639 8.15533 12.7879C8.07933 12.5079 8.04133 12.1999 8.04133 11.8639C8.04133 11.5279 8.07733 11.2239 8.14933 10.9519C8.22533 10.6759 8.33333 10.4419 8.47333 10.2499C8.61333 10.0539 8.78333 9.90394 8.98333 9.79994C9.18733 9.69194 9.41733 9.63794 9.67333 9.63794C9.92533 9.63794 10.1513 9.69194 10.3513 9.79994C10.5553 9.90394 10.7273 10.0539 10.8673 10.2499C11.0073 10.4419 11.1153 10.6759 11.1913 10.9519C11.2673 11.2239 11.3053 11.5279 11.3053 11.8639ZM10.3213 11.8639C10.3213 11.6799 10.3073 11.5099 10.2793 11.3539C10.2513 11.1939 10.2093 11.0559 10.1533 10.9399C10.1013 10.8239 10.0353 10.7339 9.95533 10.6699C9.87533 10.6019 9.78133 10.5679 9.67333 10.5679C9.56533 10.5679 9.46933 10.6019 9.38533 10.6699C9.30533 10.7339 9.23733 10.8239 9.18133 10.9399C9.12933 11.0559 9.08933 11.1939 9.06133 11.3539C9.03733 11.5099 9.02533 11.6799 9.02533 11.8639C9.02533 12.0479 9.03733 12.2199 9.06133 12.3799C9.08933 12.5399 9.12933 12.6779 9.18133 12.7939C9.23733 12.9099 9.30533 13.0019 9.38533 13.0699C9.46933 13.1379 9.56533 13.1719 9.67333 13.1719C9.78133 13.1719 9.87533 13.1379 9.95533 13.0699C10.0353 13.0019 10.1013 12.9099 10.1533 12.7939C10.2093 12.6779 10.2513 12.5399 10.2793 12.3799C10.3073 12.2199 10.3213 12.0479 10.3213 11.8639Z"
    fill="#363C4E"/>
  <path
    d="M14.4212 13.5379C14.3052 13.7019 14.1532 13.8399 13.9652 13.9519C13.7772 14.0599 13.5372 14.1139 13.2452 14.1139C12.9972 14.1139 12.7712 14.0599 12.5672 13.9519C12.3672 13.8399 12.1952 13.6859 12.0512 13.4899C11.9072 13.2899 11.7952 13.0539 11.7152 12.7819C11.6352 12.5059 11.5952 12.2039 11.5952 11.8759C11.5952 11.5439 11.6352 11.2399 11.7152 10.9639C11.7952 10.6879 11.9072 10.4519 12.0512 10.2559C12.1952 10.0599 12.3672 9.90794 12.5672 9.79994C12.7712 9.69194 12.9972 9.63794 13.2452 9.63794C13.5292 9.63794 13.7652 9.68994 13.9532 9.79394C14.1452 9.89394 14.2992 10.0199 14.4152 10.1719L13.8992 10.8679C13.8272 10.7719 13.7452 10.6959 13.6532 10.6399C13.5652 10.5839 13.4532 10.5559 13.3172 10.5559C13.1892 10.5559 13.0772 10.5899 12.9812 10.6579C12.8892 10.7259 12.8092 10.8199 12.7412 10.9399C12.6772 11.0559 12.6292 11.1959 12.5972 11.3599C12.5652 11.5199 12.5492 11.6919 12.5492 11.8759C12.5492 12.0599 12.5652 12.2319 12.5972 12.3919C12.6292 12.5519 12.6772 12.6919 12.7412 12.8119C12.8092 12.9319 12.8912 13.0259 12.9872 13.0939C13.0832 13.1619 13.1952 13.1959 13.3232 13.1959C13.4512 13.1959 13.5632 13.1639 13.6592 13.0999C13.7552 13.0359 13.8312 12.9599 13.8872 12.8719L14.4212 13.5379Z"
    fill="#363C4E"/>
  <path
    d="M16.5315 13.9999L15.9435 12.5959L15.3615 13.9999H14.3595L15.4035 11.7739L14.4435 9.75194H15.4455L15.9675 11.0419L16.4955 9.75194H17.4795L16.5135 11.7679L17.5695 13.9999H16.5315Z"
    fill="#363C4E"/>
  <path
    d="M13.8 1L14.2852 0.495417C14.1548 0.370033 13.9809 0.3 13.8 0.3V1ZM19 6H19.7C19.7 5.80959 19.6224 5.62739 19.4852 5.49542L19 6ZM13.8 0.3H5.28572V1.7H13.8V0.3ZM2.3 3.30769V18.6923H3.7V3.30769H2.3ZM5.28571 21.7H16.7143V20.3H5.28571V21.7ZM19.7 18.6923V6H18.3V18.6923H19.7ZM19.4852 5.49542L14.2852 0.495417L13.3148 1.50458L18.5148 6.50458L19.4852 5.49542ZM13.1 1V4.46154H14.5V1H13.1ZM15.3238 6.7H19V5.3H15.3238V6.7ZM13.1 4.46154C13.1 5.69148 14.0893 6.7 15.3238 6.7V5.3C14.8751 5.3 14.5 4.93094 14.5 4.46154H13.1ZM16.7143 21.7C18.3696 21.7 19.7 20.3471 19.7 18.6923H18.3C18.3 19.5865 17.5838 20.3 16.7143 20.3V21.7ZM2.3 18.6923C2.3 20.3471 3.63045 21.7 5.28571 21.7V20.3C4.41625 20.3 3.7 19.5865 3.7 18.6923H2.3ZM5.28572 0.3C3.63045 0.3 2.3 1.65292 2.3 3.30769H3.7C3.7 2.41346 4.41625 1.7 5.28572 1.7V0.3Z"
    fill="#363C4E"/>
</svg>
