<svg width="22" height="22" viewBox="0 0 22 22" fill="none" xmlns="http://www.w3.org/2000/svg">
  <path
    d="M13.8 1L14.2852 0.495417L13.8 0.3V1ZM19 6H19.7L19.4852 5.49542L19 6ZM11.7 7.15385C11.7 6.76725 11.3866 6.45385 11 6.45385C10.6134 6.45385 10.3 6.76725 10.3 7.15385H11.7ZM11 13.6923L10.5027 14.1849C10.6341 14.3176 10.8132 14.3923 11 14.3923C11.1868 14.3923 11.3659 14.3176 11.4973 14.1849L11 13.6923ZM14.164 11.4926C14.4361 11.2179 14.4339 10.7747 14.1593 10.5027C13.8846 10.2306 13.4414 10.2327 13.1693 10.5074L14.164 11.4926ZM8.83067 10.5074C8.55861 10.2327 8.1154 10.2306 7.84073 10.5027C7.56606 10.7747 7.56394 11.2179 7.836 11.4926L8.83067 10.5074ZM7.57143 15.6846C7.18483 15.6846 6.87143 15.998 6.87143 16.3846C6.87143 16.7712 7.18483 17.0846 7.57143 17.0846V15.6846ZM14.4286 17.0846C14.8152 17.0846 15.1286 16.7712 15.1286 16.3846C15.1286 15.998 14.8152 15.6846 14.4286 15.6846V17.0846ZM13.8 0.3H5.28572V1.7H13.8V0.3ZM2.3 3.30769V18.6923H3.7V3.30769H2.3ZM5.28571 21.7H16.7143V20.3H5.28571V21.7ZM19.7 18.6923V6H18.3V18.6923H19.7ZM19.4852 5.49542L14.2852 0.495417L13.3148 1.50458L18.5148 6.50458L19.4852 5.49542ZM13.1 1V4.46154H14.5V1H13.1ZM15.3238 6.7H19V5.3H15.3238V6.7ZM13.1 4.46154C13.1 5.69148 14.0893 6.7 15.3238 6.7V5.3C14.8751 5.3 14.5 4.93094 14.5 4.46154H13.1ZM16.7143 21.7C18.3696 21.7 19.7 20.3471 19.7 18.6923H18.3C18.3 19.5865 17.5838 20.3 16.7143 20.3V21.7ZM2.3 18.6923C2.3 20.3471 3.63045 21.7 5.28571 21.7V20.3C4.41625 20.3 3.7 19.5865 3.7 18.6923H2.3ZM5.28572 0.3C3.63045 0.3 2.3 1.65292 2.3 3.30769H3.7C3.7 2.41346 4.41625 1.7 5.28572 1.7V0.3ZM10.3 7.15385V13.6923H11.7V7.15385H10.3ZM11.4973 14.1849L14.164 11.4926L13.1693 10.5074L10.5027 13.1997L11.4973 14.1849ZM11.4973 13.1997L8.83067 10.5074L7.836 11.4926L10.5027 14.1849L11.4973 13.1997ZM7.57143 17.0846H14.4286V15.6846H7.57143V17.0846Z"
    fill="currentColor"/>
</svg>
