<svg width="22" height="22" viewBox="0 0 22 22" fill="none" xmlns="http://www.w3.org/2000/svg">
  <path
    d="M13.8 1L14.2852 0.495417C14.1548 0.370033 13.9809 0.3 13.8 0.3V1ZM19 6H19.7C19.7 5.80959 19.6224 5.62739 19.4852 5.49542L19 6ZM9.6261 8.18695C9.45321 7.84117 9.03274 7.70101 8.68695 7.8739C8.34117 8.04679 8.20101 8.46726 8.3739 8.81305L9.6261 8.18695ZM12.3739 16.813C12.5468 17.1588 12.9673 17.299 13.313 17.1261C13.6588 16.9532 13.799 16.5327 13.6261 16.187L12.3739 16.813ZM13.6261 8.81305C13.799 8.46726 13.6588 8.04679 13.313 7.8739C12.9673 7.70101 12.5468 7.84117 12.3739 8.18695L13.6261 8.81305ZM8.3739 16.187C8.20101 16.5327 8.34117 16.9532 8.68695 17.1261C9.03274 17.299 9.45321 17.1588 9.6261 16.813L8.3739 16.187ZM13.8 0.3H5.28572V1.7H13.8V0.3ZM2.3 3.30769V18.6923H3.7V3.30769H2.3ZM5.28571 21.7H16.7143V20.3H5.28571V21.7ZM19.7 18.6923V6H18.3V18.6923H19.7ZM19.4852 5.49542L14.2852 0.495417L13.3148 1.50458L18.5148 6.50458L19.4852 5.49542ZM13.1 1V4.46154H14.5V1H13.1ZM15.3238 6.7H19V5.3H15.3238V6.7ZM13.1 4.46154C13.1 5.69148 14.0893 6.7 15.3238 6.7V5.3C14.8751 5.3 14.5 4.93094 14.5 4.46154H13.1ZM16.7143 21.7C18.3696 21.7 19.7 20.3471 19.7 18.6923H18.3C18.3 19.5865 17.5838 20.3 16.7143 20.3V21.7ZM2.3 18.6923C2.3 20.3471 3.63045 21.7 5.28571 21.7V20.3C4.41625 20.3 3.7 19.5865 3.7 18.6923H2.3ZM5.28572 0.3C3.63045 0.3 2.3 1.65292 2.3 3.30769H3.7C3.7 2.41346 4.41625 1.7 5.28572 1.7V0.3ZM8.3739 8.81305L10.3739 12.813L11.6261 12.187L9.6261 8.18695L8.3739 8.81305ZM10.3739 12.813L12.3739 16.813L13.6261 16.187L11.6261 12.187L10.3739 12.813ZM12.3739 8.18695L10.3739 12.187L11.6261 12.813L13.6261 8.81305L12.3739 8.18695ZM10.3739 12.187L8.3739 16.187L9.6261 16.813L11.6261 12.813L10.3739 12.187Z"
    fill="#363C4E"/>
</svg>
