<svg width="22" height="22" viewBox="0 0 22 22" fill="none" xmlns="http://www.w3.org/2000/svg">
  <path
    d="M13.8 1L14.2852 0.495417C14.1548 0.370033 13.9809 0.3 13.8 0.3V1ZM19 6H19.7C19.7 5.80959 19.6224 5.62739 19.4852 5.49542L19 6ZM13.8 0.3H5.28572V1.7H13.8V0.3ZM2.3 3.30769V18.6923H3.7V3.30769H2.3ZM5.28571 21.7H16.7143V20.3H5.28571V21.7ZM19.7 18.6923V6H18.3V18.6923H19.7ZM19.4852 5.49542L14.2852 0.495417L13.3148 1.50458L18.5148 6.50458L19.4852 5.49542ZM13.1 1V4.46154H14.5V1H13.1ZM15.3238 6.7H19V5.3H15.3238V6.7ZM13.1 4.46154C13.1 5.69148 14.0893 6.7 15.3238 6.7V5.3C14.8751 5.3 14.5 4.93094 14.5 4.46154H13.1ZM16.7143 21.7C18.3696 21.7 19.7 20.3471 19.7 18.6923H18.3C18.3 19.5865 17.5838 20.3 16.7143 20.3V21.7ZM2.3 18.6923C2.3 20.3471 3.63045 21.7 5.28571 21.7V20.3C4.41625 20.3 3.7 19.5865 3.7 18.6923H2.3ZM5.28572 0.3C3.63045 0.3 2.3 1.65292 2.3 3.30769H3.7C3.7 2.41346 4.41625 1.7 5.28572 1.7V0.3Z"
    fill="currentColor"/>
  <path
    d="M6.17455 16.6712C6.74676 17.2401 7.96166 17.4542 9.71655 14.0075C11.9102 9.69916 12.227 6.58758 10.4721 7.04453C8.71724 7.50147 9.10318 10.6902 12.7348 13.2578C16.3664 15.8254 17.5934 13.9324 16.7403 13.2578C15.8873 12.5833 11.8968 10.9823 7.31904 14.3956C6.55604 14.9645 5.60231 16.1023 6.17455 16.6712Z"
    stroke="currentColor" stroke-width="1.2"/>
</svg>
