<svg width="19" height="20" viewBox="0 0 19 20" fill="none" xmlns="http://www.w3.org/2000/svg">
  <path
    d="M12.2423 13.1941L11.6267 12.5376H11.6267L12.2423 13.1941ZM16.5425 18.8151C16.8923 19.1682 17.4621 19.171 17.8153 18.8212C18.1685 18.4714 18.1712 17.9016 17.8215 17.5484L16.5425 18.8151ZM14.1283 6.84144L13.2556 7.06158L14.1283 6.84144ZM9.18968 14.8342L9.40075 15.7091L9.18968 14.8342ZM11.6029 13.8274L16.5425 18.8151L17.8215 17.5484L12.8818 12.5608L11.6029 13.8274ZM8.97861 13.9593C5.82141 14.721 2.65765 12.8309 1.88914 9.78448L0.143821 10.2248C1.16174 14.2599 5.3165 16.6944 9.40075 15.7091L8.97861 13.9593ZM1.88914 9.78448C1.12255 6.74563 3.01554 3.64684 6.16615 2.88676L5.74402 1.13696C1.65319 2.12386 -0.876006 6.18204 0.143821 10.2248L1.88914 9.78448ZM6.16615 2.88676C9.32336 2.1251 12.4871 4.01514 13.2556 7.06158L15.0009 6.6213C13.983 2.58616 9.82827 0.151652 5.74402 1.13696L6.16615 2.88676ZM13.2556 7.06158C13.771 9.10464 13.0871 11.168 11.6267 12.5376L12.858 13.8506C14.7696 12.0578 15.6849 9.33271 15.0009 6.6213L13.2556 7.06158ZM11.6267 12.5376C10.9132 13.2067 10.0144 13.7094 8.97861 13.9593L9.40075 15.7091C10.7446 15.3849 11.921 14.7293 12.858 13.8506L11.6267 12.5376Z"
    fill="currentColor"/>
</svg>
