<svg width="19" height="19" viewBox="0 0 19 19" fill="none" xmlns="http://www.w3.org/2000/svg">
  <path
    d="M12.8682 12.8184L12.1842 12.089L12.8682 12.8184ZM17.2895 18.7037C17.6781 19.0961 18.3113 19.0991 18.7037 18.7105C19.0961 18.3219 19.0991 17.6887 18.7105 17.2963L17.2895 18.7037ZM14.8275 6.21868L13.8579 6.46327L14.8275 6.21868ZM9.69687 14.5223L9.93139 15.4944L9.69687 14.5223ZM12.1577 13.5221L17.2895 18.7037L18.7105 17.2963L13.5788 12.1147L12.1577 13.5221ZM9.46235 13.5501C6.21585 14.3334 2.96483 12.3895 2.17545 9.26027L0.236204 9.74947C1.30271 13.9772 5.65484 16.5261 9.93139 15.4944L9.46235 13.5501ZM2.17545 9.26027C1.3882 6.13949 3.33182 2.95484 6.57101 2.1734L6.10197 0.229172C1.8181 1.26264 -0.832428 5.51328 0.236204 9.74947L2.17545 9.26027ZM6.57101 2.1734C9.81751 1.39019 13.0685 3.33407 13.8579 6.46327L15.7972 5.97408C14.7307 1.74631 10.3785 -0.802534 6.10197 0.229172L6.57101 2.1734ZM13.8579 6.46327C14.3873 8.56165 13.6851 10.6813 12.1842 12.089L13.5523 13.5478C15.5545 11.6701 16.5138 8.81506 15.7972 5.97408L13.8579 6.46327ZM12.1842 12.089C11.451 12.7765 10.5273 13.2932 9.46235 13.5501L9.93139 15.4944C11.3386 15.1549 12.5708 14.4683 13.5523 13.5478L12.1842 12.089Z"
    fill="#363C4E"/>
</svg>
