<svg width="16" height="14" viewBox="0 0 16 14" fill="none" xmlns="http://www.w3.org/2000/svg">
  <path
    d="M12.8488 3.0943V1.88809C12.8488 1.22192 12.3061 0.681885 11.6366 0.681885H2.3033C1.43303 0.681885 0.727539 1.38393 0.727539 2.24996V7.31603C0.727539 7.9822 1.27022 8.52224 1.93966 8.52224H3.15178M3.15178 9.64695V4.30051C3.15178 3.63434 3.69447 3.0943 4.3639 3.0943H14.0609C14.7303 3.0943 15.273 3.63434 15.273 4.30051V9.64695C15.273 10.3131 14.7303 10.8532 14.0609 10.8532H13.4824L12.9589 13.0455L10.7275 10.8532H4.3639C3.69447 10.8532 3.15178 10.3131 3.15178 9.64695Z"
    stroke="currentColor" stroke-width="1.1" stroke-linecap="round" stroke-linejoin="round"/>
</svg>
