<svg width="10" height="17" viewBox="0 0 10 17"  xmlns="http://www.w3.org/2000/svg">
  <path
    d="M4.78186 17.0289V0.5H5.62768V17.0289H4.78186ZM8.41694 5.45868C8.34376 4.72262 8.01878 4.13722 7.44199 3.70248C6.8652 3.26773 6.1399 3.05036 5.26611 3.05036C4.65058 3.05036 4.10822 3.15582 3.63904 3.36674C3.17417 3.57765 2.80829 3.87035 2.54142 4.24484C2.27885 4.61502 2.14757 5.03685 2.14757 5.51033C2.14757 5.85899 2.22289 6.1646 2.37355 6.42717C2.5242 6.68974 2.72651 6.91572 2.98047 7.10511C3.23873 7.2902 3.52282 7.44947 3.83274 7.5829C4.14696 7.71634 4.46334 7.82825 4.78186 7.91865L6.17649 8.31896C6.59832 8.43518 7.02016 8.58368 7.44199 8.76446C7.86382 8.94525 8.24906 9.17338 8.59772 9.44886C8.95068 9.72004 9.23262 10.0536 9.44354 10.4496C9.65876 10.8413 9.76637 11.3127 9.76637 11.8636C9.76637 12.5696 9.58343 13.2045 9.21756 13.7683C8.85168 14.3322 8.32654 14.7799 7.64214 15.1113C6.95774 15.4384 6.13775 15.602 5.18217 15.602C4.28255 15.602 3.5013 15.4535 2.83842 15.1565C2.17554 14.8552 1.65471 14.4398 1.27592 13.9104C0.897135 13.3809 0.684067 12.7676 0.636719 12.0702H1.87639C1.91943 12.5911 2.09161 13.0323 2.39292 13.3939C2.69423 13.7554 3.08593 14.0309 3.56802 14.2203C4.05011 14.4054 4.58816 14.4979 5.18217 14.4979C5.84075 14.4979 6.42615 14.3882 6.93837 14.1686C7.4549 13.9448 7.85951 13.6349 8.15221 13.2389C8.44922 12.8386 8.59772 12.3737 8.59772 11.8443C8.59772 11.3966 8.4815 11.0221 8.24906 10.7208C8.01663 10.4152 7.69164 10.1591 7.27412 9.95248C6.86089 9.74587 6.38095 9.56293 5.83429 9.40367L4.25242 8.93879C3.21506 8.62887 2.41013 8.20059 1.83765 7.65393C1.26516 7.10727 0.978919 6.40995 0.978919 5.56198C0.978919 4.85176 1.16831 4.22762 1.5471 3.68957C1.93019 3.14721 2.44672 2.72538 3.09669 2.42407C3.75096 2.11846 4.48486 1.96565 5.29839 1.96565C6.12053 1.96565 6.84798 2.11631 7.48073 2.41761C8.11347 2.71892 8.61494 3.1343 8.98512 3.66374C9.3596 4.18888 9.55976 4.78719 9.58558 5.45868H8.41694Z"
    fill="currentColor"/>
</svg>
