<svg width="157" height="51" viewBox="0 0 157 51" fill="none" xmlns="http://www.w3.org/2000/svg">
  <g clip-path="url(#clip0)">
    <path
      d="M17.3035 6.03906C19.6505 4.52208 22.4838 3.6319 25.5386 3.6319C32.6939 3.6319 38.6577 8.4912 39.9523 14.935C39.9523 14.935 39.9175 16.1347 37.9884 15.3007C37.9493 15.2853 17.3035 6.03906 17.3035 6.03906ZM10.898 18.3714C10.8858 18.1536 11.078 17.8203 11.4855 17.8203C11.585 17.8203 11.6972 17.8399 11.8217 17.8855C15.8728 19.3498 35.6529 26.5629 35.6706 26.5783C36.3063 26.8317 36.7541 26.5316 36.7541 26.5316C34.0593 29.5561 30.0448 31.4761 25.5386 31.4761C17.7269 31.4761 11.3483 25.6876 10.898 18.3714Z"
      fill="currentColor"/>
    <path fill-rule="evenodd" clip-rule="evenodd"
          d="M36.4908 23.9886C36.3834 23.9598 9.24874 12.8302 9.00407 12.7263C8.03637 12.3475 7.40608 13.2336 8.02783 14.0543C8.1102 14.1545 10.2402 16.8614 10.2402 16.8614C10.2402 16.8614 9.78141 16.0822 9.74968 15.7454C9.71185 15.399 9.93638 15.0292 10.6423 15.3126C11.3452 15.6031 35.5677 25.2235 35.6336 25.2553C36.3834 25.5129 37.065 25.4912 37.3786 25.0674C37.8679 24.3824 38.2633 23.7353 38.6257 22.9662C38.3841 23.3547 37.6056 24.4088 36.4908 23.9886ZM39.8613 15.4951C39.8284 15.8451 39.5831 17.3999 37.8234 16.5817C37.5171 16.4358 2.08983 0.317417 1.59926 0.0886898C0.925044 -0.227086 -0.550914 0.295205 0.214827 1.73841C0.232522 1.77923 3.05326 6.2001 3.02214 6.13346C2.9776 6.06922 2.56086 5.07507 2.37172 4.17036C2.27958 3.80656 2.61212 3.46557 3.12952 3.6925C3.18993 3.71111 37.6513 18.5796 37.9033 18.6889C38.6404 19.0328 39.8613 18.8654 39.9327 17.942C39.9418 17.6545 39.9504 17.3765 39.9504 17.0788C39.9504 16.5511 39.9284 16.0186 39.8613 15.4951ZM37.4695 20.7936C37.3932 20.7654 5.71596 6.7524 5.37367 6.60292C4.50237 6.2121 3.25033 7.06218 3.93432 8.10015C4.04902 8.26465 6.53418 11.7892 6.53418 11.7892C6.53418 11.7892 5.8026 10.6114 5.8807 10.0542C5.92036 9.66162 6.30842 9.49173 6.59214 9.6142C6.86732 9.71205 36.6794 22.2873 36.8356 22.3635C37.9143 22.8216 38.81 22.495 39.1554 21.7229C39.3817 21.068 39.5666 20.3842 39.7051 19.692C39.5666 20.036 38.9308 21.3543 37.4695 20.7936Z"
          fill="currentColor"/>
    <path
      d="M133.252 12.1062H139.224V13.1357C138.723 13.2173 138.374 13.4854 138.16 13.9337C138.017 14.2328 137.94 15.1283 137.94 16.6177V26.9755C137.94 28.4564 138.017 29.3446 138.16 29.6504C138.374 30.1067 138.723 30.3576 139.224 30.4417V31.4761H133.252V30.4417C133.705 30.3449 134.003 30.1067 134.172 29.7174C134.33 29.3324 134.408 28.4156 134.408 26.9755V22.3025H130.699V26.9755C130.699 28.4156 130.784 29.3324 130.954 29.7174C131.12 30.1067 131.417 30.3449 131.861 30.4417V31.4761H125.907V30.4417C126.405 30.3576 126.747 30.1067 126.972 29.6504C127.111 29.3446 127.175 28.4564 127.175 26.9755V16.6177C127.175 15.1283 127.111 14.2328 126.972 13.9337C126.747 13.4854 126.405 13.2173 125.907 13.1357V12.1062H131.861V13.1357C131.417 13.2417 131.12 13.4854 130.954 13.8673C130.784 14.2572 130.699 15.1624 130.699 16.6177V20.9934H134.408V16.6177C134.408 15.1624 134.33 14.2572 134.172 13.8673C134.003 13.4854 133.705 13.2417 133.252 13.1357V12.1062Z"
      fill="currentColor"/>
    <path
      d="M64.2242 3.6319H71.4262V4.67324H70.8467C70.3322 4.67324 69.9037 4.81898 69.5936 5.10744C69.3769 5.31426 69.1976 5.63114 69.0687 6.07017C68.9766 6.4058 68.9226 7.25847 68.9226 8.64451V26.4218C68.9226 27.8507 68.9766 28.7367 69.0687 29.0959C69.1657 29.4448 69.3659 29.7641 69.6532 30.0284C69.9546 30.2987 70.3475 30.4269 70.8467 30.4269H71.4262V31.4761H62.1791V30.4269H62.7513C63.2812 30.4269 63.6851 30.2854 64.0179 30.0042C64.2242 29.8028 64.4102 29.4811 64.5305 29.0009C64.6257 28.6853 64.6693 27.8175 64.6693 26.4218V8.12384L58.4194 31.4761H57.5746L51.0933 7.73439L51.0896 25.5836C51.0896 26.9521 51.105 27.7993 51.1467 28.1096C51.2701 28.7845 51.5102 29.3523 51.8951 29.7829C52.2616 30.2177 52.859 30.4269 53.6798 30.4269V31.4761H47.2139V30.4269H47.3913C47.7861 30.4396 48.1569 30.3374 48.4866 30.1257C48.8334 29.9207 49.0925 29.6414 49.2558 29.2846C49.4406 28.9247 49.5708 28.4131 49.6702 27.7782C49.6843 27.6312 49.6948 26.9382 49.6948 25.687V8.64451C49.6948 7.23549 49.6506 6.34895 49.5511 5.99821C49.4566 5.64746 49.2558 5.34994 48.966 5.0766C48.6615 4.80931 48.2729 4.67324 47.7768 4.67324H47.2139V3.6319H54.4387L59.4146 21.9855L64.2242 3.6319Z"
      fill="currentColor"/>
    <path
      d="M141.645 3.6319H146.716V21.6662C146.716 21.6662 150.561 15.9176 150.732 15.6461C151.209 14.8702 151.439 13.3209 149.511 13.3209V12.2801H155.09V13.3209C154.561 13.359 154.094 13.5573 153.694 13.9141C152.674 14.6706 149.986 18.8233 149.986 18.8233L152.92 25.4355C154.109 28.1108 154.809 29.3329 155.025 29.6637C155.325 30.1348 155.712 30.3955 156.172 30.4553V31.4761H149.732V30.4553C150.021 30.4553 150.233 30.3658 150.358 30.1971C150.477 30.0332 150.547 29.8633 150.547 29.6637C150.547 29.3523 150.364 28.7742 149.986 27.9209L147.531 22.6404L146.716 23.8577V27.0229C146.716 29.1503 146.806 29.3983 146.992 29.7641C147.164 30.1167 147.531 30.3531 148.083 30.4553V31.4761H141.645V30.4553C142.172 30.3658 142.546 30.1143 142.763 29.6637C142.916 29.3602 142.993 28.4863 142.993 27.0229V8.08332C142.993 6.63317 142.907 5.73334 142.728 5.37957C142.562 5.02882 142.201 4.78754 141.645 4.67324V3.6319Z"
      fill="currentColor"/>
    <path
      d="M92.0078 3.6319H107.044V11.1694H105.935C105.728 9.11705 105.84 7.53276 105.053 6.43766C104.499 5.62677 103.601 5.23191 102.383 5.23191H98.8332H98.8002V11.9452C101.901 11.9131 105.346 12.2379 107.342 14.7401C109.634 17.5833 109.396 26.2679 107.194 28.986C105.84 30.638 103.869 31.4761 101.278 31.4761H92.0078V30.4252C92.8615 30.4252 93.4201 30.3121 93.7317 30.0611C94.0262 29.8313 94.2409 29.5151 94.353 29.1226C94.4822 28.7465 94.5386 27.805 94.5386 26.2975V8.51659C94.5386 7.01877 94.4822 6.34877 94.353 5.96117C94.2409 5.56933 94.0262 5.26517 93.7248 5.02873C93.417 4.79411 92.8451 4.67317 92.0078 4.67317V3.6319ZM99.1454 29.3929C99.3936 29.7666 99.766 29.9535 100.25 29.9535C100.968 29.9535 101.626 29.7122 102.235 29.2212C102.841 28.7387 103.301 28.0294 103.627 27.1127C104.523 24.576 104.507 18.8792 103.524 16.3092C103.128 15.2807 102.577 14.5611 101.893 14.1426C101.197 13.7327 100.161 13.547 98.8002 13.5567V26.6863L98.7907 27.7216C98.7907 28.4508 98.8997 29.0084 99.1454 29.3929Z"
      fill="currentColor"/>
    <path
      d="M114.602 12.8364C115.498 12.3449 116.416 12.1062 117.373 12.1062C120.021 12.1155 121.115 14.08 121.449 15.8736C121.573 16.4603 121.645 17.8257 121.645 19.9543V27.1946C121.645 28.1014 121.658 28.6763 121.699 28.9056C121.751 29.1237 121.808 29.3108 121.906 29.4102C121.989 29.5333 122.51 29.6166 122.745 29.1132L123.486 29.821C123.048 30.8626 122.637 31.5705 122.176 32.0267C121.711 32.4897 120.946 32.6867 120.341 32.6867C119.646 32.6867 119.106 32.4195 118.703 31.8962C118.306 31.3735 118.06 30.5817 117.975 29.509C117.431 31.4008 116.389 32.6594 114.502 32.6668C112.612 32.6768 111.38 30.7557 111.38 28.5159C111.38 27.0094 111.923 25.9517 112.729 24.7485C113.53 23.5446 115.282 21.94 117.975 19.9543V17.96C117.975 16.4784 117.931 15.5393 117.825 15.1459C117.628 14.4306 117.336 13.696 116.322 13.696C115.753 13.696 115.282 13.911 114.905 14.3119C113.653 15.9016 115.012 16.9177 115.3 17.4404C115.488 17.7959 115.584 18.0756 115.584 18.4478C115.584 19.4895 114.747 20.3347 113.71 20.3347C112.674 20.3347 111.651 19.6666 111.708 17.9886C111.808 16.6511 112.028 15.8836 112.52 14.9619C113.014 14.039 113.71 13.3355 114.602 12.8364ZM115.164 25.3718C114.141 27.5688 115.152 28.9012 116.327 28.9012C116.913 28.9012 117.541 28.5681 117.975 27.8441V21.3657C116.923 22.3707 115.675 24.2413 115.164 25.3718Z"
      fill="currentColor"/>
    <path
      d="M73.8486 3.6319H89.5867V11.1699H88.5173C88.3142 9.11741 88.4313 7.53301 87.6716 6.43785C87.14 5.6269 86.2687 5.23201 85.095 5.23201H83.8226V16.2079V26.4218C83.8226 27.8507 83.8824 28.7367 83.9671 29.0959C84.0775 29.4448 84.2726 29.7641 84.5549 30.0284C84.8463 30.2987 85.2395 30.4269 85.7474 30.4269H86.3279V31.4761H77.1294V30.4269H77.7056C78.2189 30.4269 78.6256 30.2854 78.9396 30C79.1652 29.8028 79.3438 29.4811 79.4676 29.0009C79.5639 28.6853 79.6176 27.8175 79.6176 26.4218V5.23201H78.3451C77.1641 5.23201 76.2959 5.6269 75.7643 6.43785C75.0071 7.53301 75.1119 9.11741 74.9138 11.1699H73.8486V3.6319Z"
      fill="currentColor"/>
    <path
      d="M11 47.1463V37H17.5168V38.0899H12.3076V41.2607H15.0493C15.8226 41.2607 16.4746 41.3796 17.0054 41.6174C17.5397 41.8552 17.9439 42.1904 18.2181 42.6231C18.4957 43.0558 18.6346 43.5661 18.6346 44.154C18.6346 44.7419 18.4957 45.2604 18.2181 45.7096C17.9439 46.1588 17.5397 46.5105 17.0054 46.7649C16.4746 47.0192 15.8226 47.1463 15.0493 47.1463H11ZM12.3076 46.0762H15.0493C15.5414 46.0762 15.9579 45.9837 16.2989 45.7988C16.6433 45.6105 16.9034 45.3694 17.0792 45.0755C17.2585 44.7782 17.3481 44.4644 17.3481 44.1341C17.3481 43.6486 17.1495 43.2308 16.7523 42.8807C16.3551 42.5273 15.7874 42.3506 15.0493 42.3506H12.3076V46.0762Z"
      fill="currentColor"/>
    <path
      d="M22.1849 47.3247C21.6717 47.3247 21.206 47.2339 20.7877 47.0522C20.3694 46.8673 20.0373 46.6014 19.7912 46.2546C19.5452 45.9045 19.4221 45.4817 19.4221 44.9863C19.4221 44.5503 19.5135 44.1969 19.6963 43.9261C19.8791 43.6519 20.1234 43.4372 20.4292 43.282C20.735 43.1268 21.0724 43.0112 21.4415 42.9352C21.8141 42.8559 22.1884 42.7932 22.5646 42.747C23.0567 42.6875 23.4556 42.6429 23.7614 42.6132C24.0707 42.5802 24.2957 42.5257 24.4363 42.4497C24.5804 42.3737 24.6525 42.2416 24.6525 42.0534V42.0137C24.6525 41.5249 24.5101 41.1451 24.2254 40.8742C23.9442 40.6034 23.5171 40.468 22.9442 40.468C22.3501 40.468 21.8844 40.5902 21.547 40.8346C21.2095 41.079 20.9723 41.3399 20.8352 41.6174L19.6541 41.221C19.865 40.7586 20.1462 40.3986 20.4977 40.141C20.8527 39.8801 21.2394 39.6984 21.6577 39.596C22.0795 39.4903 22.4943 39.4375 22.902 39.4375C23.1621 39.4375 23.4609 39.4672 23.7983 39.5267C24.1393 39.5828 24.4679 39.7001 24.7843 39.8784C25.1041 40.0568 25.3695 40.326 25.5804 40.686C25.7913 41.046 25.8968 41.5282 25.8968 42.1326V47.1463H24.6525V46.1159H24.5892C24.5048 46.281 24.3642 46.4577 24.1674 46.646C23.9706 46.8342 23.7087 46.9944 23.3818 47.1265C23.0549 47.2586 22.6559 47.3247 22.1849 47.3247ZM22.3747 46.2744C22.8668 46.2744 23.2816 46.1836 23.6191 46.0019C23.96 45.8202 24.2166 45.5857 24.3888 45.2984C24.5646 45.0111 24.6525 44.7088 24.6525 44.3918V43.3216C24.5997 43.3811 24.4837 43.4356 24.3045 43.4851C24.1287 43.5314 23.9249 43.5727 23.6929 43.609C23.4644 43.642 23.2412 43.6717 23.0233 43.6982C22.8088 43.7213 22.6349 43.7411 22.5013 43.7576C22.1779 43.7973 21.8756 43.8617 21.5944 43.9508C21.3167 44.0367 21.0918 44.1672 20.9195 44.3422C20.7508 44.514 20.6665 44.7485 20.6665 45.0457C20.6665 45.452 20.8264 45.7591 21.1462 45.9672C21.4696 46.172 21.8791 46.2744 22.3747 46.2744Z"
      fill="currentColor"/>
    <path
      d="M32.7714 42.8064V43.8963H28.3004V42.8064H32.7714ZM28.5956 39.5366V47.1463H27.3513V39.5366H28.5956ZM33.7205 39.5366V47.1463H32.4762V39.5366H33.7205Z"
      fill="currentColor"/>
    <path
      d="M35.1763 47.1463V39.5366H36.4206V42.846H37.2432L40.1536 39.5366H41.7564L38.4875 43.2027L41.7986 47.1463H40.1958L37.5384 43.936H36.4206V47.1463H35.1763Z"
      fill="currentColor"/>
    <path
      d="M48.9837 47.3049C48.2244 47.3049 47.5706 47.1364 47.0223 46.7995C46.4739 46.4627 46.0521 45.9986 45.7569 45.4074C45.4616 44.8162 45.314 44.1408 45.314 43.3811C45.314 42.6082 45.4651 41.9262 45.7674 41.335C46.0732 40.7405 46.4985 40.2764 47.0434 39.9428C47.5917 39.6059 48.2314 39.4375 48.9626 39.4375C49.532 39.4375 50.0452 39.5366 50.5021 39.7348C50.9591 39.9329 51.3334 40.2104 51.6252 40.5671C51.9169 40.9238 52.0979 41.3399 52.1682 41.8155H50.9239C50.829 41.4687 50.6181 41.1616 50.2912 40.8941C49.9679 40.6232 49.532 40.4878 48.9837 40.4878C48.4986 40.4878 48.0733 40.6067 47.7077 40.8445C47.3457 41.079 47.0627 41.411 46.8588 41.8403C46.6585 42.2664 46.5583 42.7668 46.5583 43.3415C46.5583 43.9294 46.6567 44.4413 46.8536 44.8773C47.0539 45.3133 47.3351 45.6518 47.6972 45.8929C48.0627 46.134 48.4916 46.2546 48.9837 46.2546C49.307 46.2546 49.6005 46.2017 49.8642 46.096C50.1278 45.9903 50.351 45.8384 50.5338 45.6402C50.7165 45.4421 50.8466 45.2043 50.9239 44.9268H52.1682C52.0979 45.376 51.924 45.7806 51.6463 46.1406C51.3721 46.4973 51.0083 46.7814 50.5549 46.9928C50.1049 47.2008 49.5812 47.3049 48.9837 47.3049Z"
      fill="currentColor"/>
    <path
      d="M53.1707 47.1463V39.5366H56.4818C57.3535 39.5366 58.046 39.7215 58.5592 40.0915C59.0723 40.4614 59.3289 40.9502 59.3289 41.5579C59.3289 42.0203 59.1831 42.3787 58.8913 42.633C58.5996 42.884 58.2252 43.0541 57.7683 43.1433C58.0671 43.1829 58.357 43.282 58.6382 43.4405C58.923 43.5991 59.1585 43.8171 59.3448 44.0945C59.5311 44.3686 59.6242 44.7055 59.6242 45.1052C59.6242 45.4949 59.5187 45.8434 59.3078 46.1505C59.097 46.4577 58.7947 46.7005 58.401 46.8788C58.0073 47.0572 57.5363 47.1463 56.9879 47.1463H53.1707ZM54.3517 46.0762H56.9879C57.4168 46.0762 57.7525 45.9804 57.995 45.7889C58.2375 45.5973 58.3588 45.3364 58.3588 45.0061C58.3588 44.6131 58.2375 44.3042 57.995 44.0796C57.7525 43.8518 57.4168 43.7378 56.9879 43.7378H54.3517V46.0762ZM54.3517 42.7271H56.4818C56.8157 42.7271 57.1022 42.6842 57.3412 42.5983C57.5802 42.5091 57.763 42.3836 57.8895 42.2218C58.0196 42.0567 58.0846 41.8618 58.0846 41.6372C58.0846 41.3168 57.9423 41.0658 57.6576 40.8841C57.3728 40.6992 56.9809 40.6067 56.4818 40.6067H54.3517V42.7271Z"
      fill="currentColor"/>
    <path
      d="M64.0867 47.3049C63.3064 47.3049 62.6332 47.143 62.0673 46.8194C61.5049 46.4924 61.0708 46.0366 60.765 45.452C60.4627 44.8641 60.3116 44.1804 60.3116 43.4009C60.3116 42.6214 60.4627 41.9345 60.765 41.3399C61.0708 40.7421 61.4961 40.2764 62.041 39.9428C62.5893 39.6059 63.229 39.4375 63.9602 39.4375C64.382 39.4375 64.7985 39.5036 65.2097 39.6357C65.621 39.7678 65.9953 39.9825 66.3328 40.2797C66.6702 40.5737 66.9391 40.9634 67.1395 41.4489C67.3398 41.9345 67.44 42.5323 67.44 43.2424V43.7378H61.1974V42.7271H66.1746C66.1746 42.2978 66.0832 41.9146 65.9004 41.5777C65.7212 41.2409 65.4646 40.975 65.1306 40.7801C64.8002 40.5852 64.4101 40.4878 63.9602 40.4878C63.4645 40.4878 63.0357 40.6034 62.6737 40.8346C62.3151 41.0625 62.0392 41.3598 61.8459 41.7264C61.6525 42.093 61.5559 42.486 61.5559 42.9055V43.5793C61.5559 44.154 61.6613 44.6411 61.8722 45.0408C62.0867 45.4371 62.3837 45.7393 62.7633 45.9474C63.1429 46.1522 63.584 46.2546 64.0867 46.2546C64.4136 46.2546 64.7088 46.2116 64.9725 46.1258C65.2396 46.0366 65.4698 45.9045 65.6632 45.7294C65.8565 45.5511 66.0059 45.3298 66.1113 45.0655L67.3135 45.3826C67.1869 45.7658 66.9743 46.1026 66.6755 46.3933C66.3767 46.6806 66.0076 46.9052 65.5683 47.0671C65.1289 47.2256 64.635 47.3049 64.0867 47.3049Z"
      fill="currentColor"/>
    <path
      d="M67.7926 47.1463L71.0826 43.282L67.8348 39.5366H69.3111L72.0106 42.7866H72.6855V39.5366H73.9298V42.7866H74.5836L77.2831 39.5366H78.7594L75.5326 43.282L78.8016 47.1463H77.3042L74.5625 43.8765H73.9298V47.1463H72.6855V43.8765H72.0528L69.29 47.1463H67.7926Z"
      fill="currentColor"/>
    <path
      d="M81.0074 45.4223L84.9091 39.5366H86.3432V47.1463H85.0989V41.2607L81.2183 47.1463H79.7631V39.5366H81.0074V45.4223Z"
      fill="currentColor"/>
    <path
      d="M88.7336 39.5366L90.6739 42.6479L92.6142 39.5366H94.0483L91.4331 43.3415L94.0483 47.1463H92.6142L90.6739 44.1936L88.7336 47.1463H87.2995L89.8725 43.3415L87.2995 39.5366H88.7336Z"
      fill="currentColor"/>
    <path
      d="M98.3664 50V39.5366H99.5685V40.7454H99.7162C99.8076 40.6133 99.9341 40.4449 100.096 40.2401C100.261 40.032 100.496 39.8471 100.802 39.6852C101.112 39.5201 101.53 39.4375 102.057 39.4375C102.739 39.4375 103.34 39.5977 103.86 39.9181C104.381 40.2384 104.787 40.6926 105.078 41.2805C105.37 41.8684 105.516 42.562 105.516 43.3613C105.516 44.1672 105.37 44.8657 105.078 45.4569C104.787 46.0448 104.382 46.5006 103.866 46.8243C103.349 47.1447 102.753 47.3049 102.078 47.3049C101.558 47.3049 101.141 47.224 100.829 47.0621C100.516 46.897 100.275 46.7104 100.106 46.5023C99.9376 46.2909 99.8076 46.1159 99.7162 45.9771H99.6107V50H98.3664ZM99.5896 43.3415C99.5896 43.9162 99.6793 44.4231 99.8585 44.8624C100.038 45.2984 100.3 45.6402 100.644 45.888C100.989 46.1324 101.41 46.2546 101.91 46.2546C102.43 46.2546 102.864 46.1258 103.212 45.8681C103.563 45.6072 103.827 45.2571 104.003 44.8178C104.182 44.3753 104.272 43.8831 104.272 43.3415C104.272 42.8064 104.184 42.3242 104.008 41.8948C103.836 41.4621 103.574 41.1203 103.222 40.8693C102.874 40.615 102.437 40.4878 101.91 40.4878C101.403 40.4878 100.978 40.6084 100.634 40.8495C100.289 41.0873 100.029 41.4209 99.8532 41.8502C99.6775 42.2763 99.5896 42.7734 99.5896 43.3415Z"
      fill="currentColor"/>
    <path
      d="M109.993 47.3049C109.213 47.3049 108.539 47.143 107.974 46.8194C107.411 46.4924 106.977 46.0366 106.671 45.452C106.369 44.8641 106.218 44.1804 106.218 43.4009C106.218 42.6214 106.369 41.9345 106.671 41.3399C106.977 40.7421 107.402 40.2764 107.947 39.9428C108.496 39.6059 109.135 39.4375 109.866 39.4375C110.288 39.4375 110.705 39.5036 111.116 39.6357C111.527 39.7678 111.902 39.9825 112.239 40.2797C112.576 40.5737 112.845 40.9634 113.046 41.4489C113.246 41.9345 113.346 42.5323 113.346 43.2424V43.7378H107.104V42.7271H112.081C112.081 42.2978 111.989 41.9146 111.807 41.5777C111.627 41.2409 111.371 40.975 111.037 40.7801C110.706 40.5852 110.316 40.4878 109.866 40.4878C109.371 40.4878 108.942 40.6034 108.58 40.8346C108.221 41.0625 107.945 41.3598 107.752 41.7264C107.559 42.093 107.462 42.486 107.462 42.9055V43.5793C107.462 44.154 107.568 44.6411 107.778 45.0408C107.993 45.4371 108.29 45.7393 108.67 45.9474C109.049 46.1522 109.49 46.2546 109.993 46.2546C110.32 46.2546 110.615 46.2116 110.879 46.1258C111.146 46.0366 111.376 45.9045 111.569 45.7294C111.763 45.5511 111.912 45.3298 112.018 45.0655L113.22 45.3826C113.093 45.7658 112.88 46.1026 112.582 46.3933C112.283 46.6806 111.914 46.9052 111.474 47.0671C111.035 47.2256 110.541 47.3049 109.993 47.3049Z"
      fill="currentColor"/>
    <path
      d="M114.422 39.5366H115.667V46.0564H118.725V39.5366H119.969V46.0564H123.027V39.5366H124.271V47.1463H114.422V39.5366Z"
      fill="currentColor"/>
    <path
      d="M129.123 47.3049C128.342 47.3049 127.669 47.143 127.103 46.8194C126.541 46.4924 126.107 46.0366 125.801 45.452C125.499 44.8641 125.348 44.1804 125.348 43.4009C125.348 42.6214 125.499 41.9345 125.801 41.3399C126.107 40.7421 126.532 40.2764 127.077 39.9428C127.625 39.6059 128.265 39.4375 128.996 39.4375C129.418 39.4375 129.835 39.5036 130.246 39.6357C130.657 39.7678 131.031 39.9825 131.369 40.2797C131.706 40.5737 131.975 40.9634 132.176 41.4489C132.376 41.9345 132.476 42.5323 132.476 43.2424V43.7378H126.233V42.7271H131.211C131.211 42.2978 131.119 41.9146 130.937 41.5777C130.757 41.2409 130.501 40.975 130.167 40.7801C129.836 40.5852 129.446 40.4878 128.996 40.4878C128.501 40.4878 128.072 40.6034 127.71 40.8346C127.351 41.0625 127.075 41.3598 126.882 41.7264C126.689 42.093 126.592 42.486 126.592 42.9055V43.5793C126.592 44.154 126.697 44.6411 126.908 45.0408C127.123 45.4371 127.42 45.7393 127.799 45.9474C128.179 46.1522 128.62 46.2546 129.123 46.2546C129.45 46.2546 129.745 46.2116 130.009 46.1258C130.276 46.0366 130.506 45.9045 130.699 45.7294C130.893 45.5511 131.042 45.3298 131.147 45.0655L132.35 45.3826C132.223 45.7658 132.01 46.1026 131.712 46.3933C131.413 46.6806 131.044 46.9052 130.604 47.0671C130.165 47.2256 129.671 47.3049 129.123 47.3049Z"
      fill="currentColor"/>
    <path
      d="M138.972 42.8064V43.8963H134.501V42.8064H138.972ZM134.797 39.5366V47.1463H133.552V39.5366H134.797ZM139.922 39.5366V47.1463H138.677V39.5366H139.922Z"
      fill="currentColor"/>
    <path
      d="M142.622 45.4223L146.523 39.5366H147.957V47.1463H146.713V41.2607L142.833 47.1463H141.377V39.5366H142.622V45.4223Z"
      fill="currentColor"/>
    <path
      d="M150.664 45.4223L154.566 39.5366H156V47.1463H154.756V41.2607L150.875 47.1463H149.42V39.5366H150.664V45.4223ZM153.743 37H154.903C154.903 37.5351 154.706 37.9727 154.313 38.3129C153.919 38.6531 153.385 38.8232 152.71 38.8232C152.046 38.8232 151.517 38.6531 151.123 38.3129C150.733 37.9727 150.538 37.5351 150.538 37H151.698C151.698 37.2576 151.773 37.4839 151.924 37.6787C152.079 37.8736 152.341 37.971 152.71 37.971C153.079 37.971 153.343 37.8736 153.501 37.6787C153.663 37.4839 153.743 37.2576 153.743 37Z"
      fill="currentColor"/>
  </g>
  <defs>
    <clipPath id="clip0">
      <rect width="156.172" height="50.0035" fill="currentColor"/>
    </clipPath>
  </defs>
</svg>
