<svg width="22" height="22" viewBox="0 0 22 22" fill="none" xmlns="http://www.w3.org/2000/svg">
  <path
    d="M8.16152 15.0471L16.1507 7.13579C16.7983 6.49444 16.7983 5.45087 16.1507 4.80953C15.8369 4.49881 15.4198 4.32773 14.9761 4.32773C14.5324 4.32773 14.1153 4.49881 13.8015 4.80953L2.94015 15.5651C1.68662 16.8064 1.68662 18.8262 2.94015 20.0675C3.54744 20.6688 4.3548 21 5.21354 21C6.07228 21 6.8797 20.6688 7.48693 20.0675L18.6032 9.05956C19.504 8.1676 20 6.98171 20 5.72027C20 4.45883 19.504 3.27295 18.6032 2.38099C16.7438 0.539644 13.7183 0.539698 11.8589 2.38099L3.6148 10.5447"
    stroke="currentColor" stroke-width="1.6" stroke-linecap="round" stroke-linejoin="round"/>
</svg>
