<svg width="18" height="18" viewBox="0 0 18 18" fill="none" xmlns="http://www.w3.org/2000/svg">
  <path
    d="M16.7728 1.63647L10.6364 8.18193M10.6364 8.18193V1.63647M10.6364 8.18193H16.7728M12.8587 12.6837C12.0572 12.6837 11.2703 12.5583 10.5245 12.3119C10.1591 12.1873 9.70991 12.3016 9.48689 12.5307L8.01495 13.6418C6.30792 12.7306 5.25642 11.6795 4.35765 9.98524L5.43611 8.55164C5.7163 8.27183 5.8168 7.86308 5.6964 7.47955C5.4489 6.7299 5.32317 5.94332 5.32317 5.1415C5.3232 4.56226 4.85197 4.09102 4.27276 4.09102H1.86868C1.28947 4.09102 0.818237 4.56226 0.818237 5.14146C0.818237 11.7807 6.21952 17.1819 12.8587 17.1819C13.4379 17.1819 13.9091 16.7107 13.9091 16.1315V13.7341C13.9091 13.1549 13.4379 12.6837 12.8587 12.6837Z"
    stroke="currentColor" stroke-width="1.5" stroke-linecap="round" stroke-linejoin="round"/>
</svg>
