<svg width="22" height="22" viewBox="0 0 22 22" fill="none" xmlns="http://www.w3.org/2000/svg">
  <path
    d="M1 7.45C0.558172 7.45 0.2 7.80817 0.2 8.25C0.2 8.69183 0.558172 9.05 1 9.05V7.45ZM10.6154 7.45C10.1736 7.45 9.81538 7.80817 9.81538 8.25C9.81538 8.69183 10.1736 9.05 10.6154 9.05V7.45ZM21 9.05C21.4418 9.05 21.8 8.69183 21.8 8.25C21.8 7.80817 21.4418 7.45 21 7.45V9.05ZM21 16.55C21.4418 16.55 21.8 16.1918 21.8 15.75C21.8 15.3082 21.4418 14.95 21 14.95V16.55ZM16.7692 14.95C16.3274 14.95 15.9692 15.3082 15.9692 15.75C15.9692 16.1918 16.3274 16.55 16.7692 16.55V14.95ZM11.3846 16.55C11.8264 16.55 12.1846 16.1918 12.1846 15.75C12.1846 15.3082 11.8264 14.95 11.3846 14.95V16.55ZM1 14.95C0.558172 14.95 0.2 15.3082 0.2 15.75C0.2 16.1918 0.558172 16.55 1 16.55L1 14.95ZM1 9.05H5.61538V7.45H1V9.05ZM10.6154 9.05H21V7.45H10.6154V9.05ZM21 14.95L16.7692 14.95V16.55L21 16.55V14.95ZM11.3846 14.95H1L1 16.55L11.3846 16.55V14.95ZM9.43077 8.25C9.43077 9.03184 8.77497 9.7 7.92308 9.7V11.3C9.62019 11.3 11.0308 9.95344 11.0308 8.25H9.43077ZM7.92308 9.7C7.07119 9.7 6.41538 9.03184 6.41538 8.25H4.81538C4.81538 9.95344 6.22596 11.3 7.92308 11.3V9.7ZM6.41538 8.25C6.41538 7.46816 7.07119 6.8 7.92308 6.8V5.2C6.22596 5.2 4.81538 6.54656 4.81538 8.25H6.41538ZM7.92308 6.8C8.77497 6.8 9.43077 7.46816 9.43077 8.25H11.0308C11.0308 6.54656 9.62019 5.2 7.92308 5.2V6.8ZM12.5692 15.75C12.5692 14.9682 13.225 14.3 14.0769 14.3V12.7C12.3798 12.7 10.9692 14.0466 10.9692 15.75H12.5692ZM14.0769 14.3C14.9288 14.3 15.5846 14.9682 15.5846 15.75H17.1846C17.1846 14.0466 15.774 12.7 14.0769 12.7V14.3ZM15.5846 15.75C15.5846 16.5318 14.9288 17.2 14.0769 17.2V18.8C15.774 18.8 17.1846 17.4534 17.1846 15.75H15.5846ZM14.0769 17.2C13.225 17.2 12.5692 16.5318 12.5692 15.75H10.9692C10.9692 17.4534 12.3798 18.8 14.0769 18.8V17.2Z"
    fill="currentColor"/>
</svg>
