<svg width="18" height="18" viewBox="0 0 18 18" fill="none" xmlns="http://www.w3.org/2000/svg">
  <path d="M9.40882 0.818115C5.98999 0.818115 3.27246 3.4813 3.27246 6.83175C3.27246 9.91253 6.19087 14.0556 8.00243 16.3306C8.73366 17.2489 10.084 17.2489 10.8152 16.3306C12.6268 14.0556 15.5452 9.91253 15.5452 6.83175C15.5452 3.4813 12.8277 0.818115 9.40882 0.818115Z" stroke="currentColor" stroke-width="1.3" stroke-linecap="round"/>
  <path d="M10.1362 6.95457C10.1362 7.35623 9.81057 7.68184 9.40891 7.68184C9.00725 7.68184 8.68164 7.35623 8.68164 6.95457C8.68164 6.55291 9.00725 6.22729 9.40891 6.22729C9.81057 6.22729 10.1362 6.55291 10.1362 6.95457Z" stroke="currentColor"/>
</svg>
