<svg width="18" height="18" viewBox="0 0 18 18" fill="none" xmlns="http://www.w3.org/2000/svg">
  <path
    d="M15.8689 11.559C14.8671 11.559 13.8834 11.4023 12.9512 11.0942C12.4945 10.9384 11.9329 11.0814 11.6542 11.3677L9.81425 12.7566C7.68046 11.6176 6.36609 10.3037 5.24262 8.18589L6.5907 6.3939C6.94094 6.04412 7.06657 5.53319 6.91606 5.05378C6.60668 4.11671 6.44952 3.13348 6.44952 2.13121C6.44957 1.40716 5.86052 0.818115 5.13652 0.818115H2.13141C1.40741 0.818115 0.818359 1.40716 0.818359 2.13117C0.818359 10.4302 7.56996 17.1818 15.8689 17.1818C16.5929 17.1818 17.182 16.5927 17.182 15.8687V12.872C17.182 12.148 16.5929 11.559 15.8689 11.559Z"
    stroke="currentColor" stroke-width="1.2"/>
</svg>
