<svg width="31" height="13" viewBox="0 0 31 13" fill="none" xmlns="http://www.w3.org/2000/svg">
  <path
    d="M0.778412 12.3682V0.731812H5.03978C5.86553 0.731812 6.54925 0.868175 7.09091 1.1409C7.63258 1.40984 8.03788 1.77537 8.30682 2.23749C8.57576 2.69583 8.71023 3.21287 8.71023 3.78863C8.71023 4.27348 8.62122 4.68257 8.44318 5.0159C8.26515 5.34545 8.02652 5.6106 7.72728 5.81136C7.43182 6.00833 7.10606 6.15227 6.75 6.24318V6.35681C7.13637 6.37575 7.51326 6.50075 7.88068 6.73181C8.2519 6.95908 8.55872 7.28295 8.80114 7.7034C9.04356 8.12386 9.16478 8.63522 9.16478 9.23749C9.16478 9.83219 9.02462 10.3663 8.74432 10.8398C8.46781 11.3095 8.03978 11.6826 7.46023 11.9591C6.88068 12.2318 6.14015 12.3682 5.23864 12.3682H0.778412ZM2.53409 10.8625H5.06818C5.90909 10.8625 6.51137 10.6996 6.875 10.3739C7.23864 10.0481 7.42046 9.6409 7.42046 9.15227C7.42046 8.78484 7.32765 8.44772 7.14205 8.1409C6.95644 7.83408 6.69129 7.58977 6.34659 7.40795C6.00568 7.22613 5.60038 7.13522 5.13068 7.13522H2.53409V10.8625ZM2.53409 5.7659H4.88637C5.28031 5.7659 5.63447 5.69014 5.94887 5.53863C6.26705 5.38711 6.51894 5.17499 6.70455 4.90227C6.89394 4.62575 6.98864 4.29999 6.98864 3.92499C6.98864 3.44393 6.82008 3.04052 6.48296 2.71477C6.14584 2.38901 5.62879 2.22613 4.93182 2.22613H2.53409V5.7659Z"
    fill="currentColor"/>
  <path
    d="M9.70943 0.731812H11.7038L14.7435 6.02158H14.8685L17.9083 0.731812H19.9026L15.681 7.79999V12.3682H13.931V7.79999L9.70943 0.731812Z"
    fill="currentColor"/>
  <path
    d="M30.3123 0.731812V12.3682H28.6987L22.7839 3.83408H22.676V12.3682H20.9203V0.731812H22.5453L28.4657 9.27727H28.5737V0.731812H30.3123Z"
    fill="currentColor"/>
</svg>
