<svg width="22" height="22" viewBox="0 0 22 22" fill="none" xmlns="http://www.w3.org/2000/svg">
  <path
    d="M14.1893 8.8093L13.5501 10.1765H2L2.52379 8.8093H14.1893ZM12.5558 12.5025L11.9165 13.8697H2L2.52379 12.5025H12.5558ZM16.3821 3.90874L15.734 5.31143C15.3493 4.94448 14.938 4.6308 14.5 4.37038C14.062 4.10997 13.6004 3.9117 13.1151 3.77557C12.6297 3.63352 12.1207 3.5625 11.5881 3.5625C10.4695 3.5625 9.46922 3.87322 8.58736 4.49467C7.70549 5.1102 7.01006 6.00095 6.50107 7.1669C5.99207 8.32694 5.73757 9.7178 5.73757 11.3395C5.73757 12.9612 5.99207 14.355 6.50107 15.521C7.01006 16.681 7.70549 17.5717 8.58736 18.1932C9.46922 18.8087 10.4695 19.1165 11.5881 19.1165C12.1267 19.1165 12.6357 19.0484 13.1151 18.9123C13.6004 18.7702 14.0561 18.5749 14.4822 18.3264C14.9084 18.0719 15.302 17.7789 15.663 17.4474L16.3377 18.8679C15.7163 19.4598 14.9972 19.9096 14.1804 20.2173C13.3636 20.5251 12.4995 20.679 11.5881 20.679C10.1321 20.679 8.84186 20.2943 7.71733 19.5249C6.59872 18.7554 5.71982 17.6723 5.08061 16.2756C4.44732 14.8729 4.13068 13.2275 4.13068 11.3395C4.13068 9.45147 4.44732 7.80907 5.08061 6.41229C5.71982 5.00959 6.59872 3.92353 7.71733 3.15412C8.84186 2.38471 10.1321 2 11.5881 2C12.5291 2 13.4051 2.16572 14.2159 2.49716C15.0268 2.8286 15.7488 3.29912 16.3821 3.90874Z"
    fill="currentColor"/>
</svg>
