<svg width="30" height="17" viewBox="0 0 30 17" fill="none" xmlns="http://www.w3.org/2000/svg">
  <path
    d="M0.938232 13.3096V0.218658H5.60443C6.62289 0.218658 7.46664 0.404028 8.13568 0.774766C8.80471 1.1455 9.30542 1.65261 9.63781 2.29607C9.97019 2.93528 10.1364 3.65545 10.1364 4.45658C10.1364 5.26198 9.96806 5.98641 9.63141 6.62988C9.29903 7.26908 8.79619 7.77619 8.12289 8.15119C7.45386 8.52193 6.61224 8.7073 5.59803 8.7073H2.38923V7.03258H5.41906C6.06252 7.03258 6.58454 6.92178 6.98511 6.70019C7.38568 6.47434 7.67971 6.16752 7.86721 5.77974C8.05471 5.39195 8.14846 4.9509 8.14846 4.45658C8.14846 3.96227 8.05471 3.52335 7.86721 3.13982C7.67971 2.7563 7.38354 2.45587 6.97872 2.23855C6.57815 2.02122 6.04974 1.91255 5.39349 1.91255H2.91337V13.3096H0.938232Z"
    fill="currentColor"/>
  <path
    d="M14.3478 13.5269C13.7257 13.5269 13.1632 13.4118 12.6603 13.1817C12.1575 12.9474 11.7591 12.6086 11.465 12.1654C11.1753 11.7222 11.0304 11.1789 11.0304 10.5354C11.0304 9.98144 11.1369 9.52548 11.35 9.16752C11.563 8.80957 11.8507 8.52619 12.2129 8.31738C12.5751 8.10857 12.98 7.9509 13.4274 7.84437C13.8748 7.73783 14.3308 7.65687 14.7953 7.60147C15.3834 7.53329 15.8606 7.47789 16.2271 7.43528C16.5936 7.3884 16.8599 7.31383 17.0261 7.21156C17.1923 7.10928 17.2754 6.94309 17.2754 6.71298V6.66823C17.2754 6.10999 17.1177 5.67747 16.8024 5.37065C16.4913 5.06383 16.0268 4.91042 15.4089 4.91042C14.7655 4.91042 14.2584 5.05318 13.8876 5.33869C13.5211 5.61994 13.2676 5.93315 13.127 6.27832L11.3308 5.86923C11.5439 5.27264 11.855 4.7911 12.264 4.42462C12.6774 4.05389 13.1525 3.78542 13.6895 3.61923C14.2264 3.44877 14.791 3.36355 15.3834 3.36355C15.7754 3.36355 16.1909 3.41042 16.6298 3.50417C17.073 3.59366 17.4863 3.75985 17.8699 4.00275C18.2577 4.24565 18.5751 4.59295 18.8223 5.04465C19.0694 5.4921 19.193 6.07377 19.193 6.78968V13.3096H17.3265V11.9672H17.2498C17.1263 12.2144 16.9409 12.4573 16.6937 12.6959C16.4466 12.9346 16.1291 13.1327 15.7413 13.2904C15.3535 13.4481 14.889 13.5269 14.3478 13.5269ZM14.7633 11.9928C15.2917 11.9928 15.7434 11.8884 16.1184 11.6796C16.4977 11.4708 16.7853 11.1981 16.9814 10.8614C17.1817 10.5205 17.2818 10.1562 17.2818 9.76837V8.50275C17.2136 8.57093 17.0815 8.63485 16.8855 8.69451C16.6937 8.74991 16.4743 8.79891 16.2271 8.84153C15.98 8.87988 15.7392 8.9161 15.5048 8.95019C15.2704 8.98002 15.0744 9.00559 14.9167 9.0269C14.546 9.07377 14.2072 9.15261 13.9004 9.2634C13.5978 9.3742 13.355 9.534 13.1717 9.74281C12.9927 9.94735 12.9032 10.2201 12.9032 10.561C12.9032 11.034 13.078 11.392 13.4274 11.6349C13.7768 11.8735 14.2221 11.9928 14.7633 11.9928Z"
    fill="currentColor"/>
  <path
    d="M21.8752 16.9658C21.5897 16.9658 21.3297 16.9424 21.0954 16.8955C20.861 16.8529 20.6863 16.806 20.5712 16.7549L21.0314 15.1888C21.5556 15.3337 21.9945 15.3444 22.3482 15.2208C22.7062 15.1015 23.0066 14.7243 23.2495 14.0894L23.486 13.4374L19.8937 3.49139H21.9391L24.4256 11.1107H24.5279L27.0144 3.49139L29.079 3.51056L25.0201 14.6199C24.8326 15.127 24.5939 15.5553 24.3042 15.9047C24.0144 16.2542 23.6692 16.5184 23.2687 16.6974C22.8681 16.8763 22.4036 16.9658 21.8752 16.9658Z"
    fill="currentColor"/>
</svg>
