<svg width="22" height="22" viewBox="0 0 22 22" fill="none" xmlns="http://www.w3.org/2000/svg">
  <path
    d="M12.6825 13.7333H4V12.2418H12.6825C13.5585 12.2418 14.2983 12.0761 14.902 11.7447C15.5057 11.4132 15.9644 10.9575 16.2781 10.3775C16.5917 9.79155 16.7486 9.12275 16.7486 8.37109C16.7486 7.61944 16.5917 6.9536 16.2781 6.37358C15.9644 5.78764 15.5057 5.32895 14.902 4.99751C14.2983 4.66016 13.5585 4.49148 12.6825 4.49148H8.33239V21.1818H6.67223V3H12.6825C13.9254 3 14.9671 3.2397 15.8075 3.7191C16.6539 4.19851 17.2931 4.84363 17.7251 5.65448C18.1631 6.46532 18.3821 7.37086 18.3821 8.37109C18.3821 9.37133 18.1631 10.2769 17.7251 11.0877C17.2931 11.8986 16.6539 12.5437 15.8075 13.0231C14.9671 13.4966 13.9254 13.7333 12.6825 13.7333ZM12.6115 15.4023V16.8938H4V15.4023H12.6115Z"
    fill="currentColor"/>
</svg>
