<svg width="22" height="23" viewBox="0 0 22 23" fill="none" xmlns="http://www.w3.org/2000/svg">
  <path
    d="M10.6996 22.7273V0H11.8626V22.7273H10.6996ZM15.6978 6.81818C15.5972 5.80611 15.1503 5.00118 14.3572 4.40341C13.5642 3.80564 12.5669 3.50675 11.3654 3.50675C10.5191 3.50675 9.77332 3.65175 9.1282 3.94176C8.48899 4.23177 7.98591 4.63423 7.61896 5.14915C7.25793 5.65815 7.07741 6.23816 7.07741 6.88921C7.07741 7.36861 7.18099 7.78883 7.38814 8.14986C7.59529 8.51089 7.87346 8.82162 8.22266 9.08203C8.57777 9.33653 8.96839 9.55552 9.39453 9.73899C9.82659 9.92247 10.2616 10.0764 10.6996 10.2006L12.6172 10.7511C13.1972 10.9109 13.7772 11.1151 14.3572 11.3636C14.9373 11.6122 15.467 11.9259 15.9464 12.3047C16.4317 12.6776 16.8194 13.1362 17.1094 13.6808C17.4053 14.2193 17.5533 14.8674 17.5533 15.625C17.5533 16.5956 17.3017 17.4686 16.7987 18.244C16.2956 19.0193 15.5735 19.6348 14.6325 20.0906C13.6914 20.5404 12.5639 20.7653 11.25 20.7653C10.013 20.7653 8.9388 20.5611 8.02734 20.1527C7.11589 19.7384 6.39974 19.1673 5.87891 18.4393C5.35807 17.7113 5.0651 16.8679 5 15.9091H6.70455C6.76373 16.6252 7.00047 17.2319 7.41477 17.729C7.82907 18.2262 8.36766 18.605 9.03054 18.8654C9.69342 19.1199 10.4332 19.2472 11.25 19.2472C12.1555 19.2472 12.9605 19.0962 13.6648 18.7944C14.375 18.4866 14.9313 18.0605 15.3338 17.516C15.7422 16.9656 15.9464 16.3263 15.9464 15.5984C15.9464 14.9828 15.7866 14.4679 15.467 14.0536C15.1474 13.6334 14.7005 13.2813 14.1264 12.9972C13.5582 12.7131 12.8983 12.4615 12.1467 12.2425L9.97159 11.6033C8.54522 11.1772 7.43845 10.5883 6.65128 9.83665C5.86411 9.08499 5.47053 8.12618 5.47053 6.96023C5.47053 5.98367 5.73094 5.12547 6.25178 4.38565C6.77853 3.63992 7.48875 3.0599 8.38246 2.6456C9.28208 2.22538 10.2912 2.01527 11.4098 2.01527C12.5402 2.01527 13.5405 2.22242 14.4105 2.63672C15.2805 3.05102 15.9701 3.62216 16.479 4.35014C16.994 5.07221 17.2692 5.89489 17.3047 6.81818H15.6978Z"
    fill="currentColor"/>
</svg>
