<svg width="149" height="47" viewBox="0 0 149 47" fill="none" xmlns="http://www.w3.org/2000/svg">
<path d="M16.5088 5.6763C18.7481 4.25044 21.4513 3.41373 24.3658 3.41373C31.1925 3.41373 36.8824 7.98115 38.1175 14.0379C38.1175 14.0379 38.0844 15.1655 36.2438 14.3817C36.2066 14.3672 16.5088 5.6763 16.5088 5.6763ZM10.3975 17.2679C10.3859 17.0631 10.5692 16.7499 10.9581 16.7499C11.053 16.7499 11.1601 16.7683 11.2788 16.8111C15.1438 18.1875 34.0156 24.9674 34.0325 24.9819C34.639 25.22 35.0663 24.9379 35.0663 24.9379C32.4952 27.7807 28.6651 29.5855 24.3658 29.5855C16.9128 29.5855 10.8271 24.1446 10.3975 17.2679Z" fill="#1B74FD"/>
<path fill-rule="evenodd" clip-rule="evenodd" d="M34.8151 22.5477C34.7126 22.5206 8.82401 12.0595 8.59058 11.9619C7.66732 11.6059 7.06597 12.4387 7.65917 13.2101C7.73775 13.3043 9.76998 15.8486 9.76998 15.8486C9.76998 15.8486 9.33221 15.1162 9.30194 14.7997C9.26585 14.4741 9.48007 14.1265 10.1536 14.3928C10.8242 14.6659 33.9343 23.7084 33.9972 23.7383C34.7126 23.9804 35.3628 23.9601 35.6621 23.5617C36.1289 22.9179 36.5062 22.3096 36.8519 21.5868C36.6214 21.9518 35.8786 22.9427 34.8151 22.5477ZM38.0308 14.5644C37.9993 14.8933 37.7653 16.3548 36.0864 15.5857C35.7942 15.4486 1.99385 0.298351 1.52582 0.0833625C0.882563 -0.213446 -0.525615 0.277473 0.204962 1.63399C0.221843 1.67236 2.91304 5.82768 2.88335 5.76505C2.84086 5.70467 2.44326 4.77023 2.2628 3.91987C2.1749 3.57792 2.49216 3.25741 2.98581 3.47071C3.04344 3.4882 35.9223 17.4636 36.1627 17.5663C36.8659 17.8896 38.0308 17.7322 38.0989 16.8643C38.1076 16.5941 38.1157 16.3328 38.1157 16.0529C38.1157 15.5569 38.0948 15.0564 38.0308 14.5644ZM35.7488 19.5446C35.676 19.5181 5.45347 6.34682 5.12689 6.20631C4.29561 5.83897 3.10107 6.63798 3.75364 7.61361C3.86308 7.76823 6.23411 11.0811 6.23411 11.0811C6.23411 11.0811 5.53613 9.97398 5.61064 9.45033C5.64848 9.08129 6.01872 8.9216 6.28941 9.03672C6.55195 9.12869 34.9949 20.9486 35.144 21.0202C36.1732 21.4508 37.0277 21.1438 37.3572 20.4181C37.5732 19.8025 37.7496 19.1598 37.8817 18.5092C37.7496 18.8325 37.143 20.0717 35.7488 19.5446Z" fill="#EE3224"/>
<path d="M127.132 11.379H132.83V12.3467C132.352 12.4234 132.019 12.6753 131.814 13.0967C131.679 13.3779 131.605 14.2196 131.605 15.6195V25.3552C131.605 26.7471 131.679 27.582 131.814 27.8694C132.019 28.2983 132.352 28.5342 132.83 28.6132V29.5854H127.132V28.6132C127.565 28.5221 127.849 28.2983 128.01 27.9324C128.161 27.5705 128.235 26.7088 128.235 25.3552V20.9629H124.696V25.3552C124.696 26.7088 124.777 27.5705 124.94 27.9324C125.099 28.2983 125.381 28.5221 125.805 28.6132V29.5854H120.125V28.6132C120.599 28.5342 120.926 28.2983 121.141 27.8694C121.273 27.582 121.334 26.7471 121.334 25.3552V15.6195C121.334 14.2196 121.273 13.3779 121.141 13.0967C120.926 12.6753 120.599 12.4234 120.125 12.3467V11.379H125.805V12.3467C125.381 12.4463 125.099 12.6753 124.94 13.0343C124.777 13.4008 124.696 14.2516 124.696 15.6195V19.7324H128.235V15.6195C128.235 14.2516 128.161 13.4008 128.01 13.0343C127.849 12.6753 127.565 12.4463 127.132 12.3467V11.379Z" fill="#1B74FD"/>
<path d="M61.2745 3.41373H68.1459V4.39252H67.5929C67.1021 4.39252 66.6932 4.52951 66.3974 4.80064C66.1906 4.99503 66.0196 5.29288 65.8966 5.70554C65.8087 6.02101 65.7572 6.82246 65.7572 8.12525V24.8347C65.7572 26.1779 65.8087 27.0106 65.8966 27.3482C65.9892 27.6762 66.1801 27.9763 66.4542 28.2247C66.7418 28.4788 67.1167 28.5993 67.5929 28.5993H68.1459V29.5855H59.3234V28.5993H59.8693C60.3748 28.5993 60.7602 28.4663 61.0777 28.202C61.2745 28.0127 61.452 27.7103 61.5668 27.259C61.6576 26.9623 61.6992 26.1466 61.6992 24.8347V7.63585L55.7363 29.5855H54.9304L48.7467 7.2698L48.7432 24.0469C48.7432 25.3332 48.7578 26.1295 48.7977 26.4211C48.9154 27.0555 49.1444 27.5892 49.5117 27.9939C49.8614 28.4026 50.4313 28.5993 51.2144 28.5993V29.5855H45.0454V28.5993H45.2147C45.5913 28.6112 45.9451 28.5151 46.2597 28.3162C46.5906 28.1235 46.8378 27.8609 46.9936 27.5255C47.1699 27.1873 47.2941 26.7065 47.389 26.1096C47.4024 25.9715 47.4124 25.3201 47.4124 24.1441V8.12525C47.4124 6.80086 47.3702 5.96758 47.2753 5.6379C47.1851 5.30823 46.9936 5.02857 46.7171 4.77165C46.4266 4.52042 46.0558 4.39252 45.5825 4.39252H45.0454V3.41373H51.9384L56.6858 20.6649L61.2745 3.41373Z" fill="#1B74FD"/>
<path d="M135.14 3.41373H139.978V20.3648C139.978 20.3648 143.647 14.9615 143.81 14.7063C144.265 13.977 144.484 12.5207 142.645 12.5207V11.5425H147.967V12.5207C147.463 12.5566 147.018 12.743 146.636 13.0783C145.663 13.7894 143.098 17.6927 143.098 17.6927L145.897 23.9076C147.032 26.4223 147.699 27.571 147.906 27.8819C148.192 28.3247 148.561 28.5697 149 28.626V29.5855H142.856V28.626C143.131 28.626 143.333 28.5419 143.453 28.3833C143.567 28.2292 143.634 28.0695 143.634 27.8819C143.634 27.5892 143.459 27.0458 143.098 26.2438L140.756 21.2805L139.978 22.4247V25.3997C139.978 27.3994 140.064 27.6324 140.242 27.9763C140.406 28.3077 140.756 28.5299 141.282 28.626V29.5855H135.14V28.626C135.643 28.5419 136 28.3054 136.207 27.8819C136.352 27.5966 136.427 26.7753 136.427 25.3997V7.59777C136.427 6.23473 136.344 5.38894 136.174 5.05642C136.015 4.72675 135.671 4.49995 135.14 4.39252V3.41373Z" fill="#1B74FD"/>
<path d="M87.7822 3.41373H102.128V10.4985H101.069C100.872 8.56941 100.979 7.08028 100.228 6.05096C99.6997 5.28878 98.8435 4.91763 97.6809 4.91763H94.2941H94.2627V11.2277C97.2211 11.1976 100.508 11.5028 102.412 13.8547C104.599 16.5272 104.372 24.6901 102.271 27.2449C100.979 28.7977 99.0985 29.5855 96.6271 29.5855H87.7822V28.5976C88.5967 28.5976 89.1297 28.4913 89.427 28.2555C89.7079 28.0395 89.9128 27.7422 90.0197 27.3734C90.143 27.0198 90.1968 26.1349 90.1968 24.7179V8.00502C90.1968 6.59717 90.143 5.96741 90.0197 5.60309C89.9128 5.23478 89.7079 4.94889 89.4203 4.72666C89.1267 4.50613 88.581 4.39246 87.7822 4.39246V3.41373ZM94.592 27.6274C94.8289 27.9787 95.1842 28.1543 95.6458 28.1543C96.331 28.1543 96.9588 27.9275 97.5395 27.466C98.1178 27.0124 98.5565 26.3457 98.8676 25.4841C99.7226 23.0998 99.7075 17.7452 98.7691 15.3296C98.3921 14.3628 97.8658 13.6864 97.2132 13.2931C96.5492 12.9078 95.5612 12.7333 94.2627 12.7424V25.0834L94.2537 26.0564C94.2537 26.7419 94.3576 27.2659 94.592 27.6274Z" fill="#1B74FD"/>
<path d="M109.339 12.0654C110.194 11.6033 111.07 11.379 111.983 11.379C114.509 11.3878 115.553 13.2343 115.872 14.9202C115.99 15.4716 116.059 16.755 116.059 18.7557V25.5611C116.059 26.4134 116.071 26.9538 116.11 27.1693C116.16 27.3744 116.214 27.5502 116.308 27.6437C116.387 27.7593 116.884 27.8376 117.109 27.3644L117.815 28.0298C117.397 29.0088 117.005 29.6742 116.565 30.1029C116.122 30.5381 115.391 30.7233 114.814 30.7233C114.151 30.7233 113.636 30.4721 113.252 29.9803C112.873 29.489 112.639 28.7448 112.557 27.7365C112.039 29.5147 111.044 30.6976 109.244 30.7046C107.44 30.714 106.265 28.9083 106.265 26.8031C106.265 25.3871 106.783 24.3928 107.552 23.2619C108.316 22.1304 109.988 20.6221 112.557 18.7557V16.8812C112.557 15.4885 112.515 14.6059 112.415 14.2361C112.226 13.5637 111.947 12.8733 110.98 12.8733C110.437 12.8733 109.988 13.0754 109.628 13.4522C108.434 14.9464 109.73 15.9015 110.005 16.3928C110.184 16.7269 110.276 16.9898 110.276 17.3397C110.276 18.3188 109.478 19.1132 108.488 19.1132C107.499 19.1132 106.523 18.4853 106.578 16.908C106.673 15.6509 106.883 14.9295 107.353 14.0632C107.824 13.1957 108.488 12.5345 109.339 12.0654ZM109.875 23.8478C108.899 25.9128 109.864 27.1652 110.985 27.1652C111.544 27.1652 112.143 26.8521 112.557 26.1716V20.0823C111.554 21.0269 110.363 22.7852 109.875 23.8478Z" fill="#1B74FD"/>
<path d="M70.4569 3.41373H85.4722V10.4989H84.4519C84.2582 8.56975 84.3699 7.08052 83.6451 6.05114C83.1379 5.2889 82.3066 4.91773 81.1869 4.91773H79.9729V15.2343V24.8347C79.9729 26.1779 80.0299 27.0106 80.1107 27.3482C80.216 27.6762 80.4021 27.9763 80.6715 28.2247C80.9495 28.4788 81.3247 28.5993 81.8093 28.5993H82.363V29.5855H73.587V28.5993H74.1367C74.6265 28.5993 75.0145 28.4663 75.3141 28.198C75.5293 28.0127 75.6997 27.7103 75.8178 27.259C75.9097 26.9623 75.9609 26.1466 75.9609 24.8347V4.91773H74.7469C73.6202 4.91773 72.7918 5.2889 72.2846 6.05114C71.5621 7.08052 71.6622 8.56975 71.4731 10.4989H70.4569V3.41373Z" fill="#1B74FD"/>
<path d="M10.4948 44.3145V34.7776H16.7124V35.8021H11.7424V38.7823H14.3582C15.096 38.7823 15.718 38.8941 16.2244 39.1176C16.7342 39.3411 17.1198 39.6562 17.3814 40.0629C17.6464 40.4696 17.7788 40.9493 17.7788 41.5018C17.7788 42.0544 17.6464 42.5418 17.3814 42.964C17.1198 43.3863 16.7342 43.7169 16.2244 43.9559C15.718 44.195 15.096 44.3145 14.3582 44.3145H10.4948ZM11.7424 43.3086H14.3582C14.8277 43.3086 15.2251 43.2217 15.5504 43.0479C15.879 42.8709 16.1272 42.6443 16.2949 42.368C16.4659 42.0886 16.5514 41.7937 16.5514 41.4832C16.5514 41.0269 16.3619 40.6341 15.983 40.3051C15.604 39.9729 15.0624 39.8068 14.3582 39.8068H11.7424V43.3086Z" fill="#1B74FD"/>
<path d="M21.1661 44.4821C20.6765 44.4821 20.2322 44.3968 19.8331 44.226C19.434 44.0522 19.1171 43.8022 18.8823 43.4763C18.6476 43.1472 18.5302 42.7498 18.5302 42.2842C18.5302 41.8744 18.6174 41.5422 18.7918 41.2876C18.9662 41.03 19.1993 40.8282 19.491 40.6823C19.7828 40.5364 20.1047 40.4277 20.4568 40.3563C20.8123 40.2818 21.1695 40.2228 21.5283 40.1793C21.9978 40.1235 22.3785 40.0816 22.6702 40.0536C22.9653 40.0226 23.18 39.9713 23.3141 39.8999C23.4516 39.8285 23.5203 39.7044 23.5203 39.5274V39.4902C23.5203 39.0307 23.3845 38.6737 23.1129 38.4191C22.8446 38.1646 22.4371 38.0373 21.8905 38.0373C21.3237 38.0373 20.8794 38.1521 20.5575 38.3819C20.2355 38.6116 20.0091 38.8568 19.8784 39.1176L18.7515 38.7451C18.9528 38.3105 19.2211 37.9721 19.5564 37.7299C19.8951 37.4847 20.264 37.3139 20.6631 37.2177C21.0655 37.1183 21.4612 37.0687 21.8503 37.0687C22.0984 37.0687 22.3835 37.0966 22.7054 37.1525C23.0307 37.2053 23.3443 37.3155 23.6461 37.4831C23.9513 37.6508 24.2045 37.9038 24.4057 38.2422C24.6069 38.5805 24.7075 39.0338 24.7075 39.6019V44.3145H23.5203V43.3459H23.46C23.3795 43.5011 23.2454 43.6672 23.0576 43.8442C22.8698 44.0211 22.6199 44.1717 22.308 44.2959C21.9961 44.42 21.6155 44.4821 21.1661 44.4821ZM21.3472 43.4949C21.8167 43.4949 22.2124 43.4095 22.5344 43.2388C22.8597 43.068 23.1045 42.8476 23.2688 42.5775C23.4365 42.3075 23.5203 42.0234 23.5203 41.7254V40.7195C23.47 40.7754 23.3594 40.8266 23.1883 40.8732C23.0207 40.9167 22.8262 40.9555 22.6048 40.9896C22.3868 41.0207 22.1739 41.0486 21.966 41.0734C21.7614 41.0952 21.5954 41.1138 21.468 41.1293C21.1594 41.1666 20.871 41.2271 20.6027 41.3109C20.3378 41.3916 20.1232 41.5143 19.9588 41.6788C19.7979 41.8402 19.7174 42.0606 19.7174 42.34C19.7174 42.7219 19.87 43.0106 20.1751 43.2062C20.4837 43.3987 20.8744 43.4949 21.3472 43.4949Z" fill="#1B74FD"/>
<path d="M31.2665 40.2352V41.2597H27.0007V40.2352H31.2665ZM27.2824 37.1618V44.3145H26.0952V37.1618H27.2824ZM32.1719 37.1618V44.3145H30.9848V37.1618H32.1719Z" fill="#1B74FD"/>
<path d="M33.5609 44.3145V37.1618H34.7481V40.2725H35.5328L38.3096 37.1618H39.8388L36.72 40.6078L39.8791 44.3145H38.3498L35.8145 41.297H34.7481V44.3145H33.5609Z" fill="#1B74FD"/>
<path d="M46.7342 44.4635C46.0098 44.4635 45.386 44.3052 44.8629 43.9885C44.3397 43.6719 43.9373 43.2357 43.6556 42.68C43.3739 42.1243 43.233 41.4894 43.233 40.7754C43.233 40.049 43.3772 39.4079 43.6656 38.8522C43.9574 38.2934 44.3632 37.8572 44.883 37.5437C45.4062 37.227 46.0165 37.0687 46.714 37.0687C47.2573 37.0687 47.747 37.1618 48.1829 37.3481C48.6189 37.5343 48.976 37.7951 49.2544 38.1304C49.5327 38.4657 49.7054 38.8568 49.7725 39.3039H48.5854C48.4948 38.9779 48.2936 38.6892 47.9817 38.4377C47.6732 38.1832 47.2573 38.0559 46.7342 38.0559C46.2714 38.0559 45.8656 38.1677 45.5168 38.3912C45.1714 38.6116 44.9014 38.9236 44.7069 39.3272C44.5158 39.7276 44.4202 40.198 44.4202 40.7381C44.4202 41.2907 44.5141 41.7719 44.7019 42.1817C44.8931 42.5915 45.1613 42.9097 45.5068 43.1363C45.8555 43.363 46.2647 43.4763 46.7342 43.4763C47.0427 43.4763 47.3227 43.4266 47.5742 43.3273C47.8258 43.2279 48.0387 43.0851 48.2131 42.8989C48.3875 42.7126 48.5116 42.4891 48.5854 42.2283H49.7725C49.7054 42.6505 49.5394 43.0308 49.2745 43.3692C49.0129 43.7045 48.6658 43.9714 48.2332 44.1701C47.804 44.3657 47.3043 44.4635 46.7342 44.4635Z" fill="#1B74FD"/>
<path d="M50.7289 44.3145V37.1618H53.888C54.7197 37.1618 55.3803 37.3357 55.8699 37.6834C56.3596 38.0311 56.6044 38.4905 56.6044 39.0617C56.6044 39.4964 56.4652 39.8332 56.1869 40.0722C55.9085 40.3082 55.5513 40.4681 55.1154 40.5519C55.4004 40.5891 55.6771 40.6823 55.9454 40.8313C56.217 40.9803 56.4417 41.1852 56.6195 41.446C56.7972 41.7036 56.8861 42.0203 56.8861 42.3959C56.8861 42.7623 56.7855 43.0898 56.5842 43.3785C56.383 43.6672 56.0946 43.8954 55.719 44.063C55.3434 44.2307 54.894 44.3145 54.3709 44.3145H50.7289ZM51.8557 43.3086H54.3709C54.78 43.3086 55.1003 43.2186 55.3317 43.0386C55.5631 42.8585 55.6788 42.6132 55.6788 42.3028C55.6788 41.9334 55.5631 41.6431 55.3317 41.432C55.1003 41.2178 54.78 41.1107 54.3709 41.1107H51.8557V43.3086ZM51.8557 40.1607H53.888C54.2066 40.1607 54.4799 40.1204 54.7079 40.0396C54.936 39.9558 55.1103 39.8379 55.2311 39.6857C55.3552 39.5305 55.4172 39.3474 55.4172 39.1362C55.4172 38.8351 55.2814 38.5992 55.0097 38.4284C54.7381 38.2546 54.3642 38.1677 53.888 38.1677H51.8557V40.1607Z" fill="#1B74FD"/>
<path d="M61.1436 44.4635C60.3991 44.4635 59.7569 44.3114 59.217 44.0071C58.6804 43.6998 58.2663 43.2714 57.9745 42.7219C57.6861 42.1693 57.5419 41.5267 57.5419 40.794C57.5419 40.0614 57.6861 39.4156 57.9745 38.8568C58.2663 38.2949 58.672 37.8572 59.1918 37.5437C59.715 37.227 60.3254 37.0687 61.0229 37.0687C61.4253 37.0687 61.8227 37.1308 62.2151 37.2549C62.6075 37.3791 62.9646 37.5809 63.2866 37.8603C63.6085 38.1366 63.8651 38.5029 64.0562 38.9593C64.2474 39.4156 64.3429 39.9776 64.3429 40.645V41.1107H58.387V40.1607H63.1357C63.1357 39.7571 63.0485 39.397 62.8741 39.0804C62.703 38.7637 62.4582 38.5138 62.1396 38.3306C61.8244 38.1475 61.4522 38.0559 61.0229 38.0559C60.55 38.0559 60.1409 38.1646 59.7955 38.3819C59.4534 38.5961 59.1902 38.8755 59.0057 39.2201C58.8213 39.5647 58.729 39.9341 58.729 40.3284V40.9617C58.729 41.5018 58.8297 41.9598 59.0309 42.3354C59.2354 42.7079 59.5188 42.992 59.881 43.1876C60.2432 43.38 60.6641 43.4763 61.1436 43.4763C61.4555 43.4763 61.7372 43.4359 61.9887 43.3552C62.2436 43.2714 62.4633 43.1472 62.6477 42.9827C62.8322 42.815 62.9747 42.607 63.0753 42.3587L64.2222 42.6567C64.1015 43.0168 63.8986 43.3335 63.6135 43.6067C63.3285 43.8768 62.9764 44.0879 62.5572 44.24C62.138 44.389 61.6668 44.4635 61.1436 44.4635Z" fill="#1B74FD"/>
<path d="M64.6793 44.3145L67.8183 40.6823L64.7196 37.1618H66.1281L68.7036 40.2166H69.3475V37.1618H70.5347V40.2166H71.1585L73.734 37.1618H75.1425L72.0639 40.6823L75.1828 44.3145H73.7541L71.1383 41.2411H70.5347V44.3145H69.3475V41.2411H68.7439L66.108 44.3145H64.6793Z" fill="#1B74FD"/>
<path d="M77.2873 42.694L81.0098 37.1618H82.3781V44.3145H81.1909V38.7823L77.4885 44.3145H76.1001V37.1618H77.2873V42.694Z" fill="#1B74FD"/>
<path d="M84.6587 37.1618L86.5098 40.0862L88.361 37.1618H89.7293L87.2342 40.7381L89.7293 44.3145H88.361L86.5098 41.5391L84.6587 44.3145H83.2904L85.7452 40.7381L83.2904 37.1618H84.6587Z" fill="#1B74FD"/>
<path d="M93.8491 46.9967V37.1618H94.996V38.298H95.1369C95.2241 38.1739 95.3448 38.0155 95.4991 37.8231C95.6567 37.6275 95.8814 37.4536 96.1731 37.3015C96.4683 37.1463 96.8673 37.0687 97.3704 37.0687C98.021 37.0687 98.5944 37.2192 99.0908 37.5204C99.5871 37.8215 99.9744 38.2484 100.253 38.801C100.531 39.3536 100.67 40.0055 100.67 40.7568C100.67 41.5143 100.531 42.1709 100.253 42.7266C99.9744 43.2791 99.5888 43.7076 99.0958 44.0118C98.6028 44.3129 98.0344 44.4635 97.3905 44.4635C96.8942 44.4635 96.4968 44.3874 96.1983 44.2353C95.8998 44.0801 95.6701 43.9047 95.5091 43.7091C95.3482 43.5104 95.2241 43.3459 95.1369 43.2155H95.0363V46.9967H93.8491ZM95.0162 40.7381C95.0162 41.2783 95.1017 41.7549 95.2727 42.1678C95.4437 42.5775 95.6936 42.8989 96.0222 43.1317C96.3509 43.3614 96.7533 43.4763 97.2295 43.4763C97.7259 43.4763 98.14 43.3552 98.472 43.1131C98.8074 42.8678 99.0589 42.5387 99.2266 42.1258C99.3976 41.7098 99.4831 41.2473 99.4831 40.7381C99.4831 40.2352 99.3993 39.782 99.2316 39.3784C99.0673 38.9717 98.8174 38.6504 98.4821 38.4145C98.1501 38.1754 97.7326 38.0559 97.2295 38.0559C96.7466 38.0559 96.3408 38.1692 96.0122 38.3958C95.6835 38.6194 95.4354 38.9329 95.2677 39.3365C95.1 39.737 95.0162 40.2042 95.0162 40.7381Z" fill="#1B74FD"/>
<path d="M104.942 44.4635C104.197 44.4635 103.555 44.3114 103.015 44.0071C102.478 43.6998 102.064 43.2714 101.773 42.7219C101.484 42.1693 101.34 41.5267 101.34 40.794C101.34 40.0614 101.484 39.4156 101.773 38.8568C102.064 38.2949 102.47 37.8572 102.99 37.5437C103.513 37.227 104.123 37.0687 104.821 37.0687C105.223 37.0687 105.621 37.1308 106.013 37.2549C106.406 37.3791 106.763 37.5809 107.085 37.8603C107.407 38.1366 107.663 38.5029 107.854 38.9593C108.045 39.4156 108.141 39.9776 108.141 40.645V41.1107H102.185V40.1607H106.934C106.934 39.7571 106.847 39.397 106.672 39.0804C106.501 38.7637 106.256 38.5138 105.938 38.3306C105.622 38.1475 105.25 38.0559 104.821 38.0559C104.348 38.0559 103.939 38.1646 103.594 38.3819C103.251 38.5961 102.988 38.8755 102.804 39.2201C102.619 39.5647 102.527 39.9341 102.527 40.3284V40.9617C102.527 41.5018 102.628 41.9598 102.829 42.3354C103.034 42.7079 103.317 42.992 103.679 43.1876C104.041 43.38 104.462 43.4763 104.942 43.4763C105.254 43.4763 105.535 43.4359 105.787 43.3552C106.042 43.2714 106.261 43.1472 106.446 42.9827C106.63 42.815 106.773 42.607 106.873 42.3587L108.02 42.6567C107.9 43.0168 107.697 43.3335 107.412 43.6067C107.127 43.8768 106.774 44.0879 106.355 44.24C105.936 44.389 105.465 44.4635 104.942 44.4635Z" fill="#1B74FD"/>
<path d="M109.168 37.1618H110.355V43.29H113.273V37.1618H114.46V43.29H117.377V37.1618H118.565V44.3145H109.168V37.1618Z" fill="#1B74FD"/>
<path d="M123.193 44.4635C122.449 44.4635 121.806 44.3114 121.266 44.0071C120.73 43.6998 120.316 43.2714 120.024 42.7219C119.736 42.1693 119.591 41.5267 119.591 40.794C119.591 40.0614 119.736 39.4156 120.024 38.8568C120.316 38.2949 120.722 37.8572 121.241 37.5437C121.764 37.227 122.375 37.0687 123.072 37.0687C123.475 37.0687 123.872 37.1308 124.265 37.2549C124.657 37.3791 125.014 37.5809 125.336 37.8603C125.658 38.1366 125.915 38.5029 126.106 38.9593C126.297 39.4156 126.392 39.9776 126.392 40.645V41.1107H120.436V40.1607H125.185C125.185 39.7571 125.098 39.397 124.924 39.0804C124.753 38.7637 124.508 38.5138 124.189 38.3306C123.874 38.1475 123.502 38.0559 123.072 38.0559C122.6 38.0559 122.19 38.1646 121.845 38.3819C121.503 38.5961 121.24 38.8755 121.055 39.2201C120.871 39.5647 120.779 39.9341 120.779 40.3284V40.9617C120.779 41.5018 120.879 41.9598 121.08 42.3354C121.285 42.7079 121.568 42.992 121.93 43.1876C122.293 43.38 122.714 43.4763 123.193 43.4763C123.505 43.4763 123.787 43.4359 124.038 43.3552C124.293 43.2714 124.513 43.1472 124.697 42.9827C124.882 42.815 125.024 42.607 125.125 42.3587L126.272 42.6567C126.151 43.0168 125.948 43.3335 125.663 43.6067C125.378 43.8768 125.026 44.0879 124.607 44.24C124.187 44.389 123.716 44.4635 123.193 44.4635Z" fill="#1B74FD"/>
<path d="M132.59 40.2352V41.2597H128.325V40.2352H132.59ZM128.606 37.1618V44.3145H127.419V37.1618H128.606ZM133.496 37.1618V44.3145H132.309V37.1618H133.496Z" fill="#1B74FD"/>
<path d="M136.072 42.694L139.795 37.1618H141.163V44.3145H139.976V38.7823L136.273 44.3145H134.885V37.1618H136.072V42.694Z" fill="#1B74FD"/>
<path d="M143.745 42.694L147.468 37.1618H148.836V44.3145H147.649V38.7823L143.946 44.3145H142.558V37.1618H143.745V42.694ZM146.683 34.7776H147.79C147.79 35.2805 147.602 35.6919 147.226 36.0116C146.851 36.3314 146.341 36.4912 145.697 36.4912C145.063 36.4912 144.559 36.3314 144.183 36.0116C143.811 35.6919 143.625 35.2805 143.625 34.7776H144.731C144.731 35.0197 144.803 35.2324 144.948 35.4156C145.095 35.5987 145.345 35.6903 145.697 35.6903C146.049 35.6903 146.301 35.5987 146.452 35.4156C146.606 35.2324 146.683 35.0197 146.683 34.7776Z" fill="#1B74FD"/>
</svg>
