<?xml version="1.0" encoding="utf-8"?><svg width="1880" height="1843" viewBox="0 0 1880 1843" xmlns="http://www.w3.org/2000/svg" xmlns:xlink="http://www.w3.org/1999/xlink"><svg width="65" height="61" fill="none" viewBox="0 0 65 61" id="account-form-error" xmlns="http://www.w3.org/2000/svg"><ellipse cx="38.594" cy="22.367" rx="22.344" ry="22.367" fill="url(#aapaint0_linear)"/><g filter="url(#aafilter0_b)"><ellipse cx="22.344" cy="38.633" rx="22.344" ry="22.367" fill="#DCE7F3" fill-opacity=".6"/></g><path fill-rule="evenodd" clip-rule="evenodd" d="M22.369 42.386l6.593 6.6 3.749-3.752-6.594-6.6 6.594-6.6-3.749-3.753-6.593 6.6-6.594-6.6-3.748 3.752 6.593 6.6-6.593 6.6 3.748 3.753 6.594-6.6z" fill="url(#aapaint1_linear)"/><g filter="url(#aafilter1_b)"><rect x="42.963" y="21.289" width="12.063" height="6.149" rx="3.074" fill="#DCE7F3" fill-opacity=".6"/></g><g filter="url(#aafilter2_b)"><path fill-rule="evenodd" clip-rule="evenodd" d="M61.853 16.845H45.297a3.147 3.147 0 010-6.295h4.246a2.083 2.083 0 000-4.167h-13.5a3.192 3.192 0 010-6.383h25.381c.003 0 .004.002.004.004s.002.004.004.004a3.181 3.181 0 012.953 3.175 3.18 3.18 0 01-3.276 3.18l-1.5.009a2.09 2.09 0 00.012 4.178h2.232a3.147 3.147 0 010 6.295z" fill="#DCE7F3" fill-opacity=".6"/></g><defs><filter id="aafilter0_b" x="-20" y="-3.734" width="84.688" height="84.733" filterUnits="userSpaceOnUse" color-interpolation-filters="sRGB"><feFlood flood-opacity="0" result="BackgroundImageFix"/><feGaussianBlur in="BackgroundImage" stdDeviation="10"/><feComposite in2="SourceAlpha" operator="in" result="effect1_backgroundBlur"/><feBlend in="SourceGraphic" in2="effect1_backgroundBlur" result="shape"/></filter><filter id="aafilter1_b" x="22.963" y="1.289" width="52.063" height="46.149" filterUnits="userSpaceOnUse" color-interpolation-filters="sRGB"><feFlood flood-opacity="0" result="BackgroundImageFix"/><feGaussianBlur in="BackgroundImage" stdDeviation="10"/><feComposite in2="SourceAlpha" operator="in" result="effect1_backgroundBlur"/><feBlend in="SourceGraphic" in2="effect1_backgroundBlur" result="shape"/></filter><filter id="aafilter2_b" x="12.851" y="-20" width="72.149" height="56.845" filterUnits="userSpaceOnUse" color-interpolation-filters="sRGB"><feFlood flood-opacity="0" result="BackgroundImageFix"/><feGaussianBlur in="BackgroundImage" stdDeviation="10"/><feComposite in2="SourceAlpha" operator="in" result="effect1_backgroundBlur"/><feBlend in="SourceGraphic" in2="effect1_backgroundBlur" result="shape"/></filter><linearGradient id="aapaint0_linear" x1="59.245" y1="24.293" x2="17.091" y2="25.361" gradientUnits="userSpaceOnUse"><stop stop-color="#C95967"/><stop offset="1" stop-color="#E97078"/></linearGradient><linearGradient id="aapaint1_linear" x1="30.924" y1="31.529" x2="15.338" y2="47.91" gradientUnits="userSpaceOnUse"><stop stop-color="#C95967"/><stop offset="1" stop-color="#E97078"/></linearGradient></defs></svg><svg width="17" height="18" fill="none" viewBox="0 0 17 18" id="android-gray" x="65" y="61" xmlns="http://www.w3.org/2000/svg"><path d="M15.049 5.87h.046c.599 0 1.087.483 1.087 1.073v4.671c0 .592-.488 1.074-1.087 1.074h-.047a1.083 1.083 0 01-1.087-1.074V6.942c.001-.59.49-1.073 1.088-1.073zm-1.607 7.547c0 .543-.45.985-.999.985h-1.067v2.523c0 .593-.49 1.075-1.086 1.075h-.047c-.6 0-1.088-.483-1.088-1.075v-2.523H7.664v2.523c0 .593-.491 1.075-1.088 1.075H6.53c-.6 0-1.087-.483-1.087-1.075v-2.523H4.375a.994.994 0 01-.998-.985V6.041h10.065v7.376zM5.903 1.567L5.055.275A.176.176 0 015.108.03a.18.18 0 01.25.052l.878 1.337a5.791 5.791 0 012.173-.416c.778 0 1.513.15 2.173.416L11.46.081a.182.182 0 01.25-.051.176.176 0 01.053.246l-.848 1.292c1.529.74 2.56 2.136 2.56 3.736 0 .098-.006.195-.015.291H3.356a3.279 3.279 0 01-.014-.291c0-1.6 1.032-2.996 2.56-3.736zm4.848 2.314a.482.482 0 00.487-.48.482.482 0 00-.487-.479.48.48 0 00-.486.48c0 .265.218.479.486.479zm-4.684 0a.482.482 0 00.486-.48.482.482 0 00-.486-.479.48.48 0 00-.486.48c0 .265.217.479.486.479zM1.724 5.87h.045c.598 0 1.088.483 1.088 1.073v4.671c0 .592-.49 1.074-1.088 1.074h-.046c-.6 0-1.087-.483-1.087-1.074V6.942c0-.59.49-1.073 1.088-1.073z" fill="#717784"/></svg><svg width="21" height="24" fill="none" viewBox="0 0 21 24" id="android-white" x="82" y="79" xmlns="http://www.w3.org/2000/svg"><path d="M19.398 7.826h.063c.798 0 1.448.645 1.448 1.43v6.23c0 .789-.65 1.431-1.448 1.431h-.064a1.444 1.444 0 01-1.448-1.431v-6.23a1.446 1.446 0 011.45-1.43zM17.256 17.89c0 .723-.599 1.313-1.332 1.313h-1.422v3.364c0 .79-.653 1.433-1.449 1.433h-.062c-.8 0-1.45-.644-1.45-1.433v-3.364h-1.99v3.364c0 .79-.655 1.433-1.45 1.433H8.04c-.799 0-1.45-.644-1.45-1.433v-3.364H5.168c-.732 0-1.33-.59-1.33-1.313V8.054h13.419v9.836zM7.204 2.09L6.074.367a.235.235 0 01.07-.328.24.24 0 01.332.07L7.648 1.89a7.722 7.722 0 012.897-.556c1.038 0 2.017.2 2.898.556l1.17-1.782a.242.242 0 01.334-.07c.11.07.143.22.07.328l-1.13 1.723c2.038.987 3.413 2.847 3.413 4.98 0 .132-.008.26-.02.389H3.809a4.372 4.372 0 01-.018-.388c0-2.134 1.376-3.994 3.414-4.981zm6.464 3.085a.643.643 0 00.649-.64.642.642 0 00-.649-.638.641.641 0 00-.648.638c0 .355.29.64.648.64zm-6.245 0a.643.643 0 00.648-.64.642.642 0 00-.648-.638.64.64 0 00-.648.638c0 .355.289.64.648.64zM1.632 7.826h.06c.798 0 1.45.645 1.45 1.43v6.23c0 .789-.653 1.431-1.45 1.431H1.63a1.443 1.443 0 01-1.448-1.431v-6.23c0-.785.652-1.43 1.45-1.43z" fill="#fff"/></svg><svg width="17" height="18" fill="none" viewBox="0 0 17 18" id="android-white-mobile" x="103" y="103" xmlns="http://www.w3.org/2000/svg"><path d="M15.049 5.87h.046c.599 0 1.087.483 1.087 1.073v4.671c0 .592-.488 1.074-1.086 1.074h-.048a1.083 1.083 0 01-1.087-1.074V6.942c.001-.59.49-1.073 1.088-1.073zm-1.607 7.547a.994.994 0 01-.999.985h-1.067v2.523c0 .593-.49 1.075-1.086 1.075h-.047a1.084 1.084 0 01-1.088-1.075v-2.523h-1.49v2.523c0 .593-.492 1.075-1.089 1.075H6.53c-.6 0-1.087-.483-1.087-1.075v-2.523H4.375a.994.994 0 01-.998-.985V6.041h10.065v7.376zM5.903 1.567L5.055.275A.176.176 0 015.108.03a.18.18 0 01.25.052l.878 1.337a5.791 5.791 0 012.173-.416c.778 0 1.513.15 2.173.416L11.46.081a.182.182 0 01.25-.051.176.176 0 01.053.246l-.848 1.292c1.529.74 2.56 2.136 2.56 3.736 0 .098-.006.195-.015.291H3.356a3.275 3.275 0 01-.014-.291c0-1.6 1.032-2.996 2.56-3.736zm4.848 2.314a.482.482 0 00.487-.48.482.482 0 00-.487-.479.48.48 0 00-.486.48c0 .265.218.479.486.479zm-4.684 0a.482.482 0 00.486-.48.482.482 0 00-.486-.479.48.48 0 00-.486.48c0 .265.217.479.486.479zM1.724 5.87h.045c.598 0 1.088.483 1.088 1.073v4.671c0 .592-.49 1.074-1.088 1.074h-.046c-.6 0-1.087-.483-1.087-1.074V6.942c0-.59.49-1.073 1.088-1.073z" fill="#fff"/></svg><svg width="15" height="18" fill="none" viewBox="0 0 15 18" id="appstore-gray" x="120" y="121" xmlns="http://www.w3.org/2000/svg"><path d="M8.17 1.316C8.8.577 9.856.036 10.735 0a.14.14 0 01.145.124c.102.93-.236 1.969-.902 2.778-.634.766-1.562 1.242-2.422 1.242a2.68 2.68 0 01-.18-.007.14.14 0 01-.128-.121c-.138-1.044.386-2.079.922-2.7z" fill="#717784"/><path d="M2.24 14.84C.647 12.544-.268 8.755 1.171 6.258 1.93 4.94 3.302 4.11 4.754 4.088h.044c.625 0 1.215.234 1.736.44.389.155.725.289.984.289.23 0 .565-.132.952-.285.561-.22 1.259-.496 1.987-.496.094 0 .187.004.277.013.62.027 2.16.249 3.166 1.72a.14.14 0 01-.04.196l-.013.008c-.292.181-1.749 1.178-1.73 3.06.02 2.318 1.937 3.168 2.155 3.257l.01.005a.14.14 0 01.074.17l-.004.016a9.384 9.384 0 01-1.172 2.4c-.672.981-1.434 2.094-2.675 2.117-.578.011-.97-.159-1.35-.323l-.003-.001c-.386-.168-.786-.34-1.413-.34-.658 0-1.078.178-1.484.351-.361.154-.736.314-1.253.334l-.063.001c-1.101 0-1.905-1.03-2.7-2.18z" fill="#717784"/></svg><svg width="19" height="23" fill="none" viewBox="0 0 19 23" id="appstore-middle-desktop" x="135" y="139" xmlns="http://www.w3.org/2000/svg"><path d="M10.536 1.755C11.376.77 12.784.048 13.956 0a.187.187 0 01.193.166c.136 1.24-.314 2.624-1.203 3.703-.845 1.021-2.082 1.656-3.229 1.656-.08 0-.16-.003-.24-.01a.186.186 0 01-.17-.16c-.184-1.392.514-2.772 1.229-3.6z" fill="#fff"/><path d="M2.629 19.787C.507 16.724-.713 11.672 1.206 8.342c1.009-1.754 2.839-2.862 4.776-2.89l.058-.002c.833 0 1.62.313 2.314.588.52.206.968.384 1.313.384.308 0 .753-.176 1.27-.38.747-.294 1.678-.66 2.65-.66.123 0 .247.005.367.017.827.036 2.882.331 4.222 2.293a.186.186 0 01-.053.261l-.018.011c-.39.241-2.331 1.57-2.306 4.08.027 3.09 2.582 4.224 2.873 4.343l.014.006c.086.04.129.138.099.228l-.007.02a12.513 12.513 0 01-1.562 3.2c-.896 1.309-1.912 2.792-3.566 2.823-.771.015-1.294-.212-1.8-.43l-.005-.003c-.515-.223-1.048-.453-1.883-.453-.878 0-1.438.238-1.98.469-.481.205-.98.418-1.67.445a2.162 2.162 0 01-.084.002c-1.468 0-2.54-1.375-3.6-2.907z" fill="#fff"/></svg><svg width="15" height="18" fill="none" viewBox="0 0 15 18" id="appstore-middle-mobile" x="154" y="162" xmlns="http://www.w3.org/2000/svg"><path d="M8.17 1.316C8.8.577 9.856.036 10.735 0a.14.14 0 01.145.124c.102.93-.235 1.969-.902 2.778-.634.766-1.562 1.242-2.422 1.242-.06 0-.12-.003-.18-.007a.14.14 0 01-.128-.121c-.138-1.044.386-2.079.922-2.7z" fill="#fff"/><path d="M2.24 14.84C.647 12.544-.268 8.755 1.171 6.258 1.93 4.94 3.302 4.11 4.754 4.088h.044c.625 0 1.215.234 1.736.44.389.155.725.289.984.289.231 0 .565-.132.952-.285.561-.22 1.259-.496 1.988-.496.093 0 .186.004.276.013.62.027 2.16.249 3.166 1.72a.14.14 0 01-.04.196l-.013.008c-.292.181-1.749 1.178-1.73 3.06.02 2.318 1.937 3.168 2.155 3.257l.01.005a.14.14 0 01.074.17l-.004.016a9.379 9.379 0 01-1.172 2.4c-.672.981-1.434 2.094-2.675 2.117-.578.011-.97-.159-1.35-.323l-.003-.001c-.386-.168-.786-.34-1.413-.34-.658 0-1.078.178-1.484.351-.361.154-.736.314-1.253.334l-.063.001c-1.101 0-1.905-1.03-2.7-2.18z" fill="#fff"/></svg><svg width="12" height="15" fill="none" viewBox="0 0 12 15" id="appstore-small" x="169" y="180" xmlns="http://www.w3.org/2000/svg"><path d="M6.475 1.097C7 .48 7.88.03 8.613 0a.117.117 0 01.12.104c.085.775-.196 1.64-.752 2.314-.528.639-1.301 1.035-2.018 1.035-.05 0-.1-.002-.15-.006a.116.116 0 01-.106-.1c-.115-.87.321-1.733.768-2.25z" fill="#fff"/><path d="M1.533 12.367C.207 10.452-.556 7.295.643 5.214c.631-1.097 1.775-1.79 2.985-1.807h.037c.52 0 1.012.195 1.446.367.325.129.605.24.82.24.193 0 .472-.11.794-.237.467-.184 1.05-.414 1.656-.414.078 0 .155.004.23.012.517.022 1.801.207 2.639 1.432a.116.116 0 01-.033.164l-.011.007c-.244.15-1.457.981-1.442 2.55.017 1.931 1.614 2.64 1.796 2.714l.008.003a.116.116 0 01.062.143l-.004.013a7.82 7.82 0 01-.976 2c-.56.818-1.195 1.745-2.229 1.764-.482.01-.808-.132-1.125-.27h-.003c-.322-.14-.655-.284-1.177-.284-.549 0-.899.15-1.237.293-.301.129-.613.261-1.044.279h-.052c-.918 0-1.588-.859-2.25-1.816z" fill="#fff"/></svg><svg width="19" height="23" fill="none" viewBox="0 0 19 23" id="appstore-white" x="181" y="195" xmlns="http://www.w3.org/2000/svg"><path d="M10.56 1.755C11.4.77 12.808.048 13.98 0a.187.187 0 01.193.166c.136 1.24-.314 2.624-1.203 3.703-.845 1.021-2.082 1.656-3.229 1.656-.08 0-.161-.003-.24-.01a.186.186 0 01-.17-.16c-.184-1.392.514-2.772 1.229-3.6z" fill="#fff"/><path d="M2.652 19.788C.531 16.724-.688 11.672 1.23 8.342c1.009-1.754 2.839-2.862 4.776-2.89l.058-.001c.833 0 1.62.312 2.314.587.52.206.968.384 1.313.384.308 0 .753-.176 1.27-.38.747-.294 1.678-.66 2.649-.66.124 0 .248.005.368.017.827.036 2.882.331 4.222 2.293a.186.186 0 01-.053.261l-.018.011c-.39.241-2.331 1.57-2.306 4.08.027 3.09 2.582 4.224 2.873 4.343l.014.006c.086.04.129.138.098.228l-.006.02a12.513 12.513 0 01-1.562 3.2c-.896 1.309-1.912 2.792-3.566 2.823-.771.015-1.294-.211-1.8-.43l-.005-.002c-.515-.223-1.048-.454-1.883-.454-.878 0-1.438.238-1.98.469-.481.205-.98.418-1.67.445a1.98 1.98 0 01-.084.002c-1.468 0-2.54-1.375-3.6-2.906z" fill="#fff"/></svg><svg width="15" height="18" fill="none" viewBox="0 0 15 18" id="appstore-white-mobile" x="200" y="218" xmlns="http://www.w3.org/2000/svg"><path d="M8.17 1.316C8.8.577 9.856.036 10.735 0a.14.14 0 01.145.124c.102.93-.235 1.969-.902 2.778-.634.766-1.562 1.242-2.422 1.242-.06 0-.12-.003-.18-.007a.14.14 0 01-.128-.121c-.138-1.044.386-2.079.922-2.7z" fill="#fff"/><path d="M2.24 14.84C.647 12.544-.268 8.755 1.171 6.258 1.93 4.94 3.302 4.11 4.754 4.088h.044c.625 0 1.215.234 1.736.44.389.155.725.289.984.289.231 0 .565-.132.952-.285.561-.22 1.259-.496 1.988-.496.093 0 .186.004.276.013.62.027 2.16.249 3.166 1.72a.14.14 0 01-.04.196l-.013.008c-.292.181-1.749 1.178-1.73 3.06.02 2.318 1.937 3.168 2.155 3.257l.01.005a.14.14 0 01.074.17l-.004.016a9.379 9.379 0 01-1.172 2.4c-.672.981-1.434 2.094-2.675 2.117-.578.011-.97-.159-1.35-.323l-.003-.001c-.386-.168-.786-.34-1.413-.34-.658 0-1.078.178-1.484.351-.361.154-.736.314-1.253.334l-.063.001c-1.101 0-1.905-1.03-2.7-2.18z" fill="#fff"/></svg><svg width="7" height="12" fill="none" viewBox="0 0 7 12" id="back-arrow" x="215" y="236" xmlns="http://www.w3.org/2000/svg"><path d="M5.818 10.546L1.273 6l4.545-4.545" stroke="#fff" stroke-opacity=".7" stroke-width="1.8" stroke-linecap="round" stroke-linejoin="round"/></svg><svg width="22" height="22" fill="none" viewBox="0 0 22 22" id="banner-bullet" x="222" y="248" xmlns="http://www.w3.org/2000/svg"><circle cx="11" cy="11" r="11" fill="#1B74FD"/><path d="M7.333 11.4l2.947 2.533 5.12-4.4" stroke="#fff" stroke-width="1.3" stroke-linecap="round" stroke-linejoin="round"/></svg><svg width="11" height="7" fill="none" viewBox="0 0 11 7" id="banner-tick" x="244" y="270" xmlns="http://www.w3.org/2000/svg"><path d="M1.333 3.4L4.28 5.933l5.12-4.4" stroke="#fff" stroke-width="1.3" stroke-linecap="round" stroke-linejoin="round"/></svg><svg width="11" height="7" fill="none" viewBox="0 0 11 7" id="banner-tick-primary" x="255" y="277" xmlns="http://www.w3.org/2000/svg"><path d="M1.333 3.4l2.948 2.533 5.119-4.4" stroke="#1B74FD" stroke-width="1.3" stroke-linecap="round" stroke-linejoin="round"/></svg><svg width="15" height="14" fill="none" viewBox="0 0 15 14" id="browser" x="266" y="284" xmlns="http://www.w3.org/2000/svg"><path d="M13.916 7H1.189m12.727 0a6.33 6.33 0 00-.767-3.03M13.916 7c0 .976-.22 1.9-.613 2.727m-5.75 3.637a6.364 6.364 0 005.75-3.637m-5.75 3.637A6.364 6.364 0 011.8 9.727m5.751 3.637c1.841 0 3.334-2.85 3.334-6.364 0-3.515-1.493-6.364-3.334-6.364m0 12.728c-1.84 0-3.333-2.85-3.333-6.364C4.219 3.485 5.71.636 7.552.636M1.19 7c0-1.097.277-2.13.766-3.03M1.19 7c0 .976.22 1.9.612 2.727m5.75-9.09A6.362 6.362 0 001.955 3.97M7.552.636A6.362 6.362 0 0113.15 3.97m-11.195 0H13.15m.155 5.757H1.8" stroke="#717784" stroke-width=".8"/></svg><svg width="30" height="30" fill="none" viewBox="0 0 30 30" id="bullet-orange" x="281" y="298" xmlns="http://www.w3.org/2000/svg"><circle cx="15" cy="15" r="15" fill="#ED5F2C"/><path d="M8.455 14.182l5.318 5.318 8.59-8.59" stroke="#fff" stroke-width="1.9" stroke-linecap="round" stroke-linejoin="round"/></svg><svg width="22" height="18" fill="none" viewBox="0 0 22 18" id="button-arrow" x="311" y="328" xmlns="http://www.w3.org/2000/svg"><path d="M13.36 1.364L20.817 9m0 0l-7.459 7.636M20.82 9H1.181" stroke="#fff" stroke-width="1.8" stroke-linecap="round" stroke-linejoin="round"/></svg><svg width="14" height="10" fill="none" viewBox="0 0 14 10" id="checkbox-tick" x="333" y="346" xmlns="http://www.w3.org/2000/svg"><path d="M1.045 3.818L5.477 8.25l7.16-7.16" stroke="#fff" stroke-width="1.9" stroke-linecap="round" stroke-linejoin="round"/></svg><svg width="11" height="7" fill="none" viewBox="0 0 11 7" id="circle-22-tick" x="347" y="356" xmlns="http://www.w3.org/2000/svg"><path d="M1.333 3.4l2.948 2.533 5.119-4.4" stroke="#fff" stroke-width="1.3" stroke-linecap="round" stroke-linejoin="round"/></svg><svg width="11" height="7" fill="none" viewBox="0 0 11 7" id="circle-22-tick-dark" x="358" y="363" xmlns="http://www.w3.org/2000/svg"><path d="M1.333 2.9l2.948 2.533 5.119-4.4" stroke="#1B57B4" stroke-width="1.3" stroke-linecap="round" stroke-linejoin="round"/></svg><svg width="11" height="7" fill="none" viewBox="0 0 11 7" id="circle-22-tick-primary" x="369" y="370" xmlns="http://www.w3.org/2000/svg"><path d="M1.333 3.4l2.948 2.533 5.119-4.4" stroke="#1B57B4" stroke-width="1.3" stroke-linecap="round" stroke-linejoin="round"/></svg><svg width="10" height="7" fill="none" viewBox="0 0 10 7" id="convertor-arrow" x="380" y="377" xmlns="http://www.w3.org/2000/svg"><path d="M9 1.5l-4 4-4-4" stroke="#717784" stroke-width="1.8" stroke-linecap="round" stroke-linejoin="round"/></svg><svg width="10" height="6" fill="none" viewBox="0 0 10 6" id="convertor-arrow-blue" x="390" y="384" xmlns="http://www.w3.org/2000/svg"><path d="M9 1L5 5 1 1" stroke="#1B74FD" stroke-width="1.8" stroke-linecap="round" stroke-linejoin="round"/></svg><svg width="10" height="6" fill="none" viewBox="0 0 10 6" id="exchange-arrow" x="400" y="390" xmlns="http://www.w3.org/2000/svg"><path d="M9 1.07l-4 4-4-4" stroke="#363C4E" stroke-width="1.8" stroke-linecap="round" stroke-linejoin="round"/></svg><svg width="12" height="13" fill="none" viewBox="0 0 12 13" id="expand-down" x="410" y="396" xmlns="http://www.w3.org/2000/svg"><path d="M10 4.5l-4 4-4-4" stroke="#ED143B" stroke-width="1.8" stroke-linecap="round" stroke-linejoin="round"/></svg><svg width="24" height="19" fill="none" viewBox="0 0 24 19" id="expand-down-black" x="422" y="409" xmlns="http://www.w3.org/2000/svg"><path d="M16 8.07l-4 4-4-4" stroke="#363C4E" stroke-width="1.8" stroke-linecap="round" stroke-linejoin="round"/></svg><svg width="18" height="18" fill="none" viewBox="0 0 18 18" id="expand-down-white" x="446" y="428" xmlns="http://www.w3.org/2000/svg"><path d="M13 8l-4 4-4-4" stroke="#fff" stroke-width="1.8" stroke-linecap="round" stroke-linejoin="round"/></svg><svg width="12" height="13" fill="none" viewBox="0 0 12 13" id="expand-up" x="464" y="446" xmlns="http://www.w3.org/2000/svg"><path d="M2 7.5l4-4 4 4" stroke="#0BB578" stroke-width="1.8" stroke-linecap="round" stroke-linejoin="round"/></svg><svg width="10" height="6" fill="none" viewBox="0 0 10 6" id="footer-menu-arrow" x="476" y="459" xmlns="http://www.w3.org/2000/svg"><path d="M9 1L5 5 1 1" stroke="#fff" stroke-width="1.8" stroke-linecap="round" stroke-linejoin="round"/></svg><svg width="86" height="81" fill="none" viewBox="0 0 86 81" id="form-failure" x="486" y="465" xmlns="http://www.w3.org/2000/svg"><circle cx="51.063" cy="29.563" r="29.563" fill="#ED143B"/><g filter="url(#bdfilter0_b)"><circle cx="29.563" cy="51.063" r="29.563" fill="#DCE7F3" fill-opacity=".6"/></g><path fill-rule="evenodd" clip-rule="evenodd" d="M29.596 56.023l8.723 8.723 4.96-4.96-8.724-8.723 8.724-8.724-4.96-4.96-8.723 8.724-8.724-8.724-4.96 4.96 8.724 8.724-8.724 8.723 4.96 4.96 8.724-8.723z" fill="#ED143B"/><g filter="url(#bdfilter1_b)"><rect x="56.844" y="28.138" width="15.96" height="8.127" rx="4.064" fill="#DCE7F3" fill-opacity=".6"/></g><g filter="url(#bdfilter2_b)"><path fill-rule="evenodd" clip-rule="evenodd" d="M81.84 22.264H59.928a4.16 4.16 0 110-8.32h5.624a2.754 2.754 0 000-5.507h-17.87a4.218 4.218 0 110-8.437H81.27c.003 0 .005.002.005.005s.002.005.005.006a4.206 4.206 0 01-.414 8.4l-2 .01a2.761 2.761 0 00.015 5.523h2.96a4.16 4.16 0 110 8.32z" fill="#DCE7F3" fill-opacity=".6"/></g><defs><filter id="bdfilter0_b" x="-20" y="1.5" width="99.125" height="99.125" filterUnits="userSpaceOnUse" color-interpolation-filters="sRGB"><feFlood flood-opacity="0" result="BackgroundImageFix"/><feGaussianBlur in="BackgroundImage" stdDeviation="10"/><feComposite in2="SourceAlpha" operator="in" result="effect1_backgroundBlur"/><feBlend in="SourceGraphic" in2="effect1_backgroundBlur" result="shape"/></filter><filter id="bdfilter1_b" x="36.844" y="8.138" width="55.96" height="48.127" filterUnits="userSpaceOnUse" color-interpolation-filters="sRGB"><feFlood flood-opacity="0" result="BackgroundImageFix"/><feGaussianBlur in="BackgroundImage" stdDeviation="10"/><feComposite in2="SourceAlpha" operator="in" result="effect1_backgroundBlur"/><feBlend in="SourceGraphic" in2="effect1_backgroundBlur" result="shape"/></filter><filter id="bdfilter2_b" x="23.464" y="-20" width="82.536" height="62.264" filterUnits="userSpaceOnUse" color-interpolation-filters="sRGB"><feFlood flood-opacity="0" result="BackgroundImageFix"/><feGaussianBlur in="BackgroundImage" stdDeviation="10"/><feComposite in2="SourceAlpha" operator="in" result="effect1_backgroundBlur"/><feBlend in="SourceGraphic" in2="effect1_backgroundBlur" result="shape"/></filter></defs></svg><svg width="86" height="79" fill="none" viewBox="0 0 86 79" id="form-result-account-failure" x="572" y="546" xmlns="http://www.w3.org/2000/svg"><g filter="url(#befilter0_b)"><path d="M31.569 33.562h53.827V7.974C85.396 3.6 81.743 0 77.268 0h-25.7c-11.045 0-20 8.954-20 20v13.562z" fill="#ED143B"/></g><g filter="url(#befilter1_b)"><path d="M9.313 7.974C9.313 3.6 12.912 0 17.389 0h60.24c-4.476 0-8.077 3.55-8.077 7.974L69.5 52.986s-.205 16.256-.205 16.359c-.206 6.121-3.704 7.716-3.704 7.716-1.235.72-2.675 1.183-4.218 1.183H9.313V7.974z" fill="#DCE7F3" fill-opacity=".6"/></g><g filter="url(#befilter2_b)"><path d="M53.552 70.271v-6.2H0v6.2c0 4.373 3.652 7.974 8.128 7.974H61.68c-4.476-.052-8.128-3.601-8.128-7.974z" fill="#ED143B"/></g><path fill-rule="evenodd" clip-rule="evenodd" d="M36.215 34.75l-7.983-7.982 3.536-3.536 7.982 7.983 7.982-7.983 3.536 3.536-7.982 7.982 7.982 7.982-3.536 3.536-7.982-7.982-7.982 7.982-3.536-3.536 7.983-7.982z" fill="#ED143B"/><defs><filter id="befilter0_b" x="11.569" y="-20" width="93.827" height="73.562" filterUnits="userSpaceOnUse" color-interpolation-filters="sRGB"><feFlood flood-opacity="0" result="BackgroundImageFix"/><feGaussianBlur in="BackgroundImage" stdDeviation="10"/><feComposite in2="SourceAlpha" operator="in" result="effect1_backgroundBlur"/><feBlend in="SourceGraphic" in2="effect1_backgroundBlur" result="shape"/></filter><filter id="befilter1_b" x="-10.688" y="-20" width="108.316" height="118.244" filterUnits="userSpaceOnUse" color-interpolation-filters="sRGB"><feFlood flood-opacity="0" result="BackgroundImageFix"/><feGaussianBlur in="BackgroundImage" stdDeviation="10"/><feComposite in2="SourceAlpha" operator="in" result="effect1_backgroundBlur"/><feBlend in="SourceGraphic" in2="effect1_backgroundBlur" result="shape"/></filter><filter id="befilter2_b" x="-20" y="44.07" width="101.68" height="54.174" filterUnits="userSpaceOnUse" color-interpolation-filters="sRGB"><feFlood flood-opacity="0" result="BackgroundImageFix"/><feGaussianBlur in="BackgroundImage" stdDeviation="10"/><feComposite in2="SourceAlpha" operator="in" result="effect1_backgroundBlur"/><feBlend in="SourceGraphic" in2="effect1_backgroundBlur" result="shape"/></filter></defs></svg><svg width="86" height="79" fill="none" viewBox="0 0 86 79" id="form-result-account-success" x="658" y="625" xmlns="http://www.w3.org/2000/svg"><g filter="url(#bffilter0_b)"><path d="M31.569 33.562h53.827V7.974C85.396 3.6 81.743 0 77.268 0h-25.7c-11.045 0-20 8.954-20 20v13.562z" fill="url(#bfpaint0_linear)"/></g><g filter="url(#bffilter1_b)"><path d="M9.313 7.974C9.313 3.6 12.912 0 17.389 0h60.24c-4.476 0-8.077 3.55-8.077 7.974L69.5 52.986s-.205 16.256-.205 16.359c-.206 6.121-3.704 7.716-3.704 7.716-1.235.72-2.675 1.183-4.218 1.183H9.313V7.974z" fill="#DCE7F3" fill-opacity=".6"/></g><g filter="url(#bffilter2_b)"><path fill-rule="evenodd" clip-rule="evenodd" d="M53.413 28.17L35.829 45.753 25.186 35.11l3.058-3.057 7.585 7.586 14.527-14.526 3.057 3.057z" fill="url(#bfpaint1_linear)"/></g><g filter="url(#bffilter3_b)"><path d="M53.552 70.27v-6.2H0v6.2c0 4.373 3.652 7.974 8.128 7.974H61.68c-4.476-.051-8.128-3.6-8.128-7.973z" fill="url(#bfpaint2_linear)"/></g><defs><filter id="bffilter0_b" x="11.569" y="-20" width="93.827" height="73.562" filterUnits="userSpaceOnUse" color-interpolation-filters="sRGB"><feFlood flood-opacity="0" result="BackgroundImageFix"/><feGaussianBlur in="BackgroundImage" stdDeviation="10"/><feComposite in2="SourceAlpha" operator="in" result="effect1_backgroundBlur"/><feBlend in="SourceGraphic" in2="effect1_backgroundBlur" result="shape"/></filter><filter id="bffilter1_b" x="-10.688" y="-20" width="108.316" height="118.244" filterUnits="userSpaceOnUse" color-interpolation-filters="sRGB"><feFlood flood-opacity="0" result="BackgroundImageFix"/><feGaussianBlur in="BackgroundImage" stdDeviation="10"/><feComposite in2="SourceAlpha" operator="in" result="effect1_backgroundBlur"/><feBlend in="SourceGraphic" in2="effect1_backgroundBlur" result="shape"/></filter><filter id="bffilter2_b" x="5.187" y="5.113" width="68.226" height="60.64" filterUnits="userSpaceOnUse" color-interpolation-filters="sRGB"><feFlood flood-opacity="0" result="BackgroundImageFix"/><feGaussianBlur in="BackgroundImage" stdDeviation="10"/><feComposite in2="SourceAlpha" operator="in" result="effect1_backgroundBlur"/><feBlend in="SourceGraphic" in2="effect1_backgroundBlur" result="shape"/></filter><filter id="bffilter3_b" x="-20" y="44.07" width="101.68" height="54.174" filterUnits="userSpaceOnUse" color-interpolation-filters="sRGB"><feFlood flood-opacity="0" result="BackgroundImageFix"/><feGaussianBlur in="BackgroundImage" stdDeviation="10"/><feComposite in2="SourceAlpha" operator="in" result="effect1_backgroundBlur"/><feBlend in="SourceGraphic" in2="effect1_backgroundBlur" result="shape"/></filter><linearGradient id="bfpaint0_linear" x1="31.038" y1="3.242" x2="87.67" y2="8.55" gradientUnits="userSpaceOnUse"><stop stop-color="#104BA6"/><stop offset="1" stop-color="#316ECC"/></linearGradient><linearGradient id="bfpaint1_linear" x1="24.909" y1="27.106" x2="54.676" y2="29.486" gradientUnits="userSpaceOnUse"><stop stop-color="#104BA6"/><stop offset="1" stop-color="#316ECC"/></linearGradient><linearGradient id="bfpaint2_linear" x1="-.607" y1="65.439" x2="60.878" y2="81.077" gradientUnits="userSpaceOnUse"><stop stop-color="#104BA6"/><stop offset="1" stop-color="#316ECC"/></linearGradient></defs></svg><svg width="86" height="81" fill="none" viewBox="0 0 86 81" id="form-success" x="744" y="704" xmlns="http://www.w3.org/2000/svg"><circle cx="51.063" cy="29.563" r="29.563" fill="#1B74FD"/><g filter="url(#bgfilter0_b)"><circle cx="29.563" cy="51.063" r="29.563" fill="#DCE7F3" fill-opacity=".6"/></g><path fill-rule="evenodd" clip-rule="evenodd" d="M46.913 42.37L26.352 62.933 15.635 52.215l4.8-4.8 5.917 5.916 15.76-15.761 4.801 4.8z" fill="#1B74FD"/><g filter="url(#bgfilter1_b)"><rect x="56.844" y="28.138" width="15.96" height="8.127" rx="4.064" fill="#DCE7F3" fill-opacity=".6"/></g><g filter="url(#bgfilter2_b)"><path fill-rule="evenodd" clip-rule="evenodd" d="M47.624 0h21.912a4.16 4.16 0 110 8.32h-5.624a2.754 2.754 0 000 5.507h17.87a4.218 4.218 0 010 8.437H48.195a.005.005 0 01-.005-.005.005.005 0 00-.005-.006 4.206 4.206 0 01.414-8.4l2-.01a2.761 2.761 0 00-.015-5.523h-2.96a4.16 4.16 0 110-8.32z" fill="#DCE7F3" fill-opacity=".6"/></g><defs><filter id="bgfilter0_b" x="-20" y="1.5" width="99.125" height="99.125" filterUnits="userSpaceOnUse" color-interpolation-filters="sRGB"><feFlood flood-opacity="0" result="BackgroundImageFix"/><feGaussianBlur in="BackgroundImage" stdDeviation="10"/><feComposite in2="SourceAlpha" operator="in" result="effect1_backgroundBlur"/><feBlend in="SourceGraphic" in2="effect1_backgroundBlur" result="shape"/></filter><filter id="bgfilter1_b" x="36.844" y="8.138" width="55.96" height="48.127" filterUnits="userSpaceOnUse" color-interpolation-filters="sRGB"><feFlood flood-opacity="0" result="BackgroundImageFix"/><feGaussianBlur in="BackgroundImage" stdDeviation="10"/><feComposite in2="SourceAlpha" operator="in" result="effect1_backgroundBlur"/><feBlend in="SourceGraphic" in2="effect1_backgroundBlur" result="shape"/></filter><filter id="bgfilter2_b" x="23.464" y="-20" width="82.536" height="62.264" filterUnits="userSpaceOnUse" color-interpolation-filters="sRGB"><feFlood flood-opacity="0" result="BackgroundImageFix"/><feGaussianBlur in="BackgroundImage" stdDeviation="10"/><feComposite in2="SourceAlpha" operator="in" result="effect1_backgroundBlur"/><feBlend in="SourceGraphic" in2="effect1_backgroundBlur" result="shape"/></filter></defs></svg><svg width="22" height="24" fill="none" viewBox="0 0 22 24" id="googleplay-middle-desktop" x="830" y="785" xmlns="http://www.w3.org/2000/svg"><path d="M20.122 10.282l-3.88-2.24-4.013 3.971 4.013 3.972 3.893-2.248c.607-.37.97-1.014.97-1.724s-.363-1.354-.983-1.73z" fill="url(#bhpaint0_linear)"/><path d="M12.27 12.013l-4.703 6.048-6.115 4.816a2.042 2.042 0 01-.605-1.452V2.568c0-.564.229-1.075.605-1.451l6.115 4.849 4.704 6.047z" fill="url(#bhpaint1_linear)"/><path d="M16.249 8.035l-3.978 3.978L1.452 1.117a3.03 3.03 0 01.417-.31 1.99 1.99 0 012.043.041l7.015 4.123 5.322 3.064z" fill="url(#bhpaint2_linear)"/><path d="M16.249 15.991l-5.322 3.064-7.029 4.104a2.047 2.047 0 01-1.035.295 2.09 2.09 0 01-.994-.268 3.04 3.04 0 01-.417-.31l10.819-10.863 3.978 3.978z" fill="url(#bhpaint3_linear)"/><defs><linearGradient id="bhpaint0_linear" x1="21.105" y1="12.013" x2="12.229" y2="12.013" gradientUnits="userSpaceOnUse"><stop stop-color="#FADA4A"/><stop offset="1" stop-color="#FBB618"/></linearGradient><linearGradient id="bhpaint1_linear" x1="12.271" y1="11.997" x2=".847" y2="18.668" gradientUnits="userSpaceOnUse"><stop stop-color="#35BCFF"/><stop offset="1" stop-color="#31E6FF"/></linearGradient><linearGradient id="bhpaint2_linear" x1="2.903" y1="1.592" x2="12.641" y2="12.013" gradientUnits="userSpaceOnUse"><stop stop-color="#7FE881"/><stop offset="1" stop-color="#7FE881"/></linearGradient><linearGradient id="bhpaint3_linear" x1="10.806" y1="16.834" x2="8.85" y2="13.447" gradientUnits="userSpaceOnUse"><stop stop-color="#FF637B"/><stop offset="1" stop-color="#EB4B4D"/></linearGradient></defs></svg><svg width="16" height="18" fill="none" viewBox="0 0 16 18" id="googleplay-middle-mobile" x="852" y="809" xmlns="http://www.w3.org/2000/svg"><path d="M14.86 7.712l-2.91-1.68L8.94 9.01l3.01 2.979 2.92-1.687c.455-.276.727-.76.727-1.292s-.272-1.016-.737-1.298z" fill="url(#bipaint0_linear)"/><path d="M8.971 9.01l-3.528 4.536-4.586 3.611a1.531 1.531 0 01-.453-1.088V1.926c0-.423.171-.806.453-1.088l4.586 3.636L8.971 9.01z" fill="url(#bipaint1_linear)"/><path d="M11.955 6.027L8.97 9.01.857.838A2.28 2.28 0 011.17.606a1.492 1.492 0 011.532.03l5.261 3.092 3.992 2.299z" fill="url(#bipaint2_linear)"/><path d="M11.955 11.993l-3.992 2.299-5.271 3.077a1.535 1.535 0 01-.776.222c-.252 0-.504-.07-.746-.202a2.271 2.271 0 01-.313-.232L8.971 9.01l2.984 2.983z" fill="url(#bipaint3_linear)"/><defs><linearGradient id="bipaint0_linear" x1="15.597" y1="9.01" x2="8.94" y2="9.01" gradientUnits="userSpaceOnUse"><stop stop-color="#FADA4A"/><stop offset="1" stop-color="#FBB618"/></linearGradient><linearGradient id="bipaint1_linear" x1="8.971" y1="8.998" x2=".404" y2="14.001" gradientUnits="userSpaceOnUse"><stop stop-color="#35BCFF"/><stop offset="1" stop-color="#31E6FF"/></linearGradient><linearGradient id="bipaint2_linear" x1="1.946" y1="1.194" x2="9.249" y2="9.01" gradientUnits="userSpaceOnUse"><stop stop-color="#7FE881"/><stop offset="1" stop-color="#7FE881"/></linearGradient><linearGradient id="bipaint3_linear" x1="7.873" y1="12.625" x2="6.406" y2="10.085" gradientUnits="userSpaceOnUse"><stop stop-color="#FF637B"/><stop offset="1" stop-color="#EB4B4D"/></linearGradient></defs></svg><svg width="13" height="15" fill="none" viewBox="0 0 13 15" id="googleplay-small" x="868" y="827" xmlns="http://www.w3.org/2000/svg"><path d="M12.216 6.426l-2.425-1.4-2.508 2.482L9.79 9.991l2.433-1.406c.38-.23.606-.633.606-1.077 0-.443-.226-.846-.614-1.082z" fill="url(#bjpaint0_linear)"/><path d="M7.309 7.508l-2.94 3.78-3.822 3.01a1.276 1.276 0 01-.378-.907V1.605c0-.353.143-.672.378-.907l3.822 3.03 2.94 3.78z" fill="url(#bjpaint1_linear)"/><path d="M9.795 5.022L7.31 7.508.547.698C.631.623.715.564.807.505A1.244 1.244 0 012.085.53L6.47 3.107l3.326 1.915z" fill="url(#bjpaint2_linear)"/><path d="M9.795 9.995L6.47 11.91l-4.393 2.564a1.28 1.28 0 01-.647.185c-.21 0-.42-.059-.621-.168a1.896 1.896 0 01-.26-.193l6.76-6.79 2.487 2.487z" fill="url(#bjpaint3_linear)"/><defs><linearGradient id="bjpaint0_linear" x1="12.83" y1="7.508" x2="7.283" y2="7.508" gradientUnits="userSpaceOnUse"><stop stop-color="#FADA4A"/><stop offset="1" stop-color="#FBB618"/></linearGradient><linearGradient id="bjpaint1_linear" x1="7.309" y1="7.498" x2=".169" y2="11.668" gradientUnits="userSpaceOnUse"><stop stop-color="#35BCFF"/><stop offset="1" stop-color="#31E6FF"/></linearGradient><linearGradient id="bjpaint2_linear" x1="1.454" y1=".995" x2="7.54" y2="7.508" gradientUnits="userSpaceOnUse"><stop stop-color="#7FE881"/><stop offset="1" stop-color="#7FE881"/></linearGradient><linearGradient id="bjpaint3_linear" x1="6.393" y1="10.521" x2="5.171" y2="8.404" gradientUnits="userSpaceOnUse"><stop stop-color="#FF637B"/><stop offset="1" stop-color="#EB4B4D"/></linearGradient></defs></svg><svg width="6" height="10" fill="none" viewBox="0 0 6 10" id="header-mobile-menu-arrow" x="881" y="842" xmlns="http://www.w3.org/2000/svg"><path d="M1 1l4 4-4 4" stroke="#ADB3C5" stroke-width="1.8" stroke-linecap="round" stroke-linejoin="round"/></svg><svg width="14" height="24" fill="none" viewBox="0 0 14 24" id="home-hero-arrow-left" x="887" y="852" xmlns="http://www.w3.org/2000/svg"><path d="M12.363 22.91L1.454 12l10.91-10.91" stroke="#1B74FD" stroke-width="1.8" stroke-linecap="round" stroke-linejoin="round"/></svg><svg width="14" height="24" fill="none" viewBox="0 0 14 24" id="home-hero-arrow-left--white" x="901" y="876" xmlns="http://www.w3.org/2000/svg"><path d="M12.363 22.91L1.454 12l10.91-10.91" stroke="#FFF" stroke-width="1.8" stroke-linecap="round" stroke-linejoin="round"/></svg><svg width="14" height="24" fill="none" viewBox="0 0 14 24" id="home-hero-arrow-right" x="915" y="900" xmlns="http://www.w3.org/2000/svg"><path d="M1.728 1.09L12.637 12 1.727 22.91" stroke="#1B74FD" stroke-width="1.8" stroke-linecap="round" stroke-linejoin="round"/></svg><svg width="14" height="24" fill="none" viewBox="0 0 14 24" id="home-hero-arrow-right--white" x="929" y="924" xmlns="http://www.w3.org/2000/svg"><path d="M1.728 1.09L12.637 12 1.727 22.91" stroke="#FFF" stroke-width="1.8" stroke-linecap="round" stroke-linejoin="round"/></svg><svg width="10" height="6" fill="none" viewBox="0 0 10 6" id="inner-header-arrow" x="943" y="948" xmlns="http://www.w3.org/2000/svg"><path d="M9 1L5 5 1 1" stroke="#717784" stroke-width="1.8" stroke-linecap="round" stroke-linejoin="round"/></svg><svg width="10" height="6" fill="none" viewBox="0 0 10 6" id="inner-header-arrow--hover" x="953" y="954" xmlns="http://www.w3.org/2000/svg"><path d="M9 1L5 5 1 1" stroke="#363C4E" stroke-width="1.8" stroke-linecap="round" stroke-linejoin="round"/></svg><svg width="10" height="6" fill="none" viewBox="0 0 10 6" id="inner-header-arrow--opened" x="963" y="960" xmlns="http://www.w3.org/2000/svg"><path d="M9 1L5 5 1 1" stroke="#1B74FD" stroke-width="1.8" stroke-linecap="round" stroke-linejoin="round"/></svg><svg width="10" height="6" fill="none" viewBox="0 0 10 6" id="inner-header-arrow-dropdown" x="973" y="966" xmlns="http://www.w3.org/2000/svg"><path d="M9 1L5 5 1 1" stroke="#363C4E" stroke-width="1.8" stroke-linecap="round" stroke-linejoin="round"/></svg><svg width="18" height="19" fill="none" viewBox="0 0 18 19" id="input-date" x="983" y="972" xmlns="http://www.w3.org/2000/svg"><path d="M1.385 8.083v8.201c0 .97.787 1.758 1.757 1.758h11.716c.97 0 1.758-.787 1.758-1.758V8.083m-15.231 0V5.74c0-.97.787-1.758 1.757-1.758h11.716c.97 0 1.758.787 1.758 1.758v2.343m-15.231 0h15.23m-12.3-6.444v4.1m9.373-4.1v4.1" stroke="#ADB3C5" stroke-width="1.5" stroke-linecap="round" stroke-linejoin="round"/><path d="M5.063 11.305a.129.129 0 11.258 0 .129.129 0 01-.258 0zm0 3.514a.129.129 0 11.258 0 .129.129 0 01-.258 0zm4.101-3.514a.129.129 0 11.257 0 .129.129 0 01-.257 0zm0 3.514a.129.129 0 11.257 0 .129.129 0 01-.257 0zm4.1-3.514a.129.129 0 11.258 0 .129.129 0 01-.257 0zm0 3.514a.129.129 0 11.258 0 .129.129 0 01-.257 0z" fill="#ADB3C5" stroke="#ADB3C5" stroke-width="1.5" stroke-linecap="round" stroke-linejoin="round"/></svg><svg width="11" height="7" fill="none" viewBox="0 0 11 7" id="insurance-params-tick" x="1001" y="991" xmlns="http://www.w3.org/2000/svg"><path d="M1.333 3.4l2.948 2.533 5.119-4.4" stroke="#fff" stroke-width="1.3" stroke-linecap="round" stroke-linejoin="round"/></svg><svg width="19" height="13" fill="none" viewBox="0 0 19 13" id="list-tick" x="1012" y="998" xmlns="http://www.w3.org/2000/svg"><path d="M1 5l6.5 6.5L18 1" stroke="#1B74FD" stroke-width="1.9" stroke-linecap="round" stroke-linejoin="round"/></svg><svg width="19" height="13" fill="none" viewBox="0 0 19 13" id="list-tick--business" x="1031" y="1011" xmlns="http://www.w3.org/2000/svg"><path d="M1 5l6.5 6.5L18 1" stroke="#1b57b4" stroke-width="1.9" stroke-linecap="round" stroke-linejoin="round"/></svg><svg width="12" height="8" fill="none" viewBox="0 0 12 8" id="list-tick-white" x="1050" y="1024" xmlns="http://www.w3.org/2000/svg"><path fill-rule="evenodd" clip-rule="evenodd" d="M11.631.338a.95.95 0 01-.02 1.343l-6.176 6a.95.95 0 01-1.323 0L.288 3.967a.95.95 0 111.324-1.363l3.162 3.072L10.288.319a.95.95 0 011.343.02z" fill="#fff"/></svg><svg width="17" height="12" fill="none" viewBox="0 0 17 12" id="mixmax-tick" x="1062" y="1032" xmlns="http://www.w3.org/2000/svg"><path d="M1.455 5.182L6.773 10.5l8.59-8.59" stroke="#fff" stroke-width="1.9" stroke-linecap="round" stroke-linejoin="round"/></svg><svg width="62" height="62" fill="none" viewBox="0 0 62 62" id="need-step" x="1079" y="1044" xmlns="http://www.w3.org/2000/svg"><circle cx="31" cy="31" r="30.5" fill="#fff" stroke="#1B74FD"/><path d="M23 30l6.5 6.5L40 26" stroke="#1B74FD" stroke-width="1.9" stroke-linecap="round" stroke-linejoin="round"/></svg><svg width="40" height="40" fill="none" viewBox="0 0 40 40" id="need-step-mobile" x="1141" y="1106" xmlns="http://www.w3.org/2000/svg"><circle cx="20" cy="20" r="19.5" fill="#fff" stroke="#1B74FD"/><path d="M14.839 19.355l4.193 4.193 6.774-6.774" stroke="#1B74FD" stroke-width="1.9" stroke-linecap="round" stroke-linejoin="round"/></svg><svg width="22" height="22" fill="none" viewBox="0 0 22 22" id="next" x="1181" y="1146" xmlns="http://www.w3.org/2000/svg"><path d="M13.163 4L20 11m0 0l-6.837 7M20 11H2" stroke="#1B74FD" stroke-width="1.8" stroke-linecap="round" stroke-linejoin="round"/></svg><svg width="31" height="18" fill="none" viewBox="0 0 31 18" id="next-hover" x="1203" y="1168" xmlns="http://www.w3.org/2000/svg"><path d="M23.163 2L30 9m0 0l-6.837 7M30 9H0" stroke="#1B74FD" stroke-width="1.8" stroke-linecap="round" stroke-linejoin="round"/></svg><svg width="12" height="10" fill="none" viewBox="0 0 12 10" id="package-tick" x="1234" y="1186" xmlns="http://www.w3.org/2000/svg"><path d="M.502 5.307L1.77 4.023l2.583 2.541L9.941.998l1.278 1.284-6.866 6.84-3.85-3.815z" fill="#363C4E"/></svg><svg width="16" height="16" viewBox="0 0 27 27" fill="none" id="popover-close" x="1246" y="1196" xmlns="http://www.w3.org/2000/svg"><path d="M1 1l25 25m0-25L1 26" stroke="gray" stroke-opacity=".5" stroke-width="2"/></svg><svg width="8" height="11" fill="none" viewBox="0 0 8 11" id="popover-question" x="1262" y="1212" xmlns="http://www.w3.org/2000/svg"><path d="M2.93 7.716v-.132c.004-.613.058-1.101.165-1.464.11-.363.264-.654.463-.875.2-.223.443-.428.729-.615.196-.129.372-.27.526-.422a1.83 1.83 0 00.372-.518 1.51 1.51 0 00.135-.646c0-.268-.06-.5-.179-.697a1.238 1.238 0 00-.482-.457 1.382 1.382 0 00-.671-.163c-.229 0-.446.053-.652.158a1.286 1.286 0 00-.507.468c-.132.206-.206.469-.222.788H.89c.016-.644.164-1.183.444-1.617a2.65 2.65 0 011.12-.976A3.62 3.62 0 013.997.222c.615 0 1.156.114 1.622.34.47.228.835.552 1.096.972.264.417.396.912.396 1.485 0 .386-.06.732-.179 1.037a2.537 2.537 0 01-.497.813c-.216.237-.471.45-.767.636-.261.17-.475.345-.642.528a1.777 1.777 0 00-.367.646 3.13 3.13 0 00-.121.905v.132H2.931zm.84 3.173c-.29 0-.539-.109-.748-.325a1.1 1.1 0 01-.313-.794c0-.305.104-.566.313-.783.21-.217.459-.325.748-.325.287 0 .535.108.744.325.212.217.318.478.318.783 0 .207-.05.395-.15.565a1.14 1.14 0 01-.385.406.975.975 0 01-.527.148z" fill="#adb3c5"/></svg><svg width="8" height="11" fill="none" viewBox="0 0 8 11" id="popover-question-hover" x="1270" y="1223" xmlns="http://www.w3.org/2000/svg"><path d="M2.93 7.716v-.132c.004-.613.058-1.101.165-1.464.11-.363.264-.654.463-.875.2-.223.443-.428.729-.615.196-.129.372-.27.526-.422a1.83 1.83 0 00.372-.518 1.51 1.51 0 00.135-.646c0-.268-.06-.5-.179-.697a1.238 1.238 0 00-.482-.457 1.382 1.382 0 00-.671-.163c-.229 0-.446.053-.652.158a1.286 1.286 0 00-.507.468c-.132.206-.206.469-.222.788H.89c.016-.644.164-1.183.444-1.617a2.65 2.65 0 011.12-.976A3.62 3.62 0 013.997.222c.615 0 1.156.114 1.622.34.47.228.835.552 1.096.972.264.417.396.912.396 1.485 0 .386-.06.732-.179 1.037a2.537 2.537 0 01-.497.813c-.216.237-.471.45-.767.636-.261.17-.475.345-.642.528a1.777 1.777 0 00-.367.646 3.13 3.13 0 00-.121.905v.132H2.931zm.84 3.173c-.29 0-.539-.109-.748-.325a1.1 1.1 0 01-.313-.794c0-.305.104-.566.313-.783.21-.217.459-.325.748-.325.287 0 .535.108.744.325.212.217.318.478.318.783 0 .207-.05.395-.15.565a1.14 1.14 0 01-.385.406.975.975 0 01-.527.148z" fill="#fff"/></svg><svg width="17" height="28" fill="none" viewBox="0 0 17 28" id="popover-tail" x="1278" y="1234" xmlns="http://www.w3.org/2000/svg"><path d="M0 13.784C9.955 12.675 16.63 4.422 16.827 0v27.956c0-9.95-11.865-13.71-16.827-14.171z" fill="#fff"/></svg><svg width="26" height="26" fill="none" viewBox="0 0 26 26" id="popup-close" x="1295" y="1262" xmlns="http://www.w3.org/2000/svg"><path d="M5 5l16 16m0-16L5 21" stroke="#ADB3C5" stroke-width="1.8" stroke-linecap="round" stroke-linejoin="round"/></svg><svg width="14" height="10" fill="none" viewBox="0 0 14 10" id="progress-tick" x="1321" y="1288" xmlns="http://www.w3.org/2000/svg"><path d="M1.91 4.364L6.045 8.5l6.681-6.682" stroke="#fff" stroke-width="1.9" stroke-linecap="round" stroke-linejoin="round"/></svg><svg width="16" height="16" fill="none" viewBox="0 0 16 16" id="rates-blank" x="1335" y="1298" xmlns="http://www.w3.org/2000/svg"><path d="M14.355 7.73v6.665H1.645V1.605H8.31m6.045 0l-5.839 5.84m5.84-5.84v2.992m0-2.992h-3.029" stroke="#1B74FD" stroke-width="1.5" stroke-linecap="round" stroke-linejoin="round"/></svg><svg width="13" height="16" fill="none" viewBox="0 0 13 16" id="rates-eur" x="1351" y="1314" xmlns="http://www.w3.org/2000/svg"><path d="M10.61 5.833l-.524 1.118H.636l.429-1.118h9.544zM9.272 8.854L8.75 9.973H.636l.429-1.119h8.208zm3.13-7.03l-.53 1.147a5.634 5.634 0 00-1.01-.77 4.683 4.683 0 00-1.133-.487A4.425 4.425 0 008.48 1.54c-.915 0-1.734.254-2.455.763-.722.503-1.29 1.232-1.707 2.186-.417.95-.625 2.087-.625 3.414s.208 2.467.625 3.421c.416.95.985 1.678 1.707 2.186.721.504 1.54.756 2.455.756.44 0 .857-.056 1.25-.167.396-.116.77-.276 1.118-.48a5.84 5.84 0 00.966-.719l.552 1.162a5.18 5.18 0 01-1.765 1.105 5.965 5.965 0 01-2.121.377c-1.191 0-2.247-.315-3.167-.944-.915-.63-1.634-1.516-2.157-2.659-.518-1.147-.777-2.493-.777-4.038 0-1.545.259-2.889.777-4.031.523-1.148 1.242-2.037 2.157-2.666C6.234.576 7.29.26 8.481.26c.77 0 1.487.136 2.15.407a5.575 5.575 0 011.772 1.155z" fill="#363C4E"/></svg><svg width="13" height="16" fill="none" viewBox="0 0 13 16" id="rates-eur-white" x="1364" y="1330" xmlns="http://www.w3.org/2000/svg"><path d="M10.61 5.833l-.524 1.118H.636l.429-1.118h9.544zM9.272 8.854L8.75 9.973H.636l.429-1.119h8.208zm3.13-7.03l-.53 1.147a5.634 5.634 0 00-1.01-.77 4.683 4.683 0 00-1.133-.487A4.425 4.425 0 008.48 1.54c-.915 0-1.734.254-2.455.763-.722.503-1.29 1.232-1.707 2.186-.417.95-.625 2.087-.625 3.414s.208 2.467.625 3.421c.416.95.985 1.678 1.707 2.186.721.504 1.54.756 2.455.756.44 0 .857-.056 1.25-.167.396-.116.77-.276 1.118-.48a5.84 5.84 0 00.966-.719l.552 1.162a5.18 5.18 0 01-1.765 1.105 5.965 5.965 0 01-2.121.377c-1.191 0-2.247-.315-3.167-.944-.915-.63-1.634-1.516-2.157-2.659-.518-1.147-.777-2.493-.777-4.038 0-1.545.259-2.889.777-4.031.523-1.148 1.242-2.037 2.157-2.666C6.234.576 7.29.26 8.481.26c.77 0 1.487.136 2.15.407a5.575 5.575 0 011.772 1.155z" fill="#fff"/></svg><svg width="16" height="17" fill="none" viewBox="0 0 16 17" id="rates-map" x="1377" y="1346" xmlns="http://www.w3.org/2000/svg"><path d="M7.636 1.227c3.04 0 5.455 2.368 5.455 5.346 0 2.655-2.44 6.198-4.055 8.254a1.761 1.761 0 01-2.8 0c-1.615-2.056-4.054-5.599-4.054-8.254 0-2.978 2.415-5.346 5.454-5.346z" stroke="#717784" stroke-width="1.6" stroke-linecap="round"/><circle r="1.091" transform="matrix(-1 0 0 1 7.636 6.682)" fill="#717784"/></svg><svg width="16" height="17" fill="none" viewBox="0 0 16 17" id="rates-map-blue" x="1393" y="1363" xmlns="http://www.w3.org/2000/svg"><path d="M7.636 1.227c3.04 0 5.455 2.368 5.455 5.346 0 2.655-2.44 6.198-4.055 8.254a1.761 1.761 0 01-2.8 0c-1.615-2.056-4.054-5.599-4.054-8.254 0-2.978 2.415-5.346 5.454-5.346z" stroke="#1B74FD" stroke-width="1.6" stroke-linecap="round"/><circle r="1.091" transform="matrix(-1 0 0 1 7.636 6.682)" fill="#1B74FD"/></svg><svg width="10" height="7" fill="none" viewBox="0 0 10 7" id="rates-minus" x="1409" y="1380" xmlns="http://www.w3.org/2000/svg"><path d="M9 1.125l-4 4-4-4" stroke="#ED143B" stroke-width="1.8" stroke-linecap="round" stroke-linejoin="round"/></svg><svg width="10" height="7" fill="none" viewBox="0 0 10 7" id="rates-plus" x="1419" y="1387" xmlns="http://www.w3.org/2000/svg"><path d="M1 5.125l4-4 4 4" stroke="#0BB578" stroke-width="1.8" stroke-linecap="round" stroke-linejoin="round"/></svg><svg width="13" height="15" fill="none" viewBox="0 0 13 15" id="rates-rub" x="1429" y="1394" xmlns="http://www.w3.org/2000/svg"><path d="M7.377 8.861H.273v-1.22h7.104c.717 0 1.322-.136 1.816-.407a2.75 2.75 0 001.126-1.118c.256-.48.385-1.027.385-1.642s-.129-1.16-.385-1.634a2.741 2.741 0 00-1.126-1.126c-.494-.276-1.1-.414-1.816-.414h-3.56v13.656H2.46V.08h4.918c1.017 0 1.869.196 2.557.588.692.392 1.215.92 1.569 1.583.358.664.537 1.405.537 2.223 0 .819-.179 1.56-.537 2.223a3.917 3.917 0 01-1.57 1.583c-.687.388-1.54.581-2.556.581zm-.058 1.366v1.22H.273v-1.22h7.046z" fill="#363C4E"/></svg><svg width="13" height="15" fill="none" viewBox="0 0 13 15" id="rates-rub-white" x="1442" y="1409" xmlns="http://www.w3.org/2000/svg"><path d="M7.377 8.861H.273v-1.22h7.104c.717 0 1.322-.136 1.816-.407a2.75 2.75 0 001.126-1.118c.256-.48.385-1.027.385-1.642s-.129-1.16-.385-1.634a2.741 2.741 0 00-1.126-1.126c-.494-.276-1.1-.414-1.816-.414h-3.56v13.656H2.46V.08h4.918c1.017 0 1.869.196 2.557.588.692.392 1.215.92 1.569 1.583.358.664.537 1.405.537 2.223 0 .819-.179 1.56-.537 2.223a3.917 3.917 0 01-1.57 1.583c-.687.388-1.54.581-2.556.581zm-.058 1.366v1.22H.273v-1.22h7.046z" fill="#fff"/></svg><svg width="11" height="20" fill="none" viewBox="0 0 11 20" id="rates-usd" x="1455" y="1424" xmlns="http://www.w3.org/2000/svg"><path d="M4.754 19.22V.625h.952V19.22h-.952zm4.09-13.016c-.083-.829-.448-1.487-1.097-1.976-.65-.49-1.465-.734-2.448-.734-.693 0-1.303.119-1.83.356a2.99 2.99 0 00-1.235.988 2.4 2.4 0 00-.443 1.424c0 .392.084.736.254 1.031.17.295.397.55.683.763.29.208.61.387.958.537.354.15.71.276 1.068.378l1.57.45c.474.131.948.298 1.423.502.474.203.908.46 1.3.77.397.305.714.68.951 1.125.243.441.364.971.364 1.591a3.85 3.85 0 01-.618 2.143c-.411.634-1.002 1.138-1.772 1.51-.77.369-1.693.553-2.768.553-1.012 0-1.89-.167-2.636-.501-.746-.34-1.332-.807-1.758-1.402-.426-.596-.666-1.286-.72-2.07h1.395c.049.585.243 1.082.582 1.489.339.406.78.716 1.322.93a5.03 5.03 0 001.815.312c.741 0 1.4-.124 1.976-.37.581-.253 1.036-.601 1.366-1.047.334-.45.501-.973.501-1.569 0-.503-.13-.925-.392-1.264-.262-.343-.627-.631-1.097-.864a9.7 9.7 0 00-1.62-.617l-1.78-.523c-1.167-.349-2.072-.83-2.716-1.446-.644-.615-.966-1.4-.966-2.353 0-.8.213-1.501.639-2.107.431-.61 1.012-1.084 1.743-1.423.736-.344 1.562-.516 2.477-.516.925 0 1.743.17 2.455.508.712.34 1.276.807 1.693 1.402.421.591.646 1.264.675 2.02H8.844z" fill="#363C4E"/></svg><svg width="11" height="20" fill="none" viewBox="0 0 11 20" id="rates-usd-white" x="1466" y="1444" xmlns="http://www.w3.org/2000/svg"><path d="M4.754 19.22V.625h.952V19.22h-.952zm4.09-13.016c-.083-.829-.448-1.487-1.097-1.976-.65-.49-1.465-.734-2.448-.734-.693 0-1.303.119-1.83.356a2.99 2.99 0 00-1.235.988 2.4 2.4 0 00-.443 1.424c0 .392.084.736.254 1.031.17.295.397.55.683.763.29.208.61.387.958.537.354.15.71.276 1.068.378l1.57.45c.474.131.948.298 1.423.502.474.203.908.46 1.3.77.397.305.714.68.951 1.125.243.441.364.971.364 1.591a3.85 3.85 0 01-.618 2.143c-.411.634-1.002 1.138-1.772 1.51-.77.369-1.693.553-2.768.553-1.012 0-1.89-.167-2.636-.501-.746-.34-1.332-.807-1.758-1.402-.426-.596-.666-1.286-.72-2.07h1.395c.049.585.243 1.082.582 1.489.339.406.78.716 1.322.93a5.03 5.03 0 001.815.312c.741 0 1.4-.124 1.976-.37.581-.253 1.036-.601 1.366-1.047.334-.45.501-.973.501-1.569 0-.503-.13-.925-.392-1.264-.262-.343-.627-.631-1.097-.864a9.7 9.7 0 00-1.62-.617l-1.78-.523c-1.167-.349-2.072-.83-2.716-1.446-.644-.615-.966-1.4-.966-2.353 0-.8.213-1.501.639-2.107.431-.61 1.012-1.084 1.743-1.423.736-.344 1.562-.516 2.477-.516.925 0 1.743.17 2.455.508.712.34 1.276.807 1.693 1.402.421.591.646 1.264.675 2.02H8.844z" fill="#fff"/></svg><svg width="22" height="13" fill="none" viewBox="0 0 22 13" id="scroll-up" x="1477" y="1464" xmlns="http://www.w3.org/2000/svg"><path d="M2 11l9-9 9 9" stroke="#1B74FD" stroke-width="2.5" stroke-linecap="round" stroke-linejoin="round"/></svg><svg width="10" height="6" fill="none" viewBox="0 0 10 6" id="select-arrow" x="1499" y="1477" xmlns="http://www.w3.org/2000/svg"><path d="M9 1L5 5 1 1" stroke="#717784" stroke-width="1.8" stroke-linecap="round" stroke-linejoin="round"/></svg><svg width="10" height="6" fill="none" viewBox="0 0 10 6" id="select-arrow-primary" x="1509" y="1483" xmlns="http://www.w3.org/2000/svg"><path d="M9 1L5 5 1 1" stroke="#1B74FD" stroke-width="1.8" stroke-linecap="round" stroke-linejoin="round"/></svg><svg width="12" height="23" fill="none" viewBox="0 0 12 23" id="social-facebook" x="1519" y="1489" xmlns="http://www.w3.org/2000/svg"><path d="M7.406 7.638V4.893c0-.757.615-1.372 1.372-1.372h1.372V.091H7.406A4.116 4.116 0 003.29 4.207v3.43H.545v3.431H3.29v10.977h4.116V11.068h2.744l1.373-3.43H7.406z" fill="#fff"/></svg><svg width="10" height="18" fill="none" viewBox="0 0 10 18" id="social-facebook-black" x="1531" y="1512" xmlns="http://www.w3.org/2000/svg"><path d="M6.055 6.478V4.42c0-.568.46-1.03 1.029-1.03h1.029V.819H6.055a3.087 3.087 0 00-3.088 3.087v2.573H.91v2.573h2.058v8.233h3.088V9.05h2.058l1.029-2.573H6.055z" fill="#363C4E"/></svg><svg width="22" height="22" fill="none" viewBox="0 0 22 22" id="social-instagram" x="1541" y="1530" xmlns="http://www.w3.org/2000/svg"><path d="M11.004 5.397a5.598 5.598 0 100 11.196 5.597 5.597 0 100-11.196zm0 9.232a3.633 3.633 0 113.634-3.634 3.632 3.632 0 01-3.634 3.634z" fill="#fff"/><path d="M15.498.16C13.491.065 8.52.07 6.51.16 4.745.241 3.187.667 1.932 1.923-.166 4.022.102 6.849.102 10.995c0 4.244-.236 7.006 1.83 9.072 2.106 2.106 4.975 1.83 9.072 1.83 4.204 0 5.654.003 7.14-.573 2.022-.784 3.547-2.59 3.696-5.835.095-2.008.09-6.979 0-8.988-.18-3.83-2.235-6.153-6.342-6.342zm3.178 18.519c-1.376 1.376-3.284 1.253-7.698 1.253-4.546 0-6.369.067-7.699-1.267-1.532-1.524-1.254-3.972-1.254-7.684 0-5.023-.516-8.64 4.525-8.898 1.158-.041 1.5-.055 4.415-.055l.04.028c4.845 0 8.646-.508 8.874 4.532.052 1.15.064 1.496.064 4.407-.001 4.492.084 6.326-1.267 7.684z" fill="#fff"/><path d="M16.824 6.485a1.308 1.308 0 100-2.617 1.308 1.308 0 000 2.617z" fill="#fff"/></svg><svg width="18" height="17" fill="none" viewBox="0 0 18 17" id="social-telegram-black" x="1563" y="1552" xmlns="http://www.w3.org/2000/svg"><path d="M.838 7.054L16.801.714c.741-.276 1.388.186 1.148 1.34l.002-.001-2.719 13.19c-.2.935-.74 1.163-1.495.722l-4.14-3.142-1.996 1.981c-.22.227-.407.42-.834.42l.294-4.34 7.67-7.139c.335-.302-.074-.473-.514-.172l-9.48 6.149L.65 8.409c-.887-.29-.906-.914.188-1.355z" fill="#363C4E"/></svg><svg width="24" height="13" fill="none" viewBox="0 0 24 13" id="social-vkontakte" x="1581" y="1569" xmlns="http://www.w3.org/2000/svg"><path fill-rule="evenodd" clip-rule="evenodd" d="M11.742 12.495h1.435s.433-.041.654-.25c.204-.192.197-.553.197-.553s-.027-1.687.866-1.935c.88-.245 2.011 1.63 3.21 2.351.907.546 1.595.426 1.595.426l3.205-.039s1.677-.09.882-1.246c-.065-.094-.463-.854-2.383-2.416-2.01-1.635-1.74-1.37.68-4.199 1.475-1.722 2.064-2.773 1.88-3.224-.176-.429-1.26-.315-1.26-.315l-3.609.02s-.267-.033-.466.071c-.194.102-.318.34-.318.34s-.571 1.333-1.333 2.466c-1.607 2.392-2.25 2.518-2.512 2.37-.611-.347-.459-1.391-.459-2.133 0-2.318.401-3.284-.78-3.534-.393-.083-.682-.138-1.685-.147-1.287-.012-2.377.004-2.994.269-.41.176-.728.568-.535.591.239.028.779.128 1.065.47.37.44.357 1.43.357 1.43s.213 2.729-.496 3.068c-.486.232-1.154-.242-2.586-2.412-.734-1.111-1.289-2.34-1.289-2.34s-.107-.23-.297-.352a1.63 1.63 0 00-.555-.196l-3.429.02s-.515.012-.704.208c-.168.174-.013.535-.013.535S2.75 7.344 5.79 10.12c2.787 2.543 5.952 2.376 5.952 2.376z" fill="#fff"/></svg><svg width="18" height="10" fill="none" viewBox="0 0 18 10" id="social-vkontakte-black" x="1605" y="1582" xmlns="http://www.w3.org/2000/svg"><path fill-rule="evenodd" clip-rule="evenodd" d="M8.807 9.871h1.076s.325-.03.49-.188c.153-.144.148-.414.148-.414s-.02-1.265.65-1.451c.66-.184 1.508 1.222 2.407 1.763.68.41 1.197.32 1.197.32l2.403-.03s1.258-.067.662-.934c-.05-.07-.348-.641-1.788-1.813-1.507-1.226-1.305-1.027.51-3.148 1.106-1.292 1.548-2.08 1.41-2.418-.132-.322-.945-.237-.945-.237l-2.706.015s-.2-.024-.35.054c-.145.076-.239.254-.239.254s-.428 1-1 1.85c-1.205 1.794-1.686 1.888-1.883 1.777-.459-.26-.344-1.043-.344-1.6 0-1.737.3-2.462-.586-2.65-.294-.062-.51-.103-1.263-.11-.966-.009-1.783.003-2.246.201-.308.133-.545.427-.4.444.178.021.583.096.798.352.277.33.268 1.074.268 1.074s.159 2.046-.373 2.3c-.364.174-.865-.182-1.94-1.809-.55-.833-.965-1.755-.965-1.755s-.08-.172-.224-.264c-.173-.112-.415-.147-.415-.147l-2.572.015S.2 1.33.059 1.478c-.126.13-.01.402-.01.402s2.013 4.128 4.293 6.21c2.09 1.906 4.465 1.78 4.465 1.78z" fill="#363C4E"/></svg><svg width="22" height="16" fill="none" viewBox="0 0 22 16" id="social-youtube" x="1623" y="1592" xmlns="http://www.w3.org/2000/svg"><path fill-rule="evenodd" clip-rule="evenodd" d="M18.848.804c.906.242 1.62.955 1.861 1.861.44 1.643.44 5.07.44 5.07s0 3.426-.44 5.068a2.637 2.637 0 01-1.861 1.862c-1.643.44-8.228.44-8.228.44s-6.585 0-8.227-.44A2.637 2.637 0 01.53 12.803C.09 11.161.09 7.734.09 7.734s0-3.426.44-5.069A2.637 2.637 0 012.393.804c1.642-.44 8.227-.44 8.227-.44s6.585 0 8.228.44zm-4.863 6.93l-5.47 3.158V4.575l5.47 3.158z" fill="#fff"/></svg><svg width="17" height="12" fill="none" viewBox="0 0 17 12" id="social-youtube-black" x="1645" y="1608" xmlns="http://www.w3.org/2000/svg"><path fill-rule="evenodd" clip-rule="evenodd" d="M14.886.603c.68.181 1.214.717 1.396 1.396.33 1.232.33 3.802.33 3.802s0 2.57-.33 3.801A1.978 1.978 0 0114.886 11c-1.232.33-6.17.33-6.17.33s-4.94 0-6.171-.33a1.978 1.978 0 01-1.397-1.397c-.33-1.231-.33-3.801-.33-3.801s0-2.57.33-3.802A1.978 1.978 0 012.545.603c1.231-.33 6.17-.33 6.17-.33s4.939 0 6.17.33zM11.239 5.8L7.136 8.17V3.43l4.103 2.37z" fill="#363C4E"/></svg><svg width="10" height="17" fill="none" viewBox="0 0 10 17" id="steps-right-arrow" x="1662" y="1620" xmlns="http://www.w3.org/2000/svg"><path d="M1.455 1.682L8.273 8.5l-6.818 6.818" stroke="#1B57B4" stroke-width="1.8" stroke-linecap="round" stroke-linejoin="round"/></svg><svg width="19" height="13" fill="none" viewBox="0 0 19 13" id="terms-list-business-tick" x="1672" y="1637" xmlns="http://www.w3.org/2000/svg"><path d="M1 5l6.5 6.5L18 1" stroke="#1B57B4" stroke-width="1.9" stroke-linecap="round" stroke-linejoin="round"/></svg><svg width="22" height="22" fill="none" viewBox="0 0 22 22" id="tick" x="1691" y="1650" xmlns="http://www.w3.org/2000/svg"><path d="M3 10l6.5 6.5L20 6" stroke="#363C4E" stroke-width="1.9" stroke-linecap="round" stroke-linejoin="round"/></svg><svg width="10" height="7" fill="none" viewBox="0 0 10 7" id="tick-small-white" x="1713" y="1672" xmlns="http://www.w3.org/2000/svg"><path d="M.933 2.9l2.948 2.533L9 1.033" stroke="#fff" stroke-width="1.3" stroke-linecap="round" stroke-linejoin="round"/></svg><svg width="22" height="22" fill="none" viewBox="0 0 22 22" id="tick-white" x="1723" y="1679" xmlns="http://www.w3.org/2000/svg"><path d="M3 10l6.5 6.5L20 6" stroke="#fff" stroke-width="1.9" stroke-linecap="round" stroke-linejoin="round"/></svg><svg width="20" height="20" fill="none" viewBox="0 0 20 20" id="upload-doc-plus" x="1745" y="1701" xmlns="http://www.w3.org/2000/svg"><path d="M10 1.297v17.406M18.703 10H1.297" stroke="#ADB3C5" stroke-width="1.8" stroke-linecap="round" stroke-linejoin="round"/></svg><svg width="16" height="16" fill="none" viewBox="0 0 16 16" id="upload-doc-reset" x="1765" y="1721" xmlns="http://www.w3.org/2000/svg"><path d="M1.846 1.846l12.308 12.308m0-12.308L1.846 14.154" stroke="#ADB3C5" stroke-width="1.8" stroke-linecap="round" stroke-linejoin="round"/></svg><svg width="14" height="10" fill="none" viewBox="0 0 14 10" id="upload-doc-tick" x="1781" y="1737" xmlns="http://www.w3.org/2000/svg"><path d="M1.91 4.364L6.045 8.5l6.681-6.682" stroke="#fff" stroke-width="1.9" stroke-linecap="round" stroke-linejoin="round"/></svg><svg width="27" height="27" fill="none" viewBox="0 0 27 27" id="video-overlay-close" x="1795" y="1747" xmlns="http://www.w3.org/2000/svg"><path d="M1 1l25 25m0-25L1 26" stroke="#fff" stroke-opacity=".5" stroke-width="2"/></svg><svg width="25" height="30" fill="none" viewBox="0 0 25 30" id="video-play" x="1822" y="1774" xmlns="http://www.w3.org/2000/svg"><path d="M.376 15V2.434C.376.87 2.088-.088 3.42.728l20.54 12.566c1.274.78 1.274 2.632 0 3.412L3.42 29.272c-1.332.815-3.044-.144-3.044-1.706V15z" fill="#fff"/></svg><svg width="18" height="21" fill="none" viewBox="0 0 18 21" id="video-play-small" x="1847" y="1804" xmlns="http://www.w3.org/2000/svg"><path d="M.734 10.492V2.536C.734.974 2.445.015 3.778.83l13.004 7.956c1.275.78 1.275 2.632 0 3.412L3.778 20.154c-1.333.816-3.044-.143-3.044-1.706v-7.956z" fill="#fff"/></svg><svg width="15" height="18" fill="none" viewBox="0 0 15 18" id="video-play-small--mobile" x="1865" y="1825" xmlns="http://www.w3.org/2000/svg"><path d="M.226 9V2.888c0-1.563 1.71-2.522 3.043-1.706l9.99 6.112c1.275.78 1.275 2.632 0 3.412l-9.99 6.112c-1.332.816-3.043-.143-3.043-1.706V9z" fill="#fff"/></svg></svg>