<svg width="22" height="22" viewBox="0 0 22 22" fill="none" xmlns="http://www.w3.org/2000/svg">
  <path
    d="M11.0034 5.86422C8.1676 5.86422 5.87176 8.16251 5.87176 10.9958C5.87176 13.8316 8.1701 16.1274 11.0034 16.1274C13.8393 16.1274 16.1351 13.8291 16.1351 10.9958C16.1351 8.16001 13.8368 5.86422 11.0034 5.86422ZM11.0034 14.3266C9.1626 14.3266 7.6726 12.8358 7.6726 10.9958C7.6726 9.15583 9.16343 7.66502 11.0034 7.66502C12.8434 7.66502 14.3343 9.15583 14.3343 10.9958C14.3351 12.8358 12.8443 14.3266 11.0034 14.3266Z"
    fill="currentColor"/>
  <path
    d="M15.1235 1.06282C13.2835 0.976989 8.72602 0.981156 6.88436 1.06282C5.26602 1.13865 3.83852 1.52948 2.68769 2.68029C0.764356 4.60359 1.01019 7.19521 1.01019 10.996C1.01019 14.8859 0.793523 17.4175 2.68769 19.3117C4.61852 21.2416 7.24769 20.9891 11.0035 20.9891C14.8569 20.9891 16.1869 20.9916 17.5494 20.4641C19.4019 19.745 20.8002 18.0892 20.9369 15.1151C21.0235 13.2743 21.0185 8.71769 20.9369 6.87605C20.7719 3.36528 18.8877 1.23615 15.1235 1.06282ZM18.036 18.0392C16.7752 19.3 15.026 19.1875 10.9794 19.1875C6.81269 19.1875 5.14186 19.2492 3.92269 18.0267C2.51852 16.6292 2.77269 14.3851 2.77269 10.9826C2.77269 6.37856 2.30019 3.06279 6.92102 2.82612C7.98269 2.78862 8.29519 2.77612 10.9677 2.77612L11.0052 2.80112C15.446 2.80112 18.9302 2.33613 19.1394 6.95605C19.1869 8.0102 19.1977 8.32686 19.1977 10.9951C19.1969 15.1134 19.2752 16.7942 18.036 18.0392Z"
    fill="currentColor"/>
  <path
    d="M16.3385 6.86118C17.0007 6.86118 17.5376 6.32431 17.5376 5.66204C17.5376 4.99977 17.0007 4.46289 16.3385 4.46289C15.6762 4.46289 15.1393 4.99977 15.1393 5.66204C15.1393 6.32431 15.6762 6.86118 16.3385 6.86118Z"
    fill="currentColor"/>
</svg>
