<svg width="20" height="24" viewBox="0 0 20 24" fill="none" xmlns="http://www.w3.org/2000/svg">
  <path d="M13.0545 1.09094L13.5397 0.586359L13.0545 0.390942V1.09094ZM18.7273 6.54549H19.4273L19.2124 6.0409L18.7273 6.54549ZM10.7 7.80423C10.7 7.41763 10.3866 7.10423 10 7.10423C9.6134 7.10423 9.3 7.41763 9.3 7.80423H10.7ZM10 14.9371L9.50266 15.4297C9.63413 15.5624 9.81319 15.6371 10 15.6371C10.1868 15.6371 10.3659 15.5624 10.4973 15.4297L10 14.9371ZM13.4064 12.4926C13.6785 12.218 13.6764 11.7748 13.4017 11.5027C13.127 11.2306 12.6838 11.2328 12.4118 11.5074L13.4064 12.4926ZM7.58825 11.5074C7.31619 11.2328 6.87298 11.2306 6.59831 11.5027C6.32364 11.7748 6.32152 12.218 6.59357 12.4926L7.58825 11.5074ZM6.25974 17.1742C5.87314 17.1742 5.55974 17.4876 5.55974 17.8742C5.55974 18.2608 5.87314 18.5742 6.25974 18.5742V17.1742ZM13.7403 18.5742C14.1269 18.5742 14.4403 18.2608 14.4403 17.8742C14.4403 17.4876 14.1269 17.1742 13.7403 17.1742V18.5742ZM13.0545 0.390942H3.76624V1.79094H13.0545V0.390942ZM0.572728 3.60842V20.3916H1.97273V3.60842H0.572728ZM3.76623 23.6091H16.2338V22.2091H3.76623V23.6091ZM19.4273 20.3916V6.54549H18.0273V20.3916H19.4273ZM19.2124 6.0409L13.5397 0.586359L12.5694 1.59553L18.2421 7.05007L19.2124 6.0409ZM12.3545 1.09094V4.86717H13.7545V1.09094H12.3545ZM14.7169 7.24549H18.7273V5.84549H14.7169V7.24549ZM12.3545 4.86717C12.3545 6.17435 13.4059 7.24549 14.7169 7.24549V5.84549C14.1917 5.84549 13.7545 5.41381 13.7545 4.86717H12.3545ZM16.2338 23.6091C18.0038 23.6091 19.4273 22.1623 19.4273 20.3916H18.0273C18.0273 21.4017 17.218 22.2091 16.2338 22.2091V23.6091ZM0.572728 20.3916C0.572728 22.1623 1.99621 23.6091 3.76623 23.6091V22.2091C2.78201 22.2091 1.97273 21.4017 1.97273 20.3916H0.572728ZM3.76624 0.390942C1.99621 0.390942 0.572728 1.83779 0.572728 3.60842H1.97273C1.97273 2.59833 2.78201 1.79094 3.76624 1.79094V0.390942ZM9.3 7.80423V14.9371H10.7V7.80423H9.3ZM10.4973 15.4297L13.4064 12.4926L12.4118 11.5074L9.50266 14.4445L10.4973 15.4297ZM10.4973 14.4445L7.58825 11.5074L6.59357 12.4926L9.50266 15.4297L10.4973 14.4445ZM6.25974 18.5742H13.7403V17.1742H6.25974V18.5742Z" fill="white"/>
</svg>
