<svg width="21" height="25" viewBox="0 0 21 25" fill="none" xmlns="http://www.w3.org/2000/svg">
  <path fill-rule="evenodd" clip-rule="evenodd"
        d="M1.63488 20.7902C3.64281 23.7853 7.03582 24.6603 10.5089 24.6603C15.634 24.6603 20.4373 22.3095 20.4492 17.1107C20.4492 11.7233 15.4697 10.5681 11.3773 9.61871C9.85122 9.26467 8.44847 8.93924 7.47329 8.43363C4.77579 7.04914 6.28248 4.2043 10.113 4.2043C13.0697 4.2043 13.8332 5.6048 14.5057 6.8384C15.035 7.80927 15.508 8.67677 16.9494 8.67677C19.6706 8.67677 20.5812 5.05914 17.2089 2.33353C13.5564 -0.60425 5.062 -0.367297 2.16727 3.52289C0.506354 5.74983 0.761422 8.82078 2.11388 10.5615C3.90698 12.8759 7.02304 13.5741 9.74838 14.1848C12.6196 14.8282 15.0571 15.3743 15.0571 17.6109C15.0571 19.7774 12.4738 20.7097 10.3814 20.7097C7.10098 20.7097 6.32972 19.0657 5.63282 17.5801C5.32126 16.916 5.02457 16.2836 4.52517 15.8439C2.58843 14.159 -1.35773 16.3704 1.63488 20.7902Z"
        fill="white"/>
</svg>
