<svg width="33" height="33" viewBox="0 0 33 33" fill="none" xmlns="http://www.w3.org/2000/svg">
  <path
    d="M31.6194 8.00692L31.61 7.96916C30.8463 4.882 27.4036 1.56931 24.2419 0.880123L24.2062 0.87278C19.0925 -0.102775 13.9073 -0.102775 8.79457 0.87278L8.75786 0.880123C5.59727 1.56931 2.15451 4.882 1.3898 7.96916L1.3814 8.00692C0.437318 12.3182 0.437318 16.6904 1.3814 21.0017L1.3898 21.0395C2.12188 23.9949 5.30828 27.1554 8.3519 28.0246V31.4707C8.3519 32.7179 9.87188 33.3306 10.7362 32.4305L14.2278 28.8011C14.985 28.8435 15.7427 28.8671 16.5004 28.8671C19.0746 28.8671 21.6499 28.6238 24.2062 28.136L24.2419 28.1286C27.4036 27.4395 30.8463 24.1268 31.61 21.0396L31.6194 21.0018C32.5635 16.6904 32.5635 12.3182 31.6194 8.00692ZM28.8564 20.3765C28.3466 22.3906 25.7325 24.8945 23.6555 25.3571C20.9365 25.8742 18.1959 26.0952 15.458 26.0193C15.4036 26.0179 15.3512 26.039 15.3133 26.078C14.9247 26.4768 12.7639 28.695 12.7639 28.695L10.0523 31.4779C9.85405 31.6846 9.50579 31.544 9.50579 31.2587V25.5499C9.50579 25.4556 9.43844 25.3755 9.34582 25.3573C9.34529 25.3572 9.34477 25.3571 9.34424 25.357C7.26725 24.8944 4.65423 22.3905 4.14338 20.3764C3.2937 16.4795 3.2937 12.529 4.14338 8.63201C4.65423 6.61796 7.26725 4.11404 9.34424 3.65143C14.093 2.74826 18.9078 2.74826 23.6555 3.65143C25.7336 4.11404 28.3466 6.61796 28.8564 8.63201C29.707 12.5291 29.707 16.4796 28.8564 20.3765Z"
    fill="white"/>
  <path
    d="M21.0185 23.0114C20.6992 22.9145 20.3949 22.8494 20.1123 22.7321C17.184 21.5172 14.4889 19.9498 12.3541 17.5471C11.1402 16.1808 10.19 14.6382 9.38678 13.0058C9.00589 12.2317 8.68491 11.4272 8.35773 10.628C8.0594 9.89914 8.49882 9.14618 8.96152 8.59704C9.3957 8.08167 9.95439 7.68725 10.5594 7.39658C11.0317 7.16968 11.4975 7.30049 11.8425 7.70078C12.5881 8.5662 13.273 9.47588 13.8275 10.479C14.1686 11.096 14.075 11.8503 13.4569 12.2702C13.3067 12.3722 13.1698 12.492 13.0299 12.6073C12.9072 12.7083 12.7917 12.8104 12.7075 12.9472C12.5538 13.1975 12.5464 13.4926 12.6455 13.7648C13.4076 15.8594 14.6923 17.4881 16.8006 18.3654C17.1379 18.5057 17.4768 18.6692 17.8654 18.6239C18.5163 18.5478 18.727 17.8339 19.1831 17.4608C19.629 17.0963 20.1987 17.0915 20.6789 17.3954C21.1592 17.6994 21.6249 18.0257 22.0877 18.3555C22.542 18.6792 22.9943 18.9959 23.4134 19.365C23.8163 19.7198 23.9551 20.1854 23.7282 20.667C23.3128 21.5489 22.7084 22.2827 21.8364 22.7511C21.5902 22.8831 21.2962 22.9259 21.0185 23.0114C20.6992 22.9144 21.2962 22.9259 21.0185 23.0114Z"
    fill="white"/>
  <path
    d="M16.5087 6.38831C20.3391 6.49562 23.4851 9.03763 24.1592 12.8245C24.2741 13.4697 24.315 14.1294 24.3661 14.7843C24.3876 15.0597 24.2316 15.3215 23.9343 15.325C23.6273 15.3287 23.4891 15.0718 23.4692 14.7964C23.4298 14.2514 23.4024 13.7039 23.3273 13.1634C22.9308 10.31 20.6555 7.94941 17.8154 7.44286C17.388 7.3666 16.9506 7.34656 16.5177 7.30114C16.244 7.2724 15.8856 7.25582 15.825 6.91564C15.7741 6.63042 16.0148 6.40331 16.2864 6.38873C16.3603 6.38464 16.4345 6.388 16.5087 6.38831C20.3391 6.49562 16.4345 6.388 16.5087 6.38831Z"
    fill="white"/>
  <path
    d="M22.3295 13.934C22.3232 13.9818 22.3199 14.0943 22.2919 14.2002C22.1902 14.5848 21.6072 14.6329 21.4729 14.2448C21.4332 14.1296 21.4272 13.9986 21.427 13.8746C21.4256 13.0633 21.2493 12.2529 20.8402 11.547C20.4197 10.8216 19.7771 10.2117 19.0236 9.84265C18.5679 9.61953 18.0751 9.48086 17.5756 9.3982C17.3574 9.36211 17.1368 9.34019 16.9174 9.30966C16.6516 9.27274 16.5097 9.10333 16.5223 8.84139C16.534 8.59593 16.7134 8.41939 16.9809 8.43449C17.8599 8.48443 18.709 8.6744 19.4905 9.08822C21.0797 9.92982 21.9875 11.2583 22.2524 13.0321C22.2644 13.1124 22.2837 13.1921 22.2898 13.2727C22.3048 13.4719 22.3142 13.6713 22.3295 13.934C22.3232 13.9818 22.3142 13.6713 22.3295 13.934Z"
    fill="white"/>
  <path
    d="M19.947 13.8417C19.6265 13.8475 19.455 13.6701 19.422 13.3763C19.399 13.1714 19.3809 12.9639 19.332 12.7645C19.2357 12.372 19.027 12.0082 18.6968 11.7677C18.5409 11.6541 18.3643 11.5713 18.1792 11.5179C17.9442 11.4501 17.7001 11.4687 17.4655 11.4113C17.2108 11.3488 17.0699 11.1426 17.11 10.9036C17.1464 10.6862 17.358 10.5165 17.5956 10.5337C19.0806 10.6409 20.142 11.4086 20.2935 13.1569C20.3042 13.2802 20.3168 13.4106 20.2894 13.5286C20.2425 13.7307 20.0929 13.8319 19.947 13.8417C19.6265 13.8475 20.0929 13.8319 19.947 13.8417Z"
    fill="white"/>
</svg>
