<svg width="29" height="16" viewBox="0 0 29 16" fill="none" xmlns="http://www.w3.org/2000/svg">
  <path fill-rule="evenodd" clip-rule="evenodd"
        d="M14.207 15.1941H15.8372C15.8372 15.1941 16.3297 15.143 16.5811 14.8872C16.8125 14.6524 16.8051 14.2114 16.8051 14.2114C16.8051 14.2114 16.7732 12.1467 17.7884 11.8427C18.7892 11.5432 20.0743 13.8381 21.4365 14.7205C22.4665 15.3884 23.2492 15.2419 23.2492 15.2419L26.8913 15.1941C26.8913 15.1941 28.7966 15.0833 27.8932 13.6693C27.8192 13.5537 27.3671 12.6234 25.1852 10.7118C22.9015 8.71115 23.2074 9.03475 25.9583 5.57401C27.6337 3.46639 28.3035 2.17966 28.0943 1.62856C27.8947 1.10366 26.6625 1.2424 26.6625 1.2424L22.5617 1.26652C22.5617 1.26652 22.2577 1.22737 22.0322 1.35458C21.8119 1.47934 21.6701 1.77009 21.6701 1.77009C21.6701 1.77009 21.0211 3.40104 20.1554 4.78807C18.3294 7.71483 17.5992 7.86929 17.3008 7.68757C16.6066 7.26402 16.7799 5.98603 16.7799 5.07812C16.7799 2.24187 17.2357 1.05928 15.8924 0.753153C15.4466 0.651459 15.1186 0.584362 13.9786 0.573528C12.5154 0.5592 11.2769 0.577721 10.5757 0.902024C10.1091 1.11764 9.74926 1.59816 9.96844 1.62576C10.2395 1.66001 10.8533 1.78198 11.1788 2.20028C11.599 2.73986 11.5842 3.9518 11.5842 3.9518C11.5842 3.9518 11.8256 7.29058 11.0203 7.70539C10.4675 7.98986 9.70927 7.40905 8.0813 4.75382C7.24713 3.3937 6.61734 1.89031 6.61734 1.89031C6.61734 1.89031 6.4959 1.60934 6.2793 1.45907C6.01643 1.277 5.64914 1.21899 5.64914 1.21899L1.75229 1.2431C1.75229 1.2431 1.1673 1.25848 0.952558 1.49856C0.76151 1.71208 0.937378 2.15381 0.937378 2.15381C0.937378 2.15381 3.98821 8.89077 7.44262 12.2858C10.6101 15.3985 14.207 15.1941 14.207 15.1941Z"
        fill="white"/>
</svg>
