<svg width="60" height="59" viewBox="0 0 60 59" fill="none" xmlns="http://www.w3.org/2000/svg">
  <path fill-rule="evenodd" clip-rule="evenodd"
        d="M28.9904 0.0721271C28.9904 0.117351 28.5337 0.144254 27.7644 0.144254C26.9952 0.144254 26.5385 0.171158 26.5385 0.216381C26.5385 0.258432 26.2981 0.288509 25.9615 0.288509C25.625 0.288509 25.3846 0.318586 25.3846 0.360636C25.3846 0.400738 25.1923 0.432763 24.9519 0.432763C24.7116 0.432763 24.5192 0.464787 24.5192 0.50489C24.5192 0.544993 24.3269 0.577017 24.0865 0.577017C23.8462 0.577017 23.6538 0.609042 23.6538 0.649144C23.6538 0.688814 23.524 0.721271 23.3654 0.721271C23.2067 0.721271 23.0769 0.753729 23.0769 0.793399C23.0769 0.833068 22.9147 0.865526 22.7163 0.865526C22.518 0.865526 22.3558 0.897983 22.3558 0.937653C22.3558 0.977323 22.226 1.00978 22.0673 1.00978C21.9087 1.00978 21.7788 1.04224 21.7788 1.08191C21.7788 1.12158 21.6815 1.15403 21.5625 1.15403C21.4435 1.15403 21.3462 1.18649 21.3462 1.22616C21.3462 1.26583 21.2163 1.29829 21.0577 1.29829C20.899 1.29829 20.7692 1.33075 20.7692 1.37042C20.7692 1.41009 20.6719 1.44254 20.5529 1.44254C20.4339 1.44254 20.3365 1.475 20.3365 1.51467C20.3365 1.55434 20.2392 1.5868 20.1202 1.5868C20.0012 1.5868 19.9038 1.61925 19.9038 1.65892C19.9038 1.69859 19.8065 1.73105 19.6875 1.73105C19.5685 1.73105 19.4712 1.76351 19.4712 1.80318C19.4712 1.84285 19.4062 1.87531 19.3269 1.87531C19.2476 1.87531 19.1827 1.90776 19.1827 1.94743C19.1827 1.9871 19.0853 2.01956 18.9663 2.01956C18.8474 2.01956 18.75 2.05202 18.75 2.09169C18.75 2.13136 18.6526 2.16381 18.5337 2.16381C18.4147 2.16381 18.3173 2.19627 18.3173 2.23594C18.3173 2.27561 18.2524 2.30807 18.1731 2.30807C18.0938 2.30807 18.0288 2.34053 18.0288 2.3802C18.0288 2.41987 17.9639 2.45232 17.8846 2.45232C17.8053 2.45232 17.7404 2.48478 17.7404 2.52445C17.7404 2.56412 17.643 2.59658 17.524 2.59658C17.405 2.59658 17.3077 2.62903 17.3077 2.6687C17.3077 2.70837 17.2428 2.74083 17.1635 2.74083C17.0841 2.74083 17.0192 2.77329 17.0192 2.81296C17.0192 2.85263 16.9543 2.88509 16.875 2.88509C16.7957 2.88509 16.7308 2.91754 16.7308 2.95721C16.7308 2.99688 16.6659 3.02934 16.5865 3.02934C16.5072 3.02934 16.4423 3.0618 16.4423 3.10147C16.4423 3.14114 16.3774 3.17359 16.2981 3.17359C16.2188 3.17359 16.1538 3.20605 16.1538 3.24572C16.1538 3.28539 16.0889 3.31785 16.0096 3.31785C15.9303 3.31785 15.8654 3.35031 15.8654 3.38998C15.8654 3.42965 15.8005 3.4621 15.7212 3.4621C15.6418 3.4621 15.5769 3.49456 15.5769 3.53423C15.5769 3.5739 15.512 3.60636 15.4327 3.60636C15.3534 3.60636 15.2885 3.63881 15.2885 3.67848C15.2885 3.71815 15.2236 3.75061 15.1442 3.75061C15.0649 3.75061 15 3.78307 15 3.82274C15 3.86241 14.9422 3.89487 14.8717 3.89487C14.8011 3.89487 14.6966 3.95978 14.6394 4.03912C14.5822 4.11846 14.4777 4.18337 14.4071 4.18337C14.3366 4.18337 14.2788 4.21583 14.2788 4.2555C14.2788 4.29517 14.2211 4.32763 14.1506 4.32763C14.08 4.32763 13.9755 4.39254 13.9183 4.47188C13.8611 4.55122 13.7566 4.61614 13.686 4.61614C13.6155 4.61614 13.5577 4.64859 13.5577 4.68826C13.5577 4.72793 13.4999 4.76039 13.4294 4.76039C13.3588 4.76039 13.2543 4.82531 13.1971 4.90465C13.1399 4.98399 13.0494 5.0489 12.9958 5.0489C12.899 5.0489 12.6923 5.21732 12.6923 5.29622C12.6923 5.31887 12.7572 5.33741 12.8365 5.33741C12.9159 5.33741 12.9808 5.30495 12.9808 5.26528C12.9808 5.22561 13.1106 5.19315 13.2692 5.19315C13.4279 5.19315 13.5577 5.1607 13.5577 5.12103C13.5577 5.08136 13.6875 5.0489 13.8462 5.0489C14.0048 5.0489 14.1346 5.01644 14.1346 4.97677C14.1346 4.9371 14.2644 4.90465 14.4231 4.90465C14.5817 4.90465 14.7115 4.87219 14.7115 4.83252C14.7115 4.79285 14.8413 4.76039 15 4.76039C15.1587 4.76039 15.2885 4.72793 15.2885 4.68826C15.2885 4.64859 15.4507 4.61614 15.649 4.61614C15.8474 4.61614 16.0096 4.58368 16.0096 4.54401C16.0096 4.50434 16.1719 4.47188 16.3702 4.47188C16.5685 4.47188 16.7308 4.43943 16.7308 4.39976C16.7308 4.35965 16.9231 4.32763 17.1635 4.32763C17.4038 4.32763 17.5962 4.2956 17.5962 4.2555C17.5962 4.21432 17.8125 4.18337 18.101 4.18337C18.3894 4.18337 18.6058 4.15243 18.6058 4.11125C18.6058 4.06465 19.4231 4.03912 20.9135 4.03912C22.4039 4.03912 23.2212 4.06465 23.2212 4.11125C23.2212 4.15243 23.4375 4.18337 23.726 4.18337C24.0144 4.18337 24.2308 4.21432 24.2308 4.2555C24.2308 4.2956 24.4231 4.32763 24.6635 4.32763C24.9038 4.32763 25.0962 4.35965 25.0962 4.39976C25.0962 4.43943 25.226 4.47188 25.3846 4.47188C25.5433 4.47188 25.6731 4.50434 25.6731 4.54401C25.6731 4.58368 25.7704 4.61614 25.8894 4.61614C26.0347 4.61614 26.1058 4.65206 26.1058 4.72555C26.1058 4.78578 25.4243 5.51549 24.5913 6.34719C23.7584 7.17889 23.0769 7.89259 23.0769 7.93319C23.0769 7.97387 22.4768 8.60729 21.7433 9.34097C20.5446 10.5398 20.1923 10.8264 20.1923 10.6027C20.1923 10.563 20.1274 10.5306 20.0481 10.5306C19.9688 10.5306 19.9038 10.4981 19.9038 10.4584C19.9038 10.4188 19.8065 10.3863 19.6875 10.3863C19.5685 10.3863 19.4712 10.3539 19.4712 10.3142C19.4712 10.2745 19.3738 10.2421 19.2548 10.2421C19.1358 10.2421 19.0385 10.2096 19.0385 10.1699C19.0385 10.1303 18.9411 10.0978 18.8221 10.0978C18.7031 10.0978 18.6058 10.0653 18.6058 10.0257C18.6058 9.986 18.476 9.95355 18.3173 9.95355C18.1587 9.95355 18.0288 9.92109 18.0288 9.88142C18.0288 9.84175 17.8666 9.80929 17.6683 9.80929C17.47 9.80929 17.3077 9.77683 17.3077 9.73716C17.3077 9.69706 17.1154 9.66504 16.875 9.66504C16.6346 9.66504 16.4423 9.63301 16.4423 9.59291C16.4423 9.54725 15.9135 9.52078 15 9.52078C14.0865 9.52078 13.5577 9.54725 13.5577 9.59291C13.5577 9.63301 13.3654 9.66504 13.125 9.66504C12.8846 9.66504 12.6923 9.69706 12.6923 9.73716C12.6923 9.77683 12.5625 9.80929 12.4038 9.80929C12.2452 9.80929 12.1154 9.84175 12.1154 9.88142C12.1154 9.92109 11.9856 9.95355 11.8269 9.95355C11.6683 9.95355 11.5385 9.986 11.5385 10.0257C11.5385 10.0653 11.4411 10.0978 11.3221 10.0978C11.2031 10.0978 11.1058 10.1303 11.1058 10.1699C11.1058 10.2096 11.0084 10.2421 10.8894 10.2421C10.7704 10.2421 10.6731 10.2745 10.6731 10.3142C10.6731 10.3539 10.6082 10.3863 10.5288 10.3863C10.4495 10.3863 10.3846 10.4188 10.3846 10.4584C10.3846 10.4981 10.3197 10.5306 10.2404 10.5306C10.1611 10.5306 10.0962 10.563 10.0962 10.6027C10.0962 10.6424 9.9988 10.6748 9.87981 10.6748C9.76082 10.6748 9.66346 10.7073 9.66346 10.7469C9.66346 10.7866 9.6057 10.8191 9.53517 10.8191C9.46457 10.8191 9.36007 10.884 9.30288 10.9633C9.2457 11.0427 9.1412 11.1076 9.0706 11.1076C9.00007 11.1076 8.94231 11.14 8.94231 11.1797C8.94231 11.2194 8.8774 11.2518 8.79808 11.2518C8.71875 11.2518 8.65385 11.2843 8.65385 11.324C8.65385 11.3636 8.59608 11.3961 8.52555 11.3961C8.45495 11.3961 8.35046 11.461 8.29327 11.5403C8.23608 11.6197 8.14457 11.6846 8.0899 11.6846C8.03531 11.6846 7.89959 11.782 7.78846 11.901C7.67733 12.02 7.54817 12.1174 7.50144 12.1174C7.45478 12.1174 7.29187 12.2472 7.13942 12.4059C6.98697 12.5645 6.82695 12.6944 6.78375 12.6944C6.6812 12.6944 5.04808 14.3278 5.04808 14.4303C5.04808 14.4735 4.91827 14.6336 4.75962 14.7861C4.60096 14.9385 4.47115 15.1015 4.47115 15.1481C4.47115 15.1949 4.3738 15.3241 4.25481 15.4352C4.13582 15.5464 4.03846 15.6821 4.03846 15.7367C4.03846 15.7914 3.97356 15.8829 3.89423 15.9401C3.8149 15.9973 3.75 16.0947 3.75 16.1565C3.75 16.2183 3.6851 16.3157 3.60577 16.3729C3.52644 16.4301 3.46154 16.5274 3.46154 16.5892C3.46154 16.6511 3.39663 16.7484 3.31731 16.8056C3.23798 16.8628 3.17308 16.9673 3.17308 17.0379C3.17308 17.1085 3.14062 17.1663 3.10096 17.1663C3.0613 17.1663 3.02885 17.224 3.02885 17.2946C3.02885 17.3652 2.96394 17.4697 2.88462 17.5269C2.80529 17.5841 2.74038 17.6886 2.74038 17.7592C2.74038 17.8298 2.70793 17.8875 2.66827 17.8875C2.62861 17.8875 2.59615 17.9524 2.59615 18.0318C2.59615 18.1111 2.5637 18.176 2.52404 18.176C2.48438 18.176 2.45192 18.241 2.45192 18.3203C2.45192 18.3996 2.41947 18.4645 2.37981 18.4645C2.34014 18.4645 2.30769 18.5295 2.30769 18.6088C2.30769 18.6881 2.27524 18.7531 2.23558 18.7531C2.19591 18.7531 2.16346 18.818 2.16346 18.8973C2.16346 18.9767 2.13101 19.0416 2.09135 19.0416C2.05168 19.0416 2.01923 19.1389 2.01923 19.2579C2.01923 19.377 1.98678 19.4743 1.94712 19.4743C1.90745 19.4743 1.875 19.5392 1.875 19.6186C1.875 19.6979 1.84255 19.7628 1.80288 19.7628C1.76322 19.7628 1.73077 19.8602 1.73077 19.9792C1.73077 20.0982 1.69832 20.1956 1.65865 20.1956C1.61899 20.1956 1.58654 20.2605 1.58654 20.3399C1.58654 20.4192 1.55409 20.4841 1.51442 20.4841C1.47476 20.4841 1.44231 20.5815 1.44231 20.7005C1.44231 20.8195 1.40986 20.9169 1.37019 20.9169C1.33053 20.9169 1.29808 21.0142 1.29808 21.1333C1.29808 21.2523 1.26562 21.3496 1.22596 21.3496C1.1863 21.3496 1.15385 21.447 1.15385 21.566C1.15385 21.685 1.12139 21.7824 1.08173 21.7824C1.04207 21.7824 1.00962 21.8798 1.00962 21.9988C1.00962 22.1178 0.977163 22.2152 0.9375 22.2152C0.897837 22.2152 0.865385 22.345 0.865385 22.5037C0.865385 22.6623 0.832933 22.7922 0.793269 22.7922C0.753606 22.7922 0.721154 22.922 0.721154 23.0807C0.721154 23.2394 0.688702 23.3692 0.649038 23.3692C0.609375 23.3692 0.576923 23.5315 0.576923 23.7298C0.576923 23.9282 0.544471 24.0905 0.504808 24.0905C0.464712 24.0905 0.432692 24.2828 0.432692 24.5232C0.432692 24.7636 0.400673 24.956 0.360577 24.956C0.319399 24.956 0.288462 25.1724 0.288462 25.4609C0.288462 25.7494 0.257524 25.9658 0.216346 25.9658C0.171995 25.9658 0.144231 26.3264 0.144231 26.9034C0.144231 27.4804 0.116466 27.8411 0.0721154 27.8411C0.0280529 27.8411 0 28.1777 0 28.7066C0 29.2355 0.0280529 29.5721 0.0721154 29.5721C0.116466 29.5721 0.144231 29.9328 0.144231 30.5098C0.144231 31.0868 0.171995 31.4474 0.216346 31.4474C0.257524 31.4474 0.288462 31.6638 0.288462 31.9523C0.288462 32.2408 0.319399 32.4572 0.360577 32.4572C0.400673 32.4572 0.432692 32.6496 0.432692 32.89C0.432692 33.1304 0.464712 33.3227 0.504808 33.3227C0.544471 33.3227 0.576923 33.485 0.576923 33.6834C0.576923 33.8817 0.609375 34.044 0.649038 34.044C0.688702 34.044 0.721154 34.1738 0.721154 34.3325C0.721154 34.4912 0.753606 34.621 0.793269 34.621C0.832933 34.621 0.865385 34.7509 0.865385 34.9095C0.865385 35.0682 0.897837 35.198 0.9375 35.198C0.977163 35.198 1.00962 35.2954 1.00962 35.4144C1.00962 35.5334 1.04207 35.6308 1.08173 35.6308C1.12139 35.6308 1.15385 35.7282 1.15385 35.8472C1.15385 35.9662 1.1863 36.0636 1.22596 36.0636C1.26562 36.0636 1.29808 36.1609 1.29808 36.28C1.29808 36.399 1.33053 36.4963 1.37019 36.4963C1.40986 36.4963 1.44231 36.5937 1.44231 36.7127C1.44231 36.8317 1.47476 36.9291 1.51442 36.9291C1.55409 36.9291 1.58654 37.0265 1.58654 37.1455C1.58654 37.2645 1.61899 37.3619 1.65865 37.3619C1.69832 37.3619 1.73077 37.4592 1.73077 37.5782C1.73077 37.6973 1.76322 37.7946 1.80288 37.7946C1.84255 37.7946 1.875 37.8595 1.875 37.9389C1.875 38.0182 1.90745 38.0831 1.94712 38.0831C1.98678 38.0831 2.01923 38.148 2.01923 38.2274C2.01923 38.3067 2.05168 38.3716 2.09135 38.3716C2.13101 38.3716 2.16346 38.469 2.16346 38.588C2.16346 38.707 2.19591 38.8044 2.23558 38.8044C2.27524 38.8044 2.30769 38.8693 2.30769 38.9487C2.30769 39.028 2.34014 39.0929 2.37981 39.0929C2.41947 39.0929 2.45192 39.1578 2.45192 39.2372C2.45192 39.3165 2.48438 39.3814 2.52404 39.3814C2.5637 39.3814 2.59615 39.4463 2.59615 39.5257C2.59615 39.605 2.62861 39.6699 2.66827 39.6699C2.70793 39.6699 2.74038 39.7348 2.74038 39.8142C2.74038 39.8935 2.77284 39.9584 2.8125 39.9584C2.85216 39.9584 2.88462 40.0233 2.88462 40.1027C2.88462 40.182 2.91707 40.2469 2.95673 40.2469C2.99639 40.2469 3.02885 40.3119 3.02885 40.3912C3.02885 40.4705 3.0613 40.5355 3.10096 40.5355C3.14062 40.5355 3.17308 40.6004 3.17308 40.6797C3.17308 40.759 3.20553 40.824 3.24519 40.824C3.28486 40.824 3.31731 40.8889 3.31731 40.9682C3.31731 41.0476 3.34976 41.1125 3.38942 41.1125C3.42909 41.1125 3.46154 41.1702 3.46154 41.2408C3.46154 41.3114 3.52644 41.4159 3.60577 41.4731C3.6851 41.5303 3.75 41.6348 3.75 41.7054C3.75 41.776 3.78245 41.8337 3.82212 41.8337C3.86178 41.8337 3.89423 41.8915 3.89423 41.9621C3.89423 42.0327 3.95913 42.1372 4.03846 42.1944C4.11779 42.2516 4.18269 42.3489 4.18269 42.4108C4.18269 42.4726 4.2476 42.5699 4.32692 42.6271C4.40625 42.6843 4.47115 42.7817 4.47115 42.8435C4.47115 42.9053 4.53606 43.0027 4.61538 43.0599C4.69471 43.1171 4.75962 43.2086 4.75962 43.2633C4.75962 43.3179 4.85697 43.4536 4.97596 43.5648C5.09495 43.6759 5.19231 43.8051 5.19231 43.8519C5.19231 43.8985 5.32212 44.0615 5.48077 44.2139C5.63942 44.3664 5.76923 44.5277 5.76923 44.5724C5.76923 44.6171 5.99639 44.8777 6.27404 45.1516C6.55168 45.4255 6.77885 45.6844 6.77885 45.727C6.77885 45.8279 7.40069 46.4499 7.50158 46.4499C7.5442 46.4499 7.8031 46.6771 8.07692 46.9548C8.35075 47.2325 8.61202 47.4597 8.65753 47.4597C8.70296 47.4597 8.83118 47.557 8.94231 47.676C9.05344 47.7951 9.18324 47.8924 9.23077 47.8924C9.27829 47.8924 9.4081 47.9898 9.51923 48.1088C9.63036 48.2278 9.76608 48.3252 9.82067 48.3252C9.87534 48.3252 9.96685 48.3901 10.024 48.4694C10.0812 48.5488 10.1857 48.6137 10.2563 48.6137C10.3269 48.6137 10.3846 48.6461 10.3846 48.6858C10.3846 48.7255 10.4495 48.7579 10.5288 48.7579C10.6082 48.7579 10.6731 48.7904 10.6731 48.8301C10.6731 48.8697 10.7308 48.9022 10.8014 48.9022C10.872 48.9022 10.9765 48.9671 11.0337 49.0465C11.0908 49.1258 11.1953 49.1907 11.2659 49.1907C11.3365 49.1907 11.3942 49.2232 11.3942 49.2628C11.3942 49.3025 11.4916 49.335 11.6106 49.335C11.7296 49.335 11.8269 49.3674 11.8269 49.4071C11.8269 49.4468 11.8918 49.4792 11.9712 49.4792C12.0505 49.4792 12.1154 49.5117 12.1154 49.5513C12.1154 49.591 12.1803 49.6235 12.2596 49.6235C12.3389 49.6235 12.4038 49.6559 12.4038 49.6956C12.4038 49.7353 12.5012 49.7677 12.6202 49.7677C12.7392 49.7677 12.8365 49.8002 12.8365 49.8399C12.8365 49.8795 12.9339 49.912 13.0529 49.912C13.1719 49.912 13.2692 49.9444 13.2692 49.9841C13.2692 50.0238 13.399 50.0562 13.5577 50.0562C13.7163 50.0562 13.8462 50.0887 13.8462 50.1284C13.8462 50.168 13.976 50.2005 14.1346 50.2005C14.2933 50.2005 14.4231 50.2329 14.4231 50.2726C14.4231 50.3138 14.6394 50.3447 14.9279 50.3447C15.2163 50.3447 15.4327 50.3757 15.4327 50.4169C15.4327 50.4615 15.8173 50.489 16.4423 50.489C17.0673 50.489 17.4519 50.4615 17.4519 50.4169C17.4519 50.3757 17.6683 50.3447 17.9567 50.3447C18.2452 50.3447 18.4615 50.3138 18.4615 50.2726C18.4615 50.2329 18.5913 50.2005 18.75 50.2005C18.9087 50.2005 19.0385 50.168 19.0385 50.1284C19.0385 50.0887 19.1358 50.0562 19.2548 50.0562C19.3738 50.0562 19.4712 50.0238 19.4712 49.9841C19.4712 49.9444 19.5685 49.912 19.6875 49.912C19.8065 49.912 19.9038 49.8795 19.9038 49.8399C19.9038 49.8002 20.0012 49.7677 20.1202 49.7677C20.2392 49.7677 20.3365 49.7353 20.3365 49.6956C20.3365 49.6559 20.4014 49.6235 20.4808 49.6235C20.5601 49.6235 20.625 49.591 20.625 49.5513C20.625 49.5117 20.7224 49.4792 20.8413 49.4792C20.9603 49.4792 21.0577 49.4468 21.0577 49.4071C21.0577 49.3674 21.1155 49.335 21.186 49.335C21.2566 49.335 21.3611 49.2701 21.4183 49.1907C21.4755 49.1114 21.58 49.0465 21.6506 49.0465C21.7211 49.0465 21.7788 49.014 21.7788 48.9743C21.7788 48.9347 21.8438 48.9022 21.9231 48.9022C22.0024 48.9022 22.0673 48.8697 22.0673 48.8301C22.0673 48.7904 22.1251 48.7579 22.1956 48.7579C22.2662 48.7579 22.3707 48.693 22.4279 48.6137C22.4851 48.5344 22.5824 48.4694 22.6442 48.4694C22.706 48.4694 22.8034 48.4045 22.8606 48.3252C22.9178 48.2458 23.0093 48.1809 23.0639 48.1809C23.1185 48.1809 23.2543 48.0836 23.3654 47.9646C23.4765 47.8455 23.6047 47.7482 23.6502 47.7482C23.6957 47.7482 23.9569 47.521 24.2308 47.2433C24.5046 46.9656 24.7635 46.7384 24.8061 46.7384C24.9068 46.7384 25.5288 46.1166 25.5288 46.016C25.5288 45.9736 25.7885 45.6819 26.1058 45.368C26.4231 45.054 26.6827 44.7601 26.6827 44.7148C26.6827 44.6695 26.78 44.5415 26.899 44.4303C27.018 44.3192 27.1154 44.1893 27.1154 44.1418C27.1154 44.0943 27.2127 43.9645 27.3317 43.8533C27.4507 43.7422 27.5481 43.6064 27.5481 43.5518C27.5481 43.4971 27.613 43.4056 27.6923 43.3484C27.7716 43.2912 27.8365 43.1938 27.8365 43.132C27.8365 43.0702 27.9014 42.9728 27.9808 42.9156C28.0601 42.8585 28.125 42.7539 28.125 42.6833C28.125 42.6128 28.1575 42.555 28.1971 42.555C28.2368 42.555 28.2692 42.4901 28.2692 42.4108C28.2692 42.3314 28.3017 42.2665 28.3413 42.2665C28.381 42.2665 28.4135 42.2016 28.4135 42.1222C28.4135 42.0429 28.4459 41.978 28.4856 41.978C28.5252 41.978 28.5577 41.9131 28.5577 41.8337C28.5577 41.7544 28.5901 41.6895 28.6298 41.6895C28.6695 41.6895 28.7019 41.6246 28.7019 41.5452C28.7019 41.4659 28.7344 41.401 28.774 41.401C28.8137 41.401 28.8462 41.3361 28.8462 41.2567C28.8462 41.1774 28.8786 41.1125 28.9183 41.1125C28.9579 41.1125 28.9904 41.0476 28.9904 40.9682C28.9904 40.8889 29.0228 40.824 29.0625 40.824C29.1022 40.824 29.1346 40.759 29.1346 40.6797C29.1346 40.6004 29.1671 40.5355 29.2067 40.5355C29.2464 40.5355 29.2788 40.4381 29.2788 40.3191C29.2788 40.2001 29.3113 40.1027 29.351 40.1027C29.3906 40.1027 29.4231 40.0378 29.4231 39.9584C29.4231 39.8791 29.4555 39.8142 29.4952 39.8142C29.5349 39.8142 29.5673 39.7168 29.5673 39.5978C29.5673 39.4788 29.5998 39.3814 29.6394 39.3814C29.6791 39.3814 29.7115 39.284 29.7115 39.165C29.7115 39.046 29.744 38.9487 29.7837 38.9487C29.8233 38.9487 29.8558 38.8513 29.8558 38.7323C29.8558 38.6133 29.8882 38.5159 29.9279 38.5159C29.9675 38.5159 30 38.3861 30 38.2274C30 38.0687 30.0325 37.9389 30.0721 37.9389C30.1118 37.9389 30.1442 37.809 30.1442 37.6504C30.1442 37.4917 30.1767 37.3619 30.2163 37.3619C30.256 37.3619 30.2885 37.232 30.2885 37.0733C30.2885 36.9147 30.3209 36.7848 30.3606 36.7848C30.4002 36.7848 30.4327 36.6226 30.4327 36.4242C30.4327 36.2259 30.4651 36.0636 30.5048 36.0636C30.5449 36.0636 30.5769 35.8712 30.5769 35.6308C30.5769 35.3904 30.6089 35.198 30.649 35.198C30.6902 35.198 30.7212 34.9817 30.7212 34.6932C30.7212 34.4046 30.7521 34.1883 30.7933 34.1883C30.8353 34.1883 30.8654 33.9479 30.8654 33.6112C30.8654 33.2746 30.8955 33.0342 30.9375 33.0342C30.9803 33.0342 31.0096 32.7697 31.0096 32.3851C31.0096 32.0004 31.039 31.7359 31.0817 31.7359C31.1254 31.7359 31.1538 31.4234 31.1538 30.9425C31.1538 30.4617 31.1823 30.1491 31.226 30.1491C31.2697 30.1491 31.2981 29.8366 31.2981 29.3557C31.2981 28.8749 31.3265 28.5623 31.3702 28.5623C31.4135 28.5623 31.4423 28.2738 31.4423 27.8411C31.4423 27.4083 31.4712 27.1198 31.5144 27.1198C31.5565 27.1198 31.5865 26.8794 31.5865 26.5428C31.5865 26.2062 31.6166 25.9658 31.6587 25.9658C31.6998 25.9658 31.7308 25.7494 31.7308 25.4609C31.7308 25.1724 31.7617 24.956 31.8029 24.956C31.843 24.956 31.875 24.7636 31.875 24.5232C31.875 24.2828 31.907 24.0905 31.9471 24.0905C31.9872 24.0905 32.0192 23.8981 32.0192 23.6577C32.0192 23.4173 32.0513 23.2249 32.0913 23.2249C32.131 23.2249 32.1635 23.0951 32.1635 22.9364C32.1635 22.7778 32.1959 22.6479 32.2356 22.6479C32.2752 22.6479 32.3077 22.5181 32.3077 22.3594C32.3077 22.2007 32.3401 22.0709 32.3798 22.0709C32.4195 22.0709 32.4519 21.9411 32.4519 21.7824C32.4519 21.6237 32.4844 21.4939 32.524 21.4939C32.5637 21.4939 32.5962 21.3641 32.5962 21.2054C32.5962 21.0467 32.6286 20.9169 32.6683 20.9169C32.7079 20.9169 32.7404 20.8195 32.7404 20.7005C32.7404 20.5815 32.7728 20.4841 32.8125 20.4841C32.8522 20.4841 32.8846 20.3867 32.8846 20.2677C32.8846 20.1487 32.9171 20.0513 32.9567 20.0513C32.9964 20.0513 33.0288 19.9864 33.0288 19.9071C33.0288 19.8278 33.0613 19.7628 33.101 19.7628C33.1406 19.7628 33.1731 19.6655 33.1731 19.5465C33.1731 19.4274 33.2055 19.3301 33.2452 19.3301C33.2849 19.3301 33.3173 19.2652 33.3173 19.1858C33.3173 19.1065 33.3498 19.0416 33.3894 19.0416C33.4291 19.0416 33.4615 18.9767 33.4615 18.8973C33.4615 18.818 33.494 18.7531 33.5337 18.7531C33.5733 18.7531 33.6058 18.6557 33.6058 18.5367C33.6058 18.4177 33.6382 18.3203 33.6779 18.3203C33.7175 18.3203 33.75 18.2554 33.75 18.176C33.75 18.0967 33.7825 18.0318 33.8221 18.0318C33.8618 18.0318 33.8942 17.974 33.8942 17.9035C33.8942 17.8329 33.9591 17.7283 34.0385 17.6712C34.1178 17.614 34.1827 17.5094 34.1827 17.4388C34.1827 17.3683 34.2151 17.3105 34.2548 17.3105C34.2945 17.3105 34.3269 17.2456 34.3269 17.1663C34.3269 17.0869 34.3594 17.022 34.399 17.022C34.4387 17.022 34.4712 16.9642 34.4712 16.8937C34.4712 16.8231 34.5361 16.7186 34.6154 16.6614C34.6947 16.6042 34.7596 16.5068 34.7596 16.445C34.7596 16.3832 34.8245 16.2858 34.9038 16.2286C34.9832 16.1714 35.0481 16.0799 35.0481 16.0252C35.0481 15.9706 35.1454 15.8349 35.2644 15.7237C35.3834 15.6126 35.4808 15.4834 35.4808 15.4367C35.4808 15.39 35.6106 15.227 35.7692 15.0746C35.9279 14.9221 36.0577 14.7609 36.0577 14.7163C36.0577 14.5961 36.3945 14.2812 36.5232 14.2812C36.5845 14.2812 36.6346 14.3389 36.6346 14.4095C36.6346 14.4801 36.6995 14.5846 36.7788 14.6418C36.8582 14.699 36.9231 14.7964 36.9231 14.8582C36.9231 14.92 36.988 15.0174 37.0673 15.0746C37.1466 15.1318 37.2115 15.2363 37.2115 15.3069C37.2115 15.3774 37.244 15.4352 37.2837 15.4352C37.3233 15.4352 37.3558 15.5001 37.3558 15.5795C37.3558 15.6588 37.3882 15.7237 37.4279 15.7237C37.4675 15.7237 37.5 15.7815 37.5 15.852C37.5 15.9226 37.5649 16.0272 37.6442 16.0844C37.7236 16.1416 37.7885 16.2461 37.7885 16.3167C37.7885 16.3872 37.8209 16.445 37.8606 16.445C37.9002 16.445 37.9327 16.5099 37.9327 16.5892C37.9327 16.6686 37.9651 16.7335 38.0048 16.7335C38.0445 16.7335 38.0769 16.8309 38.0769 16.9499C38.0769 17.0689 38.1094 17.1663 38.149 17.1663C38.1887 17.1663 38.2212 17.2312 38.2212 17.3105C38.2212 17.3899 38.2536 17.4548 38.2933 17.4548C38.3329 17.4548 38.3654 17.5197 38.3654 17.599C38.3654 17.6784 38.3978 17.7433 38.4375 17.7433C38.4772 17.7433 38.5096 17.8406 38.5096 17.9597C38.5096 18.0787 38.5421 18.176 38.5817 18.176C38.6214 18.176 38.6538 18.241 38.6538 18.3203C38.6538 18.3996 38.6863 18.4645 38.726 18.4645C38.7656 18.4645 38.7981 18.5619 38.7981 18.6809C38.7981 18.7999 38.8305 18.8973 38.8702 18.8973C38.9099 18.8973 38.9423 18.9947 38.9423 19.1137C38.9423 19.2327 38.9748 19.3301 39.0144 19.3301C39.0541 19.3301 39.0865 19.4274 39.0865 19.5465C39.0865 19.6655 39.119 19.7628 39.1587 19.7628C39.1983 19.7628 39.2308 19.8602 39.2308 19.9792C39.2308 20.0982 39.2632 20.1956 39.3029 20.1956C39.3425 20.1956 39.375 20.293 39.375 20.412C39.375 20.531 39.4075 20.6284 39.4471 20.6284C39.4868 20.6284 39.5192 20.7582 39.5192 20.9169C39.5192 21.0756 39.5517 21.2054 39.5913 21.2054C39.631 21.2054 39.6635 21.3352 39.6635 21.4939C39.6635 21.6526 39.6959 21.7824 39.7356 21.7824C39.7752 21.7824 39.8077 21.9122 39.8077 22.0709C39.8077 22.2296 39.8401 22.3594 39.8798 22.3594C39.9195 22.3594 39.9519 22.5217 39.9519 22.72C39.9519 22.9184 39.9844 23.0807 40.024 23.0807C40.0637 23.0807 40.0962 23.243 40.0962 23.4413C40.0962 23.6397 40.1286 23.802 40.1683 23.802C40.2084 23.802 40.2404 23.9943 40.2404 24.2347C40.2404 24.4751 40.2724 24.6675 40.3125 24.6675C40.3537 24.6675 40.3846 24.8839 40.3846 25.1724C40.3846 25.4609 40.4156 25.6773 40.4567 25.6773C40.4995 25.6773 40.5288 25.9418 40.5288 26.3264C40.5288 26.7111 40.5582 26.9756 40.601 26.9756C40.648 26.9756 40.6731 28.1296 40.6731 30.2934C40.6731 32.4572 40.648 33.6112 40.601 33.6112C40.5577 33.6112 40.5288 33.8998 40.5288 34.3325C40.5288 34.7653 40.5 35.0538 40.4567 35.0538C40.4156 35.0538 40.3846 35.2702 40.3846 35.5587C40.3846 35.8472 40.3537 36.0636 40.3125 36.0636C40.2724 36.0636 40.2404 36.2559 40.2404 36.4963C40.2404 36.7367 40.2084 36.9291 40.1683 36.9291C40.1286 36.9291 40.0962 37.0914 40.0962 37.2897C40.0962 37.4881 40.0637 37.6504 40.024 37.6504C39.9844 37.6504 39.9519 37.8127 39.9519 38.011C39.9519 38.2094 39.9195 38.3716 39.8798 38.3716C39.8401 38.3716 39.8077 38.5015 39.8077 38.6601C39.8077 38.8188 39.7752 38.9487 39.7356 38.9487C39.6959 38.9487 39.6635 39.0785 39.6635 39.2372C39.6635 39.3958 39.631 39.5257 39.5913 39.5257C39.5517 39.5257 39.5192 39.6555 39.5192 39.8142C39.5192 39.9729 39.4868 40.1027 39.4471 40.1027C39.4075 40.1027 39.375 40.2001 39.375 40.3191C39.375 40.4381 39.3425 40.5355 39.3029 40.5355C39.2632 40.5355 39.2308 40.6328 39.2308 40.7518C39.2308 40.8708 39.1983 40.9682 39.1587 40.9682C39.119 40.9682 39.0865 41.0656 39.0865 41.1846C39.0865 41.3036 39.0541 41.401 39.0144 41.401C38.9748 41.401 38.9423 41.4984 38.9423 41.6174C38.9423 41.7364 38.9099 41.8337 38.8702 41.8337C38.8305 41.8337 38.7981 41.9311 38.7981 42.0501C38.7981 42.1691 38.7656 42.2665 38.726 42.2665C38.6863 42.2665 38.6538 42.3639 38.6538 42.4829C38.6538 42.6019 38.6214 42.6993 38.5817 42.6993C38.5421 42.6993 38.5096 42.7642 38.5096 42.8435C38.5096 42.9229 38.4772 42.9878 38.4375 42.9878C38.3978 42.9878 38.3654 43.0851 38.3654 43.2042C38.3654 43.3232 38.3329 43.4205 38.2933 43.4205C38.2536 43.4205 38.2212 43.4855 38.2212 43.5648C38.2212 43.6441 38.1887 43.709 38.149 43.709C38.1094 43.709 38.0769 43.774 38.0769 43.8533C38.0769 43.9326 38.0445 43.9976 38.0048 43.9976C37.9651 43.9976 37.9327 44.0949 37.9327 44.2139C37.9327 44.3329 37.9002 44.4303 37.8606 44.4303C37.8209 44.4303 37.7885 44.4952 37.7885 44.5746C37.7885 44.6539 37.756 44.7188 37.7163 44.7188C37.6767 44.7188 37.6442 44.7837 37.6442 44.8631C37.6442 44.9424 37.6118 45.0073 37.5721 45.0073C37.5325 45.0073 37.5 45.0723 37.5 45.1516C37.5 45.2309 37.4675 45.2958 37.4279 45.2958C37.3882 45.2958 37.3558 45.3608 37.3558 45.4401C37.3558 45.5194 37.3233 45.5844 37.2837 45.5844C37.244 45.5844 37.2115 45.6421 37.2115 45.7127C37.2115 45.7833 37.1466 45.8878 37.0673 45.945C36.988 46.0022 36.9231 46.1067 36.9231 46.1773C36.9231 46.2479 36.8906 46.3056 36.851 46.3056C36.8113 46.3056 36.7788 46.3634 36.7788 46.4339C36.7788 46.5046 36.7139 46.6091 36.6346 46.6663C36.5553 46.7235 36.4904 46.828 36.4904 46.8986C36.4904 46.9691 36.4579 47.0269 36.4183 47.0269C36.3786 47.0269 36.3462 47.0847 36.3462 47.1552C36.3462 47.2258 36.2812 47.3303 36.2019 47.3875C36.1226 47.4447 36.0577 47.5363 36.0577 47.5909C36.0577 47.6455 35.9603 47.7813 35.8413 47.8924C35.7224 48.0036 35.625 48.1334 35.625 48.1809C35.625 48.2285 35.5276 48.3583 35.4087 48.4694C35.2897 48.5806 35.1923 48.7098 35.1923 48.7565C35.1923 48.8032 35.0625 48.9661 34.9038 49.1186C34.7452 49.2711 34.6154 49.4311 34.6154 49.4742C34.6154 49.5767 32.8379 51.3545 32.7354 51.3545C32.6923 51.3545 32.5323 51.4844 32.3798 51.643C32.2274 51.8017 32.0644 51.9315 32.0178 51.9315C31.9711 51.9315 31.8419 52.0289 31.7308 52.1479C31.6196 52.2669 31.4839 52.3643 31.4293 52.3643C31.3747 52.3643 31.2831 52.4292 31.226 52.5086C31.1688 52.5879 31.0714 52.6528 31.0096 52.6528C30.9478 52.6528 30.8505 52.7177 30.7933 52.7971C30.7361 52.8764 30.6316 52.9413 30.561 52.9413C30.4905 52.9413 30.4327 52.9738 30.4327 53.0134C30.4327 53.0531 30.3749 53.0856 30.3044 53.0856C30.2338 53.0856 30.1293 53.1505 30.0721 53.2298C30.0149 53.3092 29.9104 53.3741 29.8398 53.3741C29.7693 53.3741 29.7115 53.4065 29.7115 53.4462C29.7115 53.4859 29.6466 53.5183 29.5673 53.5183C29.488 53.5183 29.4231 53.5508 29.4231 53.5905C29.4231 53.6301 29.3582 53.6626 29.2788 53.6626C29.1995 53.6626 29.1346 53.695 29.1346 53.7347C29.1346 53.7744 29.0697 53.8068 28.9904 53.8068C28.9111 53.8068 28.8462 53.8393 28.8462 53.879C28.8462 53.9186 28.7488 53.9511 28.6298 53.9511C28.5108 53.9511 28.4135 53.9836 28.4135 54.0232C28.4135 54.0629 28.3486 54.0954 28.2692 54.0954C28.1899 54.0954 28.125 54.1278 28.125 54.1675C28.125 54.2072 28.0276 54.2396 27.9087 54.2396C27.7897 54.2396 27.6923 54.2721 27.6923 54.3117C27.6923 54.3514 27.6274 54.3839 27.5481 54.3839C27.4688 54.3839 27.4038 54.4163 27.4038 54.456C27.4038 54.4957 27.3065 54.5281 27.1875 54.5281C27.0685 54.5281 26.9712 54.5606 26.9712 54.6002C26.9712 54.6399 26.8413 54.6724 26.6827 54.6724C26.524 54.6724 26.3942 54.7048 26.3942 54.7445C26.3942 54.7842 26.2644 54.8166 26.1058 54.8166C25.9471 54.8166 25.8173 54.8491 25.8173 54.8888C25.8173 54.9284 25.6875 54.9609 25.5288 54.9609C25.3702 54.9609 25.2404 54.9933 25.2404 55.033C25.2404 55.0731 25.0481 55.1051 24.8077 55.1051C24.5673 55.1051 24.375 55.1372 24.375 55.1773C24.375 55.22 24.1106 55.2494 23.726 55.2494C23.3414 55.2494 23.0769 55.2787 23.0769 55.3215C23.0769 55.3676 22.4519 55.3936 21.3462 55.3936C20.2404 55.3936 19.6154 55.3676 19.6154 55.3215C19.6154 55.2787 19.3509 55.2494 18.9663 55.2494C18.5818 55.2494 18.3173 55.22 18.3173 55.1773C18.3173 55.1372 18.125 55.1051 17.8846 55.1051C17.6443 55.1051 17.4519 55.0731 17.4519 55.033C17.4519 54.9929 17.2596 54.9609 17.0192 54.9609C16.7789 54.9609 16.5865 54.9289 16.5865 54.8888C16.5865 54.8491 16.4243 54.8166 16.226 54.8166C16.0276 54.8166 15.8654 54.7842 15.8654 54.7445C15.8654 54.7048 15.7356 54.6724 15.5769 54.6724C15.4183 54.6724 15.2885 54.6399 15.2885 54.6002C15.2885 54.5606 15.1587 54.5281 15 54.5281C14.8413 54.5281 14.7115 54.4957 14.7115 54.456C14.7115 54.4163 14.6142 54.3839 14.4952 54.3839C14.3762 54.3839 14.2788 54.3514 14.2788 54.3117C14.2788 54.2721 14.149 54.2396 13.9904 54.2396C13.8317 54.2396 13.7019 54.2072 13.7019 54.1675C13.7019 54.1278 13.6073 54.0954 13.4916 54.0954C13.3759 54.0954 13.2668 54.0547 13.249 54.0052C13.2314 53.9556 13.1924 53.9378 13.1624 53.9657C13.0894 54.0335 13.3016 54.2396 13.4444 54.2396C13.5067 54.2396 13.5577 54.2721 13.5577 54.3117C13.5577 54.3514 13.6155 54.3839 13.686 54.3839C13.7566 54.3839 13.8611 54.4488 13.9183 54.5281C13.9755 54.6075 14.08 54.6724 14.1506 54.6724C14.2211 54.6724 14.2788 54.7048 14.2788 54.7445C14.2788 54.7842 14.3438 54.8166 14.4231 54.8166C14.5024 54.8166 14.5673 54.8491 14.5673 54.8888C14.5673 54.9284 14.6322 54.9609 14.7115 54.9609C14.7909 54.9609 14.8558 54.9933 14.8558 55.033C14.8558 55.0727 14.9135 55.1051 14.9841 55.1051C15.0547 55.1051 15.1592 55.1701 15.2163 55.2494C15.2735 55.3287 15.378 55.3936 15.4486 55.3936C15.5192 55.3936 15.5769 55.4261 15.5769 55.4658C15.5769 55.5054 15.6418 55.5379 15.7212 55.5379C15.8005 55.5379 15.8654 55.5704 15.8654 55.61C15.8654 55.6497 15.9303 55.6822 16.0096 55.6822C16.0889 55.6822 16.1538 55.7146 16.1538 55.7543C16.1538 55.7939 16.2188 55.8264 16.2981 55.8264C16.3774 55.8264 16.4423 55.8589 16.4423 55.8985C16.4423 55.9382 16.5397 55.9707 16.6587 55.9707C16.7776 55.9707 16.875 56.0031 16.875 56.0428C16.875 56.0825 16.9399 56.1149 17.0192 56.1149C17.0986 56.1149 17.1635 56.1474 17.1635 56.187C17.1635 56.2267 17.2284 56.2592 17.3077 56.2592C17.387 56.2592 17.4519 56.2916 17.4519 56.3313C17.4519 56.371 17.5168 56.4034 17.5962 56.4034C17.6755 56.4034 17.7404 56.4359 17.7404 56.4756C17.7404 56.5152 17.8377 56.5477 17.9567 56.5477C18.0757 56.5477 18.1731 56.5801 18.1731 56.6198C18.1731 56.6595 18.238 56.6919 18.3173 56.6919C18.3966 56.6919 18.4615 56.7244 18.4615 56.7641C18.4615 56.8037 18.5589 56.8362 18.6779 56.8362C18.7969 56.8362 18.8942 56.8686 18.8942 56.9083C18.8942 56.948 18.9591 56.9804 19.0385 56.9804C19.1178 56.9804 19.1827 57.0129 19.1827 57.0526C19.1827 57.0922 19.28 57.1247 19.399 57.1247C19.518 57.1247 19.6154 57.1572 19.6154 57.1968C19.6154 57.2365 19.7127 57.269 19.8317 57.269C19.9507 57.269 20.0481 57.3014 20.0481 57.3411C20.0481 57.3807 20.1454 57.4132 20.2644 57.4132C20.3834 57.4132 20.4808 57.4457 20.4808 57.4853C20.4808 57.525 20.5781 57.5575 20.6971 57.5575C20.8161 57.5575 20.9135 57.5899 20.9135 57.6296C20.9135 57.6693 21.0108 57.7017 21.1298 57.7017C21.2488 57.7017 21.3462 57.7342 21.3462 57.7738C21.3462 57.8135 21.476 57.846 21.6346 57.846C21.7933 57.846 21.9231 57.8784 21.9231 57.9181C21.9231 57.9578 22.0529 57.9902 22.2115 57.9902C22.3702 57.9902 22.5 58.0227 22.5 58.0623C22.5 58.102 22.6298 58.1345 22.7885 58.1345C22.9471 58.1345 23.0769 58.1669 23.0769 58.2066C23.0769 58.2463 23.2067 58.2787 23.3654 58.2787C23.524 58.2787 23.6538 58.3112 23.6538 58.3509C23.6538 58.3905 23.8161 58.423 24.0144 58.423C24.2127 58.423 24.375 58.4554 24.375 58.4951C24.375 58.5352 24.5673 58.5672 24.8077 58.5672C25.0481 58.5672 25.2404 58.5993 25.2404 58.6394C25.2404 58.6805 25.4567 58.7115 25.7452 58.7115C26.0337 58.7115 26.25 58.7424 26.25 58.7836C26.25 58.8264 26.5144 58.8557 26.899 58.8557C27.2836 58.8557 27.5481 58.8851 27.5481 58.9279C27.5481 58.9747 28.4856 59 30.2163 59C31.9471 59 32.8846 58.9747 32.8846 58.9279C32.8846 58.8851 33.1491 58.8557 33.5337 58.8557C33.9182 58.8557 34.1827 58.8264 34.1827 58.7836C34.1827 58.7424 34.399 58.7115 34.6875 58.7115C34.976 58.7115 35.1923 58.6805 35.1923 58.6394C35.1923 58.5997 35.3546 58.5672 35.5529 58.5672C35.7512 58.5672 35.9135 58.5348 35.9135 58.4951C35.9135 58.4554 36.0757 58.423 36.274 58.423C36.4724 58.423 36.6346 58.3905 36.6346 58.3509C36.6346 58.3112 36.7969 58.2787 36.9952 58.2787C37.1935 58.2787 37.3558 58.2463 37.3558 58.2066C37.3558 58.1669 37.4856 58.1345 37.6442 58.1345C37.8029 58.1345 37.9327 58.102 37.9327 58.0623C37.9327 58.0227 38.03 57.9902 38.149 57.9902C38.268 57.9902 38.3654 57.9578 38.3654 57.9181C38.3654 57.8784 38.4952 57.846 38.6538 57.846C38.8125 57.846 38.9423 57.8135 38.9423 57.7738C38.9423 57.7342 39.0397 57.7017 39.1587 57.7017C39.2776 57.7017 39.375 57.6693 39.375 57.6296C39.375 57.5899 39.4724 57.5575 39.5913 57.5575C39.7103 57.5575 39.8077 57.525 39.8077 57.4853C39.8077 57.4457 39.905 57.4132 40.024 57.4132C40.143 57.4132 40.2404 57.3807 40.2404 57.3411C40.2404 57.3014 40.3377 57.269 40.4567 57.269C40.5757 57.269 40.6731 57.2365 40.6731 57.1968C40.6731 57.1572 40.738 57.1247 40.8173 57.1247C40.8966 57.1247 40.9615 57.0922 40.9615 57.0526C40.9615 57.0129 41.0589 56.9804 41.1779 56.9804C41.2969 56.9804 41.3942 56.948 41.3942 56.9083C41.3942 56.8686 41.4591 56.8362 41.5385 56.8362C41.6178 56.8362 41.6827 56.8037 41.6827 56.7641C41.6827 56.7244 41.78 56.6919 41.899 56.6919C42.018 56.6919 42.1154 56.6595 42.1154 56.6198C42.1154 56.5801 42.1803 56.5477 42.2596 56.5477C42.3389 56.5477 42.4038 56.5152 42.4038 56.4756C42.4038 56.4359 42.4688 56.4034 42.5481 56.4034C42.6274 56.4034 42.6923 56.371 42.6923 56.3313C42.6923 56.2916 42.7572 56.2592 42.8365 56.2592C42.9159 56.2592 42.9808 56.2267 42.9808 56.187C42.9808 56.1474 43.0457 56.1149 43.125 56.1149C43.2043 56.1149 43.2692 56.0825 43.2692 56.0428C43.2692 56.0031 43.3341 55.9707 43.4135 55.9707C43.4928 55.9707 43.5577 55.9382 43.5577 55.8985C43.5577 55.8589 43.6226 55.8264 43.7019 55.8264C43.7812 55.8264 43.8462 55.7939 43.8462 55.7543C43.8462 55.7146 43.9111 55.6822 43.9904 55.6822C44.0697 55.6822 44.1346 55.6497 44.1346 55.61C44.1346 55.5704 44.1995 55.5379 44.2788 55.5379C44.3582 55.5379 44.4231 55.5054 44.4231 55.4658C44.4231 55.4261 44.488 55.3936 44.5673 55.3936C44.6466 55.3936 44.7115 55.3612 44.7115 55.3215C44.7115 55.2818 44.7693 55.2494 44.8398 55.2494C44.9104 55.2494 45.0149 55.1845 45.0721 55.1051C45.1293 55.0258 45.2338 54.9609 45.3044 54.9609C45.3749 54.9609 45.4327 54.9284 45.4327 54.8888C45.4327 54.8491 45.4905 54.8166 45.561 54.8166C45.6316 54.8166 45.7361 54.7517 45.7933 54.6724C45.8505 54.593 45.9549 54.5281 46.0255 54.5281C46.0961 54.5281 46.1538 54.4957 46.1538 54.456C46.1538 54.4163 46.2116 54.3839 46.2821 54.3839C46.3527 54.3839 46.4572 54.319 46.5144 54.2396C46.5716 54.1603 46.6622 54.0954 46.7158 54.0954C46.8464 54.0954 47.0505 53.8852 46.9819 53.8214C46.9519 53.7936 46.9129 53.8114 46.8952 53.8609C46.8775 53.9105 46.7683 53.9511 46.6527 53.9511C46.537 53.9511 46.4423 53.9836 46.4423 54.0232C46.4423 54.0629 46.3125 54.0954 46.1538 54.0954C45.9952 54.0954 45.8654 54.1278 45.8654 54.1675C45.8654 54.2072 45.768 54.2396 45.649 54.2396C45.53 54.2396 45.4327 54.2721 45.4327 54.3117C45.4327 54.3514 45.3029 54.3839 45.1442 54.3839C44.9856 54.3839 44.8558 54.4163 44.8558 54.456C44.8558 54.4957 44.6935 54.5281 44.4952 54.5281C44.2969 54.5281 44.1346 54.5606 44.1346 54.6002C44.1346 54.6414 43.9183 54.6724 43.6298 54.6724C43.3413 54.6724 43.125 54.7033 43.125 54.7445C43.125 54.7882 42.8125 54.8166 42.3317 54.8166C41.8509 54.8166 41.5385 54.845 41.5385 54.8888C41.5385 54.9331 41.1779 54.9609 40.601 54.9609C40.024 54.9609 39.6635 54.9331 39.6635 54.8888C39.6635 54.8441 39.2789 54.8166 38.6538 54.8166C38.0288 54.8166 37.6442 54.7891 37.6442 54.7445C37.6442 54.7012 37.3558 54.6724 36.9231 54.6724C36.4904 54.6724 36.2019 54.6435 36.2019 54.6002C36.2019 54.5582 35.9616 54.5281 35.625 54.5281C35.2884 54.5281 35.0481 54.498 35.0481 54.456C35.0481 54.4142 34.818 54.3839 34.5021 54.3839C34.1147 54.3839 33.9249 54.3526 33.8487 54.2765C33.7536 54.1814 33.7995 54.1116 34.2505 53.6669C34.5305 53.3907 34.7596 53.1298 34.7596 53.0871C34.7596 53.0444 35.1815 52.5893 35.6971 52.0758C36.2127 51.5623 36.6346 51.1076 36.6346 51.0654C36.6346 51.0233 36.9591 50.6666 37.3558 50.2726C37.7524 49.8787 38.0769 49.5214 38.0769 49.4786C38.0769 49.4359 38.3365 49.144 38.6538 48.8301C38.9712 48.5161 39.2308 48.2091 39.2308 48.148C39.2308 47.9808 39.6092 48.0054 39.7356 48.1809C39.7967 48.2656 39.9223 48.3252 40.04 48.3252C40.1502 48.3252 40.2404 48.3576 40.2404 48.3973C40.2404 48.437 40.3053 48.4694 40.3846 48.4694C40.4639 48.4694 40.5288 48.5019 40.5288 48.5416C40.5288 48.5812 40.5938 48.6137 40.6731 48.6137C40.7524 48.6137 40.8173 48.6461 40.8173 48.6858C40.8173 48.7255 40.9147 48.7579 41.0337 48.7579C41.1526 48.7579 41.25 48.7904 41.25 48.8301C41.25 48.8697 41.3474 48.9022 41.4663 48.9022C41.5853 48.9022 41.6827 48.9347 41.6827 48.9743C41.6827 49.014 41.78 49.0465 41.899 49.0465C42.018 49.0465 42.1154 49.0789 42.1154 49.1186C42.1154 49.1583 42.2776 49.1907 42.476 49.1907C42.6743 49.1907 42.8365 49.2232 42.8365 49.2628C42.8365 49.3049 43.0769 49.335 43.4135 49.335C43.75 49.335 43.9904 49.365 43.9904 49.4071C43.9904 49.4504 44.2788 49.4792 44.7115 49.4792C45.1442 49.4792 45.4327 49.4504 45.4327 49.4071C45.4327 49.3659 45.649 49.335 45.9375 49.335C46.226 49.335 46.4423 49.304 46.4423 49.2628C46.4423 49.2232 46.6046 49.1907 46.8029 49.1907C47.0012 49.1907 47.1635 49.1583 47.1635 49.1186C47.1635 49.0789 47.2933 49.0465 47.4519 49.0465C47.6106 49.0465 47.7404 49.014 47.7404 48.9743C47.7404 48.9347 47.8377 48.9022 47.9567 48.9022C48.0757 48.9022 48.1731 48.8697 48.1731 48.8301C48.1731 48.7904 48.238 48.7579 48.3173 48.7579C48.3966 48.7579 48.4615 48.7255 48.4615 48.6858C48.4615 48.6461 48.5589 48.6137 48.6779 48.6137C48.7969 48.6137 48.8942 48.5812 48.8942 48.5416C48.8942 48.5019 48.9591 48.4694 49.0385 48.4694C49.1178 48.4694 49.1827 48.437 49.1827 48.3973C49.1827 48.3576 49.2476 48.3252 49.3269 48.3252C49.4062 48.3252 49.4712 48.2927 49.4712 48.2531C49.4712 48.2134 49.5361 48.1809 49.6154 48.1809C49.6947 48.1809 49.7596 48.1485 49.7596 48.1088C49.7596 48.0691 49.8245 48.0367 49.9038 48.0367C49.9832 48.0367 50.0481 48.0042 50.0481 47.9646C50.0481 47.9249 50.1058 47.8924 50.1764 47.8924C50.247 47.8924 50.3515 47.8275 50.4087 47.7482C50.4658 47.6688 50.5632 47.6039 50.625 47.6039C50.6868 47.6039 50.7842 47.539 50.8413 47.4597C50.8985 47.3803 50.9959 47.3154 51.0577 47.3154C51.1195 47.3154 51.2169 47.2505 51.274 47.1712C51.3312 47.0918 51.4227 47.0269 51.4774 47.0269C51.532 47.0269 51.6677 46.9295 51.7788 46.8105C51.89 46.6915 52.0168 46.5941 52.0607 46.5941C52.1045 46.5941 52.7405 45.9939 53.4741 45.2603C54.2075 44.5266 54.8077 43.8905 54.8077 43.8467C54.8077 43.8028 54.905 43.6759 55.024 43.5648C55.143 43.4536 55.2404 43.3238 55.2404 43.2763C55.2404 43.2288 55.3377 43.0989 55.4567 42.9878C55.5757 42.8766 55.6731 42.7409 55.6731 42.6863C55.6731 42.6316 55.738 42.5401 55.8173 42.4829C55.8966 42.4257 55.9615 42.3283 55.9615 42.2665C55.9615 42.2047 56.0264 42.1073 56.1058 42.0501C56.1851 41.9929 56.25 41.8956 56.25 41.8337C56.25 41.7719 56.3149 41.6746 56.3942 41.6174C56.4736 41.5602 56.5385 41.4557 56.5385 41.385C56.5385 41.3145 56.5709 41.2567 56.6106 41.2567C56.6502 41.2567 56.6827 41.199 56.6827 41.1284C56.6827 41.0578 56.7476 40.9533 56.8269 40.8961C56.9062 40.8389 56.9712 40.7344 56.9712 40.6638C56.9712 40.5932 57.0036 40.5355 57.0433 40.5355C57.0829 40.5355 57.1154 40.4705 57.1154 40.3912C57.1154 40.3119 57.1478 40.2469 57.1875 40.2469C57.2272 40.2469 57.2596 40.182 57.2596 40.1027C57.2596 40.0233 57.2921 39.9584 57.3317 39.9584C57.3714 39.9584 57.4038 39.8935 57.4038 39.8142C57.4038 39.7348 57.4363 39.6699 57.476 39.6699C57.5156 39.6699 57.5481 39.605 57.5481 39.5257C57.5481 39.4463 57.5805 39.3814 57.6202 39.3814C57.6599 39.3814 57.6923 39.3165 57.6923 39.2372C57.6923 39.1578 57.7248 39.0929 57.7644 39.0929C57.8041 39.0929 57.8365 39.028 57.8365 38.9487C57.8365 38.8693 57.869 38.8044 57.9087 38.8044C57.9483 38.8044 57.9808 38.707 57.9808 38.588C57.9808 38.469 58.0132 38.3716 58.0529 38.3716C58.0925 38.3716 58.125 38.3067 58.125 38.2274C58.125 38.148 58.1575 38.0831 58.1971 38.0831C58.2368 38.0831 58.2692 37.9858 58.2692 37.8667C58.2692 37.7477 58.3017 37.6504 58.3413 37.6504C58.381 37.6504 58.4135 37.5855 58.4135 37.5061C58.4135 37.4268 58.4459 37.3619 58.4856 37.3619C58.5252 37.3619 58.5577 37.2645 58.5577 37.1455C58.5577 37.0265 58.5901 36.9291 58.6298 36.9291C58.6695 36.9291 58.7019 36.8317 58.7019 36.7127C58.7019 36.5937 58.7344 36.4963 58.774 36.4963C58.8137 36.4963 58.8462 36.399 58.8462 36.28C58.8462 36.1609 58.8786 36.0636 58.9183 36.0636C58.9579 36.0636 58.9904 35.9662 58.9904 35.8472C58.9904 35.7282 59.0228 35.6308 59.0625 35.6308C59.1022 35.6308 59.1346 35.501 59.1346 35.3423C59.1346 35.1836 59.1671 35.0538 59.2067 35.0538C59.2464 35.0538 59.2788 34.924 59.2788 34.7653C59.2788 34.6066 59.3113 34.4768 59.351 34.4768C59.3906 34.4768 59.4231 34.3469 59.4231 34.1883C59.4231 34.0296 59.4555 33.8998 59.4952 33.8998C59.5349 33.8998 59.5673 33.7375 59.5673 33.5391C59.5673 33.3408 59.5998 33.1785 59.6394 33.1785C59.6795 33.1785 59.7115 32.9861 59.7115 32.7457C59.7115 32.5053 59.7436 32.313 59.7837 32.313C59.8264 32.313 59.8558 32.0485 59.8558 31.6638C59.8558 31.2792 59.8851 31.0147 59.9279 31.0147C59.9741 31.0147 60 30.3415 60 29.1394C60 27.9372 59.9741 27.2641 59.9279 27.2641C59.8858 27.2641 59.8558 27.0237 59.8558 26.687C59.8558 26.3504 59.8257 26.11 59.7837 26.11C59.7436 26.11 59.7115 25.9177 59.7115 25.6773C59.7115 25.4369 59.6795 25.2445 59.6394 25.2445C59.5998 25.2445 59.5673 25.0822 59.5673 24.8839C59.5673 24.6855 59.5349 24.5232 59.4952 24.5232C59.4555 24.5232 59.4231 24.3934 59.4231 24.2347C59.4231 24.076 59.3906 23.9462 59.351 23.9462C59.3113 23.9462 59.2788 23.8488 59.2788 23.7298C59.2788 23.6108 59.2464 23.5134 59.2067 23.5134C59.1671 23.5134 59.1346 23.3836 59.1346 23.2249C59.1346 23.0663 59.1022 22.9364 59.0625 22.9364C59.0228 22.9364 58.9904 22.8391 58.9904 22.72C58.9904 22.601 58.9579 22.5037 58.9183 22.5037C58.8786 22.5037 58.8462 22.4063 58.8462 22.2873C58.8462 22.1683 58.8137 22.0709 58.774 22.0709C58.7344 22.0709 58.7019 21.9735 58.7019 21.8545C58.7019 21.7355 58.6695 21.6381 58.6298 21.6381C58.5901 21.6381 58.5577 21.5732 58.5577 21.4939C58.5577 21.4145 58.5252 21.3496 58.4856 21.3496C58.4459 21.3496 58.4135 21.2523 58.4135 21.1333C58.4135 21.0142 58.381 20.9169 58.3413 20.9169C58.3017 20.9169 58.2692 20.852 58.2692 20.7726C58.2692 20.6933 58.2368 20.6284 58.1971 20.6284C58.1575 20.6284 58.125 20.531 58.125 20.412C58.125 20.293 58.0925 20.1956 58.0529 20.1956C58.0132 20.1956 57.9808 20.1307 57.9808 20.0513C57.9808 19.972 57.9483 19.9071 57.9087 19.9071C57.869 19.9071 57.8365 19.8422 57.8365 19.7628C57.8365 19.6835 57.8041 19.6186 57.7644 19.6186C57.7248 19.6186 57.6923 19.5537 57.6923 19.4743C57.6923 19.395 57.6599 19.3301 57.6202 19.3301C57.5805 19.3301 57.5481 19.2327 57.5481 19.1137C57.5481 18.9947 57.5156 18.8973 57.476 18.8973C57.4363 18.8973 57.4038 18.8395 57.4038 18.769C57.4038 18.6984 57.3389 18.5939 57.2596 18.5367C57.1803 18.4795 57.1154 18.375 57.1154 18.3044C57.1154 18.2338 57.0829 18.176 57.0433 18.176C57.0036 18.176 56.9712 18.1111 56.9712 18.0318C56.9712 17.9524 56.9387 17.8875 56.899 17.8875C56.8594 17.8875 56.8269 17.8226 56.8269 17.7433C56.8269 17.6639 56.7945 17.599 56.7548 17.599C56.7151 17.599 56.6827 17.5412 56.6827 17.4707C56.6827 17.4001 56.6178 17.2956 56.5385 17.2384C56.4591 17.1812 56.3942 17.0767 56.3942 17.0061C56.3942 16.9355 56.3618 16.8778 56.3221 16.8778C56.2825 16.8778 56.25 16.82 56.25 16.7494C56.25 16.6788 56.1851 16.5743 56.1058 16.5171C56.0264 16.4599 55.9615 16.3625 55.9615 16.3007C55.9615 16.2389 55.8966 16.1416 55.8173 16.0844C55.738 16.0272 55.6731 15.9298 55.6731 15.868C55.6731 15.8062 55.6082 15.7088 55.5288 15.6516C55.4495 15.5944 55.3846 15.5029 55.3846 15.4482C55.3846 15.3936 55.2873 15.2578 55.1683 15.1467C55.0493 15.0356 54.9519 14.9064 54.9519 14.8596C54.9519 14.813 54.8221 14.65 54.6635 14.4976C54.5048 14.3451 54.375 14.1851 54.375 14.142C54.375 14.0398 51.876 11.5403 51.7737 11.5403C51.7307 11.5403 51.5707 11.4105 51.4183 11.2518C51.2658 11.0932 51.0971 10.9633 51.0432 10.9633C50.9893 10.9633 50.8985 10.8984 50.8413 10.8191C50.7842 10.7397 50.6868 10.6748 50.625 10.6748C50.5632 10.6748 50.4658 10.6099 50.4087 10.5306C50.3515 10.4512 50.2541 10.3863 50.1923 10.3863C50.1305 10.3863 50.0331 10.3214 49.976 10.2421C49.9188 10.1627 49.8143 10.0978 49.7437 10.0978C49.6732 10.0978 49.6154 10.0653 49.6154 10.0257C49.6154 9.986 49.5505 9.95355 49.4712 9.95355C49.3918 9.95355 49.3269 9.92109 49.3269 9.88142C49.3269 9.84175 49.262 9.80929 49.1827 9.80929C49.1034 9.80929 49.0385 9.77683 49.0385 9.73716C49.0385 9.69749 48.9736 9.66504 48.8942 9.66504C48.8149 9.66504 48.75 9.63258 48.75 9.59291C48.75 9.55324 48.6851 9.52078 48.6058 9.52078C48.5264 9.52078 48.4615 9.48833 48.4615 9.44866C48.4615 9.40899 48.3966 9.37653 48.3173 9.37653C48.238 9.37653 48.1731 9.34407 48.1731 9.3044C48.1731 9.26473 48.0757 9.23227 47.9567 9.23227C47.8377 9.23227 47.7404 9.19982 47.7404 9.16015C47.7404 9.12048 47.6755 9.08802 47.5962 9.08802C47.5168 9.08802 47.4519 9.05556 47.4519 9.01589C47.4519 8.97622 47.3546 8.94377 47.2356 8.94377C47.1166 8.94377 47.0192 8.91131 47.0192 8.87164C47.0192 8.83197 46.8894 8.79951 46.7308 8.79951C46.5721 8.79951 46.4423 8.76705 46.4423 8.72738C46.4423 8.68771 46.3125 8.65526 46.1538 8.65526C45.9952 8.65526 45.8654 8.6228 45.8654 8.58313C45.8654 8.54303 45.6731 8.511 45.4327 8.511C45.1923 8.511 45 8.47898 45 8.43888C45 8.39344 44.5192 8.36675 43.7019 8.36675C42.8846 8.36675 42.4038 8.39344 42.4038 8.43888C42.4038 8.47898 42.2115 8.511 41.9712 8.511C41.7308 8.511 41.5385 8.54303 41.5385 8.58313C41.5385 8.6228 41.4087 8.65526 41.25 8.65526C41.0913 8.65526 40.9615 8.68771 40.9615 8.72738C40.9615 8.76705 40.8317 8.79951 40.6731 8.79951C40.5144 8.79951 40.3846 8.83197 40.3846 8.87164C40.3846 8.91131 40.2873 8.94377 40.1683 8.94377C40.0493 8.94377 39.9519 8.97622 39.9519 9.01589C39.9519 9.05556 39.887 9.08802 39.8077 9.08802C39.7284 9.08802 39.6635 9.12048 39.6635 9.16015C39.6635 9.19982 39.5661 9.23227 39.4471 9.23227C39.3281 9.23227 39.2308 9.26473 39.2308 9.3044C39.2308 9.34407 39.1659 9.37653 39.0865 9.37653C39.0072 9.37653 38.9423 9.40899 38.9423 9.44866C38.9423 9.48833 38.8774 9.52078 38.7981 9.52078C38.7188 9.52078 38.6538 9.55324 38.6538 9.59291C38.6538 9.63258 38.5889 9.66504 38.5096 9.66504C38.4303 9.66504 38.3654 9.69749 38.3654 9.73716C38.3654 9.77683 38.3005 9.80929 38.2212 9.80929C38.1418 9.80929 38.0769 9.84175 38.0769 9.88142C38.0769 9.92109 38.0192 9.95355 37.9486 9.95355C37.878 9.95355 37.7735 10.0185 37.7163 10.0978C37.6592 10.1771 37.5618 10.2421 37.5 10.2421C37.4382 10.2421 37.3408 10.307 37.2837 10.3863C37.2265 10.4656 37.1291 10.5306 37.0673 10.5306C37.0055 10.5306 36.9081 10.5955 36.851 10.6748C36.7938 10.7542 36.7023 10.8191 36.6476 10.8191C36.593 10.8191 36.4573 10.9164 36.3462 11.0355C36.235 11.1545 36.107 11.2518 36.0617 11.2518C36.0164 11.2518 35.7226 11.5115 35.4087 11.8289C35.0947 12.1462 34.8026 12.4059 34.7594 12.4059C34.6576 12.4059 34.3269 12.7366 34.3269 12.8384C34.3269 12.8816 34.0673 13.1738 33.75 13.4878C33.4327 13.8017 33.1731 14.095 33.1731 14.1395C33.1731 14.1839 33.0433 14.3451 32.8846 14.4976C32.726 14.65 32.5962 14.813 32.5962 14.8596C32.5962 14.9064 32.4988 15.0356 32.3798 15.1467C32.2608 15.2578 32.1635 15.3936 32.1635 15.4482C32.1635 15.5029 32.0986 15.5944 32.0192 15.6516C31.9399 15.7088 31.875 15.8062 31.875 15.868C31.875 15.9298 31.8101 16.0272 31.7308 16.0844C31.6514 16.1416 31.5865 16.2461 31.5865 16.3167C31.5865 16.3872 31.5541 16.445 31.5144 16.445C31.4748 16.445 31.4423 16.5028 31.4423 16.5733C31.4423 16.6439 31.3774 16.7484 31.2981 16.8056C31.2188 16.8628 31.1538 16.9673 31.1538 17.0379C31.1538 17.1085 31.1214 17.1663 31.0817 17.1663C31.0421 17.1663 31.0096 17.2312 31.0096 17.3105C31.0096 17.3899 30.9772 17.4548 30.9375 17.4548C30.8978 17.4548 30.8654 17.5197 30.8654 17.599C30.8654 17.6784 30.8329 17.7433 30.7933 17.7433C30.7536 17.7433 30.7212 17.8082 30.7212 17.8875C30.7212 17.9669 30.6887 18.0318 30.649 18.0318C30.6094 18.0318 30.5769 18.0967 30.5769 18.176C30.5769 18.2554 30.5445 18.3203 30.5048 18.3203C30.4651 18.3203 30.4327 18.4177 30.4327 18.5367C30.4327 18.6557 30.4002 18.7531 30.3606 18.7531C30.3209 18.7531 30.2885 18.818 30.2885 18.8973C30.2885 18.9767 30.256 19.0416 30.2163 19.0416C30.1767 19.0416 30.1442 19.1389 30.1442 19.2579C30.1442 19.377 30.1118 19.4743 30.0721 19.4743C30.0325 19.4743 30 19.5392 30 19.6186C30 19.6979 29.9675 19.7628 29.9279 19.7628C29.8882 19.7628 29.8558 19.8602 29.8558 19.9792C29.8558 20.0982 29.8233 20.1956 29.7837 20.1956C29.744 20.1956 29.7115 20.3254 29.7115 20.4841C29.7115 20.6428 29.6791 20.7726 29.6394 20.7726C29.5998 20.7726 29.5673 20.87 29.5673 20.989C29.5673 21.108 29.5349 21.2054 29.4952 21.2054C29.4555 21.2054 29.4231 21.3352 29.4231 21.4939C29.4231 21.6526 29.3906 21.7824 29.351 21.7824C29.3113 21.7824 29.2788 21.9122 29.2788 22.0709C29.2788 22.2296 29.2464 22.3594 29.2067 22.3594C29.1671 22.3594 29.1346 22.5217 29.1346 22.72C29.1346 22.9184 29.1022 23.0807 29.0625 23.0807C29.0228 23.0807 28.9904 23.243 28.9904 23.4413C28.9904 23.6397 28.9579 23.802 28.9183 23.802C28.8782 23.802 28.8462 23.9943 28.8462 24.2347C28.8462 24.4751 28.8141 24.6675 28.774 24.6675C28.7329 24.6675 28.7019 24.8839 28.7019 25.1724C28.7019 25.4609 28.671 25.6773 28.6298 25.6773C28.587 25.6773 28.5577 25.9418 28.5577 26.3264C28.5577 26.7111 28.5283 26.9756 28.4856 26.9756C28.4423 26.9756 28.4135 27.2641 28.4135 27.6968C28.4135 28.1296 28.3846 28.4181 28.3413 28.4181C28.2976 28.4181 28.2692 28.7306 28.2692 29.2115C28.2692 29.6924 28.2408 30.0049 28.1971 30.0049C28.1538 30.0049 28.125 30.2934 28.125 30.7262C28.125 31.1589 28.0962 31.4474 28.0529 31.4474C28.0096 31.4474 27.9808 31.7359 27.9808 32.1687C27.9808 32.6015 27.9519 32.89 27.9087 32.89C27.8666 32.89 27.8365 33.1304 27.8365 33.467C27.8365 33.8036 27.8065 34.044 27.7644 34.044C27.7243 34.044 27.6923 34.2364 27.6923 34.4768C27.6923 34.7172 27.6603 34.9095 27.6202 34.9095C27.5801 34.9095 27.5481 35.1019 27.5481 35.3423C27.5481 35.5827 27.5161 35.7751 27.476 35.7751C27.4363 35.7751 27.4038 35.9049 27.4038 36.0636C27.4038 36.2223 27.3714 36.3521 27.3317 36.3521C27.2921 36.3521 27.2596 36.5144 27.2596 36.7127C27.2596 36.9111 27.2272 37.0733 27.1875 37.0733C27.1478 37.0733 27.1154 37.2032 27.1154 37.3619C27.1154 37.5205 27.0829 37.6504 27.0433 37.6504C27.0036 37.6504 26.9712 37.7477 26.9712 37.8667C26.9712 37.9858 26.9387 38.0831 26.899 38.0831C26.8594 38.0831 26.8269 38.1805 26.8269 38.2995C26.8269 38.4185 26.7945 38.5159 26.7548 38.5159C26.7151 38.5159 26.6827 38.6133 26.6827 38.7323C26.6827 38.8513 26.6502 38.9487 26.6106 38.9487C26.5709 38.9487 26.5385 39.046 26.5385 39.165C26.5385 39.284 26.506 39.3814 26.4663 39.3814C26.4267 39.3814 26.3942 39.4788 26.3942 39.5978C26.3942 39.7168 26.3618 39.8142 26.3221 39.8142C26.2825 39.8142 26.25 39.8791 26.25 39.9584C26.25 40.0378 26.2175 40.1027 26.1779 40.1027C26.1382 40.1027 26.1058 40.1676 26.1058 40.2469C26.1058 40.3263 26.0733 40.3912 26.0337 40.3912C25.994 40.3912 25.9615 40.4886 25.9615 40.6076C25.9615 40.7266 25.9291 40.824 25.8894 40.824C25.8498 40.824 25.8173 40.8889 25.8173 40.9682C25.8173 41.0476 25.7849 41.1125 25.7452 41.1125C25.7055 41.1125 25.6731 41.1702 25.6731 41.2408C25.6731 41.3114 25.6082 41.4159 25.5288 41.4731C25.4495 41.5303 25.3846 41.6348 25.3846 41.7054C25.3846 41.776 25.3522 41.8337 25.3125 41.8337C25.2728 41.8337 25.2404 41.8987 25.2404 41.978C25.2404 42.0573 25.2079 42.1222 25.1683 42.1222C25.1286 42.1222 25.0962 42.18 25.0962 42.2506C25.0962 42.3212 25.0312 42.4257 24.9519 42.4829C24.8726 42.5401 24.8077 42.6375 24.8077 42.6993C24.8077 42.7611 24.7428 42.8585 24.6635 42.9156C24.5841 42.9728 24.5192 43.0644 24.5192 43.119C24.5192 43.1736 24.4219 43.3094 24.3029 43.4205C24.1839 43.5317 24.0865 43.6609 24.0865 43.7076C24.0865 43.7543 23.9567 43.9172 23.7981 44.0697C23.6394 44.2222 23.5096 44.3834 23.5096 44.4279C23.5096 44.4725 23.4281 44.5906 23.3284 44.6903C23.168 44.8507 23.1348 44.8592 23.0399 44.7643C22.9809 44.7053 22.9327 44.6132 22.9327 44.5596C22.9327 44.506 22.8678 44.4154 22.7885 44.3582C22.7091 44.301 22.6442 44.1965 22.6442 44.1259C22.6442 44.0553 22.6118 43.9976 22.5721 43.9976C22.5325 43.9976 22.5 43.9398 22.5 43.8692C22.5 43.7986 22.4351 43.6941 22.3558 43.6369C22.2764 43.5797 22.2115 43.4752 22.2115 43.4046C22.2115 43.3341 22.1791 43.2763 22.1394 43.2763C22.0998 43.2763 22.0673 43.2114 22.0673 43.132C22.0673 43.0527 22.0349 42.9878 21.9952 42.9878C21.9555 42.9878 21.9231 42.9229 21.9231 42.8435C21.9231 42.7642 21.8906 42.6993 21.851 42.6993C21.8113 42.6993 21.7788 42.6344 21.7788 42.555C21.7788 42.4757 21.7464 42.4108 21.7067 42.4108C21.6671 42.4108 21.6346 42.3458 21.6346 42.2665C21.6346 42.1872 21.6022 42.1222 21.5625 42.1222C21.5228 42.1222 21.4904 42.0573 21.4904 41.978C21.4904 41.8987 21.4579 41.8337 21.4183 41.8337C21.3786 41.8337 21.3462 41.7688 21.3462 41.6895C21.3462 41.6101 21.3137 41.5452 21.274 41.5452C21.2344 41.5452 21.2019 41.4479 21.2019 41.3289C21.2019 41.2098 21.1695 41.1125 21.1298 41.1125C21.0901 41.1125 21.0577 41.0476 21.0577 40.9682C21.0577 40.8889 21.0252 40.824 20.9856 40.824C20.9459 40.824 20.9135 40.7266 20.9135 40.6076C20.9135 40.4886 20.881 40.3912 20.8413 40.3912C20.8017 40.3912 20.7692 40.2938 20.7692 40.1748C20.7692 40.0558 20.7368 39.9584 20.6971 39.9584C20.6575 39.9584 20.625 39.8611 20.625 39.7421C20.625 39.623 20.5925 39.5257 20.5529 39.5257C20.5132 39.5257 20.4808 39.4283 20.4808 39.3093C20.4808 39.1903 20.4483 39.0929 20.4087 39.0929C20.369 39.0929 20.3365 38.9955 20.3365 38.8765C20.3365 38.7575 20.3041 38.6601 20.2644 38.6601C20.2248 38.6601 20.1923 38.5303 20.1923 38.3716C20.1923 38.213 20.1599 38.0831 20.1202 38.0831C20.0805 38.0831 20.0481 37.9533 20.0481 37.7946C20.0481 37.6359 20.0156 37.5061 19.976 37.5061C19.9363 37.5061 19.9038 37.3763 19.9038 37.2176C19.9038 37.0589 19.8714 36.9291 19.8317 36.9291C19.7921 36.9291 19.7596 36.7668 19.7596 36.5685C19.7596 36.3701 19.7272 36.2078 19.6875 36.2078C19.6478 36.2078 19.6154 36.0455 19.6154 35.8472C19.6154 35.6488 19.5829 35.4866 19.5433 35.4866C19.5021 35.4866 19.4712 35.2702 19.4712 34.9817C19.4712 34.6932 19.4402 34.4768 19.399 34.4768C19.357 34.4768 19.3269 34.2364 19.3269 33.8998C19.3269 33.5631 19.2969 33.3227 19.2548 33.3227C19.2111 33.3227 19.1827 33.0102 19.1827 32.5293C19.1827 32.0485 19.1543 31.7359 19.1106 31.7359C19.064 31.7359 19.0385 30.9185 19.0385 29.4279C19.0385 27.9372 19.064 27.1198 19.1106 27.1198C19.1546 27.1198 19.1827 26.7832 19.1827 26.2543C19.1827 25.7254 19.2107 25.3888 19.2548 25.3888C19.2969 25.3888 19.3269 25.1484 19.3269 24.8117C19.3269 24.4751 19.357 24.2347 19.399 24.2347C19.4391 24.2347 19.4712 24.0424 19.4712 23.802C19.4712 23.5616 19.5032 23.3692 19.5433 23.3692C19.5834 23.3692 19.6154 23.1768 19.6154 22.9364C19.6154 22.696 19.6474 22.5037 19.6875 22.5037C19.7272 22.5037 19.7596 22.3414 19.7596 22.143C19.7596 21.9447 19.7921 21.7824 19.8317 21.7824C19.8714 21.7824 19.9038 21.6526 19.9038 21.4939C19.9038 21.3352 19.9363 21.2054 19.976 21.2054C20.0156 21.2054 20.0481 21.0756 20.0481 20.9169C20.0481 20.7582 20.0805 20.6284 20.1202 20.6284C20.1599 20.6284 20.1923 20.4985 20.1923 20.3399C20.1923 20.1812 20.2248 20.0513 20.2644 20.0513C20.3041 20.0513 20.3365 19.9215 20.3365 19.7628C20.3365 19.6042 20.369 19.4743 20.4087 19.4743C20.4483 19.4743 20.4808 19.377 20.4808 19.2579C20.4808 19.1389 20.5132 19.0416 20.5529 19.0416C20.5925 19.0416 20.625 18.9442 20.625 18.8252C20.625 18.7062 20.6575 18.6088 20.6971 18.6088C20.7368 18.6088 20.7692 18.5114 20.7692 18.3924C20.7692 18.2734 20.8017 18.176 20.8413 18.176C20.881 18.176 20.9135 18.0787 20.9135 17.9597C20.9135 17.8406 20.9459 17.7433 20.9856 17.7433C21.0252 17.7433 21.0577 17.6459 21.0577 17.5269C21.0577 17.4079 21.0901 17.3105 21.1298 17.3105C21.1695 17.3105 21.2019 17.2456 21.2019 17.1663C21.2019 17.0869 21.2344 17.022 21.274 17.022C21.3137 17.022 21.3462 16.9246 21.3462 16.8056C21.3462 16.6866 21.3786 16.5892 21.4183 16.5892C21.4579 16.5892 21.4904 16.5243 21.4904 16.445C21.4904 16.3656 21.5228 16.3007 21.5625 16.3007C21.6022 16.3007 21.6346 16.2034 21.6346 16.0844C21.6346 15.9653 21.6671 15.868 21.7067 15.868C21.7464 15.868 21.7788 15.8031 21.7788 15.7237C21.7788 15.6444 21.8113 15.5795 21.851 15.5795C21.8906 15.5795 21.9231 15.5145 21.9231 15.4352C21.9231 15.3559 21.9555 15.291 21.9952 15.291C22.0349 15.291 22.0673 15.226 22.0673 15.1467C22.0673 15.0674 22.0998 15.0024 22.1394 15.0024C22.1791 15.0024 22.2115 14.9375 22.2115 14.8582C22.2115 14.7789 22.244 14.7139 22.2837 14.7139C22.3233 14.7139 22.3558 14.649 22.3558 14.5697C22.3558 14.4903 22.3882 14.4254 22.4279 14.4254C22.4675 14.4254 22.5 14.3605 22.5 14.2812C22.5 14.2018 22.5325 14.1369 22.5721 14.1369C22.6118 14.1369 22.6442 14.072 22.6442 13.9927C22.6442 13.9133 22.6767 13.8484 22.7163 13.8484C22.756 13.8484 22.7885 13.7906 22.7885 13.7201C22.7885 13.6495 22.8534 13.545 22.9327 13.4878C23.012 13.4306 23.0769 13.3261 23.0769 13.2555C23.0769 13.1849 23.1094 13.1271 23.149 13.1271C23.1887 13.1271 23.2212 13.0694 23.2212 12.9988C23.2212 12.9282 23.2861 12.8237 23.3654 12.7665C23.4447 12.7093 23.5096 12.6119 23.5096 12.5501C23.5096 12.4883 23.5745 12.3909 23.6538 12.3337C23.7332 12.2765 23.7981 12.1792 23.7981 12.1174C23.7981 12.0555 23.863 11.9582 23.9423 11.901C24.0216 11.8438 24.0865 11.7523 24.0865 11.6976C24.0865 11.643 24.1839 11.5072 24.3029 11.3961C24.4219 11.2849 24.5192 11.1551 24.5192 11.1076C24.5192 11.06 24.6166 10.9302 24.7356 10.8191C24.8546 10.7079 24.9519 10.5811 24.9519 10.5372C24.9519 10.433 27.5948 7.78973 27.6989 7.78973C27.7428 7.78973 27.8696 7.69236 27.9808 7.57335C28.0919 7.45434 28.2217 7.35697 28.2692 7.35697C28.3168 7.35697 28.4466 7.2596 28.5577 7.14059C28.6688 7.02158 28.8045 6.92421 28.8591 6.92421C28.9138 6.92421 29.0053 6.85929 29.0625 6.77995C29.1197 6.70061 29.2242 6.6357 29.2948 6.6357C29.3653 6.6357 29.4231 6.60324 29.4231 6.56357C29.4231 6.5239 29.4808 6.49144 29.5514 6.49144C29.622 6.49144 29.7265 6.42653 29.7837 6.34719C29.8408 6.26785 29.9453 6.20293 30.0159 6.20293C30.0865 6.20293 30.1442 6.17048 30.1442 6.13081C30.1442 6.09114 30.2091 6.05868 30.2885 6.05868C30.3678 6.05868 30.4327 6.02622 30.4327 5.98655C30.4327 5.94688 30.4976 5.91443 30.5769 5.91443C30.6562 5.91443 30.7212 5.88197 30.7212 5.8423C30.7212 5.80263 30.7861 5.77017 30.8654 5.77017C30.9447 5.77017 31.0096 5.73771 31.0096 5.69804C31.0096 5.65837 31.0745 5.62592 31.1538 5.62592C31.2332 5.62592 31.2981 5.59346 31.2981 5.55379C31.2981 5.51412 31.363 5.48166 31.4423 5.48166C31.5216 5.48166 31.5865 5.44921 31.5865 5.40954C31.5865 5.36987 31.6839 5.33741 31.8029 5.33741C31.9219 5.33741 32.0192 5.30495 32.0192 5.26528C32.0192 5.22561 32.0841 5.19315 32.1635 5.19315C32.2428 5.19315 32.3077 5.1607 32.3077 5.12103C32.3077 5.08136 32.405 5.0489 32.524 5.0489C32.643 5.0489 32.7404 5.01644 32.7404 4.97677C32.7404 4.9371 32.8377 4.90465 32.9567 4.90465C33.0757 4.90465 33.1731 4.87219 33.1731 4.83252C33.1731 4.79285 33.2704 4.76039 33.3894 4.76039C33.5084 4.76039 33.6058 4.72793 33.6058 4.68826C33.6058 4.64859 33.7356 4.61614 33.8942 4.61614C34.0529 4.61614 34.1827 4.58368 34.1827 4.54401C34.1827 4.50434 34.3125 4.47188 34.4712 4.47188C34.6298 4.47188 34.7596 4.43943 34.7596 4.39976C34.7596 4.36009 34.9219 4.32763 35.1202 4.32763C35.3185 4.32763 35.4808 4.29517 35.4808 4.2555C35.4808 4.2154 35.6731 4.18337 35.9135 4.18337C36.1538 4.18337 36.3462 4.15135 36.3462 4.11125C36.3462 4.06797 36.6346 4.03912 37.0673 4.03912C37.5 4.03912 37.7885 4.01027 37.7885 3.96699C37.7885 3.92155 38.2693 3.89487 39.0865 3.89487C39.9038 3.89487 40.3846 3.92155 40.3846 3.96699C40.3846 4.0107 40.6971 4.03912 41.1779 4.03912C41.6587 4.03912 41.9712 4.06754 41.9712 4.11125C41.9712 4.15243 42.1875 4.18337 42.476 4.18337C42.7644 4.18337 42.9808 4.21432 42.9808 4.2555C42.9808 4.2956 43.1731 4.32763 43.4135 4.32763C43.6538 4.32763 43.8462 4.35965 43.8462 4.39976C43.8462 4.43943 44.0084 4.47188 44.2067 4.47188C44.405 4.47188 44.5673 4.50434 44.5673 4.54401C44.5673 4.58368 44.6971 4.61614 44.8558 4.61614C45.0144 4.61614 45.1442 4.64859 45.1442 4.68826C45.1442 4.72793 45.274 4.76039 45.4327 4.76039C45.5913 4.76039 45.7212 4.79285 45.7212 4.83252C45.7212 4.87219 45.851 4.90465 46.0096 4.90465C46.1683 4.90465 46.2981 4.9371 46.2981 4.97677C46.2981 5.01644 46.363 5.0489 46.4423 5.0489C46.5216 5.0489 46.5865 5.03036 46.5865 5.00772C46.5865 4.92304 46.3765 4.76039 46.2671 4.76039C46.2048 4.76039 46.1538 4.72793 46.1538 4.68826C46.1538 4.64859 46.0961 4.61614 46.0255 4.61614C45.9549 4.61614 45.8505 4.55122 45.7933 4.47188C45.7361 4.39254 45.6316 4.32763 45.561 4.32763C45.4905 4.32763 45.4327 4.29517 45.4327 4.2555C45.4327 4.21583 45.3678 4.18337 45.2885 4.18337C45.2091 4.18337 45.1442 4.15092 45.1442 4.11125C45.1442 4.07158 45.0793 4.03912 45 4.03912C44.9207 4.03912 44.8558 4.00666 44.8558 3.96699C44.8558 3.92732 44.7909 3.89487 44.7115 3.89487C44.6322 3.89487 44.5673 3.86241 44.5673 3.82274C44.5673 3.78307 44.5024 3.75061 44.4231 3.75061C44.3438 3.75061 44.2788 3.71815 44.2788 3.67848C44.2788 3.63881 44.2139 3.60636 44.1346 3.60636C44.0553 3.60636 43.9904 3.5739 43.9904 3.53423C43.9904 3.49456 43.9255 3.4621 43.8462 3.4621C43.7668 3.4621 43.7019 3.42965 43.7019 3.38998C43.7019 3.35031 43.637 3.31785 43.5577 3.31785C43.4784 3.31785 43.4135 3.28539 43.4135 3.24572C43.4135 3.20605 43.3486 3.17359 43.2692 3.17359C43.1899 3.17359 43.125 3.14114 43.125 3.10147C43.125 3.0618 43.0601 3.02934 42.9808 3.02934C42.9014 3.02934 42.8365 2.99688 42.8365 2.95721C42.8365 2.91754 42.7716 2.88509 42.6923 2.88509C42.613 2.88509 42.5481 2.85263 42.5481 2.81296C42.5481 2.77329 42.4832 2.74083 42.4038 2.74083C42.3245 2.74083 42.2596 2.70837 42.2596 2.6687C42.2596 2.62903 42.1623 2.59658 42.0433 2.59658C41.9243 2.59658 41.8269 2.56412 41.8269 2.52445C41.8269 2.48478 41.762 2.45232 41.6827 2.45232C41.6034 2.45232 41.5385 2.41987 41.5385 2.3802C41.5385 2.34053 41.4411 2.30807 41.3221 2.30807C41.2031 2.30807 41.1058 2.27561 41.1058 2.23594C41.1058 2.19627 41.0409 2.16381 40.9615 2.16381C40.8822 2.16381 40.8173 2.13136 40.8173 2.09169C40.8173 2.05202 40.72 2.01956 40.601 2.01956C40.482 2.01956 40.3846 1.9871 40.3846 1.94743C40.3846 1.90776 40.2873 1.87531 40.1683 1.87531C40.0493 1.87531 39.9519 1.84285 39.9519 1.80318C39.9519 1.76351 39.8546 1.73105 39.7356 1.73105C39.6166 1.73105 39.5192 1.69859 39.5192 1.65892C39.5192 1.61925 39.4219 1.5868 39.3029 1.5868C39.1839 1.5868 39.0865 1.55434 39.0865 1.51467C39.0865 1.475 38.9892 1.44254 38.8702 1.44254C38.7512 1.44254 38.6538 1.41009 38.6538 1.37042C38.6538 1.33075 38.524 1.29829 38.3654 1.29829C38.2067 1.29829 38.0769 1.26583 38.0769 1.22616C38.0769 1.18649 37.9796 1.15403 37.8606 1.15403C37.7416 1.15403 37.6442 1.12158 37.6442 1.08191C37.6442 1.04224 37.5144 1.00978 37.3558 1.00978C37.1971 1.00978 37.0673 0.977323 37.0673 0.937653C37.0673 0.897983 36.905 0.865526 36.7067 0.865526C36.5084 0.865526 36.3462 0.833068 36.3462 0.793399C36.3462 0.753729 36.1839 0.721271 35.9856 0.721271C35.7873 0.721271 35.625 0.688814 35.625 0.649144C35.625 0.609474 35.4627 0.577017 35.2644 0.577017C35.0661 0.577017 34.9038 0.54456 34.9038 0.50489C34.9038 0.463705 34.6875 0.432763 34.399 0.432763C34.1106 0.432763 33.8942 0.40182 33.8942 0.360636C33.8942 0.318586 33.6539 0.288509 33.3173 0.288509C32.9807 0.288509 32.7404 0.258432 32.7404 0.216381C32.7404 0.171302 32.3077 0.144254 31.5865 0.144254C30.8654 0.144254 30.4327 0.117207 30.4327 0.0721271C30.4327 0.0288509 30.1442 0 29.7115 0C29.2788 0 28.9904 0.0288509 28.9904 0.0721271Z"
        fill="white"/>
</svg>
