<?xml version="1.0" standalone="no"?>
<!DOCTYPE svg PUBLIC "-//W3C//DTD SVG 20010904//EN"
 "http://www.w3.org/TR/2001/REC-SVG-20010904/DTD/svg10.dtd">
<svg version="1.0" xmlns="http://www.w3.org/2000/svg"
 width="512.000000pt" height="512.000000pt" viewBox="0 0 512.000000 512.000000"
 preserveAspectRatio="xMidYMid meet">
<metadata>
Created by potrace 1.11, written by Peter Selinger 2001-2013
</metadata>
<g transform="translate(0.000000,512.000000) scale(0.100000,-0.100000)"
fill="#000000" stroke="none">
<path d="M677 4045 c-81 -28 -88 -87 -24 -188 23 -37 78 -123 121 -192 44 -70
84 -129 89 -132 5 -3 4 3 -1 14 -6 10 -18 47 -27 82 -27 105 1 115 147 50 51
-23 237 -103 413 -179 176 -76 487 -210 690 -298 429 -185 1034 -447 1520
-657 187 -81 363 -157 391 -170 70 -32 116 -39 158 -25 58 19 66 39 65 170 l0
115 -18 -40 c-22 -49 -57 -70 -108 -63 -21 3 -144 54 -273 113 -129 59 -390
179 -580 265 -190 87 -502 230 -695 318 -192 88 -503 229 -690 314 -187 86
-376 172 -420 193 -194 90 -634 289 -675 305 -39 16 -50 16 -83 5z"/>
<path d="M2790 3789 c-202 -14 -408 -80 -582 -185 l-60 -36 219 -100 c1754
-801 1706 -780 1760 -776 39 2 50 8 62 29 13 23 11 35 -13 120 -90 313 -290
579 -563 747 -256 158 -520 223 -823 201z"/>
<path d="M993 3440 c-35 -21 -49 -55 -39 -96 6 -24 188 -288 207 -299 4 -3 2
10 -6 29 -8 20 -15 44 -15 54 0 21 30 52 49 52 8 0 129 -49 270 -109 237 -101
515 -219 1161 -491 140 -59 404 -170 585 -248 752 -319 784 -332 820 -332 80
0 119 40 150 154 l23 85 -37 -39 c-43 -45 -78 -57 -135 -43 -22 6 -405 172
-851 370 -445 198 -902 401 -1015 451 -113 49 -234 104 -270 120 -36 17 -193
86 -350 155 -157 69 -325 144 -373 166 -100 46 -128 49 -174 21z"/>
<path d="M1342 2884 c-16 -11 -22 -25 -22 -53 0 -32 12 -54 86 -147 112 -142
119 -150 99 -101 -19 46 -7 77 31 77 14 0 312 -114 662 -254 350 -140 864
-345 1142 -455 278 -111 524 -204 547 -208 72 -10 90 0 144 85 27 42 49 81 49
85 0 4 -15 -4 -34 -18 -72 -55 -73 -55 -596 163 -146 60 -328 136 -405 167
-297 121 -978 401 -1150 472 -319 134 -494 203 -513 203 -9 0 -28 -7 -40 -16z"/>
<path d="M1596 2454 c-42 -42 13 -317 101 -502 49 -104 146 -244 228 -331 314
-331 758 -475 1215 -395 263 47 487 161 694 354 70 66 80 84 43 75 -14 -4 -68
11 -142 38 -322 120 -1068 397 -1480 548 -253 94 -495 183 -537 199 -89 34
-101 36 -122 14z"/>
</g>
</svg>
