<svg width="58" height="58" viewBox="0 0 58 58" fill="none" xmlns="http://www.w3.org/2000/svg">
<path d="M13.8848 40.5471V7.58055L20.5636 4.15125V36.6855L13.8848 40.5471Z" fill="white"/>
<path d="M28.6485 0V32.4377L22.1455 35.8544V3.33905L28.6485 0Z" fill="white"/>
<path d="M30.0545 13.7508V0L36.2479 3.33905V17.4004L30.0545 13.7508Z" fill="white"/>
<path d="M44.1152 7.58055V22.0365L37.7879 18.3079V4.1693L44.1152 7.58055Z" fill="white"/>
<path d="M58 48.3039L30.0545 32.0851V24.3283L58 40.1945V48.3039Z" fill="white"/>
<path d="M30.0545 15.5137L58 31.3799V38.6079L30.0545 22.5653V15.5137Z" fill="white"/>
<path d="M0 48.6565L12.1273 41.6049V33.848L0 40.5471V48.6565Z" fill="white"/>
<path d="M12.1273 25.0334L0 31.9088V39.1368L12.1273 32.2614V25.0334Z" fill="white"/>
<path d="M29.1758 33.848L1.40606 49.538L7.20606 53.1181L34.9758 37.0082L29.1758 33.848Z" fill="white"/>
<path d="M15.1152 58L43.4121 41.6049L36.2479 37.7014L8.61212 53.986L15.1152 58Z" fill="white"/>
<path d="M42.5333 57.2948L30.5818 50.5957L37.7683 46.541L49.8273 53.4164L42.5333 57.2948Z" fill="white"/>
<path d="M44.6424 42.6626L57.1212 49.538L51.485 52.535L39.1939 45.7367L44.6424 42.6626Z" fill="white"/>
</svg>
