<svg width="22" height="22" viewBox="0 0 22 22" fill="none" xmlns="http://www.w3.org/2000/svg">
  <path
    d="M19.6151 7.17379H19.6721C20.4036 7.17379 21 7.76471 21 8.48529V14.1953C21 14.9187 20.4036 15.5077 19.6721 15.5077H19.6141C18.8826 15.5077 18.2862 14.9168 18.2862 14.1953V8.48524C18.2872 7.76471 18.8845 7.17379 19.6151 7.17379Z"
    fill="currentColor"/>
  <path
    d="M17.6511 16.3989C17.6511 17.0622 17.1022 17.6024 16.4307 17.6024H15.1266V20.6866C15.1266 21.411 14.5283 22 13.7987 22H13.7416C13.0092 22 12.4119 21.41 12.4119 20.6866V17.6024H10.5893V20.6866C10.5893 21.411 9.98914 22 9.25956 22H9.20343C8.47103 22 7.87462 21.41 7.87462 20.6866V17.6024H6.56958C5.899 17.6024 5.35013 17.0622 5.35013 16.3989V7.38294H17.6511V16.3989Z"
    fill="currentColor"/>
  <path
    d="M8.43662 1.91555L7.40075 0.336344C7.33416 0.23674 7.36366 0.100551 7.46544 0.0357017C7.56624 -0.0300624 7.70418 -0.00279862 7.76984 0.0995931L8.84372 1.73333C9.64937 1.40734 10.5492 1.22416 11.4995 1.22416C12.4507 1.22416 13.3486 1.40734 14.1562 1.73333L15.2282 0.0995931C15.2938 -0.00279862 15.4327 -0.0300624 15.5345 0.0357017C15.6362 0.100508 15.6657 0.23674 15.5992 0.336344L14.5624 1.91555C16.4315 2.82027 17.6918 4.52539 17.6918 6.48133C17.6918 6.60157 17.6842 6.71995 17.6737 6.83737H5.32432C5.31387 6.71995 5.30721 6.60157 5.30721 6.48133C5.30717 4.52539 6.56847 2.82027 8.43662 1.91555ZM14.3626 4.74332C14.6908 4.74332 14.9571 4.48214 14.9571 4.15711C14.9571 3.83208 14.6908 3.57181 14.3626 3.57181C14.0325 3.57181 13.7681 3.83203 13.7681 4.15711C13.7681 4.48218 14.0344 4.74332 14.3626 4.74332ZM8.63731 4.74332C8.96547 4.74332 9.23182 4.48214 9.23182 4.15711C9.23182 3.83208 8.96547 3.57181 8.63731 3.57181C8.30821 3.57181 8.04376 3.83203 8.04376 4.15711C8.04376 4.48214 8.30821 4.74332 8.63731 4.74332Z"
    fill="currentColor"/>
  <path
    d="M3.32885 7.17379H3.38402C4.11549 7.17379 4.7138 7.76471 4.7138 8.48529V14.1953C4.7138 14.9187 4.11452 15.5077 3.38402 15.5077H3.32788C2.59548 15.5077 2 14.9168 2 14.1953V8.48524C2 7.76471 2.59738 7.17379 3.32885 7.17379Z"
    fill="currentColor"/>
</svg>
