<svg width="22" height="22" viewBox="0 0 22 22" fill="none" xmlns="http://www.w3.org/2000/svg">
  <path
    d="M12.4298 1.6086C13.2007 0.705706 14.4903 0.0439183 15.5654 0.00013105C15.6537 -0.00334738 15.7321 0.062811 15.7419 0.151886C15.8666 1.28858 15.4544 2.55759 14.6393 3.54642C13.8648 4.48287 12.7308 5.06445 11.6796 5.06445C11.6058 5.06438 11.5317 5.06152 11.4591 5.05586C11.3788 5.04965 11.3139 4.98806 11.3033 4.90826C11.1347 3.63284 11.7747 2.36751 12.4298 1.6086Z"
    fill="currentColor"/>
  <path
    d="M5.18144 18.1385C3.23666 15.3304 2.11865 10.6991 3.87731 7.64729C4.80216 6.03875 6.47972 5.02305 8.25508 4.99693C8.27274 4.99659 8.29068 4.99638 8.30889 4.99638C9.07244 4.99638 9.7937 5.28257 10.4301 5.53513C10.9057 5.72383 11.317 5.887 11.6335 5.887C11.9153 5.887 12.324 5.7259 12.797 5.53936C13.4823 5.26913 14.3354 4.93282 15.2259 4.93282C15.3399 4.93282 15.4534 4.93834 15.5635 4.94932C16.3216 4.98192 18.2047 5.2529 19.4334 7.05091C19.4593 7.08883 19.4689 7.13575 19.4597 7.18084C19.4506 7.22599 19.4236 7.26548 19.385 7.29037L19.3683 7.30074C19.0113 7.52159 17.2313 8.74006 17.2542 11.041C17.2788 13.8731 19.6211 14.9122 19.8881 15.0214L19.9006 15.0267C19.9798 15.0631 20.0188 15.1533 19.9912 15.2359L19.9853 15.2543C19.8402 15.7191 19.4103 16.9352 18.5531 18.1878C17.7318 19.3874 16.8007 20.7473 15.2844 20.7756C14.5777 20.7888 14.0987 20.5816 13.6342 20.3807L13.6303 20.379C13.1578 20.1745 12.669 19.963 11.9035 19.963C11.0987 19.963 10.5856 20.1816 10.0894 20.393C9.64771 20.5811 9.19024 20.7759 8.55804 20.8011C8.53199 20.8022 8.50655 20.8026 8.48118 20.8026C7.13503 20.8026 6.1522 19.5424 5.18144 18.1385Z"
    fill="currentColor"/>
</svg>
