<svg width="94" height="64" viewBox="0 0 94 64" fill="none" xmlns="http://www.w3.org/2000/svg">
<path fill-rule="evenodd" clip-rule="evenodd" d="M67.3827 36.4503C68.3542 33.7624 68.8838 30.8631 68.8838 27.84C68.8838 13.8514 57.5438 2.51141 43.5552 2.51141C29.5666 2.51141 18.2266 13.8514 18.2266 27.84C18.2266 30.8631 18.7562 33.7624 19.7276 36.4503H67.3827Z" fill="white" fill-opacity="0.37"/>
<path opacity="0.89" fill-rule="evenodd" clip-rule="evenodd" d="M15.7144 27.84C15.7144 12.4644 28.1787 0 43.5543 0C58.9299 0 71.3943 12.4644 71.3943 27.84C71.3943 30.845 70.9182 33.7389 70.0372 36.4503H67.3828C68.3543 33.7623 68.8839 30.863 68.8839 27.84C68.8839 13.8514 57.5439 2.51136 43.5553 2.51136C29.5667 2.51136 18.2267 13.8514 18.2267 27.84C18.2267 30.863 18.7563 33.7624 19.7278 36.4503L17.0714 36.4503C16.1905 33.7389 15.7144 30.845 15.7144 27.84Z" fill="white" fill-opacity="0.79"/>
<path fill-rule="evenodd" clip-rule="evenodd" d="M15.7292 28.5939H5.66752L4.37598 36.2714H17.0709C16.2815 33.8417 15.8171 31.2654 15.7292 28.5939ZM70.0368 36.2714H91.627L93.1338 28.5939H71.3785C71.2905 31.2654 70.8262 33.8417 70.0368 36.2714Z" fill="white"/>
<path fill-rule="evenodd" clip-rule="evenodd" d="M11.6239 42.7286C11.6239 42.7486 11.5282 42.7645 11.4086 42.7645C11.2891 42.7645 11.1934 42.7804 11.1934 42.8004C11.1934 42.8201 11.1288 42.8363 11.0499 42.8363C10.971 42.8363 10.9064 42.8524 10.9064 42.8721C10.9064 42.8919 10.8579 42.908 10.7987 42.908C10.7396 42.908 10.6911 42.9242 10.6911 42.9439C10.6911 42.9636 10.6427 42.9798 10.5835 42.9798C10.5243 42.9798 10.4759 42.9959 10.4759 43.0156C10.4759 43.0354 10.4274 43.0515 10.3682 43.0515C10.309 43.0515 10.2606 43.0677 10.2606 43.0874C10.2606 43.1071 10.2283 43.1233 10.1889 43.1233C10.1494 43.1233 10.1171 43.1394 10.1171 43.1591C10.1171 43.1789 10.0848 43.195 10.0453 43.195C10.0059 43.195 9.9736 43.2112 9.9736 43.2309C9.9736 43.2506 9.94131 43.2668 9.90184 43.2668C9.86238 43.2668 9.83009 43.2829 9.83009 43.3026C9.83009 43.3224 9.7978 43.3385 9.75834 43.3385C9.71887 43.3385 9.68659 43.3547 9.68659 43.3744C9.68659 43.3941 9.65785 43.4103 9.62276 43.4103C9.58764 43.4103 9.53566 43.4426 9.50721 43.482C9.47875 43.5215 9.43323 43.5538 9.40603 43.5538C9.37887 43.5538 9.31136 43.6022 9.25607 43.6614C9.20079 43.7206 9.13621 43.769 9.11257 43.769C9.08892 43.769 9.02435 43.8175 8.96906 43.8767C8.91378 43.9359 8.85056 43.9843 8.82861 43.9843C8.77709 43.9843 8.17978 44.5807 8.17978 44.6321C8.17978 44.6897 8.08561 44.7736 8.02089 44.7736C7.9773 44.7736 7.96453 44.7336 7.96453 44.5972C7.96453 44.4912 7.98243 44.4124 8.00937 44.3998C8.04525 44.3831 8.04525 44.3747 8.00937 44.358C7.95617 44.3332 7.94863 44.1996 8.0004 44.1996C8.02089 44.1996 8.03628 44.0919 8.03628 43.9484C8.03628 43.8049 8.05167 43.6973 8.07215 43.6973C8.09408 43.6973 8.10803 43.5298 8.10803 43.2668V42.8363H5.8991C4.03249 42.8363 3.68219 42.8442 3.63889 42.8875C3.60485 42.9215 3.58762 43.018 3.58762 43.1745C3.58762 43.3078 3.57202 43.4103 3.55175 43.4103C3.53022 43.4103 3.51587 43.5538 3.51587 43.769C3.51587 43.9843 3.50152 44.1278 3.48 44.1278C3.45951 44.1278 3.44412 44.2354 3.44412 44.3789C3.44412 44.5224 3.42873 44.6301 3.40824 44.6301C3.3883 44.6301 3.37237 44.7257 3.37237 44.8453C3.37237 44.9649 3.35644 45.0606 3.33649 45.0606C3.31557 45.0606 3.30061 45.1802 3.30061 45.3476C3.30061 45.515 3.28565 45.6346 3.26474 45.6346C3.24382 45.6346 3.22886 45.7542 3.22886 45.9216C3.22886 46.089 3.2139 46.2086 3.19299 46.2086C3.1725 46.2086 3.15711 46.3162 3.15711 46.4598C3.15711 46.6033 3.14172 46.7109 3.12123 46.7109C3.1015 46.7109 3.08536 46.7755 3.08536 46.8544C3.08536 46.9333 3.06921 46.9979 3.04948 46.9979C3.02856 46.9979 3.0136 47.1175 3.0136 47.2849C3.0136 47.4523 2.99864 47.5719 2.97773 47.5719C2.95724 47.5719 2.94185 47.6795 2.94185 47.8231C2.94185 47.9666 2.92646 48.0742 2.90598 48.0742C2.88603 48.0742 2.8701 48.1699 2.8701 48.2894C2.8701 48.409 2.85417 48.5047 2.83422 48.5047C2.81449 48.5047 2.79835 48.5854 2.79835 48.6841C2.79835 48.7827 2.7822 48.8635 2.76247 48.8635C2.74252 48.8635 2.72659 48.9591 2.72659 49.0787C2.72659 49.1983 2.71067 49.294 2.69072 49.294C2.67077 49.294 2.65484 49.3897 2.65484 49.5092C2.65484 49.6288 2.63891 49.7245 2.61897 49.7245C2.59923 49.7245 2.58309 49.7891 2.58309 49.868C2.58309 49.9469 2.56695 50.0115 2.54721 50.0115C2.52748 50.0115 2.51134 50.0922 2.51134 50.1909C2.51134 50.2895 2.49519 50.3703 2.47546 50.3703C2.45551 50.3703 2.43958 50.4659 2.43958 50.5855C2.43958 50.7051 2.42366 50.8008 2.40371 50.8008C2.38398 50.8008 2.36783 50.8815 2.36783 50.9802C2.36783 51.0788 2.35169 51.1595 2.33196 51.1595C2.31222 51.1595 2.29608 51.2241 2.29608 51.303C2.29608 51.382 2.27994 51.4466 2.2602 51.4466C2.24026 51.4466 2.22433 51.5422 2.22433 51.6618C2.22433 51.7814 2.2084 51.8771 2.18845 51.8771C2.1685 51.8771 2.15257 51.9727 2.15257 52.0923C2.15257 52.2119 2.13665 52.3076 2.1167 52.3076C2.09697 52.3076 2.08082 52.3883 2.08082 52.487C2.08082 52.5856 2.06468 52.6663 2.04495 52.6663C2.02521 52.6663 2.00907 52.7309 2.00907 52.8098C2.00907 52.8888 1.99293 52.9534 1.97319 52.9534C1.95325 52.9534 1.93732 53.049 1.93732 53.1686C1.93732 53.2882 1.92139 53.3839 1.90144 53.3839C1.88149 53.3839 1.86556 53.4796 1.86556 53.5991C1.86556 53.7187 1.84964 53.8144 1.82969 53.8144C1.80996 53.8144 1.79381 53.8951 1.79381 53.9938C1.79381 54.0924 1.77767 54.1731 1.75794 54.1731C1.7382 54.1731 1.72206 54.2377 1.72206 54.3167C1.72206 54.3956 1.70592 54.4602 1.68618 54.4602C1.66624 54.4602 1.65031 54.5558 1.65031 54.6754C1.65031 54.795 1.63438 54.8907 1.61443 54.8907C1.59395 54.8907 1.57855 54.9983 1.57855 55.1418C1.57855 55.2853 1.56316 55.3929 1.54268 55.3929C1.52295 55.3929 1.5068 55.4414 1.5068 55.5006C1.5068 55.5598 1.49066 55.6082 1.47093 55.6082C1.45119 55.6082 1.43505 55.6889 1.43505 55.7876C1.43505 55.8862 1.41891 55.967 1.39917 55.967C1.37869 55.967 1.3633 56.0746 1.3633 56.2181C1.3633 56.3616 1.34791 56.4692 1.32742 56.4692C1.30747 56.4692 1.29154 56.5649 1.29154 56.6845C1.29154 56.8041 1.27562 56.8997 1.25567 56.8997C1.23594 56.8997 1.21979 56.9482 1.21979 57.0074C1.21979 57.0666 1.20365 57.115 1.18392 57.115C1.16397 57.115 1.14804 57.2107 1.14804 57.3303C1.14804 57.4498 1.13211 57.5455 1.11216 57.5455C1.09222 57.5455 1.07629 57.6412 1.07629 57.7608C1.07629 57.8803 1.06036 57.976 1.04041 57.976C1.02068 57.976 1.00453 58.0567 1.00453 58.1554C1.00453 58.2541 0.988391 58.3348 0.968659 58.3348C0.948927 58.3348 0.932782 58.3994 0.932782 58.4783C0.932782 58.5572 0.916638 58.6218 0.896906 58.6218C0.876959 58.6218 0.86103 58.7175 0.86103 58.8371C0.86103 58.9566 0.845101 59.0523 0.825154 59.0523C0.805206 59.0523 0.789277 59.148 0.789277 59.2676C0.789277 59.3871 0.773348 59.4828 0.753401 59.4828C0.733669 59.4828 0.717525 59.5474 0.717525 59.6263C0.717525 59.7053 0.701381 59.7698 0.681649 59.7698C0.661917 59.7698 0.645772 59.8506 0.645772 59.9492C0.645772 60.0479 0.629628 60.1286 0.609896 60.1286C0.589949 60.1286 0.57402 60.2243 0.57402 60.3439C0.57402 60.4634 0.558091 60.5591 0.538144 60.5591C0.518196 60.5591 0.502267 60.6548 0.502267 60.7744C0.502267 60.8939 0.486338 60.9896 0.466391 60.9896C0.446659 60.9896 0.430515 61.0542 0.430515 61.1331C0.430515 61.2121 0.414371 61.2766 0.394639 61.2766C0.374907 61.2766 0.358762 61.3574 0.358762 61.456C0.358762 61.5547 0.342618 61.6354 0.322886 61.6354C0.302939 61.6354 0.28701 61.7311 0.28701 61.8507C0.28701 61.9702 0.271081 62.0659 0.251134 62.0659C0.231187 62.0659 0.215257 62.1616 0.215257 62.2812C0.215257 62.4008 0.199328 62.4964 0.179381 62.4964C0.159649 62.4964 0.143505 62.561 0.143505 62.6399C0.143505 62.7189 0.127361 62.7834 0.107629 62.7834C0.0876815 62.7834 0.0717525 62.8791 0.0717525 62.9987C0.0717525 63.1183 0.0558234 63.214 0.0358762 63.214C0.0161443 63.214 0 63.2785 0 63.3575V63.501H2.49595C4.61128 63.501 4.99975 63.4931 5.04316 63.4497C5.07534 63.4176 5.09443 63.324 5.09443 63.1986C5.09443 63.0886 5.11057 62.9987 5.1303 62.9987C5.15025 62.9987 5.16618 62.903 5.16618 62.7834C5.16618 62.6639 5.18211 62.5682 5.20206 62.5682C5.222 62.5682 5.23793 62.4725 5.23793 62.3529C5.23793 62.2334 5.25386 62.1377 5.27381 62.1377C5.29354 62.1377 5.30968 62.0892 5.30968 62.03C5.30968 61.9708 5.32583 61.9224 5.34556 61.9224C5.36551 61.9224 5.38144 61.8267 5.38144 61.7072C5.38144 61.5876 5.39737 61.4919 5.41731 61.4919C5.43726 61.4919 5.45319 61.3962 5.45319 61.2766C5.45319 61.1571 5.46912 61.0614 5.48907 61.0614C5.5088 61.0614 5.52494 60.9968 5.52494 60.9179C5.52494 60.839 5.54109 60.7744 5.56082 60.7744C5.58055 60.7744 5.59669 60.6937 5.59669 60.595C5.59669 60.4963 5.61284 60.4156 5.63257 60.4156C5.65252 60.4156 5.66845 60.3199 5.66845 60.2004C5.66845 60.0808 5.68438 59.9851 5.70432 59.9851C5.72427 59.9851 5.7402 59.8894 5.7402 59.7698C5.7402 59.6503 5.75613 59.5546 5.77608 59.5546C5.79581 59.5546 5.81195 59.49 5.81195 59.4111C5.81195 59.3321 5.8281 59.2676 5.84783 59.2676C5.86756 59.2676 5.8837 59.1869 5.8837 59.0882C5.8837 58.9895 5.89985 58.9088 5.91958 58.9088C5.93953 58.9088 5.95546 58.8131 5.95546 58.6936C5.95546 58.574 5.97139 58.4783 5.99133 58.4783C6.01106 58.4783 6.02721 58.3976 6.02721 58.2989C6.02721 58.2003 6.04335 58.1195 6.06309 58.1195C6.08282 58.1195 6.09896 58.0388 6.09896 57.9402C6.09896 57.8415 6.11511 57.7608 6.13484 57.7608C6.15457 57.7608 6.17071 57.7031 6.17071 57.6327C6.17071 57.5622 6.19378 57.4814 6.22198 57.4533C6.28021 57.395 6.45772 57.3834 6.45772 57.4379C6.45772 57.4576 6.49001 57.4738 6.52948 57.4738C6.56894 57.4738 6.60123 57.4899 6.60123 57.5096C6.60123 57.5294 6.63352 57.5455 6.67298 57.5455C6.71245 57.5455 6.74473 57.5617 6.74473 57.5814C6.74473 57.6011 6.79317 57.6173 6.85236 57.6173C6.91156 57.6173 6.95999 57.6334 6.95999 57.6531C6.95999 57.6729 7.02457 57.689 7.1035 57.689C7.18242 57.689 7.247 57.7052 7.247 57.7249C7.247 57.7446 7.29543 57.7608 7.35463 57.7608C7.41383 57.7608 7.46226 57.7769 7.46226 57.7966C7.46226 57.8166 7.55794 57.8325 7.67752 57.8325C7.79709 57.8325 7.89277 57.8485 7.89277 57.8684C7.89277 57.8915 8.25154 57.9043 8.89731 57.9043C9.54308 57.9043 9.90184 57.8915 9.90184 57.8684C9.90184 57.8485 9.99753 57.8325 10.1171 57.8325C10.2367 57.8325 10.3324 57.8166 10.3324 57.7966C10.3324 57.7769 10.3969 57.7608 10.4759 57.7608C10.5548 57.7608 10.6194 57.7446 10.6194 57.7249C10.6194 57.7052 10.7001 57.689 10.7987 57.689C10.8974 57.689 10.9781 57.6729 10.9781 57.6531C10.9781 57.6334 11.0266 57.6173 11.0858 57.6173C11.145 57.6173 11.1934 57.6011 11.1934 57.5814C11.1934 57.5617 11.2418 57.5455 11.301 57.5455C11.3602 57.5455 11.4086 57.5294 11.4086 57.5096C11.4086 57.4899 11.4571 57.4738 11.5163 57.4738C11.5755 57.4738 11.6239 57.4576 11.6239 57.4379C11.6239 57.4182 11.6562 57.402 11.6957 57.402C11.7351 57.402 11.7674 57.3859 11.7674 57.3661C11.7674 57.3464 11.8158 57.3303 11.875 57.3303C11.9342 57.3303 11.9827 57.3141 11.9827 57.2944C11.9827 57.2746 12.015 57.2585 12.0544 57.2585C12.0939 57.2585 12.1262 57.2424 12.1262 57.2226C12.1262 57.2029 12.1585 57.1868 12.1979 57.1868C12.2374 57.1868 12.2697 57.1706 12.2697 57.1509C12.2697 57.1311 12.3146 57.115 12.3694 57.115C12.4279 57.115 12.4904 57.0854 12.5208 57.0432C12.5493 57.0038 12.6012 56.9715 12.6364 56.9715C12.6715 56.9715 12.7002 56.9553 12.7002 56.9356C12.7002 56.9159 12.7289 56.8997 12.764 56.8997C12.7991 56.8997 12.8511 56.8675 12.8796 56.828C12.908 56.7885 12.9565 56.7562 12.9872 56.7562C13.0179 56.7562 13.0664 56.7239 13.0948 56.6845C13.1233 56.645 13.1717 56.6127 13.2025 56.6127C13.2332 56.6127 13.2816 56.5804 13.3101 56.541C13.3385 56.5015 13.3841 56.4692 13.4113 56.4692C13.4384 56.4692 13.5059 56.4208 13.5612 56.3616C13.6165 56.3024 13.6805 56.254 13.7035 56.254C13.7265 56.254 13.8239 56.1732 13.92 56.0746C14.0161 55.9759 14.1122 55.8952 14.1336 55.8952C14.1842 55.8952 14.6375 55.4419 14.6375 55.3913C14.6375 55.3699 14.7182 55.2738 14.8169 55.1777C14.9155 55.0816 14.9963 54.9847 14.9963 54.9624C14.9963 54.9401 15.077 54.8433 15.1757 54.7472C15.2743 54.6511 15.355 54.5472 15.355 54.5163C15.355 54.4854 15.3712 54.4602 15.3909 54.4602C15.4106 54.4602 15.4268 54.4344 15.4268 54.4028C15.4268 54.3713 15.4752 54.3002 15.5344 54.2449C15.5936 54.1896 15.642 54.1185 15.642 54.087C15.642 54.0554 15.6582 54.0296 15.6779 54.0296C15.6977 54.0296 15.7138 54.0009 15.7138 53.9658C15.7138 53.9307 15.7461 53.8787 15.7855 53.8503C15.825 53.8218 15.8573 53.7698 15.8573 53.7347C15.8573 53.6996 15.8734 53.6709 15.8932 53.6709C15.9129 53.6709 15.9291 53.6386 15.9291 53.5991C15.9291 53.5597 15.9452 53.5274 15.9649 53.5274C15.9847 53.5274 16.0008 53.4951 16.0008 53.4556C16.0008 53.4162 16.0169 53.3839 16.0367 53.3839C16.0564 53.3839 16.0726 53.3516 16.0726 53.3121C16.0726 53.2727 16.0887 53.2404 16.1084 53.2404C16.1282 53.2404 16.1443 53.2081 16.1443 53.1686C16.1443 53.1291 16.1605 53.0969 16.1802 53.0969C16.1999 53.0969 16.2161 53.0646 16.2161 53.0251C16.2161 52.9856 16.2322 52.9534 16.2519 52.9534C16.2717 52.9534 16.2878 52.9085 16.2878 52.8537C16.2878 52.7951 16.3174 52.7326 16.3596 52.7022C16.4017 52.6718 16.4313 52.6093 16.4313 52.5508C16.4313 52.496 16.4475 52.4511 16.4672 52.4511C16.4869 52.4511 16.5031 52.4027 16.5031 52.3435C16.5031 52.2843 16.5192 52.2358 16.5389 52.2358C16.5587 52.2358 16.5748 52.1874 16.5748 52.1282C16.5748 52.069 16.591 52.0206 16.6107 52.0206C16.6304 52.0206 16.6466 51.9883 16.6466 51.9488C16.6466 51.9094 16.6627 51.8771 16.6825 51.8771C16.7022 51.8771 16.7183 51.8125 16.7183 51.7336C16.7183 51.6546 16.7345 51.5901 16.7542 51.5901C16.7739 51.5901 16.7901 51.5416 16.7901 51.4824C16.7901 51.4232 16.8062 51.3748 16.826 51.3748C16.8457 51.3748 16.8618 51.3264 16.8618 51.2672C16.8618 51.208 16.878 51.1595 16.8977 51.1595C16.9174 51.1595 16.9336 51.095 16.9336 51.016C16.9336 50.9371 16.9497 50.8725 16.9695 50.8725C16.9894 50.8725 17.0053 50.7768 17.0053 50.6573C17.0053 50.5377 17.0213 50.442 17.0412 50.442C17.0612 50.442 17.0771 50.3463 17.0771 50.2268C17.0771 50.1072 17.093 50.0115 17.113 50.0115C17.1335 50.0115 17.1488 49.9039 17.1488 49.7604C17.1488 49.6169 17.1642 49.5092 17.1847 49.5092C17.2079 49.5092 17.2206 49.1146 17.2206 48.3971C17.2206 47.6795 17.2079 47.2849 17.1847 47.2849C17.1648 47.2849 17.1488 47.1892 17.1488 47.0697C17.1488 46.9501 17.1329 46.8544 17.113 46.8544C17.0932 46.8544 17.0771 46.7737 17.0771 46.675C17.0771 46.5764 17.0609 46.4956 17.0412 46.4956C17.0215 46.4956 17.0053 46.4149 17.0053 46.3162C17.0053 46.2176 16.9892 46.1369 16.9695 46.1369C16.9497 46.1369 16.9336 46.1046 16.9336 46.0651C16.9336 46.0257 16.9174 45.9934 16.8977 45.9934C16.878 45.9934 16.8618 45.9449 16.8618 45.8857C16.8618 45.8265 16.8457 45.7781 16.826 45.7781C16.8062 45.7781 16.7901 45.7297 16.7901 45.6705C16.7901 45.6113 16.7739 45.5628 16.7542 45.5628C16.7345 45.5628 16.7183 45.5306 16.7183 45.4911C16.7183 45.4516 16.7022 45.4193 16.6825 45.4193C16.6627 45.4193 16.6466 45.3871 16.6466 45.3476C16.6466 45.3081 16.6304 45.2758 16.6107 45.2758C16.591 45.2758 16.5748 45.2435 16.5748 45.2041C16.5748 45.1646 16.5587 45.1323 16.5389 45.1323C16.5192 45.1323 16.5031 45.1 16.5031 45.0606C16.5031 45.0211 16.4869 44.9888 16.4672 44.9888C16.4475 44.9888 16.4313 44.9565 16.4313 44.9171C16.4313 44.8776 16.4152 44.8453 16.3954 44.8453C16.3757 44.8453 16.3596 44.8166 16.3596 44.7815C16.3596 44.7464 16.3273 44.6944 16.2878 44.6659C16.2484 44.6375 16.2161 44.5923 16.2161 44.5655C16.2161 44.5387 16.1515 44.4548 16.0726 44.3789C15.9936 44.3031 15.9291 44.2234 15.9291 44.2018C15.9291 44.1501 15.4038 43.6255 15.3521 43.6255C15.3301 43.6255 15.2668 43.5771 15.2115 43.5179C15.1562 43.4587 15.0852 43.4103 15.0536 43.4103C15.0221 43.4103 14.9963 43.3941 14.9963 43.3744C14.9963 43.3547 14.9675 43.3385 14.9324 43.3385C14.8973 43.3385 14.8453 43.3062 14.8169 43.2668C14.7884 43.2273 14.7365 43.195 14.7013 43.195C14.6662 43.195 14.6375 43.1789 14.6375 43.1591C14.6375 43.1394 14.6052 43.1233 14.5658 43.1233C14.5263 43.1233 14.494 43.1071 14.494 43.0874C14.494 43.0677 14.4456 43.0515 14.3864 43.0515C14.3272 43.0515 14.2787 43.0354 14.2787 43.0156C14.2787 42.9959 14.2465 42.9798 14.207 42.9798C14.1675 42.9798 14.1352 42.9636 14.1352 42.9439C14.1352 42.9242 14.103 42.908 14.0635 42.908C14.024 42.908 13.9917 42.8919 13.9917 42.8721C13.9917 42.8524 13.9272 42.8363 13.8482 42.8363C13.7693 42.8363 13.7047 42.8201 13.7047 42.8004C13.7047 42.7799 13.5971 42.7645 13.4536 42.7645C13.3101 42.7645 13.2025 42.7491 13.2025 42.7286C13.2025 42.7058 12.9154 42.6927 12.4132 42.6927C11.9109 42.6927 11.6239 42.7058 11.6239 42.7286ZM27.2659 42.7286C27.2659 42.7499 27.1344 42.7645 26.9431 42.7645C26.7517 42.7645 26.6202 42.7791 26.6202 42.8004C26.6202 42.8209 26.5125 42.8363 26.369 42.8363C26.2255 42.8363 26.1179 42.8516 26.1179 42.8721C26.1179 42.8919 26.0533 42.908 25.9744 42.908C25.8955 42.908 25.8309 42.9242 25.8309 42.9439C25.8309 42.9636 25.7502 42.9798 25.6515 42.9798C25.5529 42.9798 25.4721 42.9959 25.4721 43.0156C25.4721 43.0354 25.3914 43.0515 25.2928 43.0515C25.1941 43.0515 25.1134 43.0677 25.1134 43.0874C25.1134 43.1071 25.0649 43.1233 25.0057 43.1233C24.9465 43.1233 24.8981 43.1394 24.8981 43.1591C24.8981 43.1789 24.8658 43.195 24.8264 43.195C24.7869 43.195 24.7546 43.2112 24.7546 43.2309C24.7546 43.2506 24.69 43.2668 24.6111 43.2668C24.5322 43.2668 24.4676 43.2829 24.4676 43.3026C24.4676 43.3224 24.4192 43.3385 24.36 43.3385C24.3008 43.3385 24.2523 43.3547 24.2523 43.3744C24.2523 43.3941 24.2201 43.4103 24.1806 43.4103C24.1411 43.4103 24.1088 43.4264 24.1088 43.4462C24.1088 43.4659 24.0604 43.482 24.0012 43.482C23.942 43.482 23.8936 43.4982 23.8936 43.5179C23.8936 43.5376 23.8613 43.5538 23.8218 43.5538C23.7824 43.5538 23.7501 43.5699 23.7501 43.5897C23.7501 43.6094 23.7016 43.6255 23.6424 43.6255C23.5833 43.6255 23.5348 43.6417 23.5348 43.6614C23.5348 43.6811 23.5025 43.6973 23.4631 43.6973C23.4236 43.6973 23.3913 43.7134 23.3913 43.7332C23.3913 43.7529 23.359 43.769 23.3196 43.769C23.2801 43.769 23.2478 43.7852 23.2478 43.8049C23.2478 43.8246 23.2155 43.8408 23.1761 43.8408C23.1366 43.8408 23.1043 43.8569 23.1043 43.8767C23.1043 43.8964 23.0756 43.9125 23.0405 43.9125C23.0054 43.9125 22.9534 43.9448 22.9249 43.9843C22.8965 44.0238 22.8445 44.056 22.8094 44.056C22.7743 44.056 22.7455 44.0722 22.7455 44.0919C22.7455 44.1117 22.7133 44.1278 22.6738 44.1278C22.6343 44.1278 22.602 44.1439 22.602 44.1637C22.602 44.1834 22.5733 44.1996 22.5382 44.1996C22.5031 44.1996 22.4511 44.2318 22.4227 44.2713C22.3942 44.3108 22.3458 44.3431 22.315 44.3431C22.2843 44.3431 22.2358 44.3753 22.2074 44.4148C22.1789 44.4543 22.1334 44.4866 22.1062 44.4866C22.0791 44.4866 22.0115 44.535 21.9563 44.5942C21.901 44.6534 21.8364 44.7018 21.8128 44.7018C21.7891 44.7018 21.7245 44.7503 21.6693 44.8094C21.614 44.8686 21.5509 44.9171 21.529 44.9171C21.4772 44.9171 20.2342 46.1601 20.2342 46.2119C20.2342 46.2337 20.1858 46.2968 20.1266 46.3521C20.0674 46.4074 20.0189 46.472 20.0189 46.4956C20.0189 46.5193 19.9705 46.5839 19.9113 46.6391C19.8521 46.6944 19.8037 46.7619 19.8037 46.7891C19.8037 46.8163 19.7714 46.8618 19.7319 46.8903C19.6925 46.9187 19.6602 46.9707 19.6602 47.0058C19.6602 47.0409 19.644 47.0697 19.6243 47.0697C19.6046 47.0697 19.5884 47.0984 19.5884 47.1335C19.5884 47.1686 19.5561 47.2206 19.5167 47.249C19.4772 47.2775 19.4449 47.3295 19.4449 47.3646C19.4449 47.3997 19.4288 47.4284 19.409 47.4284C19.3893 47.4284 19.3732 47.4572 19.3732 47.4922C19.3732 47.5274 19.3409 47.5793 19.3014 47.6078C19.262 47.6362 19.2297 47.6882 19.2297 47.7233C19.2297 47.7584 19.2135 47.7872 19.1938 47.7872C19.1741 47.7872 19.1579 47.8356 19.1579 47.8948C19.1579 47.954 19.1418 48.0024 19.122 48.0024C19.1023 48.0024 19.0862 48.0312 19.0862 48.0663C19.0862 48.1014 19.0539 48.1534 19.0144 48.1818C18.9723 48.2122 18.9427 48.2747 18.9427 48.3332C18.9427 48.3881 18.9265 48.4329 18.9068 48.4329C18.887 48.4329 18.8709 48.4652 18.8709 48.5047C18.8709 48.5442 18.8548 48.5765 18.835 48.5765C18.8153 48.5765 18.7992 48.6249 18.7992 48.6841C18.7992 48.7433 18.783 48.7917 18.7633 48.7917C18.7435 48.7917 18.7274 48.824 18.7274 48.8635C18.7274 48.9029 18.7113 48.9352 18.6915 48.9352C18.6718 48.9352 18.6556 48.9836 18.6556 49.0428C18.6556 49.102 18.6395 49.1505 18.6198 49.1505C18.6 49.1505 18.5839 49.215 18.5839 49.294C18.5839 49.3729 18.5678 49.4375 18.548 49.4375C18.5283 49.4375 18.5121 49.4859 18.5121 49.5451C18.5121 49.6043 18.496 49.6527 18.4763 49.6527C18.4565 49.6527 18.4404 49.7012 18.4404 49.7604C18.4404 49.8196 18.4242 49.868 18.4045 49.868C18.3848 49.868 18.3686 49.9326 18.3686 50.0115C18.3686 50.0904 18.3525 50.155 18.3328 50.155C18.3128 50.155 18.2969 50.2507 18.2969 50.3703C18.2969 50.4898 18.281 50.5855 18.261 50.5855C18.2413 50.5855 18.2251 50.6501 18.2251 50.729C18.2251 50.808 18.209 50.8725 18.1893 50.8725C18.1693 50.8725 18.1534 50.9682 18.1534 51.0878C18.1534 51.2074 18.1375 51.303 18.1175 51.303C18.0943 51.303 18.0816 51.7575 18.0816 52.5946C18.0816 53.4317 18.0943 53.8861 18.1175 53.8861C18.1372 53.8861 18.1534 53.9669 18.1534 54.0655C18.1534 54.1642 18.1695 54.2449 18.1893 54.2449C18.209 54.2449 18.2251 54.2933 18.2251 54.3525C18.2251 54.4117 18.2413 54.4602 18.261 54.4602C18.2807 54.4602 18.2969 54.5247 18.2969 54.6037C18.2969 54.6826 18.313 54.7472 18.3328 54.7472C18.3525 54.7472 18.3686 54.8117 18.3686 54.8907C18.3686 54.9696 18.3848 55.0342 18.4045 55.0342C18.4242 55.0342 18.4404 55.0665 18.4404 55.1059C18.4404 55.1454 18.4565 55.1777 18.4763 55.1777C18.496 55.1777 18.5121 55.21 18.5121 55.2494C18.5121 55.2889 18.5283 55.3212 18.548 55.3212C18.5678 55.3212 18.5839 55.3535 18.5839 55.3929C18.5839 55.4324 18.6 55.4647 18.6198 55.4647C18.6395 55.4647 18.6556 55.5096 18.6556 55.5644C18.6556 55.6229 18.6853 55.6854 18.7274 55.7158C18.7669 55.7443 18.7992 55.7927 18.7992 55.8235C18.7992 55.8542 18.8314 55.9026 18.8709 55.9311C18.9104 55.9595 18.9427 56.008 18.9427 56.0387C18.9427 56.0695 18.9749 56.1179 19.0144 56.1463C19.0539 56.1748 19.0862 56.2197 19.0862 56.2463C19.0862 56.2728 19.1669 56.3731 19.2655 56.4692C19.3642 56.5653 19.4449 56.6692 19.4449 56.7001C19.4449 56.731 19.4702 56.7562 19.5011 56.7562C19.532 56.7562 19.6358 56.837 19.7319 56.9356C19.828 57.0343 19.9284 57.115 19.9549 57.115C19.9814 57.115 20.0264 57.1473 20.0548 57.1868C20.0833 57.2262 20.1317 57.2585 20.1624 57.2585C20.1932 57.2585 20.2416 57.2908 20.2701 57.3303C20.2986 57.3698 20.363 57.402 20.4136 57.402C20.4642 57.402 20.5286 57.4342 20.5571 57.4738C20.5855 57.5132 20.6375 57.5455 20.6726 57.5455C20.7077 57.5455 20.7365 57.5617 20.7365 57.5814C20.7365 57.6011 20.7849 57.6173 20.8441 57.6173C20.9033 57.6173 20.9517 57.6334 20.9517 57.6531C20.9517 57.6729 21.0002 57.689 21.0594 57.689C21.1186 57.689 21.167 57.7052 21.167 57.7249C21.167 57.7446 21.2154 57.7608 21.2746 57.7608C21.3338 57.7608 21.3822 57.7769 21.3822 57.7966C21.3822 57.8164 21.463 57.8325 21.5616 57.8325C21.6603 57.8325 21.741 57.8487 21.741 57.8684C21.741 57.8913 22.04 57.9043 22.5662 57.9043C23.0924 57.9043 23.3913 57.8913 23.3913 57.8684C23.3913 57.8487 23.472 57.8325 23.5707 57.8325C23.6694 57.8325 23.7501 57.8164 23.7501 57.7966C23.7501 57.7769 23.7985 57.7608 23.8577 57.7608C23.9169 57.7608 23.9653 57.7446 23.9653 57.7249C23.9653 57.7052 24.0299 57.689 24.1088 57.689C24.1878 57.689 24.2523 57.6729 24.2523 57.6531C24.2523 57.6334 24.3008 57.6173 24.36 57.6173C24.4192 57.6173 24.4676 57.6011 24.4676 57.5814C24.4676 57.5617 24.4999 57.5455 24.5394 57.5455C24.5788 57.5455 24.6111 57.5294 24.6111 57.5096C24.6111 57.4899 24.6434 57.4738 24.6829 57.4738C24.7223 57.4738 24.7546 57.4576 24.7546 57.4379C24.7546 57.4182 24.7869 57.402 24.8264 57.402C24.8658 57.402 24.8981 57.3859 24.8981 57.3661C24.8981 57.3464 24.9268 57.3303 24.9619 57.3303C24.9971 57.3303 25.049 57.298 25.0775 57.2585C25.1059 57.219 25.1579 57.1868 25.1931 57.1868C25.2281 57.1868 25.2569 57.1706 25.2569 57.1509C25.2569 57.1311 25.2827 57.115 25.3142 57.115C25.3458 57.115 25.4168 57.0666 25.4721 57.0074C25.5274 56.9482 25.5913 56.8997 25.6141 56.8997C25.6368 56.8997 25.7506 56.8029 25.8668 56.6845C25.983 56.5661 26.0962 56.4692 26.1185 56.4692C26.1707 56.4692 26.2614 56.3785 26.2614 56.3263C26.2614 56.3041 26.3583 56.1908 26.4767 56.0746C26.5951 55.9584 26.6919 55.8447 26.6919 55.8219C26.6919 55.7991 26.7404 55.7352 26.7996 55.6799C26.8587 55.6247 26.9072 55.5571 26.9072 55.53C26.9072 55.5028 26.9395 55.4573 26.9789 55.4288C27.0184 55.4004 27.0507 55.3557 27.0507 55.3296C27.0507 55.2838 27.2063 55.1059 27.2464 55.1059C27.2572 55.1059 27.2659 55.3642 27.2659 55.6799C27.2659 56.0387 27.2525 56.254 27.2301 56.254C27.2078 56.254 27.1942 56.4573 27.1942 56.7921C27.1942 57.1269 27.1806 57.3303 27.1583 57.3303C27.1039 57.3303 27.1154 57.5078 27.1737 57.566C27.2504 57.6428 31.6583 57.6428 31.7351 57.566C31.7767 57.5244 31.7864 57.3494 31.7864 56.6332C31.7864 56.0695 31.7993 55.7517 31.8222 55.7517C31.8447 55.7517 31.8581 55.5364 31.8581 55.1777C31.8581 54.8189 31.8716 54.6037 31.894 54.6037C31.9159 54.6037 31.9299 54.4362 31.9299 54.1731C31.9299 53.9101 31.9438 53.7426 31.9657 53.7426C31.9857 53.7426 32.0016 53.6469 32.0016 53.5274C32.0016 53.4078 32.0175 53.3121 32.0375 53.3121C32.0588 53.3121 32.0734 53.1806 32.0734 52.9892C32.0734 52.7979 32.088 52.6663 32.1092 52.6663C32.1302 52.6663 32.1451 52.5468 32.1451 52.3793C32.1451 52.2119 32.1601 52.0923 32.181 52.0923C32.2007 52.0923 32.2169 52.0116 32.2169 51.9129C32.2169 51.8143 32.233 51.7336 32.2527 51.7336C32.2725 51.7336 32.2886 51.6528 32.2886 51.5542C32.2886 51.4555 32.3048 51.3748 32.3245 51.3748C32.3444 51.3748 32.3604 51.2791 32.3604 51.1595C32.3604 51.04 32.3763 50.9443 32.3962 50.9443C32.4162 50.9443 32.4321 50.8486 32.4321 50.729C32.4321 50.6095 32.4481 50.5138 32.468 50.5138C32.4877 50.5138 32.5039 50.4492 32.5039 50.3703C32.5039 50.2913 32.52 50.2268 32.5398 50.2268C32.5595 50.2268 32.5756 50.146 32.5756 50.0474C32.5756 49.9487 32.5918 49.868 32.6115 49.868C32.6315 49.868 32.6474 49.7723 32.6474 49.6527C32.6474 49.5332 32.6633 49.4375 32.6833 49.4375C32.7032 49.4375 32.7191 49.3418 32.7191 49.2222C32.7191 49.1026 32.7351 49.007 32.755 49.007C32.7747 49.007 32.7909 48.9424 32.7909 48.8635C32.7909 48.7845 32.807 48.72 32.8268 48.72C32.8465 48.72 32.8626 48.6392 32.8626 48.5406C32.8626 48.4419 32.8788 48.3612 32.8985 48.3612C32.919 48.3612 32.9344 48.2536 32.9344 48.1101C32.9344 47.9666 32.9498 47.8589 32.9703 47.8589C32.9902 47.8589 33.0061 47.7632 33.0061 47.6437C33.0061 47.5241 33.0221 47.4284 33.042 47.4284C33.0618 47.4284 33.0779 47.38 33.0779 47.3208C33.0779 47.2616 33.094 47.2132 33.1138 47.2132C33.1335 47.2132 33.1497 47.1324 33.1497 47.0338C33.1497 46.9351 33.1658 46.8544 33.1855 46.8544C33.206 46.8544 33.2214 46.7468 33.2214 46.6033C33.2214 46.4598 33.2368 46.3521 33.2573 46.3521C33.277 46.3521 33.2932 46.2714 33.2932 46.1727C33.2932 46.0741 33.3093 45.9934 33.329 45.9934C33.3488 45.9934 33.3649 45.9288 33.3649 45.8499C33.3649 45.7709 33.3811 45.7064 33.4008 45.7064C33.4207 45.7064 33.4367 45.6107 33.4367 45.4911C33.4367 45.3715 33.4526 45.2758 33.4725 45.2758C33.4925 45.2758 33.5084 45.1802 33.5084 45.0606C33.5084 44.941 33.5243 44.8453 33.5443 44.8453C33.564 44.8453 33.5802 44.7807 33.5802 44.7018C33.5802 44.6229 33.5963 44.5583 33.616 44.5583C33.6358 44.5583 33.6519 44.4776 33.6519 44.3789C33.6519 44.2803 33.6681 44.1996 33.6878 44.1996C33.7077 44.1996 33.7237 44.1039 33.7237 43.9843C33.7237 43.8647 33.7396 43.769 33.7595 43.769C33.8146 43.769 33.8021 43.5195 33.7442 43.4615C33.716 43.4333 33.6676 43.4103 33.6365 43.4103C33.6055 43.4103 33.5802 43.3941 33.5802 43.3744C33.5802 43.3547 33.5156 43.3385 33.4367 43.3385C33.3577 43.3385 33.2932 43.3224 33.2932 43.3026C33.2932 43.2829 33.2286 43.2668 33.1497 43.2668C33.0707 43.2668 33.0061 43.2506 33.0061 43.2309C33.0061 43.2112 32.9577 43.195 32.8985 43.195C32.8393 43.195 32.7909 43.1789 32.7909 43.1591C32.7909 43.1394 32.7102 43.1233 32.6115 43.1233C32.5128 43.1233 32.4321 43.1071 32.4321 43.0874C32.4321 43.0677 32.3514 43.0515 32.2527 43.0515C32.1541 43.0515 32.0734 43.0354 32.0734 43.0156C32.0734 42.9957 31.9777 42.9798 31.8581 42.9798C31.7385 42.9798 31.6428 42.9638 31.6428 42.9439C31.6428 42.9242 31.5621 42.908 31.4635 42.908C31.3648 42.908 31.2841 42.8919 31.2841 42.8721C31.2841 42.8516 31.1765 42.8363 31.033 42.8363C30.8894 42.8363 30.7818 42.8209 30.7818 42.8004C30.7818 42.7786 30.6264 42.7645 30.3872 42.7645C30.148 42.7645 29.9925 42.7504 29.9925 42.7286C29.9925 42.7053 29.5142 42.6927 28.6292 42.6927C27.7443 42.6927 27.2659 42.7053 27.2659 42.7286ZM42.6927 42.7286C42.6927 42.7502 42.5492 42.7645 42.334 42.7645C42.1187 42.7645 41.9752 42.7789 41.9752 42.8004C41.9752 42.8203 41.8795 42.8363 41.7599 42.8363C41.6404 42.8363 41.5447 42.8522 41.5447 42.8721C41.5447 42.8919 41.4963 42.908 41.4371 42.908C41.3779 42.908 41.3294 42.9242 41.3294 42.9439C41.3294 42.9636 41.2487 42.9798 41.1501 42.9798C41.0514 42.9798 40.9707 42.9959 40.9707 43.0156C40.9707 43.0354 40.9061 43.0515 40.8272 43.0515C40.7482 43.0515 40.6837 43.0677 40.6837 43.0874C40.6837 43.1071 40.6352 43.1233 40.576 43.1233C40.5168 43.1233 40.4684 43.1394 40.4684 43.1591C40.4684 43.1789 40.42 43.195 40.3608 43.195C40.3016 43.195 40.2531 43.2112 40.2531 43.2309C40.2531 43.2506 40.2047 43.2668 40.1455 43.2668C40.0863 43.2668 40.0379 43.2829 40.0379 43.3026C40.0379 43.3224 39.9895 43.3385 39.9303 43.3385C39.8711 43.3385 39.8226 43.3547 39.8226 43.3744C39.8226 43.3941 39.7777 43.4103 39.7229 43.4103C39.6644 43.4103 39.6019 43.4399 39.5715 43.482C39.5411 43.5241 39.4786 43.5538 39.4201 43.5538C39.3652 43.5538 39.3204 43.5699 39.3204 43.5897C39.3204 43.6094 39.2881 43.6255 39.2486 43.6255C39.2091 43.6255 39.1769 43.6417 39.1769 43.6614C39.1769 43.6811 39.1446 43.6973 39.1051 43.6973C39.0656 43.6973 39.0334 43.7134 39.0334 43.7332C39.0334 43.7529 39.0011 43.769 38.9616 43.769C38.9221 43.769 38.8899 43.7852 38.8899 43.8049C38.8899 43.8246 38.8576 43.8408 38.8181 43.8408C38.7786 43.8408 38.7463 43.8569 38.7463 43.8767C38.7463 43.8964 38.7141 43.9125 38.6746 43.9125C38.6351 43.9125 38.6028 43.9287 38.6028 43.9484C38.6028 43.9681 38.5741 43.9843 38.539 43.9843C38.5039 43.9843 38.4519 44.0166 38.4235 44.056C38.395 44.0955 38.343 44.1278 38.3079 44.1278C38.2728 44.1278 38.2441 44.1439 38.2441 44.1637C38.2441 44.1834 38.2153 44.1996 38.1803 44.1996C38.1451 44.1996 38.0931 44.2318 38.0647 44.2713C38.0362 44.3108 37.9907 44.3431 37.9635 44.3431C37.9364 44.3431 37.8688 44.3915 37.8136 44.4507C37.7583 44.5099 37.6908 44.5583 37.6636 44.5583C37.6364 44.5583 37.5909 44.5906 37.5624 44.6301C37.534 44.6695 37.489 44.7018 37.4625 44.7018C37.436 44.7018 37.3357 44.7825 37.2395 44.8812C37.1434 44.9799 37.0475 45.0606 37.0262 45.0606C36.9756 45.0606 36.1633 45.8733 36.1633 45.9241C36.1633 45.9455 36.0987 46.0251 36.0197 46.101C35.9408 46.1768 35.8762 46.2579 35.8762 46.2811C35.8762 46.3043 35.8278 46.3686 35.7686 46.4239C35.7094 46.4792 35.661 46.5467 35.661 46.5738C35.661 46.601 35.6287 46.6466 35.5892 46.675C35.5498 46.7035 35.5175 46.7519 35.5175 46.7826C35.5175 46.8134 35.4852 46.8618 35.4457 46.8903C35.4063 46.9187 35.374 46.9707 35.374 47.0058C35.374 47.0409 35.3578 47.0697 35.3381 47.0697C35.3184 47.0697 35.3022 47.1019 35.3022 47.1414C35.3022 47.1809 35.2861 47.2132 35.2663 47.2132C35.2466 47.2132 35.2305 47.2419 35.2305 47.277C35.2305 47.3121 35.1982 47.3641 35.1587 47.3925C35.1193 47.421 35.087 47.473 35.087 47.5081C35.087 47.5432 35.0708 47.5719 35.0511 47.5719C35.0314 47.5719 35.0152 47.6168 35.0152 47.6716C35.0152 47.7302 34.9856 47.7927 34.9435 47.8231C34.904 47.8515 34.8717 47.9035 34.8717 47.9386C34.8717 47.9737 34.8556 48.0024 34.8358 48.0024C34.8161 48.0024 34.8 48.0509 34.8 48.1101C34.8 48.1693 34.7838 48.2177 34.7641 48.2177C34.7444 48.2177 34.7282 48.25 34.7282 48.2894C34.7282 48.3289 34.7121 48.3612 34.6923 48.3612C34.6726 48.3612 34.6565 48.4096 34.6565 48.4688C34.6565 48.528 34.6403 48.5765 34.6206 48.5765C34.6008 48.5765 34.5847 48.6087 34.5847 48.6482C34.5847 48.6877 34.5686 48.72 34.5488 48.72C34.5291 48.72 34.5129 48.7845 34.5129 48.8635C34.5129 48.9424 34.4968 49.007 34.4771 49.007C34.4573 49.007 34.4412 49.0715 34.4412 49.1505C34.4412 49.2294 34.425 49.294 34.4053 49.294C34.3856 49.294 34.3694 49.3263 34.3694 49.3657C34.3694 49.4052 34.3533 49.4375 34.3336 49.4375C34.3138 49.4375 34.2977 49.5182 34.2977 49.6169C34.2977 49.7155 34.2815 49.7962 34.2618 49.7962C34.2413 49.7962 34.2259 49.9039 34.2259 50.0474C34.2259 50.1909 34.2105 50.2985 34.1901 50.2985C34.1696 50.2985 34.1542 50.4061 34.1542 50.5496C34.1542 50.6932 34.1388 50.8008 34.1183 50.8008C34.0953 50.8008 34.0824 51.1237 34.0824 51.6977C34.0824 52.2717 34.0953 52.5946 34.1183 52.5946C34.1388 52.5946 34.1542 52.7022 34.1542 52.8457C34.1542 52.9892 34.1696 53.0969 34.1901 53.0969C34.21 53.0969 34.2259 53.1925 34.2259 53.3121C34.2259 53.4317 34.2419 53.5274 34.2618 53.5274C34.2815 53.5274 34.2977 53.592 34.2977 53.6709C34.2977 53.7498 34.3138 53.8144 34.3336 53.8144C34.3533 53.8144 34.3694 53.8467 34.3694 53.8861C34.3694 53.9256 34.3856 53.9579 34.4053 53.9579C34.425 53.9579 34.4412 54.0063 34.4412 54.0655C34.4412 54.1247 34.4573 54.1731 34.4771 54.1731C34.4968 54.1731 34.5129 54.2216 34.5129 54.2808C34.5129 54.34 34.5291 54.3884 34.5488 54.3884C34.5686 54.3884 34.5847 54.4207 34.5847 54.4602C34.5847 54.4996 34.6008 54.5319 34.6206 54.5319C34.6403 54.5319 34.6565 54.5642 34.6565 54.6037C34.6565 54.6431 34.6726 54.6754 34.6923 54.6754C34.7121 54.6754 34.7282 54.7238 34.7282 54.783C34.7282 54.8422 34.7444 54.8907 34.7641 54.8907C34.7838 54.8907 34.8 54.9194 34.8 54.9545C34.8 54.9896 34.8322 55.0416 34.8717 55.0701C34.9112 55.0985 34.9435 55.1469 34.9435 55.1777C34.9435 55.2084 34.9757 55.2569 35.0152 55.2853C35.0547 55.3138 35.087 55.3657 35.087 55.4009C35.087 55.436 35.1031 55.4647 35.1228 55.4647C35.1426 55.4647 35.1587 55.4899 35.1587 55.5208C35.1587 55.5517 35.2394 55.6556 35.3381 55.7517C35.4368 55.8478 35.5175 55.944 35.5175 55.9654C35.5175 56.0165 35.8989 56.3975 35.95 56.3975C35.9717 56.3975 36.0515 56.4621 36.1274 56.541C36.2032 56.6199 36.2872 56.6845 36.314 56.6845C36.3408 56.6845 36.3859 56.7168 36.4144 56.7562C36.4428 56.7957 36.4884 56.828 36.5156 56.828C36.5427 56.828 36.6102 56.8764 36.6655 56.9356C36.7208 56.9948 36.7919 57.0432 36.8234 57.0432C36.855 57.0432 36.8808 57.0594 36.8808 57.0791C36.8808 57.0989 36.9131 57.115 36.9525 57.115C36.992 57.115 37.0243 57.1311 37.0243 57.1509C37.0243 57.1706 37.0566 57.1868 37.096 57.1868C37.1355 57.1868 37.1678 57.2029 37.1678 57.2226C37.1678 57.2424 37.2001 57.2585 37.2395 57.2585C37.279 57.2585 37.3113 57.2746 37.3113 57.2944C37.3113 57.3141 37.3436 57.3303 37.383 57.3303C37.4225 57.3303 37.4548 57.3464 37.4548 57.3661C37.4548 57.3859 37.5032 57.402 37.5624 57.402C37.6216 57.402 37.6701 57.4182 37.6701 57.4379C37.6701 57.4576 37.7185 57.4738 37.7777 57.4738C37.8369 57.4738 37.8853 57.4899 37.8853 57.5096C37.8853 57.5294 37.9176 57.5455 37.9571 57.5455C37.9965 57.5455 38.0288 57.5617 38.0288 57.5814C38.0288 57.6011 38.0934 57.6173 38.1723 57.6173C38.2513 57.6173 38.3158 57.6334 38.3158 57.6531C38.3158 57.6729 38.3965 57.689 38.4952 57.689C38.5939 57.689 38.6746 57.7052 38.6746 57.7249C38.6746 57.7446 38.723 57.7608 38.7822 57.7608C38.8414 57.7608 38.8899 57.7769 38.8899 57.7966C38.8899 57.8166 38.9855 57.8325 39.1051 57.8325C39.2247 57.8325 39.3204 57.8485 39.3204 57.8684C39.3204 57.8917 39.7868 57.9043 40.6478 57.9043C41.5088 57.9043 41.9752 57.8917 41.9752 57.8684C41.9752 57.8479 42.0828 57.8325 42.2263 57.8325C42.3698 57.8325 42.4775 57.8171 42.4775 57.7966C42.4775 57.7769 42.5582 57.7608 42.6569 57.7608C42.7555 57.7608 42.8362 57.7446 42.8362 57.7249C42.8362 57.7049 42.9319 57.689 43.0515 57.689C43.1711 57.689 43.2668 57.6731 43.2668 57.6531C43.2668 57.6334 43.3313 57.6173 43.4103 57.6173C43.4892 57.6173 43.5538 57.6011 43.5538 57.5814C43.5538 57.5617 43.586 57.5455 43.6255 57.5455C43.665 57.5455 43.6973 57.5294 43.6973 57.5096C43.6973 57.4899 43.7618 57.4738 43.8408 57.4738C43.9197 57.4738 43.9843 57.4576 43.9843 57.4379C43.9843 57.4182 44.0327 57.402 44.0919 57.402C44.1511 57.402 44.1995 57.3859 44.1995 57.3661C44.1995 57.3464 44.2318 57.3303 44.2713 57.3303C44.3107 57.3303 44.343 57.3141 44.343 57.2944C44.343 57.2746 44.3684 57.2585 44.3994 57.2585C44.5531 57.2585 44.5583 57.216 44.5583 55.9516C44.5583 55.1726 44.571 54.7472 44.5942 54.7472C44.6167 54.7472 44.63 54.5131 44.63 54.1168C44.63 53.5758 44.6215 53.4779 44.5701 53.4265C44.5266 53.3829 44.5062 53.3787 44.4954 53.4111C44.4872 53.4356 44.4335 53.4556 44.3759 53.4556C44.3184 53.4556 44.2713 53.4718 44.2713 53.4915C44.2713 53.5112 44.2229 53.5274 44.1637 53.5274C44.1045 53.5274 44.056 53.5435 44.056 53.5632C44.056 53.583 44.0076 53.5991 43.9484 53.5991C43.8892 53.5991 43.8408 53.6153 43.8408 53.635C43.8408 53.6547 43.7762 53.6709 43.6973 53.6709C43.6183 53.6709 43.5538 53.687 43.5538 53.7068C43.5538 53.7265 43.4892 53.7426 43.4103 53.7426C43.3313 53.7426 43.2668 53.7588 43.2668 53.7785C43.2668 53.799 43.1591 53.8144 43.0156 53.8144C42.8721 53.8144 42.7645 53.8298 42.7645 53.8503C42.7645 53.8729 42.5253 53.8861 42.1187 53.8861C41.7121 53.8861 41.4729 53.8729 41.4729 53.8503C41.4729 53.8305 41.3922 53.8144 41.2936 53.8144C41.1949 53.8144 41.1142 53.7982 41.1142 53.7785C41.1142 53.7588 41.0657 53.7426 41.0065 53.7426C40.9473 53.7426 40.8989 53.7265 40.8989 53.7068C40.8989 53.687 40.8666 53.6709 40.8272 53.6709C40.7877 53.6709 40.7554 53.6547 40.7554 53.635C40.7554 53.6153 40.7231 53.5991 40.6837 53.5991C40.6442 53.5991 40.6119 53.583 40.6119 53.5632C40.6119 53.5435 40.5861 53.5274 40.5545 53.5274C40.523 53.5274 40.4519 53.4789 40.3967 53.4197C40.3414 53.3605 40.2778 53.3121 40.2555 53.3121C40.1992 53.3121 39.9661 53.0739 39.9661 53.0163C39.9661 52.9904 39.9338 52.9459 39.8944 52.9175C39.8549 52.889 39.8226 52.8406 39.8226 52.8098C39.8226 52.7791 39.7903 52.7307 39.7509 52.7022C39.7114 52.6738 39.6791 52.6218 39.6791 52.5867C39.6791 52.5516 39.663 52.5228 39.6432 52.5228C39.6235 52.5228 39.6074 52.4744 39.6074 52.4152C39.6074 52.356 39.5912 52.3076 39.5715 52.3076C39.5518 52.3076 39.5356 52.2591 39.5356 52.2C39.5356 52.1408 39.5195 52.0923 39.4997 52.0923C39.48 52.0923 39.4639 52.0277 39.4639 51.9488C39.4639 51.8699 39.4477 51.8053 39.428 51.8053C39.4055 51.8053 39.3921 51.5781 39.3921 51.1954C39.3921 50.8127 39.4055 50.5855 39.428 50.5855C39.4479 50.5855 39.4639 50.4898 39.4639 50.3703C39.4639 50.2507 39.4798 50.155 39.4997 50.155C39.5195 50.155 39.5356 50.1066 39.5356 50.0474C39.5356 49.9882 39.5518 49.9397 39.5715 49.9397C39.5912 49.9397 39.6074 49.8752 39.6074 49.7962C39.6074 49.7173 39.6235 49.6527 39.6432 49.6527C39.663 49.6527 39.6791 49.6043 39.6791 49.5451C39.6791 49.4859 39.6953 49.4375 39.715 49.4375C39.7347 49.4375 39.7509 49.3926 39.7509 49.3378C39.7509 49.2792 39.7805 49.2167 39.8226 49.1863C39.8647 49.156 39.8944 49.0935 39.8944 49.0349C39.8944 48.9801 39.9105 48.9352 39.9303 48.9352C39.95 48.9352 39.9661 48.9065 39.9661 48.8714C39.9661 48.8363 39.9984 48.7843 40.0379 48.7558C40.0774 48.7274 40.1096 48.679 40.1096 48.6482C40.1096 48.6175 40.1419 48.569 40.1814 48.5406C40.2209 48.5121 40.2531 48.467 40.2531 48.4402C40.2531 48.4134 40.3177 48.3294 40.3967 48.2536C40.4756 48.1777 40.5402 48.0978 40.5402 48.0758C40.5402 48.0242 40.7768 47.7872 40.8283 47.7872C40.85 47.7872 40.9463 47.7065 41.0424 47.6078C41.1385 47.5091 41.2424 47.4284 41.2733 47.4284C41.3042 47.4284 41.3294 47.4123 41.3294 47.3925C41.3294 47.3728 41.3582 47.3567 41.3933 47.3567C41.4284 47.3567 41.4804 47.3244 41.5088 47.2849C41.5373 47.2454 41.5892 47.2132 41.6244 47.2132C41.6595 47.2132 41.6882 47.197 41.6882 47.1773C41.6882 47.1575 41.7205 47.1414 41.7599 47.1414C41.7994 47.1414 41.8317 47.1253 41.8317 47.1055C41.8317 47.0858 41.8801 47.0697 41.9393 47.0697C41.9985 47.0697 42.047 47.0535 42.047 47.0338C42.047 47.014 42.0792 46.9979 42.1187 46.9979C42.1582 46.9979 42.1905 46.9818 42.1905 46.962C42.1905 46.9423 42.2228 46.9261 42.2622 46.9261C42.3017 46.9261 42.334 46.91 42.334 46.8903C42.334 46.8705 42.3985 46.8544 42.4775 46.8544C42.5564 46.8544 42.621 46.8382 42.621 46.8185C42.621 46.7988 42.7017 46.7826 42.8004 46.7826C42.899 46.7826 42.9797 46.7665 42.9797 46.7468C42.9797 46.7268 43.0754 46.7109 43.195 46.7109C43.3146 46.7109 43.4103 46.695 43.4103 46.675C43.4103 46.6531 43.5777 46.6391 43.8408 46.6391C44.1039 46.6391 44.2713 46.6531 44.2713 46.675C44.2713 46.6959 44.3909 46.7109 44.5583 46.7109C44.7257 46.7109 44.8453 46.7258 44.8453 46.7468C44.8453 46.7665 44.926 46.7826 45.0247 46.7826C45.1233 46.7826 45.2041 46.7988 45.2041 46.8185C45.2041 46.8382 45.2686 46.8544 45.3476 46.8544C45.4265 46.8544 45.4911 46.8705 45.4911 46.8903C45.4911 46.91 45.5234 46.9261 45.5628 46.9261C45.6187 46.9261 45.6346 46.9022 45.6346 46.8185C45.6346 46.7593 45.6507 46.7109 45.6705 46.7109C45.6902 46.7109 45.7063 46.6625 45.7063 46.6033C45.7063 46.5441 45.7225 46.4956 45.7422 46.4956C45.7619 46.4956 45.7781 46.4472 45.7781 46.388C45.7781 46.3288 45.7942 46.2804 45.814 46.2804C45.8337 46.2804 45.8498 46.2158 45.8498 46.1369C45.8498 46.0579 45.866 45.9934 45.8857 45.9934C45.9054 45.9934 45.9216 45.9449 45.9216 45.8857C45.9216 45.8265 45.9377 45.7781 45.9575 45.7781C45.9772 45.7781 45.9933 45.7297 45.9933 45.6705C45.9933 45.6113 46.0095 45.5628 46.0292 45.5628C46.049 45.5628 46.0651 45.5144 46.0651 45.4552C46.0651 45.396 46.0812 45.3476 46.101 45.3476C46.1207 45.3476 46.1368 45.2992 46.1368 45.24C46.1368 45.1808 46.153 45.1323 46.1727 45.1323C46.1925 45.1323 46.2086 45.0678 46.2086 44.9888C46.2086 44.9099 46.2247 44.8453 46.2445 44.8453C46.2642 44.8453 46.2804 44.813 46.2804 44.7736C46.2804 44.7341 46.2965 44.7018 46.3162 44.7018C46.336 44.7018 46.3521 44.6372 46.3521 44.5583C46.3521 44.4794 46.3683 44.4148 46.388 44.4148C46.4077 44.4148 46.4239 44.3502 46.4239 44.2713C46.4239 44.1924 46.44 44.1278 46.4597 44.1278C46.4795 44.1278 46.4956 44.0794 46.4956 44.0202C46.4956 43.961 46.5118 43.9125 46.5315 43.9125C46.5512 43.9125 46.5674 43.8803 46.5674 43.8408C46.5674 43.8013 46.5835 43.769 46.6032 43.769C46.623 43.769 46.6391 43.7045 46.6391 43.6255C46.6391 43.5466 46.6553 43.482 46.675 43.482C46.6947 43.482 46.7109 43.4336 46.7109 43.3744C46.7109 43.3152 46.727 43.2668 46.7467 43.2668C46.8 43.2668 46.7902 43.1615 46.7314 43.1028C46.7032 43.0746 46.6386 43.0515 46.5879 43.0515C46.5371 43.0515 46.4956 43.0354 46.4956 43.0156C46.4956 42.9959 46.431 42.9798 46.3521 42.9798C46.2732 42.9798 46.2086 42.9636 46.2086 42.9439C46.2086 42.9242 46.1763 42.908 46.1368 42.908C46.0974 42.908 46.0651 42.8919 46.0651 42.8721C46.0651 42.8516 45.9575 42.8363 45.814 42.8363C45.6705 42.8363 45.5628 42.8209 45.5628 42.8004C45.5628 42.7795 45.4433 42.7645 45.2758 42.7645C45.1084 42.7645 44.9888 42.7495 44.9888 42.7286C44.9888 42.7054 44.5822 42.6927 43.8408 42.6927C43.0993 42.6927 42.6927 42.7054 42.6927 42.7286ZM69.8869 42.7286C69.8869 42.7499 69.7554 42.7645 69.564 42.7645C69.3727 42.7645 69.2411 42.7791 69.2411 42.8004C69.2411 42.8203 69.1455 42.8363 69.0259 42.8363C68.9063 42.8363 68.8106 42.8522 68.8106 42.8721C68.8106 42.8919 68.7622 42.908 68.703 42.908C68.6438 42.908 68.5954 42.9242 68.5954 42.9439C68.5954 42.9636 68.5308 42.9798 68.4519 42.9798C68.3729 42.9798 68.3084 42.9959 68.3084 43.0156C68.3084 43.0354 68.2599 43.0515 68.2007 43.0515C68.1415 43.0515 68.0931 43.0677 68.0931 43.0874C68.0931 43.1071 68.0447 43.1233 67.9855 43.1233C67.9263 43.1233 67.8779 43.1394 67.8779 43.1591C67.8779 43.1789 67.8456 43.195 67.8061 43.195C67.7666 43.195 67.7344 43.2112 67.7344 43.2309C67.7344 43.2506 67.6859 43.2668 67.6267 43.2668C67.5675 43.2668 67.5191 43.2829 67.5191 43.3026C67.5191 43.3224 67.4707 43.3385 67.4115 43.3385C67.3523 43.3385 67.3038 43.3547 67.3038 43.3744C67.3038 43.3941 67.2715 43.4103 67.2321 43.4103C67.1926 43.4103 67.1603 43.4264 67.1603 43.4462C67.1603 43.4659 67.128 43.482 67.0886 43.482C67.0491 43.482 67.0168 43.4982 67.0168 43.5179C67.0168 43.5376 66.9845 43.5538 66.9451 43.5538C66.9056 43.5538 66.8733 43.5699 66.8733 43.5897C66.8733 43.6094 66.841 43.6255 66.8016 43.6255C66.7621 43.6255 66.7298 43.6417 66.7298 43.6614C66.7298 43.6811 66.7011 43.6973 66.666 43.6973C66.6309 43.6973 66.5789 43.7296 66.5504 43.769C66.522 43.8085 66.47 43.8408 66.4349 43.8408C66.3998 43.8408 66.3711 43.8569 66.3711 43.8767C66.3711 43.8964 66.3423 43.9125 66.3072 43.9125C66.2721 43.9125 66.2201 43.9448 66.1917 43.9843C66.1632 44.0238 66.1112 44.056 66.0761 44.056C66.041 44.056 66.0123 44.0722 66.0123 44.0919C66.0123 44.1117 65.9868 44.1278 65.9557 44.1278C65.9245 44.1278 65.837 44.1924 65.7612 44.2713C65.6853 44.3502 65.6043 44.4148 65.5811 44.4148C65.5578 44.4148 65.4936 44.4632 65.4383 44.5224C65.383 44.5816 65.3198 44.6301 65.2979 44.6301C65.2467 44.6301 64.4337 45.4419 64.4337 45.493C64.4337 45.5143 64.353 45.6102 64.2544 45.7064C64.1557 45.8025 64.075 45.8999 64.075 45.9228C64.075 45.9458 64.0265 46.0098 63.9673 46.0651C63.9081 46.1204 63.8597 46.185 63.8597 46.2086C63.8597 46.2323 63.8113 46.2968 63.7521 46.3521C63.6929 46.4074 63.6445 46.4785 63.6445 46.51C63.6445 46.5416 63.6283 46.5674 63.6086 46.5674C63.5888 46.5674 63.5727 46.5961 63.5727 46.6312C63.5727 46.6663 63.5404 46.7183 63.501 46.7468C63.4615 46.7752 63.4292 46.8272 63.4292 46.8623C63.4292 46.8974 63.4131 46.9261 63.3933 46.9261C63.3736 46.9261 63.3574 46.9584 63.3574 46.9979C63.3574 47.0374 63.3413 47.0697 63.3216 47.0697C63.3018 47.0697 63.2857 47.0984 63.2857 47.1335C63.2857 47.1686 63.2534 47.2206 63.2139 47.249C63.1718 47.2794 63.1422 47.3419 63.1422 47.4005C63.1422 47.4553 63.126 47.5002 63.1063 47.5002C63.0866 47.5002 63.0704 47.5325 63.0704 47.5719C63.0704 47.6114 63.0543 47.6437 63.0346 47.6437C63.0148 47.6437 62.9987 47.676 62.9987 47.7154C62.9987 47.7549 62.9825 47.7872 62.9628 47.7872C62.9431 47.7872 62.9269 47.8195 62.9269 47.8589C62.9269 47.8984 62.9108 47.9307 62.8911 47.9307C62.8713 47.9307 62.8552 47.9791 62.8552 48.0383C62.8552 48.0975 62.839 48.1459 62.8193 48.1459C62.7996 48.1459 62.7834 48.1944 62.7834 48.2536C62.7834 48.3128 62.7673 48.3612 62.7476 48.3612C62.7278 48.3612 62.7117 48.3935 62.7117 48.4329C62.7117 48.4724 62.6955 48.5047 62.6758 48.5047C62.6561 48.5047 62.6399 48.5531 62.6399 48.6123C62.6399 48.6715 62.6238 48.72 62.604 48.72C62.5843 48.72 62.5682 48.7845 62.5682 48.8635C62.5682 48.9424 62.552 49.007 62.5323 49.007C62.5126 49.007 62.4964 49.0715 62.4964 49.1505C62.4964 49.2294 62.4803 49.294 62.4605 49.294C62.4408 49.294 62.4247 49.3424 62.4247 49.4016C62.4247 49.4608 62.4085 49.5092 62.3888 49.5092C62.3691 49.5092 62.3529 49.59 62.3529 49.6886C62.3529 49.7873 62.3368 49.868 62.317 49.868C62.2966 49.868 62.2812 49.9756 62.2812 50.1191C62.2812 50.2626 62.2658 50.3703 62.2453 50.3703C62.224 50.3703 62.2094 50.5018 62.2094 50.6932C62.2094 50.8845 62.1948 51.016 62.1735 51.016C62.1187 51.016 62.1273 51.5792 62.1825 51.605C62.2184 51.6217 62.2184 51.6301 62.1825 51.6468C62.1294 51.6716 62.1214 51.8771 62.1735 51.8771C62.1957 51.8771 62.2094 52.0684 62.2094 52.3793C62.2094 52.6903 62.2231 52.8816 62.2453 52.8816C62.2652 52.8816 62.2812 52.9773 62.2812 53.0969C62.2812 53.2164 62.2971 53.3121 62.317 53.3121C62.3368 53.3121 62.3529 53.3928 62.3529 53.4915C62.3529 53.5902 62.3691 53.6709 62.3888 53.6709C62.4085 53.6709 62.4247 53.7193 62.4247 53.7785C62.4247 53.8377 62.4408 53.8861 62.4605 53.8861C62.4803 53.8861 62.4964 53.9507 62.4964 54.0296C62.4964 54.1086 62.5126 54.1731 62.5323 54.1731C62.552 54.1731 62.5682 54.2216 62.5682 54.2808C62.5682 54.34 62.5843 54.3884 62.604 54.3884C62.6238 54.3884 62.6399 54.4207 62.6399 54.4602C62.6399 54.4996 62.6561 54.5319 62.6758 54.5319C62.6955 54.5319 62.7117 54.5642 62.7117 54.6037C62.7117 54.6431 62.7278 54.6754 62.7476 54.6754C62.7673 54.6754 62.7834 54.7238 62.7834 54.783C62.7834 54.8422 62.7996 54.8907 62.8193 54.8907C62.839 54.8907 62.8552 54.9194 62.8552 54.9545C62.8552 54.9896 62.8875 55.0416 62.9269 55.0701C62.9664 55.0985 62.9987 55.1505 62.9987 55.1856C62.9987 55.2207 63.0148 55.2494 63.0346 55.2494C63.0543 55.2494 63.0704 55.2782 63.0704 55.3133C63.0704 55.3484 63.1027 55.4004 63.1422 55.4288C63.1817 55.4573 63.2139 55.5028 63.2139 55.53C63.2139 55.5571 63.2624 55.6247 63.3216 55.6799C63.3808 55.7352 63.4292 55.7984 63.4292 55.8203C63.4292 55.8423 63.5985 56.0295 63.8055 56.2365C64.0124 56.4434 64.1997 56.6127 64.2216 56.6127C64.2435 56.6127 64.3067 56.6612 64.362 56.7204C64.4173 56.7796 64.4883 56.828 64.5199 56.828C64.5514 56.828 64.5772 56.8441 64.5772 56.8639C64.5772 56.8836 64.606 56.8997 64.6411 56.8997C64.6762 56.8997 64.7282 56.932 64.7566 56.9715C64.7851 57.011 64.8371 57.0432 64.8722 57.0432C64.9073 57.0432 64.936 57.0594 64.936 57.0791C64.936 57.0989 64.9683 57.115 65.0078 57.115C65.0472 57.115 65.0795 57.1311 65.0795 57.1509C65.0795 57.1706 65.1118 57.1868 65.1513 57.1868C65.1907 57.1868 65.223 57.2029 65.223 57.2226C65.223 57.2424 65.2553 57.2585 65.2948 57.2585C65.3342 57.2585 65.3665 57.2746 65.3665 57.2944C65.3665 57.3141 65.3988 57.3303 65.4383 57.3303C65.4777 57.3303 65.51 57.3464 65.51 57.3661C65.51 57.3859 65.5585 57.402 65.6177 57.402C65.6768 57.402 65.7253 57.4182 65.7253 57.4379C65.7253 57.4576 65.7576 57.4738 65.797 57.4738C65.8365 57.4738 65.8688 57.4899 65.8688 57.5096C65.8688 57.5294 65.9172 57.5455 65.9764 57.5455C66.0356 57.5455 66.084 57.5617 66.084 57.5814C66.084 57.6011 66.1486 57.6173 66.2275 57.6173C66.3065 57.6173 66.3711 57.6334 66.3711 57.6531C66.3711 57.6729 66.4518 57.689 66.5504 57.689C66.6491 57.689 66.7298 57.7052 66.7298 57.7249C66.7298 57.7446 66.7944 57.7608 66.8733 57.7608C66.9522 57.7608 67.0168 57.7769 67.0168 57.7966C67.0168 57.8166 67.1125 57.8325 67.2321 57.8325C67.3517 57.8325 67.4473 57.8485 67.4473 57.8684C67.4473 57.8917 67.9496 57.9043 68.8824 57.9043C69.8152 57.9043 70.3174 57.8917 70.3174 57.8684C70.3174 57.8469 70.4609 57.8325 70.6762 57.8325C70.8915 57.8325 71.035 57.8182 71.035 57.7966C71.035 57.7769 71.0995 57.7608 71.1785 57.7608C71.2574 57.7608 71.322 57.7446 71.322 57.7249C71.322 57.7049 71.4177 57.689 71.5372 57.689C71.6568 57.689 71.7525 57.6731 71.7525 57.6531C71.7525 57.6332 71.8482 57.6173 71.9677 57.6173C72.0873 57.6173 72.183 57.6013 72.183 57.5814C72.183 57.5617 72.2314 57.5455 72.2906 57.5455C72.3498 57.5455 72.3983 57.5294 72.3983 57.5096C72.3983 57.4899 72.4628 57.4738 72.5418 57.4738C72.6207 57.4738 72.6853 57.4576 72.6853 57.4379C72.6853 57.4182 72.7498 57.402 72.8288 57.402C72.9077 57.402 72.9723 57.3859 72.9723 57.3661C72.9723 57.3464 73.0369 57.3303 73.1158 57.3303C73.1947 57.3303 73.2593 57.3141 73.2593 57.2944C73.2593 57.2746 73.2916 57.2585 73.331 57.2585C73.3705 57.2585 73.4028 57.2424 73.4028 57.2226C73.4028 57.2029 73.4512 57.1868 73.5104 57.1868C73.5696 57.1868 73.618 57.1706 73.618 57.1509C73.618 57.1311 73.6665 57.115 73.7257 57.115C73.7849 57.115 73.8333 57.0989 73.8333 57.0791C73.8333 57.0594 73.8817 57.0432 73.9409 57.0432C74.0001 57.0432 74.0486 57.0271 74.0486 57.0074C74.0486 56.9876 74.0809 56.9715 74.1203 56.9715C74.1598 56.9715 74.1921 56.9553 74.1921 56.9356C74.1921 56.9159 74.2244 56.8997 74.2638 56.8997C74.3033 56.8997 74.3356 56.8836 74.3356 56.8639C74.3356 56.8441 74.3679 56.828 74.4073 56.828C74.4757 56.828 74.4791 56.8041 74.4791 56.3257C74.4791 56.0148 74.4654 55.8235 74.4432 55.8235C74.4207 55.8235 74.4073 55.5962 74.4073 55.2136C74.4073 54.8309 74.394 54.6037 74.3715 54.6037C74.3506 54.6037 74.3356 54.4851 74.3356 54.3196C74.3356 54.126 74.3213 54.0298 74.2907 54.0174C74.2569 54.0037 74.2591 53.9891 74.2997 53.9579C74.3403 53.9267 74.3425 53.9121 74.3087 53.8984C74.277 53.8855 74.2638 53.7754 74.2638 53.5244V53.1686H74.1562C74.097 53.1686 74.0486 53.1848 74.0486 53.2045C74.0486 53.2242 74.0163 53.2404 73.9768 53.2404C73.9374 53.2404 73.9051 53.2565 73.9051 53.2762C73.9051 53.296 73.8566 53.3121 73.7974 53.3121C73.7382 53.3121 73.6898 53.3283 73.6898 53.348C73.6898 53.3677 73.6575 53.3839 73.618 53.3839C73.5786 53.3839 73.5463 53.4 73.5463 53.4197C73.5463 53.4395 73.4979 53.4556 73.4387 53.4556C73.3795 53.4556 73.331 53.4718 73.331 53.4915C73.331 53.5112 73.2826 53.5274 73.2234 53.5274C73.1642 53.5274 73.1158 53.5435 73.1158 53.5632C73.1158 53.583 73.0512 53.5991 72.9723 53.5991C72.8934 53.5991 72.8288 53.6153 72.8288 53.635C72.8288 53.6547 72.7803 53.6709 72.7211 53.6709C72.6619 53.6709 72.6135 53.687 72.6135 53.7068C72.6135 53.7265 72.5651 53.7426 72.5059 53.7426C72.4467 53.7426 72.3983 53.7588 72.3983 53.7785C72.3983 53.7985 72.3026 53.8144 72.183 53.8144C72.0634 53.8144 71.9677 53.8303 71.9677 53.8503C71.9677 53.8712 71.8482 53.8861 71.6807 53.8861C71.5133 53.8861 71.3937 53.9011 71.3937 53.922C71.3937 53.9425 71.2861 53.9579 71.1426 53.9579C70.9991 53.9579 70.8915 53.9733 70.8915 53.9938C70.8915 54.0165 70.6164 54.0296 70.1381 54.0296C69.6597 54.0296 69.3847 54.0165 69.3847 53.9938C69.3847 53.974 69.3039 53.9579 69.2053 53.9579C69.1066 53.9579 69.0259 53.9417 69.0259 53.922C69.0259 53.9023 68.9452 53.8861 68.8465 53.8861C68.7479 53.8861 68.6671 53.87 68.6671 53.8503C68.6671 53.8305 68.6026 53.8144 68.5236 53.8144C68.4447 53.8144 68.3801 53.7982 68.3801 53.7785C68.3801 53.7588 68.3478 53.7426 68.3084 53.7426C68.2689 53.7426 68.2366 53.7265 68.2366 53.7068C68.2366 53.687 68.2043 53.6709 68.1649 53.6709C68.1254 53.6709 68.0931 53.6547 68.0931 53.635C68.0931 53.6153 68.0608 53.5991 68.0214 53.5991C67.9819 53.5991 67.9496 53.583 67.9496 53.5632C67.9496 53.5435 67.9173 53.5274 67.8779 53.5274C67.8384 53.5274 67.8061 53.5112 67.8061 53.4915C67.8061 53.4718 67.7774 53.4556 67.7423 53.4556C67.7072 53.4556 67.6552 53.4233 67.6267 53.3839C67.5983 53.3444 67.5463 53.3121 67.5112 53.3121C67.4761 53.3121 67.4473 53.2866 67.4473 53.2555C67.4473 53.2243 67.3828 53.1368 67.3038 53.061C67.216 52.9766 67.1603 52.8903 67.1603 52.8385C67.1603 52.792 67.128 52.7307 67.0886 52.7022C67.0491 52.6738 67.0168 52.6218 67.0168 52.5867C67.0168 52.5516 67.0007 52.5228 66.9809 52.5228C66.9612 52.5228 66.9451 52.4744 66.9451 52.4152V52.3076H67.9496C68.5954 52.3076 68.9541 52.2948 68.9541 52.2717C68.9541 52.2491 69.1933 52.2358 69.5999 52.2358C70.0065 52.2358 70.2457 52.2226 70.2457 52.2C70.2457 52.179 70.3653 52.1641 70.5327 52.1641C70.7001 52.1641 70.8197 52.1491 70.8197 52.1282C70.8197 52.1085 70.9004 52.0923 70.9991 52.0923C71.0977 52.0923 71.1785 52.0762 71.1785 52.0564C71.1785 52.0365 71.2741 52.0206 71.3937 52.0206C71.5133 52.0206 71.609 52.0046 71.609 51.9847C71.609 51.9647 71.7047 51.9488 71.8242 51.9488C71.9438 51.9488 72.0395 51.9329 72.0395 51.9129C72.0395 51.8932 72.0879 51.8771 72.1471 51.8771C72.2063 51.8771 72.2548 51.8609 72.2548 51.8412C72.2548 51.8215 72.3032 51.8053 72.3624 51.8053C72.4216 51.8053 72.47 51.7892 72.47 51.7694C72.47 51.7497 72.5346 51.7336 72.6135 51.7336C72.6924 51.7336 72.757 51.7174 72.757 51.6977C72.757 51.678 72.8216 51.6618 72.9005 51.6618C72.9795 51.6618 73.044 51.6457 73.044 51.6259C73.044 51.6062 73.0763 51.5901 73.1158 51.5901C73.1553 51.5901 73.1875 51.5739 73.1875 51.5542C73.1875 51.5344 73.2198 51.5183 73.2593 51.5183C73.2988 51.5183 73.331 51.5022 73.331 51.4824C73.331 51.4627 73.3795 51.4466 73.4387 51.4466C73.4979 51.4466 73.5463 51.4304 73.5463 51.4107C73.5463 51.3909 73.5786 51.3748 73.618 51.3748C73.6575 51.3748 73.6898 51.3587 73.6898 51.3389C73.6898 51.3192 73.7221 51.303 73.7616 51.303C73.801 51.303 73.8333 51.2869 73.8333 51.2672C73.8333 51.2474 73.8656 51.2313 73.9051 51.2313C73.9445 51.2313 73.9768 51.2151 73.9768 51.1954C73.9768 51.1757 74.0091 51.1595 74.0486 51.1595C74.088 51.1595 74.1203 51.1434 74.1203 51.1237C74.1203 51.1039 74.1491 51.0878 74.1841 51.0878C74.2193 51.0878 74.2713 51.0555 74.2997 51.016C74.3282 50.9766 74.3801 50.9443 74.4153 50.9443C74.4503 50.9443 74.4791 50.9281 74.4791 50.9084C74.4791 50.8887 74.5046 50.8725 74.5357 50.8725C74.5669 50.8725 74.6544 50.808 74.7302 50.729C74.8061 50.6501 74.886 50.5855 74.908 50.5855C74.9679 50.5855 75.1966 50.3449 75.1966 50.2818C75.1966 50.2507 75.2278 50.2268 75.2684 50.2268C75.3098 50.2268 75.3401 50.2028 75.3401 50.1701C75.3401 50.139 75.4047 50.0515 75.4836 49.9756C75.5625 49.8998 75.6271 49.8158 75.6271 49.789C75.6271 49.7622 75.6594 49.7171 75.6989 49.6886C75.7383 49.6602 75.7706 49.6082 75.7706 49.5731C75.7706 49.538 75.7868 49.5092 75.8065 49.5092C75.8262 49.5092 75.8424 49.4769 75.8424 49.4375C75.8424 49.398 75.8585 49.3657 75.8783 49.3657C75.898 49.3657 75.9141 49.3334 75.9141 49.294C75.9141 49.2545 75.9303 49.2222 75.95 49.2222C75.9697 49.2222 75.9859 49.1738 75.9859 49.1146C75.9859 49.0554 76.002 49.007 76.0218 49.007C76.0415 49.007 76.0576 48.9585 76.0576 48.8993C76.0576 48.8401 76.0738 48.7917 76.0935 48.7917C76.1132 48.7917 76.1294 48.7271 76.1294 48.6482C76.1294 48.5693 76.1455 48.5047 76.1653 48.5047C76.185 48.5047 76.2011 48.4563 76.2011 48.3971C76.2011 48.3379 76.2173 48.2894 76.237 48.2894C76.26 48.2894 76.2729 47.9546 76.2729 47.3567C76.2729 46.7587 76.26 46.4239 76.237 46.4239C76.2173 46.4239 76.2011 46.3754 76.2011 46.3162C76.2011 46.2571 76.185 46.2086 76.1653 46.2086C76.1455 46.2086 76.1294 46.1279 76.1294 46.0292C76.1294 45.9306 76.1132 45.8499 76.0935 45.8499C76.0738 45.8499 76.0576 45.8014 76.0576 45.7422C76.0576 45.683 76.0415 45.6346 76.0218 45.6346C76.002 45.6346 75.9859 45.5897 75.9859 45.5349C75.9859 45.4763 75.9563 45.4139 75.9141 45.3835C75.872 45.3531 75.8424 45.2906 75.8424 45.232C75.8424 45.1772 75.8262 45.1323 75.8065 45.1323C75.7868 45.1323 75.7706 45.1065 75.7706 45.075C75.7706 45.0434 75.7222 44.9724 75.663 44.9171C75.6038 44.8618 75.5554 44.7907 75.5554 44.7592C75.5554 44.7276 75.5392 44.7018 75.5195 44.7018C75.4998 44.7018 75.4836 44.6774 75.4836 44.6476C75.4836 44.5857 74.752 43.8408 74.6912 43.8408C74.6693 43.8408 74.6061 43.7924 74.5508 43.7332C74.4956 43.674 74.428 43.6255 74.4009 43.6255C74.3737 43.6255 74.3282 43.5932 74.2997 43.5538C74.2713 43.5143 74.2193 43.482 74.1841 43.482C74.1491 43.482 74.1203 43.4659 74.1203 43.4462C74.1203 43.4264 74.088 43.4103 74.0486 43.4103C74.0091 43.4103 73.9768 43.3941 73.9768 43.3744C73.9768 43.3547 73.9445 43.3385 73.9051 43.3385C73.8656 43.3385 73.8333 43.3224 73.8333 43.3026C73.8333 43.2829 73.801 43.2668 73.7616 43.2668C73.7221 43.2668 73.6898 43.2506 73.6898 43.2309C73.6898 43.2112 73.6575 43.195 73.618 43.195C73.5786 43.195 73.5463 43.1789 73.5463 43.1591C73.5463 43.1394 73.514 43.1233 73.4745 43.1233C73.4351 43.1233 73.4028 43.1071 73.4028 43.0874C73.4028 43.0677 73.3544 43.0515 73.2952 43.0515C73.236 43.0515 73.1875 43.0354 73.1875 43.0156C73.1875 42.9959 73.123 42.9798 73.044 42.9798C72.9651 42.9798 72.9005 42.9636 72.9005 42.9439C72.9005 42.9242 72.8682 42.908 72.8288 42.908C72.7893 42.908 72.757 42.8919 72.757 42.8721C72.757 42.8524 72.6763 42.8363 72.5776 42.8363C72.479 42.8363 72.3983 42.8201 72.3983 42.8004C72.3983 42.7795 72.2787 42.7645 72.1113 42.7645C71.9438 42.7645 71.8242 42.7495 71.8242 42.7286C71.8242 42.7056 71.4774 42.6927 70.8556 42.6927C70.2337 42.6927 69.8869 42.7056 69.8869 42.7286ZM77.4209 42.9798C77.4209 43.0587 77.4048 43.1233 77.3851 43.1233C77.3651 43.1233 77.3492 43.2189 77.3492 43.3385C77.3492 43.4581 77.3333 43.5538 77.3133 43.5538C77.2936 43.5538 77.2774 43.6184 77.2774 43.6973C77.2774 43.7762 77.2613 43.8408 77.2416 43.8408C77.2218 43.8408 77.2057 43.9215 77.2057 44.0202C77.2057 44.1188 77.1895 44.1996 77.1698 44.1996C77.1501 44.1996 77.1339 44.2803 77.1339 44.3789C77.1339 44.4776 77.1178 44.5583 77.098 44.5583C77.0781 44.5583 77.0622 44.654 77.0622 44.7736C77.0622 44.8931 77.0462 44.9888 77.0263 44.9888C77.0066 44.9888 76.9904 45.0373 76.9904 45.0965C76.9904 45.1557 76.9743 45.2041 76.9545 45.2041C76.9346 45.2041 76.9187 45.2998 76.9187 45.4193C76.9187 45.5389 76.9027 45.6346 76.8828 45.6346C76.8628 45.6346 76.8469 45.7303 76.8469 45.8499C76.8469 45.9694 76.831 46.0651 76.811 46.0651C76.7913 46.0651 76.7752 46.1445 76.7752 46.2415C76.7752 46.35 76.758 46.4236 76.7306 46.4327C76.6982 46.4435 76.7024 46.4639 76.746 46.5075C76.8004 46.5619 76.9734 46.5674 78.6202 46.5674H80.4345V46.7109C80.4345 46.7898 80.4184 46.8544 80.3987 46.8544C80.3787 46.8544 80.3628 46.9501 80.3628 47.0697C80.3628 47.1892 80.3469 47.2849 80.3269 47.2849C80.307 47.2849 80.291 47.3806 80.291 47.5002C80.291 47.6197 80.2751 47.7154 80.2552 47.7154C80.2354 47.7154 80.2193 47.78 80.2193 47.8589C80.2193 47.9379 80.2031 48.0024 80.1834 48.0024C80.1637 48.0024 80.1475 48.0832 80.1475 48.1818C80.1475 48.2805 80.1314 48.3612 80.1117 48.3612C80.0912 48.3612 80.0758 48.4688 80.0758 48.6123C80.0758 48.7558 80.0604 48.8635 80.0399 48.8635C80.0202 48.8635 80.004 48.9442 80.004 49.0428C80.004 49.1415 79.9879 49.2222 79.9681 49.2222C79.9484 49.2222 79.9323 49.2868 79.9323 49.3657C79.9323 49.4447 79.9161 49.5092 79.8964 49.5092C79.8767 49.5092 79.8605 49.59 79.8605 49.6886C79.8605 49.7873 79.8444 49.868 79.8246 49.868C79.8042 49.868 79.7888 49.9756 79.7888 50.1191C79.7888 50.2626 79.7734 50.3703 79.7529 50.3703C79.7332 50.3703 79.717 50.451 79.717 50.5496C79.717 50.6483 79.7009 50.729 79.6811 50.729C79.6614 50.729 79.6453 50.7936 79.6453 50.8725C79.6453 50.9515 79.6291 51.016 79.6094 51.016C79.5894 51.016 79.5735 51.1117 79.5735 51.2313C79.5735 51.3509 79.5576 51.4466 79.5376 51.4466C79.5177 51.4466 79.5018 51.5422 79.5018 51.6618C79.5018 51.7814 79.4858 51.8771 79.4659 51.8771C79.4462 51.8771 79.43 51.9578 79.43 52.0564C79.43 52.1551 79.4139 52.2358 79.3941 52.2358C79.3744 52.2358 79.3583 52.3004 79.3583 52.3793C79.3583 52.4583 79.3421 52.5228 79.3224 52.5228C79.3019 52.5228 79.2865 52.6305 79.2865 52.774C79.2865 52.9175 79.2711 53.0251 79.2506 53.0251C79.2309 53.0251 79.2147 53.1058 79.2147 53.2045C79.2147 53.3031 79.1986 53.3839 79.1789 53.3839C79.1591 53.3839 79.143 53.4484 79.143 53.5274C79.143 53.6063 79.1269 53.6709 79.1071 53.6709C79.0874 53.6709 79.0712 53.7516 79.0712 53.8503C79.0712 53.9489 79.0551 54.0296 79.0354 54.0296C79.0149 54.0296 78.9995 54.1373 78.9995 54.2808C78.9995 54.4243 78.9841 54.5319 78.9636 54.5319C78.9439 54.5319 78.9277 54.6126 78.9277 54.7113C78.9277 54.8099 78.9116 54.8907 78.8919 54.8907C78.8721 54.8907 78.856 54.9552 78.856 55.0342C78.856 55.1131 78.8398 55.1777 78.8201 55.1777C78.8002 55.1777 78.7842 55.2734 78.7842 55.3929C78.7842 55.5125 78.7683 55.6082 78.7484 55.6082C78.7284 55.6082 78.7125 55.7039 78.7125 55.8235C78.7125 55.943 78.6965 56.0387 78.6766 56.0387C78.6569 56.0387 78.6407 56.1194 78.6407 56.2181C78.6407 56.3168 78.6246 56.3975 78.6049 56.3975C78.5851 56.3975 78.569 56.4621 78.569 56.541C78.569 56.6199 78.5528 56.6845 78.5331 56.6845C78.5132 56.6845 78.4972 56.7802 78.4972 56.8997C78.4972 57.0193 78.4813 57.115 78.4613 57.115C78.4409 57.115 78.4255 57.2226 78.4255 57.3661V57.6173H80.9368H83.4481V57.5096C83.4481 57.4504 83.4643 57.402 83.484 57.402C83.5038 57.402 83.5199 57.3374 83.5199 57.2585C83.5199 57.1796 83.536 57.115 83.5558 57.115C83.5757 57.115 83.5917 57.0193 83.5917 56.8997C83.5917 56.7802 83.6076 56.6845 83.6275 56.6845C83.6475 56.6845 83.6634 56.5888 83.6634 56.4692C83.6634 56.3496 83.6793 56.254 83.6993 56.254C83.719 56.254 83.7352 56.1894 83.7352 56.1105C83.7352 56.0315 83.7513 55.967 83.771 55.967C83.7908 55.967 83.8069 55.8862 83.8069 55.7876C83.8069 55.6889 83.8231 55.6082 83.8428 55.6082C83.8627 55.6082 83.8787 55.5125 83.8787 55.3929C83.8787 55.2734 83.8946 55.1777 83.9145 55.1777C83.9345 55.1777 83.9504 55.082 83.9504 54.9624C83.9504 54.8428 83.9663 54.7472 83.9863 54.7472C84.006 54.7472 84.0222 54.6826 84.0222 54.6037C84.0222 54.5247 84.0383 54.4602 84.058 54.4602C84.0778 54.4602 84.0939 54.3794 84.0939 54.2808C84.0939 54.1821 84.1101 54.1014 84.1298 54.1014C84.1503 54.1014 84.1657 53.9938 84.1657 53.8503C84.1657 53.7068 84.1811 53.5991 84.2015 53.5991C84.2213 53.5991 84.2374 53.5184 84.2374 53.4197C84.2374 53.3211 84.2536 53.2404 84.2733 53.2404C84.293 53.2404 84.3092 53.1758 84.3092 53.0969C84.3092 53.0179 84.3253 52.9534 84.345 52.9534C84.365 52.9534 84.3809 52.8577 84.3809 52.7381C84.3809 52.6185 84.3969 52.5228 84.4168 52.5228C84.4368 52.5228 84.4527 52.4272 84.4527 52.3076C84.4527 52.188 84.4686 52.0923 84.4886 52.0923C84.5083 52.0923 84.5244 52.0116 84.5244 51.9129C84.5244 51.8143 84.5406 51.7336 84.5603 51.7336C84.58 51.7336 84.5962 51.669 84.5962 51.5901C84.5962 51.5111 84.6123 51.4466 84.6321 51.4466C84.652 51.4466 84.6679 51.3509 84.6679 51.2313C84.6679 51.1117 84.6839 51.016 84.7038 51.016C84.7238 51.016 84.7397 50.9204 84.7397 50.8008C84.7397 50.6812 84.7556 50.5855 84.7756 50.5855C84.7953 50.5855 84.8114 50.5048 84.8114 50.4061C84.8114 50.3075 84.8276 50.2268 84.8473 50.2268C84.8671 50.2268 84.8832 50.1622 84.8832 50.0833C84.8832 50.0043 84.8993 49.9397 84.9191 49.9397C84.939 49.9397 84.9549 49.8441 84.9549 49.7245C84.9549 49.6049 84.9709 49.5092 84.9908 49.5092C85.0108 49.5092 85.0267 49.4136 85.0267 49.294C85.0267 49.1744 85.0426 49.0787 85.0626 49.0787C85.0823 49.0787 85.0984 48.998 85.0984 48.8993C85.0984 48.8007 85.1146 48.72 85.1343 48.72C85.1541 48.72 85.1702 48.6392 85.1702 48.5406C85.1702 48.4419 85.1863 48.3612 85.2061 48.3612C85.226 48.3612 85.242 48.2655 85.242 48.1459C85.242 48.0264 85.2579 47.9307 85.2778 47.9307C85.2978 47.9307 85.3137 47.835 85.3137 47.7154C85.3137 47.5958 85.3296 47.5002 85.3496 47.5002C85.3693 47.5002 85.3855 47.4517 85.3855 47.3925C85.3855 47.3333 85.4016 47.2849 85.4213 47.2849C85.4413 47.2849 85.4572 47.1892 85.4572 47.0697C85.4572 46.9501 85.4731 46.8544 85.4931 46.8544C85.5128 46.8544 85.529 46.7898 85.529 46.7109V46.5674H87.7174H89.9059V46.4239C89.9059 46.345 89.922 46.2804 89.9417 46.2804C89.9615 46.2804 89.9776 46.2158 89.9776 46.1369C89.9776 46.0579 89.9938 45.9934 90.0135 45.9934C90.0334 45.9934 90.0494 45.8977 90.0494 45.7781C90.0494 45.6585 90.0653 45.5628 90.0853 45.5628C90.1052 45.5628 90.1211 45.4672 90.1211 45.3476C90.1211 45.228 90.1371 45.1323 90.157 45.1323C90.1767 45.1323 90.1929 45.0839 90.1929 45.0247C90.1929 44.9655 90.209 44.9171 90.2288 44.9171C90.2485 44.9171 90.2646 44.8364 90.2646 44.7377C90.2646 44.639 90.2808 44.5583 90.3005 44.5583C90.3205 44.5583 90.3364 44.4626 90.3364 44.3431C90.3364 44.2235 90.3523 44.1278 90.3723 44.1278C90.392 44.1278 90.4081 44.0471 90.4081 43.9484C90.4081 43.8498 90.4243 43.769 90.444 43.769C90.4637 43.769 90.4799 43.7206 90.4799 43.6614C90.4799 43.6022 90.496 43.5538 90.5158 43.5538C90.5357 43.5538 90.5516 43.4581 90.5516 43.3385C90.5516 43.2189 90.5676 43.1233 90.5875 43.1233C90.6072 43.1233 90.6234 43.0587 90.6234 42.9798V42.8363H84.0222H77.4209V42.9798ZM48.0742 43.0874C48.0742 43.1466 48.058 43.195 48.0383 43.195C48.0186 43.195 48.0024 43.2757 48.0024 43.3744C48.0024 43.4731 47.9863 43.5538 47.9665 43.5538C47.9466 43.5538 47.9307 43.6495 47.9307 43.769C47.9307 43.8886 47.9147 43.9843 47.8948 43.9843C47.8751 43.9843 47.8589 44.0327 47.8589 44.0919C47.8589 44.1511 47.8428 44.1996 47.823 44.1996C47.8033 44.1996 47.7872 44.2803 47.7872 44.3789C47.7872 44.4776 47.771 44.5583 47.7513 44.5583C47.7313 44.5583 47.7154 44.654 47.7154 44.7736C47.7154 44.8931 47.6995 44.9888 47.6795 44.9888C47.6598 44.9888 47.6437 45.0534 47.6437 45.1323C47.6437 45.2113 47.6275 45.2758 47.6078 45.2758C47.588 45.2758 47.5719 45.3404 47.5719 45.4193C47.5719 45.4983 47.5558 45.5628 47.536 45.5628C47.5161 45.5628 47.5001 45.6585 47.5001 45.7781C47.5001 45.8977 47.4842 45.9934 47.4643 45.9934C47.4443 45.9934 47.4284 46.089 47.4284 46.2086C47.4284 46.3282 47.4125 46.4239 47.3925 46.4239C47.3728 46.4239 47.3566 46.4723 47.3566 46.5315C47.3566 46.5907 47.3405 46.6391 47.3208 46.6391C47.301 46.6391 47.2849 46.7037 47.2849 46.7826C47.2849 46.8616 47.2687 46.9261 47.249 46.9261C47.2291 46.9261 47.2131 47.0218 47.2131 47.1414C47.2131 47.261 47.1972 47.3567 47.1773 47.3567C47.1568 47.3567 47.1414 47.4643 47.1414 47.6078C47.1414 47.7513 47.126 47.8589 47.1055 47.8589C47.085 47.8589 47.0696 47.9666 47.0696 48.1101C47.0696 48.2536 47.0542 48.3612 47.0338 48.3612C47.0113 48.3612 46.9979 48.5884 46.9979 48.9711C46.9979 49.3538 47.0113 49.581 47.0338 49.581C47.0535 49.581 47.0696 49.6617 47.0696 49.7604C47.0696 49.859 47.0858 49.9397 47.1055 49.9397C47.1252 49.9397 47.1414 50.0205 47.1414 50.1191C47.1414 50.2178 47.1575 50.2985 47.1773 50.2985C47.197 50.2985 47.2131 50.3469 47.2131 50.4061C47.2131 50.4653 47.2293 50.5138 47.249 50.5138C47.2687 50.5138 47.2849 50.5622 47.2849 50.6214C47.2849 50.6806 47.301 50.729 47.3208 50.729C47.3405 50.729 47.3566 50.7613 47.3566 50.8008C47.3566 50.8402 47.3728 50.8725 47.3925 50.8725C47.4123 50.8725 47.4284 50.9048 47.4284 50.9443C47.4284 50.9837 47.4445 51.016 47.4643 51.016C47.484 51.016 47.5001 51.0448 47.5001 51.0799C47.5001 51.115 47.5324 51.167 47.5719 51.1954C47.6114 51.2239 47.6437 51.268 47.6437 51.2934C47.6437 51.3539 48.3821 52.0923 48.4425 52.0923C48.468 52.0923 48.5121 52.1246 48.5406 52.1641C48.569 52.2035 48.621 52.2358 48.6561 52.2358C48.6912 52.2358 48.7199 52.252 48.7199 52.2717C48.7199 52.2914 48.7522 52.3076 48.7917 52.3076C48.8312 52.3076 48.8634 52.3237 48.8634 52.3435C48.8634 52.3632 48.8957 52.3793 48.9352 52.3793C48.9747 52.3793 49.007 52.3955 49.007 52.4152C49.007 52.4349 49.0392 52.4511 49.0787 52.4511C49.1182 52.4511 49.1505 52.4672 49.1505 52.487C49.1505 52.5067 49.1989 52.5228 49.2581 52.5228C49.3173 52.5228 49.3657 52.539 49.3657 52.5587C49.3657 52.5784 49.4141 52.5946 49.4733 52.5946C49.5325 52.5946 49.581 52.6107 49.581 52.6305C49.581 52.6502 49.6133 52.6663 49.6527 52.6663C49.6922 52.6663 49.7245 52.6825 49.7245 52.7022C49.7245 52.722 49.7891 52.7381 49.868 52.7381C49.9469 52.7381 50.0115 52.7542 50.0115 52.774C50.0115 52.7945 50.1191 52.8098 50.2626 52.8098C50.4061 52.8098 50.5138 52.8252 50.5138 52.8457C50.5138 52.867 50.6453 52.8816 50.8366 52.8816C51.028 52.8816 51.1595 52.8962 51.1595 52.9175C51.1595 52.94 51.3867 52.9534 51.7694 52.9534C52.1521 52.9534 52.3793 52.94 52.3793 52.9175C52.3793 52.8962 52.5109 52.8816 52.7022 52.8816C52.8935 52.8816 53.0251 52.867 53.0251 52.8457C53.0251 52.8248 53.1447 52.8098 53.3121 52.8098C53.4795 52.8098 53.5991 52.7949 53.5991 52.774C53.5991 52.7542 53.6637 52.7381 53.7426 52.7381C53.8215 52.7381 53.8861 52.722 53.8861 52.7022C53.8861 52.6825 53.9184 52.6663 53.9579 52.6663C53.9973 52.6663 54.0296 52.6502 54.0296 52.6305C54.0296 52.6107 54.0942 52.5946 54.1731 52.5946C54.2521 52.5946 54.3166 52.5784 54.3166 52.5587C54.3166 52.539 54.3651 52.5228 54.4243 52.5228C54.4835 52.5228 54.5319 52.5067 54.5319 52.487C54.5319 52.4672 54.5642 52.4511 54.6036 52.4511C54.6431 52.4511 54.6754 52.4349 54.6754 52.4152C54.6754 52.3955 54.7077 52.3793 54.7472 52.3793C54.7866 52.3793 54.8189 52.3632 54.8189 52.3435C54.8189 52.3237 54.8512 52.3076 54.8907 52.3076C54.9544 52.3076 54.9624 52.3315 54.9624 52.5228C54.9624 52.6424 54.9465 52.7381 54.9265 52.7381C54.9068 52.7381 54.8907 52.7865 54.8907 52.8457C54.8907 52.9049 54.8745 52.9534 54.8548 52.9534C54.835 52.9534 54.8189 53.0341 54.8189 53.1327C54.8189 53.2314 54.8028 53.3121 54.783 53.3121C54.7633 53.3121 54.7472 53.3928 54.7472 53.4915C54.7472 53.5902 54.731 53.6709 54.7113 53.6709C54.6913 53.6709 54.6754 53.7666 54.6754 53.8861C54.6754 54.0057 54.6595 54.1014 54.6395 54.1014C54.6198 54.1014 54.6036 54.1498 54.6036 54.209C54.6036 54.2682 54.5875 54.3167 54.5678 54.3167C54.548 54.3167 54.5319 54.3974 54.5319 54.496C54.5319 54.5947 54.5157 54.6754 54.496 54.6754C54.4763 54.6754 54.4601 54.7561 54.4601 54.8548C54.4601 54.9535 54.444 55.0342 54.4243 55.0342C54.4045 55.0342 54.3884 55.1149 54.3884 55.2136C54.3884 55.3122 54.3722 55.3929 54.3525 55.3929C54.3328 55.3929 54.3166 55.4414 54.3166 55.5006C54.3166 55.5598 54.3005 55.6082 54.2808 55.6082C54.2608 55.6082 54.2449 55.7039 54.2449 55.8235C54.2449 55.943 54.229 56.0387 54.209 56.0387C54.1891 56.0387 54.1731 56.1344 54.1731 56.254C54.1731 56.3735 54.1572 56.4692 54.1373 56.4692C54.1175 56.4692 54.1014 56.5338 54.1014 56.6127C54.1014 56.6917 54.0852 56.7562 54.0655 56.7562C54.0458 56.7562 54.0296 56.8047 54.0296 56.8639C54.0296 56.9231 54.0135 56.9715 53.9937 56.9715C53.9738 56.9715 53.9579 57.0672 53.9579 57.1868C53.9579 57.3063 53.9419 57.402 53.922 57.402C53.9023 57.402 53.8861 57.4504 53.8861 57.5096V57.6173H56.3821C59.0914 57.6173 58.9805 57.6256 58.9805 57.4225C58.9805 57.3718 58.9967 57.3303 59.0164 57.3303C59.0364 57.3303 59.0523 57.2346 59.0523 57.115C59.0523 56.9954 59.0682 56.8997 59.0882 56.8997C59.1081 56.8997 59.1241 56.8041 59.1241 56.6845C59.1241 56.5649 59.14 56.4692 59.1599 56.4692C59.1797 56.4692 59.1958 56.4046 59.1958 56.3257C59.1958 56.2468 59.2119 56.1822 59.2317 56.1822C59.2514 56.1822 59.2676 56.1015 59.2676 56.0028C59.2676 55.9042 59.2837 55.8235 59.3034 55.8235C59.3234 55.8235 59.3393 55.7278 59.3393 55.6082C59.3393 55.4886 59.3552 55.3929 59.3752 55.3929C59.3949 55.3929 59.4111 55.3122 59.4111 55.2136C59.4111 55.1149 59.4272 55.0342 59.4469 55.0342C59.4667 55.0342 59.4828 54.9696 59.4828 54.8907C59.4828 54.8117 59.499 54.7472 59.5187 54.7472C59.5386 54.7472 59.5546 54.6515 59.5546 54.5319C59.5546 54.4123 59.5705 54.3167 59.5904 54.3167C59.6104 54.3167 59.6263 54.221 59.6263 54.1014C59.6263 53.9818 59.6422 53.8861 59.6622 53.8861C59.6819 53.8861 59.6981 53.8054 59.6981 53.7068C59.6981 53.6081 59.7142 53.5274 59.7339 53.5274C59.7537 53.5274 59.7698 53.4628 59.7698 53.3839C59.7698 53.3049 59.786 53.2404 59.8057 53.2404C59.8256 53.2404 59.8416 53.1447 59.8416 53.0251C59.8416 52.9055 59.8575 52.8098 59.8775 52.8098C59.8974 52.8098 59.9133 52.7142 59.9133 52.5946C59.9133 52.475 59.9293 52.3793 59.9492 52.3793C59.9689 52.3793 59.9851 52.2986 59.9851 52.2C59.9851 52.1013 60.0012 52.0206 60.021 52.0206C60.0407 52.0206 60.0568 51.956 60.0568 51.8771C60.0568 51.7981 60.073 51.7336 60.0927 51.7336C60.1127 51.7336 60.1286 51.6379 60.1286 51.5183C60.1286 51.3987 60.1445 51.303 60.1645 51.303C60.1844 51.303 60.2003 51.2074 60.2003 51.0878C60.2003 50.9682 60.2163 50.8725 60.2362 50.8725C60.2559 50.8725 60.2721 50.808 60.2721 50.729C60.2721 50.6501 60.2882 50.5855 60.308 50.5855C60.3277 50.5855 60.3438 50.5048 60.3438 50.4061C60.3438 50.3075 60.36 50.2268 60.3797 50.2268C60.3997 50.2268 60.4156 50.1311 60.4156 50.0115C60.4156 49.8919 60.4315 49.7962 60.4515 49.7962C60.4714 49.7962 60.4873 49.7006 60.4873 49.581C60.4873 49.4614 60.5033 49.3657 60.5232 49.3657C60.543 49.3657 60.5591 49.3012 60.5591 49.2222C60.5591 49.1433 60.5752 49.0787 60.595 49.0787C60.6147 49.0787 60.6309 48.998 60.6309 48.8993C60.6309 48.8007 60.647 48.72 60.6667 48.72C60.6867 48.72 60.7026 48.6243 60.7026 48.5047C60.7026 48.3851 60.7185 48.2894 60.7385 48.2894C60.7584 48.2894 60.7744 48.1938 60.7744 48.0742C60.7744 47.9546 60.7903 47.8589 60.8102 47.8589C60.83 47.8589 60.8461 47.7944 60.8461 47.7154C60.8461 47.6365 60.8623 47.5719 60.882 47.5719C60.9017 47.5719 60.9179 47.4912 60.9179 47.3925C60.9179 47.2939 60.934 47.2132 60.9537 47.2132C60.9742 47.2132 60.9896 47.1055 60.9896 46.962C60.9896 46.8185 61.005 46.7109 61.0255 46.7109C61.0452 46.7109 61.0614 46.6302 61.0614 46.5315C61.0614 46.4328 61.0775 46.3521 61.0972 46.3521C61.117 46.3521 61.1331 46.2875 61.1331 46.2086C61.1331 46.1297 61.1493 46.0651 61.169 46.0651C61.1889 46.0651 61.2049 45.9694 61.2049 45.8499C61.2049 45.7303 61.2208 45.6346 61.2407 45.6346C61.2607 45.6346 61.2766 45.5389 61.2766 45.4193C61.2766 45.2998 61.2926 45.2041 61.3125 45.2041C61.3322 45.2041 61.3484 45.1395 61.3484 45.0606C61.3484 44.9817 61.3645 44.9171 61.3843 44.9171C61.404 44.9171 61.4201 44.8364 61.4201 44.7377C61.4201 44.639 61.4363 44.5583 61.456 44.5583C61.476 44.5583 61.4919 44.4626 61.4919 44.3431C61.4919 44.2235 61.5078 44.1278 61.5278 44.1278C61.5475 44.1278 61.5636 44.0471 61.5636 43.9484C61.5636 43.8498 61.5798 43.769 61.5995 43.769C61.6192 43.769 61.6354 43.6883 61.6354 43.5897C61.6354 43.491 61.6515 43.4103 61.6713 43.4103C61.6912 43.4103 61.7071 43.3146 61.7071 43.195V42.9798H59.1958H56.6845V43.1233C56.6845 43.2022 56.6683 43.2668 56.6486 43.2668C56.6286 43.2668 56.6127 43.3625 56.6127 43.482C56.6127 43.6016 56.5968 43.6973 56.5768 43.6973C56.5569 43.6973 56.541 43.793 56.541 43.9125C56.541 44.0321 56.525 44.1278 56.5051 44.1278C56.4854 44.1278 56.4692 44.1762 56.4692 44.2354C56.4692 44.2946 56.4531 44.3431 56.4333 44.3431C56.4134 44.3431 56.3975 44.4387 56.3975 44.5583C56.3975 44.6779 56.3815 44.7736 56.3616 44.7736C56.3411 44.7736 56.3257 44.8812 56.3257 45.0247C56.3257 45.1682 56.3103 45.2758 56.2898 45.2758C56.2701 45.2758 56.254 45.3404 56.254 45.4193C56.254 45.4983 56.2378 45.5628 56.2181 45.5628C56.1983 45.5628 56.1822 45.6436 56.1822 45.7422C56.1822 45.8409 56.1661 45.9216 56.1463 45.9216C56.1264 45.9216 56.1104 46.0173 56.1104 46.1369C56.1104 46.2564 56.0945 46.3521 56.0746 46.3521C56.0546 46.3521 56.0387 46.4478 56.0387 46.5674C56.0387 46.687 56.0228 46.7826 56.0028 46.7826C55.9831 46.7826 55.9669 46.8472 55.9669 46.9261C55.9669 47.0051 55.9508 47.0697 55.9311 47.0697C55.9111 47.0697 55.8952 47.1653 55.8952 47.2849C55.8952 47.4045 55.8793 47.5002 55.8593 47.5002C55.8394 47.5002 55.8234 47.5958 55.8234 47.7154C55.8234 47.835 55.8075 47.9307 55.7876 47.9307C55.7676 47.9307 55.7517 48.0264 55.7517 48.1459C55.7517 48.2655 55.7358 48.3612 55.7158 48.3612C55.6961 48.3612 55.6799 48.4258 55.6799 48.5047C55.6799 48.5836 55.6638 48.6482 55.6441 48.6482C55.6243 48.6482 55.6082 48.6736 55.6082 48.7046C55.6082 48.7771 55.5218 48.8635 55.4493 48.8635C55.4183 48.8635 55.3929 48.8796 55.3929 48.8993C55.3929 48.9191 55.3606 48.9352 55.3212 48.9352C55.2817 48.9352 55.2494 48.9514 55.2494 48.9711C55.2494 48.9908 55.2171 49.007 55.1777 49.007C55.1382 49.007 55.1059 49.0231 55.1059 49.0428C55.1059 49.0626 55.0736 49.0787 55.0342 49.0787C54.9947 49.0787 54.9624 49.0949 54.9624 49.1146C54.9624 49.1343 54.914 49.1505 54.8548 49.1505C54.7956 49.1505 54.7472 49.1666 54.7472 49.1863C54.7472 49.2063 54.6515 49.2222 54.5319 49.2222C54.4123 49.2222 54.3166 49.2382 54.3166 49.2581C54.3166 49.28 54.1492 49.294 53.8861 49.294C53.623 49.294 53.4556 49.28 53.4556 49.2581C53.4556 49.2384 53.391 49.2222 53.3121 49.2222C53.2332 49.2222 53.1686 49.2061 53.1686 49.1863C53.1686 49.1666 53.1363 49.1505 53.0968 49.1505C53.0574 49.1505 53.0251 49.1343 53.0251 49.1146C53.0251 49.0949 52.9928 49.0787 52.9533 49.0787C52.9139 49.0787 52.8816 49.0626 52.8816 49.0428C52.8816 49.0231 52.8569 49.007 52.8268 49.007C52.7967 49.007 52.6998 48.9347 52.6116 48.8465C52.5233 48.7582 52.4511 48.6613 52.4511 48.6312C52.4511 48.6011 52.4349 48.5765 52.4152 48.5765C52.3955 48.5765 52.3793 48.5442 52.3793 48.5047C52.3793 48.4652 52.3632 48.4329 52.3434 48.4329C52.3237 48.4329 52.3076 48.3684 52.3076 48.2894C52.3076 48.2105 52.2914 48.1459 52.2717 48.1459C52.2504 48.1459 52.2358 48.0144 52.2358 47.8231C52.2358 47.6317 52.2504 47.5002 52.2717 47.5002C52.2926 47.5002 52.3076 47.3806 52.3076 47.2132C52.3076 47.0457 52.3225 46.9261 52.3434 46.9261C52.3632 46.9261 52.3793 46.8454 52.3793 46.7468C52.3793 46.6481 52.3955 46.5674 52.4152 46.5674C52.4349 46.5674 52.4511 46.4867 52.4511 46.388C52.4511 46.2893 52.4672 46.2086 52.4869 46.2086C52.5067 46.2086 52.5228 46.144 52.5228 46.0651C52.5228 45.9862 52.539 45.9216 52.5587 45.9216C52.5786 45.9216 52.5946 45.8259 52.5946 45.7064C52.5946 45.5868 52.6105 45.4911 52.6305 45.4911C52.6504 45.4911 52.6663 45.3954 52.6663 45.2758C52.6663 45.1563 52.6823 45.0606 52.7022 45.0606C52.7219 45.0606 52.7381 45.0121 52.7381 44.953C52.7381 44.8938 52.7542 44.8453 52.774 44.8453C52.7937 44.8453 52.8098 44.7646 52.8098 44.6659C52.8098 44.5673 52.826 44.4866 52.8457 44.4866C52.8657 44.4866 52.8816 44.3909 52.8816 44.2713C52.8816 44.1517 52.8975 44.056 52.9175 44.056C52.9374 44.056 52.9533 43.9604 52.9533 43.8408C52.9533 43.7212 52.9693 43.6255 52.9892 43.6255C53.0089 43.6255 53.0251 43.5771 53.0251 43.5179C53.0251 43.4587 53.0412 43.4103 53.061 43.4103C53.0809 43.4103 53.0968 43.3146 53.0968 43.195V42.9798H50.5855H48.0742V43.0874ZM70.3892 46.3162C70.3892 46.3362 70.4849 46.3521 70.6044 46.3521C70.724 46.3521 70.8197 46.3681 70.8197 46.388C70.8197 46.4077 70.852 46.4239 70.8915 46.4239C70.9309 46.4239 70.9632 46.44 70.9632 46.4598C70.9632 46.4795 70.9955 46.4956 71.035 46.4956C71.0744 46.4956 71.1067 46.5118 71.1067 46.5315C71.1067 46.5512 71.1315 46.5674 71.1617 46.5674C71.192 46.5674 71.2727 46.6234 71.3411 46.6918C71.4095 46.7601 71.4655 46.8409 71.4655 46.8711C71.4655 46.9014 71.4816 46.9261 71.5014 46.9261C71.5229 46.9261 71.5372 47.0697 71.5372 47.2849C71.5372 47.5002 71.5229 47.6437 71.5014 47.6437C71.4816 47.6437 71.4655 47.6846 71.4655 47.7345C71.4655 47.8356 71.2521 48.0742 71.1617 48.0742C71.1315 48.0742 71.1067 48.0903 71.1067 48.1101C71.1067 48.1298 71.0744 48.1459 71.035 48.1459C70.9955 48.1459 70.9632 48.1621 70.9632 48.1818C70.9632 48.2015 70.9309 48.2177 70.8915 48.2177C70.852 48.2177 70.8197 48.2338 70.8197 48.2536C70.8197 48.2733 70.7874 48.2894 70.748 48.2894C70.7085 48.2894 70.6762 48.3056 70.6762 48.3253C70.6762 48.3451 70.6116 48.3612 70.5327 48.3612C70.4538 48.3612 70.3892 48.3773 70.3892 48.3971C70.3892 48.4168 70.3085 48.4329 70.2098 48.4329C70.1112 48.4329 70.0304 48.4491 70.0304 48.4688C70.0304 48.4893 69.9228 48.5047 69.7793 48.5047C69.6358 48.5047 69.5282 48.5201 69.5282 48.5406C69.5282 48.5615 69.4086 48.5765 69.2411 48.5765C69.0737 48.5765 68.9541 48.5914 68.9541 48.6123C68.9541 48.6351 68.6791 48.6482 68.2007 48.6482H67.4473V48.4688C67.4473 48.3702 67.4635 48.2894 67.4832 48.2894C67.5029 48.2894 67.5191 48.2572 67.5191 48.2177C67.5191 48.1782 67.5352 48.1459 67.555 48.1459C67.5747 48.1459 67.5908 48.1136 67.5908 48.0742C67.5908 48.0347 67.607 48.0024 67.6267 48.0024C67.6465 48.0024 67.6626 47.9701 67.6626 47.9307C67.6626 47.8912 67.6787 47.8589 67.6985 47.8589C67.7182 47.8589 67.7344 47.8266 67.7344 47.7872C67.7344 47.7477 67.7505 47.7154 67.7702 47.7154C67.79 47.7154 67.8061 47.6867 67.8061 47.6516C67.8061 47.6165 67.8384 47.5645 67.8779 47.536C67.9173 47.5076 67.9496 47.4634 67.9496 47.4378C67.9496 47.3726 68.4748 46.8544 68.541 46.8544C68.5709 46.8544 68.5954 46.8382 68.5954 46.8185C68.5954 46.7988 68.6241 46.7826 68.6592 46.7826C68.6943 46.7826 68.7463 46.7504 68.7748 46.7109C68.8032 46.6714 68.8552 46.6391 68.8903 46.6391C68.9254 46.6391 68.9541 46.623 68.9541 46.6033C68.9541 46.5835 69.0026 46.5674 69.0618 46.5674C69.121 46.5674 69.1694 46.5512 69.1694 46.5315C69.1694 46.5118 69.2017 46.4956 69.2411 46.4956C69.2806 46.4956 69.3129 46.4795 69.3129 46.4598C69.3129 46.44 69.3613 46.4239 69.4205 46.4239C69.4797 46.4239 69.5282 46.4077 69.5282 46.388C69.5282 46.3671 69.6477 46.3521 69.8152 46.3521C69.9826 46.3521 70.1022 46.3372 70.1022 46.3162C70.1022 46.2965 70.1668 46.2804 70.2457 46.2804C70.3246 46.2804 70.3892 46.2965 70.3892 46.3162ZM27.3377 46.4598C27.3377 46.481 27.4693 46.4956 27.6606 46.4956C27.8519 46.4956 27.9835 46.5102 27.9835 46.5315C27.9835 46.5512 28.0158 46.5674 28.0552 46.5674C28.111 46.5674 28.127 46.5913 28.127 46.675C28.127 46.7342 28.1108 46.7826 28.0911 46.7826C28.0706 46.7826 28.0552 46.8903 28.0552 47.0338C28.0552 47.1773 28.0398 47.2849 28.0193 47.2849C27.9996 47.2849 27.9835 47.3656 27.9835 47.4643C27.9835 47.5629 27.9673 47.6437 27.9476 47.6437C27.9279 47.6437 27.9117 47.7082 27.9117 47.7872C27.9117 47.8661 27.8956 47.9307 27.8758 47.9307C27.8559 47.9307 27.84 48.0264 27.84 48.1459C27.84 48.2655 27.824 48.3612 27.8041 48.3612C27.7836 48.3612 27.7682 48.4688 27.7682 48.6123C27.7682 48.7558 27.7528 48.8635 27.7323 48.8635C27.7126 48.8635 27.6965 48.9442 27.6965 49.0428C27.6965 49.1415 27.6803 49.2222 27.6606 49.2222C27.6409 49.2222 27.6247 49.2868 27.6247 49.3657C27.6247 49.4447 27.6086 49.5092 27.5888 49.5092C27.5689 49.5092 27.553 49.6049 27.553 49.7245C27.553 49.8441 27.537 49.9397 27.5171 49.9397C27.4973 49.9397 27.4812 50.0205 27.4812 50.1191C27.4812 50.2178 27.4651 50.2985 27.4453 50.2985C27.4256 50.2985 27.4095 50.3469 27.4095 50.4061C27.4095 50.4653 27.3933 50.5138 27.3736 50.5138C27.3538 50.5138 27.3377 50.5783 27.3377 50.6573C27.3377 50.7362 27.3216 50.8008 27.3018 50.8008C27.2821 50.8008 27.2659 50.8654 27.2659 50.9443C27.2659 51.0232 27.2498 51.0878 27.2301 51.0878C27.2103 51.0878 27.1942 51.1362 27.1942 51.1954C27.1942 51.2546 27.178 51.303 27.1583 51.303C27.1386 51.303 27.1224 51.3353 27.1224 51.3748C27.1224 51.4143 27.1063 51.4466 27.0866 51.4466C27.0668 51.4466 27.0507 51.495 27.0507 51.5542C27.0507 51.6134 27.0345 51.6618 27.0148 51.6618C26.9951 51.6618 26.9789 51.7102 26.9789 51.7694C26.9789 51.8286 26.9628 51.8771 26.9431 51.8771C26.9233 51.8771 26.9072 51.9094 26.9072 51.9488C26.9072 51.9883 26.891 52.0206 26.8713 52.0206C26.8516 52.0206 26.8354 52.0529 26.8354 52.0923C26.8354 52.1318 26.8193 52.1641 26.7996 52.1641C26.7798 52.1641 26.7637 52.1964 26.7637 52.2358C26.7637 52.2753 26.7475 52.3076 26.7278 52.3076C26.7081 52.3076 26.6919 52.3399 26.6919 52.3793C26.6919 52.4188 26.6758 52.4511 26.656 52.4511C26.6363 52.4511 26.6202 52.4798 26.6202 52.5149C26.6202 52.55 26.5879 52.602 26.5484 52.6305C26.509 52.6589 26.4767 52.7041 26.4767 52.7309C26.4767 52.7577 26.4121 52.8416 26.3332 52.9175C26.2542 52.9933 26.1897 53.0731 26.1897 53.0948C26.1897 53.1549 25.8042 53.5274 25.742 53.5274C25.712 53.5274 25.6874 53.5435 25.6874 53.5632C25.6874 53.583 25.6587 53.5991 25.6236 53.5991C25.5884 53.5991 25.5365 53.6314 25.508 53.6709C25.4796 53.7103 25.4276 53.7426 25.3925 53.7426C25.3574 53.7426 25.3286 53.7588 25.3286 53.7785C25.3286 53.7982 25.2479 53.8144 25.1492 53.8144C25.0506 53.8144 24.9699 53.8305 24.9699 53.8503C24.9699 53.87 24.8891 53.8861 24.7905 53.8861C24.6918 53.8861 24.6111 53.87 24.6111 53.8503C24.6111 53.8305 24.5304 53.8144 24.4317 53.8144C24.3331 53.8144 24.2523 53.7982 24.2523 53.7785C24.2523 53.7588 24.2278 53.7426 24.1978 53.7426C24.1316 53.7426 23.6783 53.2963 23.6783 53.231C23.6783 53.2054 23.646 53.1612 23.6066 53.1327C23.5644 53.1023 23.5348 53.0399 23.5348 52.9813C23.5348 52.9265 23.5187 52.8816 23.4989 52.8816C23.4792 52.8816 23.4631 52.817 23.4631 52.7381C23.4631 52.6592 23.4469 52.5946 23.4272 52.5946C23.4075 52.5946 23.3913 52.53 23.3913 52.4511C23.3913 52.3722 23.3752 52.3076 23.3554 52.3076C23.3331 52.3076 23.3196 52.1043 23.3196 51.7694C23.3196 51.4346 23.3331 51.2313 23.3554 51.2313C23.3754 51.2313 23.3913 51.1356 23.3913 51.016C23.3913 50.8965 23.4072 50.8008 23.4272 50.8008C23.4469 50.8008 23.4631 50.7201 23.4631 50.6214C23.4631 50.5227 23.4792 50.442 23.4989 50.442C23.5187 50.442 23.5348 50.3774 23.5348 50.2985C23.5348 50.2196 23.551 50.155 23.5707 50.155C23.5904 50.155 23.6066 50.1066 23.6066 50.0474C23.6066 49.9882 23.6227 49.9397 23.6424 49.9397C23.6622 49.9397 23.6783 49.9075 23.6783 49.868C23.6783 49.8285 23.6945 49.7962 23.7142 49.7962C23.7339 49.7962 23.7501 49.7317 23.7501 49.6527C23.7501 49.5738 23.7662 49.5092 23.7859 49.5092C23.8057 49.5092 23.8218 49.4769 23.8218 49.4375C23.8218 49.398 23.838 49.3657 23.8577 49.3657C23.8774 49.3657 23.8936 49.3334 23.8936 49.294C23.8936 49.2545 23.9097 49.2222 23.9295 49.2222C23.9492 49.2222 23.9653 49.1899 23.9653 49.1505C23.9653 49.111 23.9815 49.0787 24.0012 49.0787C24.0209 49.0787 24.0371 49.0464 24.0371 49.007C24.0371 48.9675 24.0532 48.9352 24.073 48.9352C24.0927 48.9352 24.1088 48.9029 24.1088 48.8635C24.1088 48.824 24.125 48.7917 24.1447 48.7917C24.1644 48.7917 24.1806 48.7594 24.1806 48.72C24.1806 48.6805 24.1967 48.6482 24.2165 48.6482C24.2362 48.6482 24.2523 48.6159 24.2523 48.5765C24.2523 48.537 24.2685 48.5047 24.2882 48.5047C24.3079 48.5047 24.3241 48.4789 24.3241 48.4473C24.3241 48.4158 24.3725 48.3447 24.4317 48.2894C24.4909 48.2342 24.5394 48.1666 24.5394 48.1395C24.5394 48.1123 24.5716 48.0668 24.6111 48.0383C24.6506 48.0099 24.6829 47.9658 24.6829 47.9403C24.6829 47.8799 25.4931 47.0697 25.5535 47.0697C25.579 47.0697 25.6231 47.0374 25.6515 46.9979C25.68 46.9584 25.7319 46.9261 25.7671 46.9261C25.8022 46.9261 25.8309 46.91 25.8309 46.8903C25.8309 46.8705 25.8596 46.8544 25.8947 46.8544C25.9298 46.8544 25.9818 46.8221 26.0103 46.7826C26.0387 46.7432 26.0907 46.7109 26.1258 46.7109C26.1609 46.7109 26.1897 46.6947 26.1897 46.675C26.1897 46.6553 26.2381 46.6391 26.2973 46.6391C26.3565 46.6391 26.4049 46.623 26.4049 46.6033C26.4049 46.5835 26.4695 46.5674 26.5484 46.5674C26.6273 46.5674 26.6919 46.5512 26.6919 46.5315C26.6919 46.5116 26.7876 46.4956 26.9072 46.4956C27.0268 46.4956 27.1224 46.4797 27.1224 46.4598C27.1224 46.44 27.1709 46.4239 27.2301 46.4239C27.2893 46.4239 27.3377 46.44 27.3377 46.4598ZM10.8346 46.8185C10.8346 46.8382 10.8831 46.8544 10.9423 46.8544C11.0015 46.8544 11.0499 46.8705 11.0499 46.8903C11.0499 46.91 11.0744 46.9261 11.1044 46.9261C11.1753 46.9261 11.6239 47.3747 11.6239 47.4457C11.6239 47.4757 11.64 47.5002 11.6598 47.5002C11.6795 47.5002 11.6957 47.5325 11.6957 47.5719C11.6957 47.6114 11.7118 47.6437 11.7315 47.6437C11.7513 47.6437 11.7674 47.6921 11.7674 47.7513C11.7674 47.8105 11.7836 47.8589 11.8033 47.8589C11.823 47.8589 11.8392 47.9235 11.8392 48.0024C11.8392 48.0814 11.8553 48.1459 11.875 48.1459C11.8977 48.1459 11.9109 48.3971 11.9109 48.8276C11.9109 49.2581 11.8977 49.5092 11.875 49.5092C11.8546 49.5092 11.8392 49.6169 11.8392 49.7604C11.8392 49.9039 11.8238 50.0115 11.8033 50.0115C11.7836 50.0115 11.7674 50.0922 11.7674 50.1909C11.7674 50.2895 11.7513 50.3703 11.7315 50.3703C11.7118 50.3703 11.6957 50.4187 11.6957 50.4779C11.6957 50.5371 11.6795 50.5855 11.6598 50.5855C11.64 50.5855 11.6239 50.6501 11.6239 50.729C11.6239 50.808 11.6078 50.8725 11.588 50.8725C11.5683 50.8725 11.5522 50.921 11.5522 50.9802C11.5522 51.0394 11.536 51.0878 11.5163 51.0878C11.4965 51.0878 11.4804 51.1362 11.4804 51.1954C11.4804 51.2546 11.4643 51.303 11.4445 51.303C11.4248 51.303 11.4086 51.3353 11.4086 51.3748C11.4086 51.4143 11.3925 51.4466 11.3728 51.4466C11.353 51.4466 11.3369 51.495 11.3369 51.5542C11.3369 51.6134 11.3207 51.6618 11.301 51.6618C11.2813 51.6618 11.2651 51.7067 11.2651 51.7615C11.2651 51.8201 11.2355 51.8826 11.1934 51.9129C11.1539 51.9414 11.1216 51.9934 11.1216 52.0285C11.1216 52.0636 11.1055 52.0923 11.0858 52.0923C11.066 52.0923 11.0499 52.1372 11.0499 52.192C11.0499 52.2506 11.0202 52.3131 10.9781 52.3435C10.9387 52.3719 10.9064 52.4203 10.9064 52.4511C10.9064 52.4818 10.8741 52.5303 10.8346 52.5587C10.7952 52.5872 10.7629 52.6356 10.7629 52.6663C10.7629 52.6971 10.7306 52.7455 10.6911 52.774C10.6517 52.8024 10.6194 52.8472 10.6194 52.8736C10.6194 52.8999 10.5225 53.0165 10.4041 53.1327C10.2857 53.2489 10.1889 53.3691 10.1889 53.3998C10.1889 53.4305 10.1634 53.4556 10.1322 53.4556C10.1011 53.4556 10.0136 53.5202 9.93772 53.5991C9.86188 53.6781 9.77793 53.7426 9.75113 53.7426C9.72433 53.7426 9.67916 53.7749 9.65071 53.8144C9.62226 53.8538 9.57028 53.8861 9.53515 53.8861C9.50006 53.8861 9.47133 53.9023 9.47133 53.922C9.47133 53.9417 9.43904 53.9579 9.39958 53.9579C9.36011 53.9579 9.32782 53.974 9.32782 53.9938C9.32782 54.0135 9.27939 54.0296 9.22019 54.0296C9.161 54.0296 9.11257 54.0458 9.11257 54.0655C9.11257 54.0879 8.89731 54.1014 8.53855 54.1014C8.17978 54.1014 7.96453 54.0879 7.96453 54.0655C7.96453 54.0458 7.91609 54.0296 7.8569 54.0296C7.7977 54.0296 7.74927 54.0135 7.74927 53.9938C7.74927 53.974 7.71698 53.9579 7.67752 53.9579C7.63805 53.9579 7.60576 53.9417 7.60576 53.922C7.60576 53.9023 7.57348 53.8861 7.53401 53.8861C7.49455 53.8861 7.46226 53.87 7.46226 53.8503C7.46226 53.8305 7.43761 53.8144 7.40751 53.8144C7.37738 53.8144 7.28051 53.7422 7.19225 53.6539L7.03174 53.4934V53.2234C7.03174 53.0673 7.04688 52.9534 7.06762 52.9534C7.08811 52.9534 7.1035 52.8457 7.1035 52.7022C7.1035 52.5587 7.11889 52.4511 7.13937 52.4511C7.1591 52.4511 7.17525 52.3865 7.17525 52.3076C7.17525 52.2287 7.19139 52.1641 7.21112 52.1641C7.23107 52.1641 7.247 52.0684 7.247 51.9488C7.247 51.8292 7.26293 51.7336 7.28288 51.7336C7.30336 51.7336 7.31875 51.6259 7.31875 51.4824C7.31875 51.3389 7.33414 51.2313 7.35463 51.2313C7.37512 51.2313 7.39051 51.1237 7.39051 50.9802C7.39051 50.8367 7.4059 50.729 7.42638 50.729C7.44611 50.729 7.46226 50.6644 7.46226 50.5855C7.46226 50.5066 7.4784 50.442 7.49814 50.442C7.51787 50.442 7.53401 50.3613 7.53401 50.2626C7.53401 50.164 7.55016 50.0833 7.56989 50.0833C7.58962 50.0833 7.60576 50.0025 7.60576 49.9039C7.60576 49.8052 7.62191 49.7245 7.64164 49.7245C7.66137 49.7245 7.67752 49.6599 7.67752 49.581C7.67752 49.5021 7.69366 49.4375 7.71339 49.4375C7.73312 49.4375 7.74927 49.4052 7.74927 49.3657C7.74927 49.3263 7.76541 49.294 7.78514 49.294C7.80488 49.294 7.82102 49.2455 7.82102 49.1863C7.82102 49.1272 7.83717 49.0787 7.8569 49.0787C7.87663 49.0787 7.89277 49.0303 7.89277 48.9711C7.89277 48.9119 7.90892 48.8635 7.92865 48.8635C7.94838 48.8635 7.96453 48.8312 7.96453 48.7917C7.96453 48.7522 7.98067 48.72 8.0004 48.72C8.02013 48.72 8.03628 48.6877 8.03628 48.6482C8.03628 48.6087 8.05242 48.5765 8.07215 48.5765C8.09189 48.5765 8.10803 48.5442 8.10803 48.5047C8.10803 48.4652 8.12418 48.4329 8.14391 48.4329C8.16364 48.4329 8.17978 48.4042 8.17978 48.3691C8.17978 48.334 8.21207 48.282 8.25154 48.2536C8.291 48.2251 8.32329 48.1731 8.32329 48.138C8.32329 48.1029 8.33943 48.0742 8.35917 48.0742C8.3789 48.0742 8.39504 48.0484 8.39504 48.0168C8.39504 47.9853 8.44347 47.9142 8.50267 47.8589C8.56187 47.8036 8.6103 47.7402 8.6103 47.718C8.6103 47.6659 8.91891 47.3567 8.97093 47.3567C8.99274 47.3567 9.0726 47.2921 9.14844 47.2132C9.22429 47.1342 9.31179 47.0697 9.34296 47.0697C9.3741 47.0697 9.39958 47.0535 9.39958 47.0338C9.39958 47.014 9.43186 46.9979 9.47133 46.9979C9.51079 46.9979 9.54308 46.9818 9.54308 46.962C9.54308 46.9423 9.57537 46.9261 9.61483 46.9261C9.6543 46.9261 9.68659 46.91 9.68659 46.8903C9.68659 46.8705 9.75116 46.8544 9.83009 46.8544C9.90902 46.8544 9.9736 46.8382 9.9736 46.8185C9.9736 46.7966 10.141 46.7826 10.4041 46.7826C10.6672 46.7826 10.8346 46.7966 10.8346 46.8185Z" fill="white"/>
<path d="M42.6925 7.03156C31.1608 7.03156 21.8125 16.3798 21.8125 27.9115C21.8125 30.9674 22.469 33.87 23.6486 36.486H40.9345L45.1321 7.17256C44.3318 7.07943 43.5177 7.03156 42.6925 7.03156Z" fill="white" fill-opacity="0.55"/>
<path d="M47.2851 7.53406L46.3882 12.5567C47.9381 12.7002 49.4736 13.2623 50.0476 13.5254L51.3033 8.57447C49.9543 7.79954 48.0625 7.55798 47.2851 7.53406Z" fill="white"/>
<path d="M51.5544 14.0277L53.5276 9.72251C55.2784 10.4113 56.4814 11.5163 56.8641 11.9827L54.7474 15.9291C53.6855 15.0107 52.1763 14.2788 51.5544 14.0277Z" fill="white"/>
<path d="M55.8237 16.6107L58.4068 13.3819C59.6696 14.2716 60.2245 15.3072 60.3441 15.7138L57.761 18.5481C57.3018 17.9166 56.2781 16.9934 55.8237 16.6107Z" fill="white"/>
<path d="M60.1288 22.0281C59.8992 21.3966 59.2439 20.4495 58.9449 20.0549L61.6356 17.6153C62.1236 18.2754 62.5086 19.445 62.6402 19.9472L60.1288 22.0281Z" fill="white"/>
<path d="M63.7165 23.8577C63.6878 23.0828 63.4414 22.2194 63.3218 21.8846L60.8822 23.4631C61.1119 23.8362 61.3606 24.9101 61.4563 25.4004L63.7165 23.8577Z" fill="white"/>
<path d="M61.815 28.8087C61.8724 28.3208 61.7911 27.3138 61.7433 26.8714L64.0035 25.6874C64.0896 26.1179 64.0872 27.1584 64.0752 27.6248L61.815 28.8087Z" fill="white"/>
<path d="M52.9536 30.3872C53.011 30.1576 52.9775 29.574 52.9536 29.3109L54.2093 28.6293C54.2667 28.945 54.2332 29.5023 54.2093 29.7414L52.9536 30.3872Z" fill="white"/>
<path d="M52.8818 28.6293C52.8244 28.1414 52.6427 27.7085 52.559 27.553L53.8505 26.5843C53.9653 26.7852 54.0179 27.4812 54.0299 27.8041L52.8818 28.6293Z" fill="white"/>
<path d="M52.2002 26.8714L51.6262 25.7592L52.9536 24.5035C53.2119 24.8479 53.3961 25.4841 53.4559 25.7592L52.2002 26.8714Z" fill="white"/>
<path d="M50.8728 24.8982C50.5858 24.4963 50.1074 24.1089 49.9041 23.9654L51.2674 22.2792C51.6405 22.4801 52.0447 23.1522 52.2002 23.4631L50.8728 24.8982Z" fill="white"/>
<path d="M47.6439 22.5662C48.3327 22.6523 49.055 23.2 49.3301 23.4631L50.3346 21.3823C49.8467 20.6648 49.0072 20.294 48.6484 20.1984L47.6439 22.5662Z" fill="white"/>
<path d="M44.8456 21.741C45.6779 21.741 46.46 22.052 46.747 22.2074L47.321 19.6244C46.8331 19.1651 45.8023 19.0264 45.3478 19.0145L44.8456 21.741Z" fill="white"/>
<path d="M27.9837 26.4767L26.1182 25.8668L26.3334 25.0417L28.2349 25.6516L27.9837 26.4767Z" fill="white"/>
<path d="M29.4188 23.0326L27.3738 21.8128L27.9837 20.7006L30.0646 22.0281L29.4188 23.0326Z" fill="white"/>
<path d="M31.6072 20.1984L29.7417 18.1175L30.9973 16.7184L32.8629 19.0862L31.6072 20.1984Z" fill="white"/>
<path d="M34.6567 17.7588L33.2934 14.8528L35.3384 13.633L36.6299 16.7901L34.6567 17.7588Z" fill="white"/>
<path d="M38.7466 16.0367L38.1367 12.5926L40.8633 12.0186L41.4014 15.6062L38.7466 16.0367Z" fill="white"/>
</svg>
