<svg width="98" height="33" viewBox="0 0 98 33" fill="none" xmlns="http://www.w3.org/2000/svg">
<path fill-rule="evenodd" clip-rule="evenodd" d="M83.8491 0.0527157C83.8491 0.0855048 83.5499 0.105431 83.0571 0.105431C82.5643 0.105431 82.2651 0.125358 82.2651 0.158147C82.2651 0.18888 82.0891 0.210863 81.8427 0.210863C81.5962 0.210863 81.4203 0.232845 81.4203 0.263578C81.4203 0.292888 81.2794 0.316294 81.1034 0.316294C80.9275 0.316294 80.7866 0.3397 80.7866 0.36901C80.7866 0.398003 80.6916 0.421725 80.5754 0.421725C80.4593 0.421725 80.3642 0.445447 80.3642 0.474441C80.3642 0.503435 80.2454 0.527157 80.1002 0.527157C79.955 0.527157 79.8362 0.550879 79.8362 0.579872C79.8362 0.608866 79.7412 0.632588 79.625 0.632588C79.5088 0.632588 79.4138 0.65631 79.4138 0.685304C79.4138 0.714297 79.3425 0.738019 79.2554 0.738019C79.1683 0.738019 79.097 0.761741 79.097 0.790735C79.097 0.819728 79.0257 0.84345 78.9386 0.84345C78.8515 0.84345 78.7802 0.867173 78.7802 0.896166C78.7802 0.92516 78.7089 0.948882 78.6218 0.948882C78.5346 0.948882 78.4634 0.972604 78.4634 1.0016C78.4634 1.03059 78.3921 1.05431 78.305 1.05431C78.2178 1.05431 78.1466 1.07804 78.1466 1.10703C78.1466 1.13602 78.0753 1.15974 77.9881 1.15974C77.901 1.15974 77.8297 1.18347 77.8297 1.21246C77.8297 1.24145 77.7585 1.26518 77.6713 1.26518C77.5842 1.26518 77.5129 1.2889 77.5129 1.31789C77.5129 1.34688 77.4654 1.37061 77.4073 1.37061C77.3492 1.37061 77.3017 1.39433 77.3017 1.42332C77.3017 1.45232 77.2304 1.47604 77.1433 1.47604C77.0562 1.47604 76.9849 1.49976 76.9849 1.52875C76.9849 1.55775 76.9374 1.58147 76.8793 1.58147C76.8212 1.58147 76.7737 1.60519 76.7737 1.63419C76.7737 1.66318 76.7262 1.6869 76.6681 1.6869C76.61 1.6869 76.5625 1.71062 76.5625 1.73962C76.5625 1.76861 76.515 1.79233 76.4569 1.79233C76.3988 1.79233 76.3513 1.81605 76.3513 1.84505C76.3513 1.87404 76.3038 1.89776 76.2457 1.89776C76.1876 1.89776 76.1401 1.92149 76.1401 1.95048C76.1401 1.97947 76.0926 2.00319 76.0345 2.00319C75.9764 2.00319 75.9289 2.02692 75.9289 2.05591C75.9289 2.0849 75.8814 2.10863 75.8233 2.10863C75.7652 2.10863 75.7177 2.13235 75.7177 2.16134C75.7177 2.19034 75.6702 2.21406 75.6121 2.21406C75.554 2.21406 75.5065 2.23778 75.5065 2.26677C75.5065 2.29577 75.4642 2.31949 75.4125 2.31949C75.3608 2.31949 75.2843 2.36693 75.2425 2.42492C75.2006 2.48291 75.1241 2.53035 75.0724 2.53035C75.0207 2.53035 74.9784 2.55407 74.9784 2.58307C74.9784 2.61206 74.9361 2.63578 74.8845 2.63578C74.8328 2.63578 74.7563 2.68323 74.7144 2.74121C74.6726 2.7992 74.6013 2.84665 74.556 2.84665C74.5108 2.84665 74.4395 2.89409 74.3976 2.95208C74.3558 3.01006 74.2845 3.05751 74.2392 3.05751C74.194 3.05751 74.1227 3.10495 74.0808 3.16294C74.0389 3.22093 73.9677 3.26837 73.9224 3.26837C73.8772 3.26837 73.8059 3.31581 73.764 3.3738C73.7221 3.43179 73.6551 3.47923 73.6151 3.47923C73.5751 3.47923 73.4758 3.5504 73.3944 3.63738C73.313 3.72436 73.2185 3.79553 73.1842 3.79553C73.1501 3.79553 73.0308 3.89042 72.9192 4.00639C72.8076 4.12236 72.6905 4.21725 72.659 4.21725C72.5846 4.21725 70.4375 6.3602 70.4375 6.43442C70.4375 6.46547 70.3187 6.60638 70.1735 6.7476C70.0283 6.88883 69.9095 7.03195 69.9095 7.06569C69.9095 7.09943 69.8382 7.19353 69.7511 7.27476C69.664 7.356 69.5927 7.45521 69.5927 7.49511C69.5927 7.53507 69.5452 7.60197 69.4871 7.64377C69.429 7.68557 69.3815 7.75674 69.3815 7.80192C69.3815 7.84709 69.3339 7.91826 69.2759 7.96006C69.2178 8.00187 69.1703 8.07303 69.1703 8.11821C69.1703 8.16339 69.1227 8.23455 69.0647 8.27636C69.0066 8.31816 68.9591 8.38933 68.9591 8.4345C68.9591 8.47968 68.9115 8.55085 68.8534 8.59265C68.7954 8.63446 68.7478 8.71084 68.7478 8.76245C68.7478 8.814 68.7241 8.85623 68.695 8.85623C68.666 8.85623 68.6422 8.89846 68.6422 8.95001C68.6422 9.00162 68.5947 9.078 68.5366 9.11981C68.4786 9.16161 68.431 9.238 68.431 9.28961C68.431 9.34116 68.4073 9.38339 68.3782 9.38339C68.3492 9.38339 68.3254 9.43083 68.3254 9.48882C68.3254 9.54681 68.3017 9.59425 68.2726 9.59425C68.2436 9.59425 68.2198 9.64169 68.2198 9.69968C68.2198 9.75767 68.1961 9.80511 68.167 9.80511C68.138 9.80511 68.1142 9.85256 68.1142 9.91054C68.1142 9.96853 68.0905 10.016 68.0614 10.016C68.0324 10.016 68.0086 10.0634 68.0086 10.1214C68.0086 10.1794 67.9849 10.2268 67.9558 10.2268C67.9268 10.2268 67.903 10.2743 67.903 10.3323C67.903 10.3903 67.8793 10.4377 67.8502 10.4377C67.8212 10.4377 67.7974 10.4851 67.7974 10.5431C67.7974 10.6011 67.7737 10.6486 67.7446 10.6486C67.7156 10.6486 67.6918 10.696 67.6918 10.754C67.6918 10.812 67.6681 10.8594 67.639 10.8594C67.61 10.8594 67.5862 10.9069 67.5862 10.9649C67.5862 11.0228 67.5624 11.0703 67.5334 11.0703C67.5044 11.0703 67.4806 11.1415 67.4806 11.2284C67.4806 11.3154 67.4568 11.3866 67.4278 11.3866C67.3988 11.3866 67.375 11.434 67.375 11.492C67.375 11.55 67.3512 11.5974 67.3222 11.5974C67.2932 11.5974 67.2694 11.6686 67.2694 11.7556C67.2694 11.8426 67.2456 11.9137 67.2166 11.9137C67.1876 11.9137 67.1638 11.9612 67.1638 12.0192C67.1638 12.0772 67.14 12.1246 67.111 12.1246C67.0819 12.1246 67.0582 12.1958 67.0582 12.2827C67.0582 12.3697 67.0344 12.4409 67.0054 12.4409C66.9763 12.4409 66.9526 12.5121 66.9526 12.599C66.9526 12.686 66.9288 12.7572 66.8998 12.7572C66.8707 12.7572 66.847 12.8284 66.847 12.9153C66.847 13.0023 66.8232 13.0735 66.7942 13.0735C66.7651 13.0735 66.7414 13.1446 66.7414 13.2316C66.7414 13.3186 66.7176 13.3898 66.6886 13.3898C66.6595 13.3898 66.6358 13.4847 66.6358 13.6006C66.6358 13.7166 66.612 13.8115 66.583 13.8115C66.5539 13.8115 66.5302 13.9064 66.5302 14.0224C66.5302 14.1383 66.5064 14.2332 66.4774 14.2332C66.4483 14.2332 66.4246 14.3281 66.4246 14.4441C66.4246 14.5601 66.4008 14.655 66.3718 14.655C66.3427 14.655 66.319 14.7498 66.319 14.8658C66.319 14.9818 66.2952 15.0767 66.2662 15.0767C66.2371 15.0767 66.2134 15.1953 66.2134 15.3403C66.2134 15.4852 66.1896 15.6038 66.1606 15.6038C66.1312 15.6038 66.1078 15.7444 66.1078 15.9201C66.1078 16.0958 66.0843 16.2364 66.055 16.2364C66.0248 16.2364 66.0022 16.3946 66.0022 16.6054C66.0022 16.8163 65.9795 16.9744 65.9494 16.9744C65.9174 16.9744 65.8966 17.2029 65.8966 17.5543C65.8966 17.9058 65.8757 18.1342 65.8438 18.1342C65.8102 18.1342 65.7909 18.5384 65.7909 19.2412C65.7909 19.9441 65.8102 20.3482 65.8438 20.3482C65.8757 20.3482 65.8966 20.5767 65.8966 20.9281C65.8966 21.2796 65.9174 21.508 65.9494 21.508C65.9787 21.508 66.0022 21.6486 66.0022 21.8243C66.0022 22 66.0256 22.1406 66.055 22.1406C66.084 22.1406 66.1078 22.2592 66.1078 22.4042C66.1078 22.5491 66.1315 22.6677 66.1606 22.6677C66.1896 22.6677 66.2134 22.7863 66.2134 22.9313C66.2134 23.0763 66.2371 23.1949 66.2662 23.1949C66.2952 23.1949 66.319 23.2661 66.319 23.353C66.319 23.44 66.3427 23.5112 66.3718 23.5112C66.4008 23.5112 66.4246 23.6061 66.4246 23.722C66.4246 23.838 66.4483 23.9329 66.4774 23.9329C66.5064 23.9329 66.5302 24.0041 66.5302 24.0911C66.5302 24.178 66.5539 24.2492 66.583 24.2492C66.612 24.2492 66.6358 24.3204 66.6358 24.4073C66.6358 24.4943 66.6595 24.5655 66.6886 24.5655C66.7176 24.5655 66.7414 24.6129 66.7414 24.6709C66.7414 24.7289 66.7651 24.7764 66.7942 24.7764C66.8232 24.7764 66.847 24.8475 66.847 24.9345C66.847 25.0215 66.8707 25.0927 66.8998 25.0927C66.9288 25.0927 66.9526 25.1401 66.9526 25.1981C66.9526 25.2561 66.9763 25.3035 67.0054 25.3035C67.0344 25.3035 67.0582 25.351 67.0582 25.4089C67.0582 25.4669 67.0819 25.5144 67.111 25.5144C67.14 25.5144 67.1638 25.5855 67.1638 25.6725C67.1638 25.7595 67.1876 25.8307 67.2166 25.8307C67.2456 25.8307 67.2694 25.8729 67.2694 25.9245C67.2694 25.9761 67.3169 26.0524 67.375 26.0942C67.4331 26.1361 67.4806 26.2124 67.4806 26.264C67.4806 26.3156 67.5044 26.3578 67.5334 26.3578C67.5624 26.3578 67.5862 26.4053 67.5862 26.4633C67.5862 26.5212 67.61 26.5687 67.639 26.5687C67.6681 26.5687 67.6918 26.6109 67.6918 26.6625C67.6918 26.7141 67.7393 26.7905 67.7974 26.8323C67.8555 26.8741 67.903 26.9505 67.903 27.0021C67.903 27.0536 67.9268 27.0958 67.9558 27.0958C67.9849 27.0958 68.0086 27.1337 68.0086 27.1801C68.0086 27.2265 68.0799 27.3309 68.167 27.4121C68.2542 27.4934 68.3254 27.5883 68.3254 27.623C68.3254 27.6577 68.3967 27.7526 68.4838 27.8339C68.571 27.9151 68.6422 28.0092 68.6422 28.0429C68.6422 28.0767 68.761 28.2198 68.9062 28.361C69.0515 28.5022 69.1703 28.6434 69.1703 28.6747C69.1703 28.7491 69.9432 29.5208 70.0177 29.5208C70.049 29.5208 70.1904 29.6394 70.3319 29.7843C70.4734 29.9293 70.6167 30.0479 70.6505 30.0479C70.6843 30.0479 70.7785 30.1191 70.8599 30.2061C70.9413 30.2931 71.0363 30.3642 71.0711 30.3642C71.1059 30.3642 71.201 30.4354 71.2823 30.5224C71.3637 30.6093 71.4683 30.6805 71.5147 30.6805C71.5612 30.6805 71.5991 30.7042 71.5991 30.7332C71.5991 30.7622 71.6414 30.7859 71.6931 30.7859C71.7448 30.7859 71.8213 30.8334 71.8631 30.8914C71.905 30.9494 71.9815 30.9968 72.0332 30.9968C72.0849 30.9968 72.1272 31.0205 72.1272 31.0495C72.1272 31.0785 72.1694 31.1022 72.2211 31.1022C72.2728 31.1022 72.3493 31.1497 72.3912 31.2077C72.433 31.2657 72.5095 31.3131 72.5612 31.3131C72.6129 31.3131 72.6552 31.3368 72.6552 31.3658C72.6552 31.3948 72.7027 31.4185 72.7608 31.4185C72.8189 31.4185 72.8664 31.4423 72.8664 31.4712C72.8664 31.5002 72.9139 31.524 72.972 31.524C73.0301 31.524 73.0776 31.5477 73.0776 31.5767C73.0776 31.6057 73.1251 31.6294 73.1832 31.6294C73.2413 31.6294 73.2888 31.6531 73.2888 31.6821C73.2888 31.7111 73.3601 31.7348 73.4472 31.7348C73.5343 31.7348 73.6056 31.7585 73.6056 31.7875C73.6056 31.8165 73.6531 31.8403 73.7112 31.8403C73.7693 31.8403 73.8168 31.864 73.8168 31.893C73.8168 31.922 73.8881 31.9457 73.9752 31.9457C74.0623 31.9457 74.1336 31.9694 74.1336 31.9984C74.1336 32.0274 74.1811 32.0511 74.2392 32.0511C74.2973 32.0511 74.3448 32.0748 74.3448 32.1038C74.3448 32.1328 74.4161 32.1566 74.5032 32.1566C74.5904 32.1566 74.6616 32.1803 74.6616 32.2093C74.6616 32.2383 74.7567 32.262 74.8728 32.262C74.989 32.262 75.0841 32.2857 75.0841 32.3147C75.0841 32.3437 75.1553 32.3674 75.2425 32.3674C75.3296 32.3674 75.4009 32.3911 75.4009 32.4201C75.4009 32.4491 75.4959 32.4728 75.6121 32.4728C75.7282 32.4728 75.8233 32.4966 75.8233 32.5256C75.8233 32.5546 75.9183 32.5783 76.0345 32.5783C76.1507 32.5783 76.2457 32.602 76.2457 32.631C76.2457 32.66 76.3645 32.6837 76.5097 32.6837C76.6549 32.6837 76.7737 32.7074 76.7737 32.7364C76.7737 32.7665 76.9321 32.7891 77.1433 32.7891C77.3545 32.7891 77.5129 32.8118 77.5129 32.8419C77.5129 32.8738 77.7417 32.8946 78.0938 32.8946C78.4458 32.8946 78.6746 32.9153 78.6746 32.9473C78.6746 32.9807 79.0618 33 79.7306 33C80.3994 33 80.7866 32.9807 80.7866 32.9473C80.7866 32.9153 81.0154 32.8946 81.3675 32.8946C81.7195 32.8946 81.9483 32.8738 81.9483 32.8419C81.9483 32.8125 82.0891 32.7891 82.2651 32.7891C82.4411 32.7891 82.5819 32.7657 82.5819 32.7364C82.5819 32.7071 82.7227 32.6837 82.8987 32.6837C83.0747 32.6837 83.2155 32.6603 83.2155 32.631C83.2155 32.602 83.3106 32.5783 83.4267 32.5783C83.5429 32.5783 83.6379 32.5546 83.6379 32.5256C83.6379 32.4966 83.733 32.4728 83.8491 32.4728C83.9653 32.4728 84.0603 32.4491 84.0603 32.4201C84.0603 32.3911 84.1554 32.3674 84.2716 32.3674C84.3877 32.3674 84.4828 32.3437 84.4828 32.3147C84.4828 32.2857 84.554 32.262 84.6412 32.262C84.7283 32.262 84.7996 32.2383 84.7996 32.2093C84.7996 32.1803 84.8946 32.1566 85.0108 32.1566C85.1269 32.1566 85.222 32.1328 85.222 32.1038C85.222 32.0748 85.2695 32.0511 85.3276 32.0511C85.3857 32.0511 85.4332 32.0274 85.4332 31.9984C85.4332 31.9694 85.5045 31.9457 85.5916 31.9457C85.6787 31.9457 85.75 31.922 85.75 31.893C85.75 31.864 85.8213 31.8403 85.9084 31.8403C85.9955 31.8403 86.0668 31.8165 86.0668 31.7875C86.0668 31.7585 86.1143 31.7348 86.1724 31.7348C86.2305 31.7348 86.278 31.7111 86.278 31.6821C86.278 31.6531 86.3493 31.6294 86.4364 31.6294C86.5235 31.6294 86.5948 31.6057 86.5948 31.5767C86.5948 31.5477 86.6423 31.524 86.7004 31.524C86.7585 31.524 86.806 31.5002 86.806 31.4712C86.806 31.4423 86.8536 31.4185 86.9116 31.4185C86.9697 31.4185 87.0172 31.3948 87.0172 31.3658C87.0172 31.3368 87.0885 31.3131 87.1756 31.3131C87.2628 31.3131 87.3341 31.2894 87.3341 31.2604C87.3341 31.2314 87.3816 31.2077 87.4397 31.2077C87.4977 31.2077 87.5453 31.1839 87.5453 31.155C87.5453 31.126 87.5928 31.1022 87.6509 31.1022C87.7089 31.1022 87.7565 31.0785 87.7565 31.0495C87.7565 31.0205 87.7988 30.9968 87.8504 30.9968C87.9021 30.9968 87.9786 30.9494 88.0205 30.8914C88.0623 30.8334 88.1389 30.7859 88.1905 30.7859C88.2422 30.7859 88.2845 30.7622 88.2845 30.7332C88.2845 30.7042 88.332 30.6805 88.3901 30.6805C88.4482 30.6805 88.4957 30.6568 88.4957 30.6278C88.4957 30.5988 88.538 30.5751 88.5896 30.5751C88.6413 30.5751 88.7178 30.5276 88.7597 30.4696C88.8016 30.4117 88.8781 30.3642 88.9298 30.3642C88.9814 30.3642 89.0237 30.3405 89.0237 30.3115C89.0237 30.2825 89.066 30.2588 89.1176 30.2588C89.1693 30.2588 89.2458 30.2113 89.2877 30.1534C89.3296 30.0954 89.4009 30.0479 89.4461 30.0479C89.4914 30.0479 89.5627 30.0005 89.6045 29.9425C89.6464 29.8845 89.7177 29.8371 89.7629 29.8371C89.8082 29.8371 89.8795 29.7896 89.9213 29.7316C89.9632 29.6736 90.0302 29.6262 90.0702 29.6262C90.1102 29.6262 90.2096 29.555 90.2909 29.4681C90.3723 29.3811 90.4669 29.3099 90.5011 29.3099C90.5353 29.3099 90.6545 29.215 90.7662 29.099C90.8778 28.9831 90.996 28.8882 91.029 28.8882C91.0619 28.8882 91.2288 28.7458 91.3998 28.5719C91.5708 28.3979 91.7361 28.2556 91.767 28.2556C91.8405 28.2556 93.0366 27.0614 93.0366 26.988C93.0366 26.9572 93.1792 26.7922 93.3534 26.6214C93.5277 26.4507 93.6703 26.2841 93.6703 26.2512C93.6703 26.2183 93.7653 26.1003 93.8815 25.9888C93.9976 25.8774 94.0927 25.7583 94.0927 25.7242C94.0927 25.69 94.164 25.5956 94.2511 25.5144C94.3382 25.4331 94.4095 25.3339 94.4095 25.294C94.4095 25.2541 94.457 25.1872 94.5151 25.1454C94.5732 25.1036 94.6207 25.0324 94.6207 24.9872C94.6207 24.942 94.6682 24.8709 94.7263 24.8291C94.7844 24.7873 94.8319 24.7161 94.8319 24.6709C94.8319 24.6257 94.8794 24.5546 94.9375 24.5128C94.9956 24.471 95.0431 24.3946 95.0431 24.343C95.0431 24.2914 95.0669 24.2492 95.0959 24.2492C95.1249 24.2492 95.1487 24.207 95.1487 24.1554C95.1487 24.1038 95.1962 24.0274 95.2543 23.9856C95.3124 23.9438 95.3599 23.8674 95.3599 23.8158C95.3599 23.7643 95.3837 23.722 95.4127 23.722C95.4418 23.722 95.4655 23.6746 95.4655 23.6166C95.4655 23.5586 95.4893 23.5112 95.5183 23.5112C95.5474 23.5112 95.5711 23.469 95.5711 23.4174C95.5711 23.3658 95.6186 23.2894 95.6767 23.2476C95.7348 23.2058 95.7823 23.1294 95.7823 23.0778C95.7823 23.0263 95.8061 22.984 95.8351 22.984C95.8642 22.984 95.8879 22.9366 95.8879 22.8786C95.8879 22.8206 95.9117 22.7732 95.9407 22.7732C95.9698 22.7732 95.9935 22.7257 95.9935 22.6677C95.9935 22.6097 96.0173 22.5623 96.0463 22.5623C96.0754 22.5623 96.0991 22.5149 96.0991 22.4569C96.0991 22.3989 96.1229 22.3514 96.1519 22.3514C96.181 22.3514 96.2047 22.2803 96.2047 22.1933C96.2047 22.1063 96.2285 22.0351 96.2575 22.0351C96.2866 22.0351 96.3103 21.9877 96.3103 21.9297C96.3103 21.8717 96.3341 21.8243 96.3631 21.8243C96.3922 21.8243 96.4159 21.7768 96.4159 21.7188C96.4159 21.6609 96.4397 21.6134 96.4688 21.6134C96.4978 21.6134 96.5216 21.5423 96.5216 21.4553C96.5216 21.3683 96.5453 21.2971 96.5744 21.2971C96.6034 21.2971 96.6272 21.2497 96.6272 21.1917C96.6272 21.1337 96.6509 21.0863 96.68 21.0863C96.709 21.0863 96.7328 21.0151 96.7328 20.9281C96.7328 20.8411 96.7565 20.77 96.7856 20.77C96.8146 20.77 96.8384 20.6988 96.8384 20.6118C96.8384 20.5248 96.8621 20.4537 96.8912 20.4537C96.9202 20.4537 96.944 20.4062 96.944 20.3482C96.944 20.2903 96.9677 20.2428 96.9968 20.2428C97.0258 20.2428 97.0496 20.1479 97.0496 20.0319C97.0496 19.916 97.0733 19.8211 97.1024 19.8211C97.1314 19.8211 97.1552 19.7499 97.1552 19.6629C97.1552 19.576 97.1789 19.5048 97.208 19.5048C97.237 19.5048 97.2608 19.4336 97.2608 19.3466C97.2608 19.2597 97.2845 19.1885 97.3136 19.1885C97.3426 19.1885 97.3664 19.0936 97.3664 18.9776C97.3664 18.8617 97.3901 18.7668 97.4192 18.7668C97.4482 18.7668 97.472 18.6719 97.472 18.5559C97.472 18.4399 97.4957 18.345 97.5248 18.345C97.5538 18.345 97.5776 18.2264 97.5776 18.0815C97.5776 17.9365 97.6013 17.8179 97.6304 17.8179C97.6594 17.8179 97.6832 17.6993 97.6832 17.5543C97.6832 17.4093 97.707 17.2907 97.736 17.2907C97.7661 17.2907 97.7888 17.1326 97.7888 16.9217C97.7888 16.7109 97.8114 16.5527 97.8416 16.5527C97.8724 16.5527 97.8944 16.377 97.8944 16.131C97.8944 15.885 97.9164 15.7093 97.9472 15.7093C97.9814 15.7093 98 15.0415 98 13.8115C98 12.5815 97.9814 11.9137 97.9472 11.9137C97.9164 11.9137 97.8944 11.738 97.8944 11.492C97.8944 11.246 97.8724 11.0703 97.8416 11.0703C97.8126 11.0703 97.7888 10.9517 97.7888 10.8067C97.7888 10.6617 97.765 10.5431 97.736 10.5431C97.707 10.5431 97.6832 10.4245 97.6832 10.2796C97.6832 10.1346 97.6594 10.016 97.6304 10.016C97.6013 10.016 97.5776 9.92109 97.5776 9.80511C97.5776 9.68914 97.5538 9.59425 97.5248 9.59425C97.4957 9.59425 97.472 9.49936 97.472 9.38339C97.472 9.26741 97.4482 9.17252 97.4192 9.17252C97.3901 9.17252 97.3664 9.10136 97.3664 9.01438C97.3664 8.9274 97.3426 8.85623 97.3136 8.85623C97.2845 8.85623 97.2608 8.78506 97.2608 8.69808C97.2608 8.6111 97.237 8.53994 97.208 8.53994C97.1789 8.53994 97.1552 8.46877 97.1552 8.38179C97.1552 8.29481 97.1314 8.22364 97.1024 8.22364C97.0733 8.22364 97.0496 8.1762 97.0496 8.11821C97.0496 8.06022 97.0258 8.01278 96.9968 8.01278C96.9677 8.01278 96.944 7.94161 96.944 7.85463C96.944 7.76765 96.9202 7.69649 96.8912 7.69649C96.8621 7.69649 96.8384 7.64904 96.8384 7.59105C96.8384 7.53307 96.8146 7.48562 96.7856 7.48562C96.7565 7.48562 96.7328 7.43818 96.7328 7.38019C96.7328 7.3222 96.709 7.27476 96.68 7.27476C96.6509 7.27476 96.6272 7.22732 96.6272 7.16933C96.6272 7.11134 96.6034 7.0639 96.5744 7.0639C96.5453 7.0639 96.5216 7.01645 96.5216 6.95847C96.5216 6.90048 96.4978 6.85303 96.4688 6.85303C96.4397 6.85303 96.4159 6.80559 96.4159 6.7476C96.4159 6.68962 96.3922 6.64217 96.3631 6.64217C96.3341 6.64217 96.3103 6.59473 96.3103 6.53674C96.3103 6.47875 96.2866 6.43131 96.2575 6.43131C96.2285 6.43131 96.2047 6.38908 96.2047 6.33753C96.2047 6.28592 96.1572 6.20954 96.0991 6.16773C96.0411 6.12593 95.9935 6.05476 95.9935 6.00958C95.9935 5.96441 95.946 5.89324 95.8879 5.85144C95.8298 5.80963 95.7823 5.73847 95.7823 5.69329C95.7823 5.64811 95.7348 5.57695 95.6767 5.53514C95.6186 5.49334 95.5711 5.42644 95.5711 5.38649C95.5711 5.34658 95.4998 5.24737 95.4127 5.16613C95.3256 5.0849 95.2543 4.99049 95.2543 4.95633C95.2543 4.92222 95.1593 4.80313 95.0431 4.69169C94.9269 4.58025 94.8319 4.46322 94.8319 4.43165C94.8319 4.35663 93.7419 3.26837 93.6667 3.26837C93.6351 3.26837 93.5179 3.17348 93.4062 3.05751C93.2946 2.94153 93.1753 2.84665 93.1412 2.84665C93.107 2.84665 93.0124 2.77548 92.931 2.6885C92.8497 2.60152 92.7503 2.53035 92.7103 2.53035C92.6703 2.53035 92.6033 2.48291 92.5614 2.42492C92.5196 2.36693 92.4483 2.31949 92.403 2.31949C92.3578 2.31949 92.2865 2.27204 92.2446 2.21406C92.2027 2.15607 92.1315 2.10863 92.0862 2.10863C92.041 2.10863 91.9697 2.06118 91.9278 2.00319C91.8859 1.94521 91.8094 1.89776 91.7577 1.89776C91.7061 1.89776 91.6638 1.87404 91.6638 1.84505C91.6638 1.81605 91.6163 1.79233 91.5582 1.79233C91.5001 1.79233 91.4526 1.76861 91.4526 1.73962C91.4526 1.71062 91.4051 1.6869 91.347 1.6869C91.2889 1.6869 91.2414 1.66318 91.2414 1.63419C91.2414 1.60519 91.1939 1.58147 91.1358 1.58147C91.0777 1.58147 91.0302 1.55775 91.0302 1.52875C91.0302 1.49976 90.9827 1.47604 90.9246 1.47604C90.8665 1.47604 90.819 1.45232 90.819 1.42332C90.819 1.39433 90.7714 1.37061 90.7134 1.37061C90.6553 1.37061 90.6078 1.34688 90.6078 1.31789C90.6078 1.2889 90.5602 1.26518 90.5022 1.26518C90.4441 1.26518 90.3966 1.24145 90.3966 1.21246C90.3966 1.18347 90.3253 1.15974 90.2381 1.15974C90.151 1.15974 90.0797 1.13602 90.0797 1.10703C90.0797 1.07804 90.0322 1.05431 89.9741 1.05431C89.9161 1.05431 89.8685 1.03059 89.8685 1.0016C89.8685 0.972604 89.7973 0.948882 89.7101 0.948882C89.623 0.948882 89.5517 0.92516 89.5517 0.896166C89.5517 0.867173 89.4804 0.84345 89.3933 0.84345C89.3062 0.84345 89.2349 0.819728 89.2349 0.790735C89.2349 0.761741 89.1636 0.738019 89.0765 0.738019C88.9894 0.738019 88.9181 0.714297 88.9181 0.685304C88.9181 0.65631 88.8231 0.632588 88.7069 0.632588C88.5907 0.632588 88.4957 0.608866 88.4957 0.579872C88.4957 0.550879 88.4007 0.527157 88.2845 0.527157C88.1683 0.527157 88.0733 0.503435 88.0733 0.474441C88.0733 0.445447 87.9782 0.421725 87.8621 0.421725C87.7459 0.421725 87.6509 0.398003 87.6509 0.36901C87.6509 0.3397 87.51 0.316294 87.3341 0.316294C87.1581 0.316294 87.0172 0.292888 87.0172 0.263578C87.0172 0.233478 86.8588 0.210863 86.6476 0.210863C86.4364 0.210863 86.278 0.188248 86.278 0.158147C86.278 0.125516 85.9964 0.105431 85.5388 0.105431C85.0812 0.105431 84.7996 0.0853466 84.7996 0.0527157C84.7996 0.0214553 84.6059 0 84.3244 0C84.0428 0 83.8491 0.0214553 83.8491 0.0527157ZM0 2.53035V4.63898H1.32004H2.64009V16.4473V28.2556H1.32004H0V30.3642V32.4728H6.0722H12.1444V30.3642V28.2556H10.5603H8.97629V23.1422V18.0288H10.5075H12.0388V18.9776V19.9265H13.7058C15.0802 19.9265 15.3861 19.9133 15.4483 19.8512C15.5614 19.7383 15.5614 12.102 15.4483 11.9891C15.3861 11.927 15.0802 11.9137 13.7058 11.9137H12.0388V12.84C12.0388 13.5725 12.023 13.7821 11.9633 13.8416C11.8519 13.9529 9.16316 13.9529 9.05175 13.8416C8.98749 13.7775 8.97629 13.0876 8.97629 9.20262V4.63898H13.042C17.0725 4.63898 17.1078 4.63987 17.1078 4.74441C17.1078 4.8024 17.1315 4.84984 17.1606 4.84984C17.1907 4.84984 17.2134 5.00799 17.2134 5.21885C17.2134 5.42971 17.236 5.58786 17.2662 5.58786C17.2963 5.58786 17.319 5.74601 17.319 5.95687C17.319 6.16773 17.3416 6.32588 17.3718 6.32588C17.4011 6.32588 17.4246 6.46647 17.4246 6.64217C17.4246 6.81787 17.448 6.95847 17.4774 6.95847C17.5075 6.95847 17.5302 7.11661 17.5302 7.32748C17.5302 7.53834 17.5528 7.69649 17.583 7.69649C17.6131 7.69649 17.6358 7.85463 17.6358 8.0655C17.6358 8.27636 17.6584 8.4345 17.6886 8.4345C17.7179 8.4345 17.7414 8.5751 17.7414 8.7508C17.7414 8.9265 17.7648 9.06709 17.7942 9.06709C17.8243 9.06709 17.847 9.22524 17.847 9.4361C17.847 9.64697 17.8696 9.80511 17.8998 9.80511C17.9291 9.80511 17.9526 9.9457 17.9526 10.1214V10.4377H19.6422H21.3319V5.42971V0.421725H10.6659H0V2.53035ZM25.556 2.53035V4.63898H26.9817H28.4073V15.4984C28.4073 22.7029 28.3895 26.3578 28.3545 26.3578C28.3237 26.3578 28.3017 26.5335 28.3017 26.7796C28.3017 27.0256 28.2797 27.2013 28.2489 27.2013C28.2199 27.2013 28.1961 27.2724 28.1961 27.3594C28.1961 27.4464 28.1724 27.5176 28.1433 27.5176C28.1143 27.5176 28.0905 27.5539 28.0905 27.5984C28.0905 27.7033 27.7486 28.0447 27.6434 28.0447C27.5989 28.0447 27.5625 28.0685 27.5625 28.0974C27.5625 28.1264 27.4912 28.1502 27.4041 28.1502C27.317 28.1502 27.2457 28.1739 27.2457 28.2029C27.2457 28.2358 26.9289 28.2556 26.4009 28.2556H25.556V30.3642V32.4728H30.5194H35.4828V30.3642V28.2556H34.4795C33.8459 28.2556 33.4763 28.2362 33.4763 28.2029C33.4763 28.1739 33.4288 28.1502 33.3707 28.1502C33.3126 28.1502 33.2651 28.1264 33.2651 28.0974C33.2651 28.0685 33.2287 28.0447 33.1841 28.0447C33.079 28.0447 32.7371 27.7033 32.7371 27.5984C32.7371 27.5539 32.7133 27.5176 32.6843 27.5176C32.6552 27.5176 32.6315 27.4701 32.6315 27.4121C32.6315 27.3542 32.6077 27.3067 32.5787 27.3067C32.5485 27.3067 32.5259 27.1486 32.5259 26.9377C32.5259 26.7268 32.5032 26.5687 32.4731 26.5687C32.4381 26.5687 32.4203 23.8275 32.4203 18.4505C32.4203 10.3674 32.4207 10.3323 32.5259 10.3323C32.5962 10.3323 32.6315 10.3674 32.6315 10.4377C32.6315 10.4957 32.6552 10.5431 32.6843 10.5431C32.7133 10.5431 32.7371 10.5906 32.7371 10.6486C32.7371 10.7065 32.7608 10.754 32.7899 10.754C32.8189 10.754 32.8427 10.8014 32.8427 10.8594C32.8427 10.9174 32.8664 10.9649 32.8955 10.9649C32.9245 10.9649 32.9483 11.036 32.9483 11.123C32.9483 11.21 32.972 11.2811 33.0011 11.2811C33.0301 11.2811 33.0539 11.3286 33.0539 11.3866C33.0539 11.4446 33.0776 11.492 33.1067 11.492C33.1357 11.492 33.1595 11.5395 33.1595 11.5974C33.1595 11.6554 33.1832 11.7029 33.2123 11.7029C33.2413 11.7029 33.2651 11.774 33.2651 11.861C33.2651 11.948 33.2888 12.0192 33.3179 12.0192C33.3469 12.0192 33.3707 12.0666 33.3707 12.1246C33.3707 12.1826 33.3945 12.23 33.4235 12.23C33.4525 12.23 33.4763 12.2775 33.4763 12.3355C33.4763 12.3935 33.5001 12.4409 33.5291 12.4409C33.5581 12.4409 33.5819 12.5121 33.5819 12.599C33.5819 12.686 33.6057 12.7572 33.6347 12.7572C33.6637 12.7572 33.6875 12.8046 33.6875 12.8626C33.6875 12.9206 33.7113 12.9681 33.7403 12.9681C33.7693 12.9681 33.7931 13.0155 33.7931 13.0735C33.7931 13.1315 33.8169 13.1789 33.8459 13.1789C33.8749 13.1789 33.8987 13.2501 33.8987 13.3371C33.8987 13.424 33.9225 13.4952 33.9515 13.4952C33.9805 13.4952 34.0043 13.5427 34.0043 13.6006C34.0043 13.6586 34.0281 13.7061 34.0571 13.7061C34.0862 13.7061 34.1099 13.7535 34.1099 13.8115C34.1099 13.8695 34.1337 13.9169 34.1627 13.9169C34.1918 13.9169 34.2155 13.9881 34.2155 14.0751C34.2155 14.1621 34.2393 14.2332 34.2683 14.2332C34.2974 14.2332 34.3211 14.2807 34.3211 14.3387C34.3211 14.3966 34.3449 14.4441 34.3739 14.4441C34.403 14.4441 34.4267 14.5153 34.4267 14.6022C34.4267 14.6892 34.4505 14.7604 34.4795 14.7604C34.5086 14.7604 34.5323 14.8078 34.5323 14.8658C34.5323 14.9238 34.5561 14.9712 34.5851 14.9712C34.6142 14.9712 34.6379 15.0187 34.6379 15.0767C34.6379 15.1347 34.6617 15.1821 34.6907 15.1821C34.7198 15.1821 34.7435 15.2533 34.7435 15.3403C34.7435 15.4272 34.7673 15.4984 34.7963 15.4984C34.8254 15.4984 34.8491 15.5458 34.8491 15.6038C34.8491 15.6618 34.8729 15.7093 34.9019 15.7093C34.931 15.7093 34.9547 15.7567 34.9547 15.8147C34.9547 15.8727 34.9785 15.9201 35.0075 15.9201C35.0366 15.9201 35.0603 15.9913 35.0603 16.0783C35.0603 16.1653 35.0841 16.2364 35.1131 16.2364C35.1422 16.2364 35.1659 16.2839 35.1659 16.3419C35.1659 16.3998 35.1897 16.4473 35.2188 16.4473C35.2478 16.4473 35.2716 16.4947 35.2716 16.5527C35.2716 16.6107 35.2953 16.6581 35.3244 16.6581C35.3534 16.6581 35.3772 16.7293 35.3772 16.8163C35.3772 16.9033 35.4009 16.9744 35.43 16.9744C35.459 16.9744 35.4828 17.0219 35.4828 17.0799C35.4828 17.1379 35.5065 17.1853 35.5356 17.1853C35.5646 17.1853 35.5884 17.2327 35.5884 17.2907C35.5884 17.3487 35.6121 17.3962 35.6412 17.3962C35.6702 17.3962 35.694 17.4673 35.694 17.5543C35.694 17.6413 35.7177 17.7125 35.7468 17.7125C35.7758 17.7125 35.7996 17.7599 35.7996 17.8179C35.7996 17.8759 35.8233 17.9233 35.8524 17.9233C35.8814 17.9233 35.9052 17.9708 35.9052 18.0288C35.9052 18.0867 35.9289 18.1342 35.958 18.1342C35.987 18.1342 36.0108 18.2054 36.0108 18.2923C36.0108 18.3793 36.0345 18.4505 36.0636 18.4505C36.0926 18.4505 36.1164 18.4979 36.1164 18.5559C36.1164 18.6139 36.1401 18.6613 36.1692 18.6613C36.1982 18.6613 36.222 18.7088 36.222 18.7668C36.222 18.8248 36.2457 18.8722 36.2748 18.8722C36.3038 18.8722 36.3276 18.9434 36.3276 19.0304C36.3276 19.1173 36.3513 19.1885 36.3804 19.1885C36.4094 19.1885 36.4332 19.2359 36.4332 19.2939C36.4332 19.3519 36.457 19.3994 36.486 19.3994C36.515 19.3994 36.5388 19.4468 36.5388 19.5048C36.5388 19.5628 36.5626 19.6102 36.5916 19.6102C36.6206 19.6102 36.6444 19.6814 36.6444 19.7684C36.6444 19.8554 36.6682 19.9265 36.6972 19.9265C36.7262 19.9265 36.75 19.974 36.75 20.0319C36.75 20.0899 36.7738 20.1374 36.8028 20.1374C36.8318 20.1374 36.8556 20.1848 36.8556 20.2428C36.8556 20.3008 36.8794 20.3482 36.9084 20.3482C36.9374 20.3482 36.9612 20.4194 36.9612 20.5064C36.9612 20.5934 36.985 20.6645 37.014 20.6645C37.043 20.6645 37.0668 20.712 37.0668 20.77C37.0668 20.828 37.0906 20.8754 37.1196 20.8754C37.1487 20.8754 37.1724 20.9466 37.1724 21.0335C37.1724 21.1205 37.1962 21.1917 37.2252 21.1917C37.2543 21.1917 37.278 21.2391 37.278 21.2971C37.278 21.3551 37.3018 21.4026 37.3308 21.4026C37.3599 21.4026 37.3836 21.45 37.3836 21.508C37.3836 21.566 37.4074 21.6134 37.4364 21.6134C37.4655 21.6134 37.4892 21.6846 37.4892 21.7716C37.4892 21.8585 37.513 21.9297 37.542 21.9297C37.5711 21.9297 37.5948 21.9772 37.5948 22.0351C37.5948 22.0931 37.6186 22.1406 37.6476 22.1406C37.6767 22.1406 37.7004 22.188 37.7004 22.246C37.7004 22.304 37.7242 22.3514 37.7532 22.3514C37.7823 22.3514 37.806 22.4226 37.806 22.5096C37.806 22.5966 37.8298 22.6677 37.8588 22.6677C37.8879 22.6677 37.9116 22.7152 37.9116 22.7732C37.9116 22.8312 37.9354 22.8786 37.9644 22.8786C37.9935 22.8786 38.0172 22.926 38.0172 22.984C38.0172 23.042 38.041 23.0895 38.07 23.0895C38.0991 23.0895 38.1228 23.1606 38.1228 23.2476C38.1228 23.3346 38.1466 23.4058 38.1756 23.4058C38.2047 23.4058 38.2284 23.4532 38.2284 23.5112C38.2284 23.5692 38.2522 23.6166 38.2812 23.6166C38.3103 23.6166 38.3341 23.6641 38.3341 23.722C38.3341 23.78 38.3578 23.8275 38.3869 23.8275C38.4159 23.8275 38.4397 23.8986 38.4397 23.9856C38.4397 24.0726 38.4634 24.1438 38.4925 24.1438C38.5215 24.1438 38.5453 24.1912 38.5453 24.2492C38.5453 24.3072 38.569 24.3546 38.5981 24.3546C38.6271 24.3546 38.6509 24.4021 38.6509 24.4601C38.6509 24.5181 38.6746 24.5655 38.7037 24.5655C38.7327 24.5655 38.7565 24.6367 38.7565 24.7236C38.7565 24.8106 38.7802 24.8818 38.8093 24.8818C38.8383 24.8818 38.8621 24.9292 38.8621 24.9872C38.8621 25.0452 38.8858 25.0927 38.9149 25.0927C38.9439 25.0927 38.9677 25.1401 38.9677 25.1981C38.9677 25.2561 38.9914 25.3035 39.0205 25.3035C39.0495 25.3035 39.0733 25.3747 39.0733 25.4617C39.0733 25.5486 39.097 25.6198 39.1261 25.6198C39.1551 25.6198 39.1789 25.6673 39.1789 25.7252C39.1789 25.7832 39.2026 25.8307 39.2317 25.8307C39.2607 25.8307 39.2845 25.8781 39.2845 25.9361C39.2845 25.9941 39.3082 26.0415 39.3373 26.0415C39.3663 26.0415 39.3901 26.1127 39.3901 26.1997C39.3901 26.2867 39.4138 26.3578 39.4429 26.3578C39.4719 26.3578 39.4957 26.4053 39.4957 26.4633C39.4957 26.5212 39.5195 26.5687 39.5485 26.5687C39.5775 26.5687 39.6013 26.6161 39.6013 26.6741C39.6013 26.7321 39.6251 26.7796 39.6541 26.7796C39.6831 26.7796 39.7069 26.8507 39.7069 26.9377C39.7069 27.0247 39.7307 27.0958 39.7597 27.0958C39.7887 27.0958 39.8125 27.1433 39.8125 27.2013C39.8125 27.2593 39.8363 27.3067 39.8653 27.3067C39.8943 27.3067 39.9181 27.3542 39.9181 27.4121C39.9181 27.4701 39.9419 27.5176 39.9709 27.5176C39.9999 27.5176 40.0237 27.5887 40.0237 27.6757C40.0237 27.7627 40.0475 27.8339 40.0765 27.8339C40.1055 27.8339 40.1293 27.8813 40.1293 27.9393C40.1293 27.9973 40.1531 28.0447 40.1821 28.0447C40.2112 28.0447 40.2349 28.1159 40.2349 28.2029C40.2349 28.2899 40.2587 28.361 40.2877 28.361C40.3168 28.361 40.3405 28.4085 40.3405 28.4665C40.3405 28.5244 40.3643 28.5719 40.3933 28.5719C40.4224 28.5719 40.4461 28.6193 40.4461 28.6773C40.4461 28.7353 40.4699 28.7827 40.4989 28.7827C40.528 28.7827 40.5517 28.8539 40.5517 28.9409C40.5517 29.0279 40.5755 29.099 40.6045 29.099C40.6336 29.099 40.6573 29.1465 40.6573 29.2045C40.6573 29.2625 40.6811 29.3099 40.7101 29.3099C40.7392 29.3099 40.7629 29.3573 40.7629 29.4153C40.7629 29.4733 40.7867 29.5208 40.8157 29.5208C40.8448 29.5208 40.8685 29.5919 40.8685 29.6789C40.8685 29.7659 40.8923 29.8371 40.9213 29.8371C40.9504 29.8371 40.9741 29.8845 40.9741 29.9425C40.9741 30.0005 40.9979 30.0479 41.0269 30.0479C41.056 30.0479 41.0797 30.0954 41.0797 30.1534C41.0797 30.2113 41.1035 30.2588 41.1325 30.2588C41.1616 30.2588 41.1853 30.33 41.1853 30.4169C41.1853 30.5039 41.2091 30.5751 41.2381 30.5751C41.2672 30.5751 41.2909 30.6225 41.2909 30.6805C41.2909 30.7385 41.3147 30.7859 41.3438 30.7859C41.3728 30.7859 41.3966 30.8334 41.3966 30.8914C41.3966 30.9494 41.4203 30.9968 41.4494 30.9968C41.4784 30.9968 41.5022 31.068 41.5022 31.155C41.5022 31.2419 41.5259 31.3131 41.555 31.3131C41.584 31.3131 41.6078 31.3605 41.6078 31.4185C41.6078 31.4765 41.6315 31.524 41.6606 31.524C41.6896 31.524 41.7134 31.5714 41.7134 31.6294C41.7134 31.6874 41.7371 31.7348 41.7662 31.7348C41.7952 31.7348 41.819 31.806 41.819 31.893C41.819 31.98 41.8427 32.0511 41.8718 32.0511C41.9008 32.0511 41.9246 32.0986 41.9246 32.1566C41.9246 32.2145 41.9483 32.262 41.9774 32.262C42.0064 32.262 42.0302 32.2993 42.0302 32.3448C42.0302 32.5653 42.1163 32.5783 43.5841 32.5783C44.9519 32.5783 44.9871 32.5756 44.9871 32.4728C44.9871 32.4149 45.0108 32.3674 45.0399 32.3674C45.0689 32.3674 45.0927 32.32 45.0927 32.262C45.0927 32.204 45.1164 32.1566 45.1455 32.1566C45.1745 32.1566 45.1983 32.0854 45.1983 31.9984C45.1983 31.9114 45.222 31.8403 45.2511 31.8403C45.2801 31.8403 45.3039 31.7928 45.3039 31.7348C45.3039 31.6768 45.3276 31.6294 45.3567 31.6294C45.3857 31.6294 45.4095 31.5582 45.4095 31.4712C45.4095 31.3843 45.4332 31.3131 45.4623 31.3131C45.4913 31.3131 45.5151 31.2657 45.5151 31.2077C45.5151 31.1497 45.5388 31.1022 45.5679 31.1022C45.5969 31.1022 45.6207 31.0311 45.6207 30.9441C45.6207 30.8571 45.6445 30.7859 45.6735 30.7859C45.7025 30.7859 45.7263 30.7385 45.7263 30.6805C45.7263 30.6225 45.7501 30.5751 45.7791 30.5751C45.8081 30.5751 45.8319 30.5039 45.8319 30.4169C45.8319 30.33 45.8557 30.2588 45.8847 30.2588C45.9137 30.2588 45.9375 30.2113 45.9375 30.1534C45.9375 30.0954 45.9613 30.0479 45.9903 30.0479C46.0193 30.0479 46.0431 30.0005 46.0431 29.9425C46.0431 29.8845 46.0669 29.8371 46.0959 29.8371C46.1249 29.8371 46.1487 29.7659 46.1487 29.6789C46.1487 29.5919 46.1725 29.5208 46.2015 29.5208C46.2305 29.5208 46.2543 29.4733 46.2543 29.4153C46.2543 29.3573 46.2781 29.3099 46.3071 29.3099C46.3362 29.3099 46.3599 29.2387 46.3599 29.1518C46.3599 29.0648 46.3837 28.9936 46.4127 28.9936C46.4418 28.9936 46.4655 28.9462 46.4655 28.8882C46.4655 28.8302 46.4893 28.7827 46.5183 28.7827C46.5474 28.7827 46.5711 28.7116 46.5711 28.6246C46.5711 28.5376 46.5949 28.4665 46.6239 28.4665C46.653 28.4665 46.6767 28.419 46.6767 28.361C46.6767 28.303 46.7005 28.2556 46.7295 28.2556C46.7586 28.2556 46.7823 28.1844 46.7823 28.0974C46.7823 28.0105 46.8061 27.9393 46.8351 27.9393C46.8642 27.9393 46.8879 27.8919 46.8879 27.8339C46.8879 27.7759 46.9117 27.7284 46.9407 27.7284C46.9698 27.7284 46.9935 27.6573 46.9935 27.5703C46.9935 27.4833 47.0173 27.4121 47.0463 27.4121C47.0754 27.4121 47.0991 27.3647 47.0991 27.3067C47.0991 27.2487 47.1229 27.2013 47.1519 27.2013C47.181 27.2013 47.2047 27.1301 47.2047 27.0431C47.2047 26.9562 47.2285 26.885 47.2575 26.885C47.2866 26.885 47.3103 26.8375 47.3103 26.7796C47.3103 26.7216 47.3341 26.6741 47.3631 26.6741C47.3922 26.6741 47.4159 26.603 47.4159 26.516C47.4159 26.429 47.4397 26.3578 47.4688 26.3578C47.4978 26.3578 47.5216 26.3104 47.5216 26.2524C47.5216 26.1944 47.5453 26.147 47.5744 26.147C47.6034 26.147 47.6272 26.0758 47.6272 25.9888C47.6272 25.9018 47.6509 25.8307 47.68 25.8307C47.709 25.8307 47.7328 25.7832 47.7328 25.7252C47.7328 25.6673 47.7565 25.6198 47.7856 25.6198C47.8146 25.6198 47.8384 25.5486 47.8384 25.4617C47.8384 25.3747 47.8621 25.3035 47.8912 25.3035C47.9202 25.3035 47.944 25.2561 47.944 25.1981C47.944 25.1401 47.9677 25.0927 47.9968 25.0927C48.0258 25.0927 48.0496 25.0215 48.0496 24.9345C48.0496 24.8475 48.0733 24.7764 48.1024 24.7764C48.1314 24.7764 48.1552 24.7289 48.1552 24.6709C48.1552 24.6129 48.1789 24.5655 48.208 24.5655C48.237 24.5655 48.2608 24.4943 48.2608 24.4073C48.2608 24.3204 48.2845 24.2492 48.3136 24.2492C48.3426 24.2492 48.3664 24.2018 48.3664 24.1438C48.3664 24.0858 48.3901 24.0383 48.4192 24.0383C48.4482 24.0383 48.472 23.9672 48.472 23.8802C48.472 23.7932 48.4957 23.722 48.5248 23.722C48.5538 23.722 48.5776 23.6746 48.5776 23.6166C48.5776 23.5586 48.6013 23.5112 48.6304 23.5112C48.6594 23.5112 48.6832 23.44 48.6832 23.353C48.6832 23.2661 48.707 23.1949 48.736 23.1949C48.765 23.1949 48.7888 23.1474 48.7888 23.0895C48.7888 23.0315 48.8126 22.984 48.8416 22.984C48.8706 22.984 48.8944 22.9366 48.8944 22.8786C48.8944 22.8206 48.9182 22.7732 48.9472 22.7732C48.9762 22.7732 49 22.702 49 22.615C49 22.528 49.0238 22.4569 49.0528 22.4569C49.0818 22.4569 49.1056 22.4094 49.1056 22.3514C49.1056 22.2935 49.1294 22.246 49.1584 22.246C49.1874 22.246 49.2112 22.1748 49.2112 22.0879C49.2112 22.0009 49.235 21.9297 49.264 21.9297C49.293 21.9297 49.3168 21.8823 49.3168 21.8243C49.3168 21.7663 49.3406 21.7188 49.3696 21.7188C49.3987 21.7188 49.4224 21.6477 49.4224 21.5607C49.4224 21.4737 49.4462 21.4026 49.4752 21.4026C49.5043 21.4026 49.528 21.3551 49.528 21.2971C49.528 21.2391 49.5518 21.1917 49.5808 21.1917C49.6099 21.1917 49.6336 21.1205 49.6336 21.0335C49.6336 20.9466 49.6574 20.8754 49.6864 20.8754C49.7155 20.8754 49.7392 20.828 49.7392 20.77C49.7392 20.712 49.763 20.6645 49.792 20.6645C49.8211 20.6645 49.8448 20.5934 49.8448 20.5064C49.8448 20.4194 49.8686 20.3482 49.8976 20.3482C49.9267 20.3482 49.9504 20.3008 49.9504 20.2428C49.9504 20.1848 49.9742 20.1374 50.0032 20.1374C50.0323 20.1374 50.056 20.0662 50.056 19.9792C50.056 19.8923 50.0798 19.8211 50.1088 19.8211C50.1379 19.8211 50.1616 19.7736 50.1616 19.7157C50.1616 19.6577 50.1854 19.6102 50.2144 19.6102C50.2435 19.6102 50.2672 19.5391 50.2672 19.4521C50.2672 19.3651 50.291 19.2939 50.32 19.2939C50.3491 19.2939 50.3728 19.2465 50.3728 19.1885C50.3728 19.1305 50.3966 19.0831 50.4256 19.0831C50.4547 19.0831 50.4784 19.0119 50.4784 18.9249C50.4784 18.8379 50.5022 18.7668 50.5312 18.7668C50.5603 18.7668 50.5841 18.7193 50.5841 18.6613C50.5841 18.6034 50.6078 18.5559 50.6369 18.5559C50.6659 18.5559 50.6897 18.4847 50.6897 18.3978C50.6897 18.3108 50.7134 18.2396 50.7425 18.2396C50.7715 18.2396 50.7953 18.1922 50.7953 18.1342C50.7953 18.0762 50.819 18.0288 50.8481 18.0288C50.8771 18.0288 50.9009 17.9576 50.9009 17.8706C50.9009 17.7836 50.9246 17.7125 50.9537 17.7125C50.9827 17.7125 51.0065 17.665 51.0065 17.607C51.0065 17.549 51.0302 17.5016 51.0593 17.5016C51.0883 17.5016 51.1121 17.4304 51.1121 17.3435C51.1121 17.2565 51.1358 17.1853 51.1649 17.1853C51.1939 17.1853 51.2177 17.1379 51.2177 17.0799C51.2177 17.0219 51.2414 16.9744 51.2705 16.9744C51.2995 16.9744 51.3233 16.9033 51.3233 16.8163C51.3233 16.7293 51.347 16.6581 51.3761 16.6581C51.4051 16.6581 51.4289 16.6107 51.4289 16.5527C51.4289 16.4947 51.4526 16.4473 51.4817 16.4473C51.5107 16.4473 51.5345 16.3761 51.5345 16.2891C51.5345 16.2022 51.5582 16.131 51.5873 16.131C51.6163 16.131 51.6401 16.0835 51.6401 16.0256C51.6401 15.9676 51.6638 15.9201 51.6929 15.9201C51.7219 15.9201 51.7457 15.8727 51.7457 15.8147C51.7457 15.7567 51.7695 15.7093 51.7985 15.7093C51.8275 15.7093 51.8513 15.6381 51.8513 15.5511C51.8513 15.4641 51.8751 15.393 51.9041 15.393C51.9331 15.393 51.9569 15.3455 51.9569 15.2875C51.9569 15.2296 51.9807 15.1821 52.0097 15.1821C52.0387 15.1821 52.0625 15.1109 52.0625 15.024C52.0625 14.937 52.0863 14.8658 52.1153 14.8658C52.1443 14.8658 52.1681 14.8184 52.1681 14.7604C52.1681 14.7024 52.1919 14.655 52.2209 14.655C52.2499 14.655 52.2737 14.5838 52.2737 14.4968C52.2737 14.4098 52.2975 14.3387 52.3265 14.3387C52.3555 14.3387 52.3793 14.2912 52.3793 14.2332C52.3793 14.1752 52.4031 14.1278 52.4321 14.1278C52.4612 14.1278 52.4849 14.0566 52.4849 13.9696C52.4849 13.8827 52.5087 13.8115 52.5377 13.8115C52.5668 13.8115 52.5905 13.7641 52.5905 13.7061C52.5905 13.6481 52.6143 13.6006 52.6433 13.6006C52.6724 13.6006 52.6961 13.5295 52.6961 13.4425C52.6961 13.3555 52.7199 13.2843 52.7489 13.2843C52.778 13.2843 52.8017 13.2369 52.8017 13.1789C52.8017 13.1209 52.8255 13.0735 52.8545 13.0735C52.8836 13.0735 52.9073 13.0023 52.9073 12.9153C52.9073 12.8284 52.9311 12.7572 52.9601 12.7572C52.9892 12.7572 53.0129 12.7097 53.0129 12.6518C53.0129 12.5938 53.0367 12.5463 53.0657 12.5463C53.0948 12.5463 53.1185 12.4752 53.1185 12.3882C53.1185 12.3012 53.1423 12.23 53.1713 12.23C53.2004 12.23 53.2241 12.1826 53.2241 12.1246C53.2241 12.0666 53.2479 12.0192 53.2769 12.0192C53.306 12.0192 53.3297 11.948 53.3297 11.861C53.3297 11.774 53.3535 11.7029 53.3825 11.7029C53.4116 11.7029 53.4353 11.6554 53.4353 11.5974C53.4353 11.5395 53.4591 11.492 53.4881 11.492C53.5172 11.492 53.5409 11.4208 53.5409 11.3339C53.5409 11.2469 53.5647 11.1757 53.5938 11.1757C53.6228 11.1757 53.6466 11.1283 53.6466 11.0703C53.6466 11.0123 53.6703 10.9649 53.6994 10.9649C53.7284 10.9649 53.7522 10.8937 53.7522 10.8067C53.7522 10.7197 53.7759 10.6486 53.805 10.6486C53.834 10.6486 53.8578 10.6011 53.8578 10.5431C53.8578 10.4851 53.8815 10.4377 53.9106 10.4377C53.9396 10.4377 53.9634 10.3665 53.9634 10.2796C53.9634 10.1926 53.9871 10.1214 54.0162 10.1214C54.0452 10.1214 54.069 10.074 54.069 10.016C54.069 9.95799 54.0927 9.91054 54.1218 9.91054C54.1508 9.91054 54.1746 9.83938 54.1746 9.7524C54.1746 9.62941 54.198 9.59425 54.2802 9.59425C54.3854 9.59425 54.3858 9.62941 54.3858 18.9249V28.2556H53.0657H51.7457V30.3642V32.4728H57.5011H63.2565V30.3642V28.2556H61.9364H60.6164V16.4473V4.63898H61.9892H63.3621V2.53035V0.421725H58.4742C53.1647 0.421725 53.4353 0.406332 53.4353 0.707919C53.4353 0.782459 53.4116 0.84345 53.3825 0.84345C53.3535 0.84345 53.3297 0.890895 53.3297 0.948882C53.3297 1.00687 53.306 1.05431 53.2769 1.05431C53.2479 1.05431 53.2241 1.12548 53.2241 1.21246C53.2241 1.29944 53.2004 1.37061 53.1713 1.37061C53.1423 1.37061 53.1185 1.41805 53.1185 1.47604C53.1185 1.53403 53.0948 1.58147 53.0657 1.58147C53.0367 1.58147 53.0129 1.62891 53.0129 1.6869C53.0129 1.74489 52.9892 1.79233 52.9601 1.79233C52.9311 1.79233 52.9073 1.8635 52.9073 1.95048C52.9073 2.03746 52.8836 2.10863 52.8545 2.10863C52.8255 2.10863 52.8017 2.15607 52.8017 2.21406C52.8017 2.27204 52.778 2.31949 52.7489 2.31949C52.7199 2.31949 52.6961 2.39066 52.6961 2.47764C52.6961 2.56462 52.6724 2.63578 52.6433 2.63578C52.6143 2.63578 52.5905 2.68323 52.5905 2.74121C52.5905 2.7992 52.5668 2.84665 52.5377 2.84665C52.5087 2.84665 52.4849 2.89409 52.4849 2.95208C52.4849 3.01006 52.4612 3.05751 52.4321 3.05751C52.4031 3.05751 52.3793 3.12867 52.3793 3.21566C52.3793 3.30264 52.3555 3.3738 52.3265 3.3738C52.2975 3.3738 52.2737 3.42125 52.2737 3.47923C52.2737 3.53722 52.2499 3.58466 52.2209 3.58466C52.1919 3.58466 52.1681 3.65583 52.1681 3.74281C52.1681 3.82979 52.1443 3.90096 52.1153 3.90096C52.0863 3.90096 52.0625 3.9484 52.0625 4.00639C52.0625 4.06438 52.0387 4.11182 52.0097 4.11182C51.9807 4.11182 51.9569 4.15927 51.9569 4.21725C51.9569 4.27524 51.9331 4.32268 51.9041 4.32268C51.8751 4.32268 51.8513 4.39385 51.8513 4.48083C51.8513 4.56781 51.8275 4.63898 51.7985 4.63898C51.7695 4.63898 51.7457 4.68642 51.7457 4.74441C51.7457 4.8024 51.7219 4.84984 51.6929 4.84984C51.6638 4.84984 51.6401 4.92101 51.6401 5.00799C51.6401 5.09497 51.6163 5.16613 51.5873 5.16613C51.5582 5.16613 51.5345 5.21358 51.5345 5.27157C51.5345 5.32955 51.5107 5.377 51.4817 5.377C51.4526 5.377 51.4289 5.42444 51.4289 5.48243C51.4289 5.54042 51.4051 5.58786 51.3761 5.58786C51.347 5.58786 51.3233 5.65903 51.3233 5.74601C51.3233 5.83299 51.2995 5.90415 51.2705 5.90415C51.2414 5.90415 51.2177 5.9516 51.2177 6.00958C51.2177 6.06757 51.1939 6.11502 51.1649 6.11502C51.1358 6.11502 51.1121 6.18618 51.1121 6.27316C51.1121 6.36014 51.0883 6.43131 51.0593 6.43131C51.0302 6.43131 51.0065 6.47875 51.0065 6.53674C51.0065 6.59473 50.9827 6.64217 50.9537 6.64217C50.9246 6.64217 50.9009 6.68962 50.9009 6.7476C50.9009 6.80559 50.8771 6.85303 50.8481 6.85303C50.819 6.85303 50.7953 6.9242 50.7953 7.01118C50.7953 7.09816 50.7715 7.16933 50.7425 7.16933C50.7134 7.16933 50.6897 7.21677 50.6897 7.27476C50.6897 7.33275 50.6659 7.38019 50.6369 7.38019C50.6078 7.38019 50.5841 7.45136 50.5841 7.53834C50.5841 7.62532 50.5603 7.69649 50.5312 7.69649C50.5022 7.69649 50.4784 7.74393 50.4784 7.80192C50.4784 7.8599 50.4547 7.90735 50.4256 7.90735C50.3966 7.90735 50.3728 7.95479 50.3728 8.01278C50.3728 8.07077 50.3491 8.11821 50.32 8.11821C50.291 8.11821 50.2672 8.18938 50.2672 8.27636C50.2672 8.36334 50.2435 8.4345 50.2144 8.4345C50.1854 8.4345 50.1616 8.48195 50.1616 8.53994C50.1616 8.59792 50.1379 8.64537 50.1088 8.64537C50.0798 8.64537 50.056 8.71653 50.056 8.80351C50.056 8.8905 50.0323 8.96166 50.0032 8.96166C49.9742 8.96166 49.9504 9.00911 49.9504 9.06709C49.9504 9.12508 49.9267 9.17252 49.8976 9.17252C49.8686 9.17252 49.8448 9.21997 49.8448 9.27796C49.8448 9.33594 49.8211 9.38339 49.792 9.38339C49.763 9.38339 49.7392 9.45455 49.7392 9.54153C49.7392 9.62851 49.7155 9.69968 49.6864 9.69968C49.6574 9.69968 49.6336 9.74712 49.6336 9.80511C49.6336 9.8631 49.6099 9.91054 49.5808 9.91054C49.5518 9.91054 49.528 9.98171 49.528 10.0687C49.528 10.1557 49.5043 10.2268 49.4752 10.2268C49.4462 10.2268 49.4224 10.2743 49.4224 10.3323C49.4224 10.3903 49.3987 10.4377 49.3696 10.4377C49.3406 10.4377 49.3168 10.4851 49.3168 10.5431C49.3168 10.6011 49.293 10.6486 49.264 10.6486C49.235 10.6486 49.2112 10.7197 49.2112 10.8067C49.2112 10.8937 49.1874 10.9649 49.1584 10.9649C49.1294 10.9649 49.1056 11.0123 49.1056 11.0703C49.1056 11.1283 49.0818 11.1757 49.0528 11.1757C49.0238 11.1757 49 11.2469 49 11.3339C49 11.4208 48.9762 11.492 48.9472 11.492C48.9182 11.492 48.8944 11.5395 48.8944 11.5974C48.8944 11.6554 48.8706 11.7029 48.8416 11.7029C48.8126 11.7029 48.7888 11.7503 48.7888 11.8083C48.7888 11.8663 48.765 11.9137 48.736 11.9137C48.707 11.9137 48.6832 11.9849 48.6832 12.0719C48.6832 12.1589 48.6594 12.23 48.6304 12.23C48.6013 12.23 48.5776 12.2775 48.5776 12.3355C48.5776 12.3935 48.5538 12.4409 48.5248 12.4409C48.4957 12.4409 48.472 12.5121 48.472 12.599C48.472 12.686 48.4482 12.7572 48.4192 12.7572C48.3901 12.7572 48.3664 12.8046 48.3664 12.8626C48.3664 12.9206 48.3426 12.9681 48.3136 12.9681C48.2845 12.9681 48.2608 13.0155 48.2608 13.0735C48.2608 13.1315 48.237 13.1789 48.208 13.1789C48.1789 13.1789 48.1552 13.2501 48.1552 13.3371C48.1552 13.424 48.1314 13.4952 48.1024 13.4952C48.0733 13.4952 48.0496 13.5427 48.0496 13.6006C48.0496 13.6586 48.0258 13.7061 47.9968 13.7061C47.9677 13.7061 47.944 13.7772 47.944 13.8642C47.944 13.9512 47.9202 14.0224 47.8912 14.0224C47.8621 14.0224 47.8384 14.0698 47.8384 14.1278C47.8384 14.1858 47.8146 14.2332 47.7856 14.2332C47.7565 14.2332 47.7328 14.2807 47.7328 14.3387C47.7328 14.3966 47.709 14.4441 47.68 14.4441C47.6509 14.4441 47.6272 14.5153 47.6272 14.6022C47.6272 14.6892 47.6034 14.7604 47.5744 14.7604C47.5453 14.7604 47.5216 14.8078 47.5216 14.8658C47.5216 14.9238 47.4978 14.9712 47.4688 14.9712C47.4397 14.9712 47.4159 15.0424 47.4159 15.1294C47.4159 15.2164 47.3922 15.2875 47.3631 15.2875C47.3341 15.2875 47.3103 15.335 47.3103 15.393C47.3103 15.451 47.2866 15.4984 47.2575 15.4984C47.2285 15.4984 47.2047 15.5458 47.2047 15.6038C47.2047 15.6618 47.181 15.7093 47.1519 15.7093C47.1229 15.7093 47.0991 15.7804 47.0991 15.8674C47.0991 15.9544 47.0754 16.0256 47.0463 16.0256C47.0173 16.0256 46.9935 16.073 46.9935 16.131C46.9935 16.189 46.9698 16.2364 46.9407 16.2364C46.9117 16.2364 46.8879 16.3076 46.8879 16.3946C46.8879 16.4816 46.8642 16.5527 46.8351 16.5527C46.8061 16.5527 46.7823 16.6002 46.7823 16.6581C46.7823 16.7161 46.7586 16.7636 46.7295 16.7636C46.7005 16.7636 46.6767 16.811 46.6767 16.869C46.6767 16.927 46.653 16.9744 46.6239 16.9744C46.5949 16.9744 46.5711 17.0456 46.5711 17.1326C46.5711 17.2196 46.5474 17.2907 46.5183 17.2907C46.4893 17.2907 46.4655 17.3382 46.4655 17.3962C46.4655 17.4542 46.4418 17.5016 46.4127 17.5016C46.3837 17.5016 46.3599 17.5728 46.3599 17.6597C46.3599 17.7467 46.3362 17.8179 46.3071 17.8179C46.2781 17.8179 46.2543 17.8653 46.2543 17.9233C46.2543 17.9813 46.2305 18.0288 46.2015 18.0288C46.1725 18.0288 46.1487 18.0762 46.1487 18.1342C46.1487 18.1922 46.1249 18.2396 46.0959 18.2396C46.0669 18.2396 46.0431 18.3108 46.0431 18.3978C46.0431 18.4847 46.0193 18.5559 45.9903 18.5559C45.9613 18.5559 45.9375 18.6034 45.9375 18.6613C45.9375 18.7193 45.9137 18.7668 45.8847 18.7668C45.8557 18.7668 45.8319 18.8379 45.8319 18.9249C45.8319 19.0119 45.8081 19.0831 45.7791 19.0831C45.7501 19.0831 45.7263 19.1305 45.7263 19.1885C45.7263 19.2465 45.7025 19.2939 45.6735 19.2939C45.6445 19.2939 45.6207 19.3414 45.6207 19.3994C45.6207 19.4573 45.5969 19.5048 45.5679 19.5048C45.5388 19.5048 45.5151 19.576 45.5151 19.6629C45.5151 19.7499 45.4913 19.8211 45.4623 19.8211C45.4332 19.8211 45.4095 19.8685 45.4095 19.9265C45.4095 19.9845 45.3857 20.0319 45.3567 20.0319C45.3276 20.0319 45.3039 20.1031 45.3039 20.1901C45.3039 20.2771 45.2801 20.3482 45.2511 20.3482C45.222 20.3482 45.1983 20.3957 45.1983 20.4537C45.1983 20.5117 45.1745 20.5591 45.1455 20.5591C45.1164 20.5591 45.0927 20.6066 45.0927 20.6645C45.0927 20.7225 45.0689 20.77 45.0399 20.77C45.0108 20.77 44.9871 20.8411 44.9871 20.9281C44.9871 21.0151 44.9633 21.0863 44.9343 21.0863C44.9052 21.0863 44.8815 21.1337 44.8815 21.1917C44.8815 21.2497 44.8577 21.2971 44.8287 21.2971C44.7996 21.2971 44.7759 21.3446 44.7759 21.4026C44.7759 21.4605 44.7623 21.508 44.7457 21.508C44.6837 21.508 44.5647 21.3544 44.5647 21.2745C44.5647 21.229 44.5409 21.1917 44.5119 21.1917C44.4828 21.1917 44.4591 21.1442 44.4591 21.0863C44.4591 21.0283 44.4353 20.9808 44.4062 20.9808C44.3772 20.9808 44.3534 20.9334 44.3534 20.8754C44.3534 20.8174 44.3297 20.77 44.3006 20.77C44.2716 20.77 44.2478 20.6988 44.2478 20.6118C44.2478 20.5248 44.2241 20.4537 44.195 20.4537C44.166 20.4537 44.1422 20.4062 44.1422 20.3482C44.1422 20.2903 44.1185 20.2428 44.0894 20.2428C44.0604 20.2428 44.0366 20.1954 44.0366 20.1374C44.0366 20.0794 44.0129 20.0319 43.9838 20.0319C43.9548 20.0319 43.931 19.9608 43.931 19.8738C43.931 19.7868 43.9073 19.7157 43.8782 19.7157C43.8492 19.7157 43.8254 19.6682 43.8254 19.6102C43.8254 19.5522 43.8017 19.5048 43.7726 19.5048C43.7436 19.5048 43.7198 19.4573 43.7198 19.3994C43.7198 19.3414 43.6961 19.2939 43.667 19.2939C43.638 19.2939 43.6142 19.2465 43.6142 19.1885C43.6142 19.1305 43.5905 19.0831 43.5614 19.0831C43.5324 19.0831 43.5086 19.0119 43.5086 18.9249C43.5086 18.8379 43.4849 18.7668 43.4558 18.7668C43.4268 18.7668 43.403 18.7193 43.403 18.6613C43.403 18.6034 43.3793 18.5559 43.3502 18.5559C43.3212 18.5559 43.2974 18.5085 43.2974 18.4505C43.2974 18.3925 43.2737 18.345 43.2446 18.345C43.2156 18.345 43.1918 18.2976 43.1918 18.2396C43.1918 18.1816 43.168 18.1342 43.139 18.1342C43.11 18.1342 43.0862 18.063 43.0862 17.976C43.0862 17.8891 43.0624 17.8179 43.0334 17.8179C43.0044 17.8179 42.9806 17.7704 42.9806 17.7125C42.9806 17.6545 42.9568 17.607 42.9278 17.607C42.8988 17.607 42.875 17.5596 42.875 17.5016C42.875 17.4436 42.8512 17.3962 42.8222 17.3962C42.7932 17.3962 42.7694 17.325 42.7694 17.238C42.7694 17.151 42.7456 17.0799 42.7166 17.0799C42.6876 17.0799 42.6638 17.0324 42.6638 16.9744C42.6638 16.9165 42.64 16.869 42.611 16.869C42.582 16.869 42.5582 16.8216 42.5582 16.7636C42.5582 16.7056 42.5344 16.6581 42.5054 16.6581C42.4763 16.6581 42.4526 16.6107 42.4526 16.5527C42.4526 16.4947 42.4288 16.4473 42.3998 16.4473C42.3707 16.4473 42.347 16.3761 42.347 16.2891C42.347 16.2022 42.3232 16.131 42.2942 16.131C42.2651 16.131 42.2414 16.0835 42.2414 16.0256C42.2414 15.9676 42.2176 15.9201 42.1886 15.9201C42.1595 15.9201 42.1358 15.8727 42.1358 15.8147C42.1358 15.7567 42.112 15.7093 42.083 15.7093C42.0539 15.7093 42.0302 15.6381 42.0302 15.5511C42.0302 15.4641 42.0064 15.393 41.9774 15.393C41.9483 15.393 41.9246 15.3455 41.9246 15.2875C41.9246 15.2296 41.9008 15.1821 41.8718 15.1821C41.8427 15.1821 41.819 15.1347 41.819 15.0767C41.819 15.0187 41.7952 14.9712 41.7662 14.9712C41.7371 14.9712 41.7134 14.9238 41.7134 14.8658C41.7134 14.8078 41.6896 14.7604 41.6606 14.7604C41.6315 14.7604 41.6078 14.6892 41.6078 14.6022C41.6078 14.5153 41.584 14.4441 41.555 14.4441C41.5259 14.4441 41.5022 14.3966 41.5022 14.3387C41.5022 14.2807 41.4784 14.2332 41.4494 14.2332C41.4203 14.2332 41.3966 14.1858 41.3966 14.1278C41.3966 14.0698 41.3728 14.0224 41.3438 14.0224C41.3147 14.0224 41.2909 13.9749 41.2909 13.9169C41.2909 13.8589 41.2672 13.8115 41.2381 13.8115C41.2091 13.8115 41.1853 13.7403 41.1853 13.6534C41.1853 13.5664 41.1616 13.4952 41.1325 13.4952C41.1035 13.4952 41.0797 13.4478 41.0797 13.3898C41.0797 13.3318 41.056 13.2843 41.0269 13.2843C40.9979 13.2843 40.9741 13.2369 40.9741 13.1789C40.9741 13.1209 40.9504 13.0735 40.9213 13.0735C40.8923 13.0735 40.8685 13.0023 40.8685 12.9153C40.8685 12.8284 40.8448 12.7572 40.8157 12.7572C40.7867 12.7572 40.7629 12.7097 40.7629 12.6518C40.7629 12.5938 40.7392 12.5463 40.7101 12.5463C40.6811 12.5463 40.6573 12.4989 40.6573 12.4409C40.6573 12.3829 40.6336 12.3355 40.6045 12.3355C40.5755 12.3355 40.5517 12.288 40.5517 12.23C40.5517 12.172 40.528 12.1246 40.4989 12.1246C40.4699 12.1246 40.4461 12.0534 40.4461 11.9665C40.4461 11.8795 40.4224 11.8083 40.3933 11.8083C40.3643 11.8083 40.3405 11.7609 40.3405 11.7029C40.3405 11.6449 40.3168 11.5974 40.2877 11.5974C40.2587 11.5974 40.2349 11.55 40.2349 11.492C40.2349 11.434 40.2112 11.3866 40.1821 11.3866C40.1531 11.3866 40.1293 11.3391 40.1293 11.2811C40.1293 11.2232 40.1055 11.1757 40.0765 11.1757C40.0475 11.1757 40.0237 11.1046 40.0237 11.0176C40.0237 10.9306 39.9999 10.8594 39.9709 10.8594C39.9419 10.8594 39.9181 10.812 39.9181 10.754C39.9181 10.696 39.8943 10.6486 39.8653 10.6486C39.8363 10.6486 39.8125 10.6011 39.8125 10.5431C39.8125 10.4851 39.7887 10.4377 39.7597 10.4377C39.7307 10.4377 39.7069 10.3665 39.7069 10.2796C39.7069 10.1926 39.6831 10.1214 39.6541 10.1214C39.6251 10.1214 39.6013 10.074 39.6013 10.016C39.6013 9.95799 39.5775 9.91054 39.5485 9.91054C39.5195 9.91054 39.4957 9.8631 39.4957 9.80511C39.4957 9.74712 39.4719 9.69968 39.4429 9.69968C39.4138 9.69968 39.3901 9.65224 39.3901 9.59425C39.3901 9.53626 39.3663 9.48882 39.3373 9.48882C39.3082 9.48882 39.2845 9.41765 39.2845 9.33067C39.2845 9.24369 39.2607 9.17252 39.2317 9.17252C39.2026 9.17252 39.1789 9.12508 39.1789 9.06709C39.1789 9.00911 39.1551 8.96166 39.1261 8.96166C39.097 8.96166 39.0733 8.91422 39.0733 8.85623C39.0733 8.79824 39.0495 8.7508 39.0205 8.7508C38.9914 8.7508 38.9677 8.67963 38.9677 8.59265C38.9677 8.50567 38.9439 8.4345 38.9149 8.4345C38.8858 8.4345 38.8621 8.38706 38.8621 8.32907C38.8621 8.27109 38.8383 8.22364 38.8093 8.22364C38.7802 8.22364 38.7565 8.1762 38.7565 8.11821C38.7565 8.06022 38.7327 8.01278 38.7037 8.01278C38.6746 8.01278 38.6509 7.96534 38.6509 7.90735C38.6509 7.84936 38.6271 7.80192 38.5981 7.80192C38.569 7.80192 38.5453 7.73075 38.5453 7.64377C38.5453 7.55679 38.5215 7.48562 38.4925 7.48562C38.4634 7.48562 38.4397 7.43818 38.4397 7.38019C38.4397 7.3222 38.4159 7.27476 38.3869 7.27476C38.3578 7.27476 38.3341 7.22732 38.3341 7.16933C38.3341 7.11134 38.3103 7.0639 38.2812 7.0639C38.2522 7.0639 38.2284 7.01645 38.2284 6.95847C38.2284 6.90048 38.2047 6.85303 38.1756 6.85303C38.1466 6.85303 38.1228 6.78187 38.1228 6.69489C38.1228 6.60791 38.0991 6.53674 38.07 6.53674C38.041 6.53674 38.0172 6.4893 38.0172 6.43131C38.0172 6.37332 37.9935 6.32588 37.9644 6.32588C37.9354 6.32588 37.9116 6.27843 37.9116 6.22045C37.9116 6.16246 37.8879 6.11502 37.8588 6.11502C37.8298 6.11502 37.806 6.04385 37.806 5.95687C37.806 5.86989 37.7823 5.79872 37.7532 5.79872C37.7242 5.79872 37.7004 5.75128 37.7004 5.69329C37.7004 5.6353 37.6767 5.58786 37.6476 5.58786C37.6186 5.58786 37.5948 5.54042 37.5948 5.48243C37.5948 5.42444 37.5711 5.377 37.542 5.377C37.513 5.377 37.4892 5.32955 37.4892 5.27157C37.4892 5.21358 37.4655 5.16613 37.4364 5.16613C37.4074 5.16613 37.3836 5.09497 37.3836 5.00799C37.3836 4.92101 37.3599 4.84984 37.3308 4.84984C37.3018 4.84984 37.278 4.8024 37.278 4.74441C37.278 4.68642 37.2543 4.63898 37.2252 4.63898C37.1962 4.63898 37.1724 4.59153 37.1724 4.53355C37.1724 4.47556 37.1487 4.42811 37.1196 4.42811C37.0906 4.42811 37.0668 4.35695 37.0668 4.26997C37.0668 4.18299 37.043 4.11182 37.014 4.11182C36.985 4.11182 36.9612 4.06438 36.9612 4.00639C36.9612 3.9484 36.9374 3.90096 36.9084 3.90096C36.8794 3.90096 36.8556 3.85351 36.8556 3.79553C36.8556 3.73754 36.8318 3.6901 36.8028 3.6901C36.7738 3.6901 36.75 3.64265 36.75 3.58466C36.75 3.52668 36.7262 3.47923 36.6972 3.47923C36.6682 3.47923 36.6444 3.40807 36.6444 3.32109C36.6444 3.23411 36.6206 3.16294 36.5916 3.16294C36.5626 3.16294 36.5388 3.1155 36.5388 3.05751C36.5388 2.99952 36.515 2.95208 36.486 2.95208C36.457 2.95208 36.4332 2.90463 36.4332 2.84665C36.4332 2.78866 36.4094 2.74121 36.3804 2.74121C36.3513 2.74121 36.3276 2.69377 36.3276 2.63578C36.3276 2.5778 36.3038 2.53035 36.2748 2.53035C36.2457 2.53035 36.222 2.45919 36.222 2.3722C36.222 2.28522 36.1982 2.21406 36.1692 2.21406C36.1401 2.21406 36.1164 2.16661 36.1164 2.10863C36.1164 2.05064 36.0926 2.00319 36.0636 2.00319C36.0345 2.00319 36.0108 1.95575 36.0108 1.89776C36.0108 1.83978 35.987 1.79233 35.958 1.79233C35.9289 1.79233 35.9052 1.72117 35.9052 1.63419C35.9052 1.5472 35.8814 1.47604 35.8524 1.47604C35.8233 1.47604 35.7996 1.42859 35.7996 1.37061C35.7996 1.31262 35.7758 1.26518 35.7468 1.26518C35.7177 1.26518 35.694 1.21773 35.694 1.15974C35.694 1.10176 35.6702 1.05431 35.6412 1.05431C35.6121 1.05431 35.5884 1.00687 35.5884 0.948882C35.5884 0.890895 35.5646 0.84345 35.5356 0.84345C35.5065 0.84345 35.4828 0.782459 35.4828 0.707919C35.4828 0.406332 35.7534 0.421725 30.4439 0.421725H25.556V2.53035ZM83.9547 4.58626C83.9547 4.61847 84.2012 4.63898 84.5884 4.63898C84.9756 4.63898 85.222 4.65948 85.222 4.69169C85.222 4.72069 85.3408 4.74441 85.486 4.74441C85.6312 4.74441 85.75 4.76813 85.75 4.79712C85.75 4.82612 85.845 4.84984 85.9612 4.84984C86.0774 4.84984 86.1724 4.87356 86.1724 4.90256C86.1724 4.93155 86.2437 4.95527 86.3308 4.95527C86.4179 4.95527 86.4892 4.97899 86.4892 5.00799C86.4892 5.03698 86.5605 5.0607 86.6476 5.0607C86.7348 5.0607 86.806 5.08442 86.806 5.11342C86.806 5.14241 86.8773 5.16613 86.9644 5.16613C87.0516 5.16613 87.1228 5.18986 87.1228 5.21885C87.1228 5.24784 87.1704 5.27157 87.2284 5.27157C87.2865 5.27157 87.3341 5.29529 87.3341 5.32428C87.3341 5.35327 87.3816 5.377 87.4397 5.377C87.4977 5.377 87.5453 5.40072 87.5453 5.42971C87.5453 5.45871 87.5876 5.48243 87.6392 5.48243C87.6909 5.48243 87.7674 5.52987 87.8093 5.58786C87.8511 5.64585 87.9224 5.69329 87.9677 5.69329C88.0129 5.69329 88.0842 5.74074 88.1261 5.79872C88.168 5.85671 88.2328 5.90415 88.2703 5.90415C88.3591 5.90415 89.6573 7.20027 89.6573 7.28894C89.6573 7.32632 89.7048 7.3911 89.7629 7.43291C89.821 7.47471 89.8685 7.54588 89.8685 7.59105C89.8685 7.63623 89.9161 7.7074 89.9741 7.7492C90.0322 7.791 90.0797 7.86739 90.0797 7.919C90.0797 7.97055 90.1035 8.01278 90.1325 8.01278C90.1616 8.01278 90.1853 8.06022 90.1853 8.11821C90.1853 8.1762 90.2091 8.22364 90.2381 8.22364C90.2672 8.22364 90.2909 8.27109 90.2909 8.32907C90.2909 8.38706 90.3147 8.4345 90.3438 8.4345C90.3728 8.4345 90.3966 8.48195 90.3966 8.53994C90.3966 8.59792 90.4203 8.64537 90.4494 8.64537C90.4784 8.64537 90.5022 8.71653 90.5022 8.80351C90.5022 8.8905 90.5259 8.96166 90.555 8.96166C90.584 8.96166 90.6078 9.03283 90.6078 9.11981C90.6078 9.20679 90.6315 9.27796 90.6606 9.27796C90.6896 9.27796 90.7134 9.3254 90.7134 9.38339C90.7134 9.44137 90.7371 9.48882 90.7662 9.48882C90.7952 9.48882 90.819 9.58371 90.819 9.69968C90.819 9.81565 90.8427 9.91054 90.8718 9.91054C90.9008 9.91054 90.9246 10.0054 90.9246 10.1214C90.9246 10.2374 90.9483 10.3323 90.9774 10.3323C91.0064 10.3323 91.0302 10.4272 91.0302 10.5431C91.0302 10.6591 91.0539 10.754 91.083 10.754C91.1123 10.754 91.1358 10.8946 91.1358 11.0703C91.1358 11.246 91.1592 11.3866 91.1886 11.3866C91.2203 11.3866 91.2414 11.5974 91.2414 11.9137C91.2414 12.23 91.2625 12.4409 91.2942 12.4409C91.328 12.4409 91.347 12.9153 91.347 13.7588C91.347 14.6022 91.328 15.0767 91.2942 15.0767C91.2622 15.0767 91.2414 15.3051 91.2414 15.6565C91.2414 16.008 91.2206 16.2364 91.1886 16.2364C91.1578 16.2364 91.1358 16.4121 91.1358 16.6581C91.1358 16.9042 91.1138 17.0799 91.083 17.0799C91.0528 17.0799 91.0302 17.238 91.0302 17.4489C91.0302 17.6597 91.0075 17.8179 90.9774 17.8179C90.9483 17.8179 90.9246 17.9365 90.9246 18.0815C90.9246 18.2264 90.9008 18.345 90.8718 18.345C90.8427 18.345 90.819 18.4399 90.819 18.5559C90.819 18.6719 90.7952 18.7668 90.7662 18.7668C90.7371 18.7668 90.7134 18.8854 90.7134 19.0304C90.7134 19.1753 90.6896 19.2939 90.6606 19.2939C90.6315 19.2939 90.6078 19.3651 90.6078 19.4521C90.6078 19.5391 90.584 19.6102 90.555 19.6102C90.5259 19.6102 90.5022 19.7051 90.5022 19.8211C90.5022 19.9371 90.4784 20.0319 90.4494 20.0319C90.4203 20.0319 90.3966 20.1031 90.3966 20.1901C90.3966 20.2771 90.3728 20.3482 90.3438 20.3482C90.3147 20.3482 90.2909 20.4194 90.2909 20.5064C90.2909 20.5934 90.2672 20.6645 90.2381 20.6645C90.2091 20.6645 90.1853 20.712 90.1853 20.77C90.1853 20.828 90.1616 20.8754 90.1325 20.8754C90.1035 20.8754 90.0797 20.9466 90.0797 21.0335C90.0797 21.1205 90.056 21.1917 90.0269 21.1917C89.9979 21.1917 89.9741 21.2629 89.9741 21.3498C89.9741 21.4368 89.9504 21.508 89.9213 21.508C89.8923 21.508 89.8685 21.5554 89.8685 21.6134C89.8685 21.6714 89.8448 21.7188 89.8157 21.7188C89.7867 21.7188 89.7629 21.7663 89.7629 21.8243C89.7629 21.8823 89.7392 21.9297 89.7101 21.9297C89.6811 21.9297 89.6573 21.9772 89.6573 22.0351C89.6573 22.0931 89.6336 22.1406 89.6045 22.1406C89.5755 22.1406 89.5517 22.188 89.5517 22.246C89.5517 22.304 89.528 22.3514 89.4989 22.3514C89.4699 22.3514 89.4461 22.3989 89.4461 22.4569C89.4461 22.5149 89.4224 22.5623 89.3933 22.5623C89.3643 22.5623 89.3405 22.6097 89.3405 22.6677C89.3405 22.7257 89.3168 22.7732 89.2877 22.7732C89.2587 22.7732 89.2349 22.8206 89.2349 22.8786C89.2349 22.9366 89.2112 22.984 89.1821 22.984C89.1531 22.984 89.1293 23.0263 89.1293 23.0778C89.1293 23.1294 89.0818 23.2058 89.0237 23.2476C88.9656 23.2894 88.9181 23.3606 88.9181 23.4058C88.9181 23.4509 88.8706 23.5221 88.8125 23.5639C88.7544 23.6057 88.7069 23.6769 88.7069 23.722C88.7069 23.7672 88.6594 23.8384 88.6013 23.8802C88.5432 23.922 88.4957 23.9932 88.4957 24.0383C88.4957 24.0835 88.4482 24.1547 88.3901 24.1965C88.332 24.2383 88.2845 24.3047 88.2845 24.344C88.2845 24.3834 88.1894 24.5068 88.0733 24.6182C87.9571 24.7297 87.8621 24.8466 87.8621 24.8782C87.8621 24.9532 86.6663 26.147 86.5912 26.147C86.5596 26.147 86.4424 26.2419 86.3308 26.3578C86.2192 26.4738 86.0956 26.5687 86.0562 26.5687C86.0168 26.5687 85.9503 26.6161 85.9084 26.6741C85.8665 26.7321 85.7952 26.7796 85.75 26.7796C85.7048 26.7796 85.6335 26.827 85.5916 26.885C85.5497 26.943 85.4784 26.9904 85.4332 26.9904C85.3879 26.9904 85.3167 27.0379 85.2748 27.0958C85.2329 27.1538 85.1564 27.2013 85.1047 27.2013C85.0531 27.2013 85.0108 27.225 85.0108 27.254C85.0108 27.283 84.9633 27.3067 84.9052 27.3067C84.8471 27.3067 84.7996 27.3304 84.7996 27.3594C84.7996 27.3884 84.752 27.4121 84.694 27.4121C84.6359 27.4121 84.5884 27.4359 84.5884 27.4649C84.5884 27.4939 84.5408 27.5176 84.4828 27.5176C84.4247 27.5176 84.3772 27.5413 84.3772 27.5703C84.3772 27.5993 84.3296 27.623 84.2716 27.623C84.2135 27.623 84.1659 27.6467 84.1659 27.6757C84.1659 27.7047 84.1184 27.7284 84.0603 27.7284C84.0023 27.7284 83.9547 27.7522 83.9547 27.7812C83.9547 27.8101 83.8835 27.8339 83.7963 27.8339C83.7092 27.8339 83.6379 27.8576 83.6379 27.8866C83.6379 27.9156 83.5667 27.9393 83.4795 27.9393C83.3924 27.9393 83.3211 27.963 83.3211 27.992C83.3211 28.021 83.2498 28.0447 83.1627 28.0447C83.0756 28.0447 83.0043 28.0685 83.0043 28.0974C83.0043 28.1264 82.9093 28.1502 82.7931 28.1502C82.6769 28.1502 82.5819 28.1739 82.5819 28.2029C82.5819 28.2319 82.4869 28.2556 82.3707 28.2556C82.2545 28.2556 82.1595 28.2793 82.1595 28.3083C82.1595 28.3376 82.0187 28.361 81.8427 28.361C81.6667 28.361 81.5259 28.3844 81.5259 28.4137C81.5259 28.4474 81.0859 28.4665 80.3114 28.4665C79.537 28.4665 79.097 28.4474 79.097 28.4137C79.097 28.3844 78.9562 28.361 78.7802 28.361C78.6042 28.361 78.4634 28.3376 78.4634 28.3083C78.4634 28.2793 78.3446 28.2556 78.1994 28.2556C78.0541 28.2556 77.9353 28.2319 77.9353 28.2029C77.9353 28.1739 77.8641 28.1502 77.7769 28.1502C77.6898 28.1502 77.6185 28.1264 77.6185 28.0974C77.6185 28.0685 77.5473 28.0447 77.4601 28.0447C77.373 28.0447 77.3017 28.021 77.3017 27.992C77.3017 27.963 77.2304 27.9393 77.1433 27.9393C77.0562 27.9393 76.9849 27.9156 76.9849 27.8866C76.9849 27.8576 76.9374 27.8339 76.8793 27.8339C76.8212 27.8339 76.7737 27.8101 76.7737 27.7812C76.7737 27.7522 76.7262 27.7284 76.6681 27.7284C76.61 27.7284 76.5625 27.7047 76.5625 27.6757C76.5625 27.6467 76.515 27.623 76.4569 27.623C76.3988 27.623 76.3513 27.5993 76.3513 27.5703C76.3513 27.5413 76.3038 27.5176 76.2457 27.5176C76.1876 27.5176 76.1401 27.4939 76.1401 27.4649C76.1401 27.4359 76.0978 27.4121 76.0462 27.4121C75.9945 27.4121 75.918 27.3647 75.8761 27.3067C75.8342 27.2487 75.7677 27.2013 75.7283 27.2013C75.6888 27.2013 75.5653 27.1064 75.4537 26.9904C75.342 26.8744 75.2247 26.7796 75.1928 26.7796C75.1166 26.7796 74.4504 26.1134 74.4504 26.0373C74.4504 26.0049 74.3792 25.9119 74.292 25.8307C74.2049 25.7494 74.1336 25.6502 74.1336 25.6103C74.1336 25.5704 74.0861 25.5035 74.028 25.4617C73.9699 25.4199 73.9224 25.3487 73.9224 25.3035C73.9224 25.2583 73.8749 25.1872 73.8168 25.1454C73.7587 25.1036 73.7112 25.0272 73.7112 24.9756C73.7112 24.924 73.6874 24.8818 73.6584 24.8818C73.6294 24.8818 73.6056 24.8343 73.6056 24.7764C73.6056 24.7184 73.5818 24.6709 73.5528 24.6709C73.5238 24.6709 73.5 24.6235 73.5 24.5655C73.5 24.5075 73.4762 24.4601 73.4472 24.4601C73.4182 24.4601 73.3944 24.4126 73.3944 24.3546C73.3944 24.2966 73.3706 24.2492 73.3416 24.2492C73.3126 24.2492 73.2888 24.178 73.2888 24.0911C73.2888 24.0041 73.265 23.9329 73.236 23.9329C73.2069 23.9329 73.1832 23.8855 73.1832 23.8275C73.1832 23.7695 73.1594 23.722 73.1304 23.722C73.1013 23.722 73.0776 23.6509 73.0776 23.5639C73.0776 23.4769 73.0538 23.4058 73.0248 23.4058C72.9957 23.4058 72.972 23.3109 72.972 23.1949C72.972 23.0789 72.9482 22.984 72.9192 22.984C72.8901 22.984 72.8664 22.8891 72.8664 22.7732C72.8664 22.6572 72.8426 22.5623 72.8136 22.5623C72.7845 22.5623 72.7608 22.4437 72.7608 22.2987C72.7608 22.1538 72.737 22.0351 72.708 22.0351C72.6778 22.0351 72.6552 21.877 72.6552 21.6661C72.6552 21.4553 72.6325 21.2971 72.6024 21.2971C72.5683 21.2971 72.5496 20.7173 72.5496 19.6629C72.5496 18.6086 72.5683 18.0288 72.6024 18.0288C72.6337 18.0288 72.6552 17.8354 72.6552 17.5543C72.6552 17.2732 72.6767 17.0799 72.708 17.0799C72.7381 17.0799 72.7608 16.9217 72.7608 16.7109C72.7608 16.5 72.7834 16.3419 72.8136 16.3419C72.8426 16.3419 72.8664 16.2232 72.8664 16.0783C72.8664 15.9333 72.8901 15.8147 72.9192 15.8147C72.9482 15.8147 72.972 15.6961 72.972 15.5511C72.972 15.4061 72.9957 15.2875 73.0248 15.2875C73.0538 15.2875 73.0776 15.1689 73.0776 15.024C73.0776 14.879 73.1013 14.7604 73.1304 14.7604C73.1594 14.7604 73.1832 14.6655 73.1832 14.5495C73.1832 14.4335 73.2069 14.3387 73.236 14.3387C73.265 14.3387 73.2888 14.2438 73.2888 14.1278C73.2888 14.0118 73.3126 13.9169 73.3416 13.9169C73.3706 13.9169 73.3944 13.822 73.3944 13.7061C73.3944 13.5901 73.4182 13.4952 73.4472 13.4952C73.4762 13.4952 73.5 13.424 73.5 13.3371C73.5 13.2501 73.5238 13.1789 73.5528 13.1789C73.5818 13.1789 73.6056 13.1077 73.6056 13.0208C73.6056 12.9338 73.6294 12.8626 73.6584 12.8626C73.6874 12.8626 73.7112 12.7915 73.7112 12.7045C73.7112 12.6175 73.735 12.5463 73.764 12.5463C73.7931 12.5463 73.8168 12.4752 73.8168 12.3882C73.8168 12.3012 73.8406 12.23 73.8696 12.23C73.8987 12.23 73.9224 12.1589 73.9224 12.0719C73.9224 11.9849 73.9462 11.9137 73.9752 11.9137C74.0043 11.9137 74.028 11.8663 74.028 11.8083C74.028 11.7503 74.0518 11.7029 74.0808 11.7029C74.1099 11.7029 74.1336 11.6317 74.1336 11.5447C74.1336 11.4577 74.1574 11.3866 74.1864 11.3866C74.2155 11.3866 74.2392 11.3391 74.2392 11.2811C74.2392 11.2232 74.263 11.1757 74.292 11.1757C74.3211 11.1757 74.3448 11.1283 74.3448 11.0703C74.3448 11.0123 74.3686 10.9649 74.3976 10.9649C74.4267 10.9649 74.4504 10.9174 74.4504 10.8594C74.4504 10.8014 74.4742 10.754 74.5032 10.754C74.5323 10.754 74.556 10.688 74.556 10.6075C74.556 10.5215 74.5996 10.4296 74.6616 10.385C74.7197 10.3432 74.7672 10.2668 74.7672 10.2152C74.7672 10.1636 74.791 10.1214 74.82 10.1214C74.8491 10.1214 74.8728 10.074 74.8728 10.016C74.8728 9.95799 74.8966 9.91054 74.9256 9.91054C74.9547 9.91054 74.9784 9.8631 74.9784 9.80511C74.9784 9.74712 75.0022 9.69968 75.0312 9.69968C75.0603 9.69968 75.0841 9.65746 75.0841 9.6059C75.0841 9.55429 75.1316 9.47791 75.1897 9.4361C75.2477 9.3943 75.2953 9.32313 75.2953 9.27796C75.2953 9.23278 75.3428 9.16161 75.4009 9.11981C75.4589 9.078 75.5065 9.00684 75.5065 8.96166C75.5065 8.91648 75.554 8.84532 75.6121 8.80351C75.6702 8.76171 75.7177 8.69481 75.7177 8.65486C75.7177 8.61495 75.789 8.51574 75.8761 8.4345C75.9632 8.35327 76.0345 8.26054 76.0345 8.22844C76.0345 8.15221 77.6526 6.53674 77.7289 6.53674C77.7611 6.53674 77.854 6.46558 77.9353 6.37859C78.0167 6.29161 78.1161 6.22045 78.1561 6.22045C78.1961 6.22045 78.2631 6.173 78.305 6.11502C78.3468 6.05703 78.4233 6.00958 78.475 6.00958C78.5267 6.00958 78.569 5.98586 78.569 5.95687C78.569 5.92788 78.6113 5.90415 78.6629 5.90415C78.7146 5.90415 78.7911 5.85671 78.833 5.79872C78.8748 5.74074 78.9514 5.69329 79.003 5.69329C79.0547 5.69329 79.097 5.66957 79.097 5.64057C79.097 5.61158 79.1445 5.58786 79.2026 5.58786C79.2607 5.58786 79.3082 5.56414 79.3082 5.53514C79.3082 5.50615 79.3557 5.48243 79.4138 5.48243C79.4719 5.48243 79.5194 5.45871 79.5194 5.42971C79.5194 5.40072 79.5907 5.377 79.6778 5.377C79.7649 5.377 79.8362 5.35327 79.8362 5.32428C79.8362 5.29529 79.8837 5.27157 79.9418 5.27157C79.9999 5.27157 80.0474 5.24784 80.0474 5.21885C80.0474 5.18986 80.1187 5.16613 80.2058 5.16613C80.2929 5.16613 80.3642 5.14241 80.3642 5.11342C80.3642 5.08442 80.4355 5.0607 80.5226 5.0607C80.6098 5.0607 80.681 5.03698 80.681 5.00799C80.681 4.97899 80.7761 4.95527 80.8922 4.95527C81.0084 4.95527 81.1034 4.93155 81.1034 4.90256C81.1034 4.87356 81.1985 4.84984 81.3147 4.84984C81.4308 4.84984 81.5259 4.82612 81.5259 4.79712C81.5259 4.76781 81.6667 4.74441 81.8427 4.74441C82.0187 4.74441 82.1595 4.721 82.1595 4.69169C82.1595 4.65975 82.3883 4.63898 82.7403 4.63898C83.0923 4.63898 83.3211 4.61821 83.3211 4.58626C83.3211 4.55695 83.4619 4.53355 83.6379 4.53355C83.8139 4.53355 83.9547 4.55695 83.9547 4.58626Z" fill="white"/>
</svg>
