<svg width="176" height="40" viewBox="0 0 176 40" fill="none" xmlns="http://www.w3.org/2000/svg">
<path d="M5.13068 0.727295V16H0.984375V0.727295H5.13068Z" fill="white"/>
<path d="M10.402 0.727295V16H6.2557V0.727295H10.402Z" fill="white"/>
<path d="M15.7032 0.727295L18.8353 11.4958H18.9546L22.0867 0.727295H26.7699L21.7287 16H16.0611L11.0199 0.727295H15.7032Z" fill="white"/>
<path d="M0.984375 24.5185H6.14489L9.6946 33.169H9.87358L13.4233 24.5185H18.5838V39.7912H14.527V30.9617H14.4077L11.0071 39.6719H8.56108L5.16051 30.902H5.04119V39.7912H0.984375V24.5185Z" fill="white"/>
<path d="M19.7685 39.7912V28.3367H23.885V39.7912H19.7685ZM21.8267 27.1435C21.2699 27.1435 20.7926 26.9595 20.3949 26.5916C19.9972 26.2237 19.7983 25.7813 19.7983 25.2642C19.7983 24.7472 19.9972 24.3047 20.3949 23.9368C20.7926 23.5689 21.2699 23.3849 21.8267 23.3849C22.3885 23.3849 22.8658 23.5689 23.2585 23.9368C23.6563 24.3047 23.8551 24.7472 23.8551 25.2642C23.8551 25.7813 23.6563 26.2237 23.2585 26.5916C22.8658 26.9595 22.3885 27.1435 21.8267 27.1435Z" fill="white"/>
<path d="M25.1424 39.7912V24.5185H29.2588V32.1847H29.408L32.1821 28.3367H36.8057L32.913 33.3555L36.925 39.7912H32.212L29.8778 35.7567L29.2588 36.5398V39.7912H25.1424Z" fill="white"/>
<path d="M37.0377 39.7912V28.3367H41.0349V30.5142H41.1542C41.368 29.7088 41.7011 29.1197 42.1535 28.7468C42.6059 28.3739 43.1378 28.1875 43.7494 28.1875C44.0476 28.1875 44.3385 28.2248 44.6219 28.2994C44.9053 28.3739 45.1613 28.4759 45.39 28.6051L44.1968 31.9759C44.0278 31.8963 43.8513 31.8267 43.6673 31.767C43.4834 31.7074 43.282 31.6776 43.0633 31.6776C42.5512 31.6776 42.1062 31.8739 41.7284 32.2667C41.3506 32.6545 41.1592 33.174 41.1542 33.8253V39.7912H37.0377Z" fill="white"/>
<path d="M50.6986 40C49.4557 40 48.3918 39.7539 47.5068 39.2617C46.6219 38.7646 45.9433 38.0735 45.471 37.1886C44.9987 36.2987 44.7625 35.267 44.7625 34.0938C44.7625 32.9205 44.9987 31.8913 45.471 31.0064C45.9433 30.1165 46.6219 29.4254 47.5068 28.9332C48.3918 28.4361 49.4557 28.1875 50.6986 28.1875C51.9415 28.1875 53.0054 28.4361 53.8904 28.9332C54.7753 29.4254 55.4539 30.1165 55.9262 31.0064C56.3985 31.8913 56.6347 32.9205 56.6347 34.0938C56.6347 35.267 56.3985 36.2987 55.9262 37.1886C55.4539 38.0735 54.7753 38.7646 53.8904 39.2617C53.0054 39.7539 51.9415 40 50.6986 40ZM50.7284 36.9574C51.2504 36.9574 51.6631 36.7014 51.9664 36.1893C52.2746 35.6722 52.4287 34.9638 52.4287 34.0639C52.4287 33.1641 52.2746 32.4581 51.9664 31.946C51.6631 31.429 51.2504 31.1705 50.7284 31.1705C50.1766 31.1705 49.744 31.429 49.4308 31.946C49.1226 32.4581 48.9685 33.1641 48.9685 34.0639C48.9685 34.9638 49.1226 35.6722 49.4308 36.1893C49.744 36.7014 50.1766 36.9574 50.7284 36.9574Z" fill="white"/>
<path d="M64.5049 28.3367V31.3196H62.4168V39.7912H58.3004V31.3196H56.8387V28.3367H58.3004V28.0085C58.3004 26.5916 58.6732 25.5376 59.419 24.8466C60.1647 24.1506 61.164 23.8026 62.4168 23.8026C62.9389 23.8026 63.4459 23.8423 63.9381 23.9219C64.4353 24.0014 64.8032 24.071 65.0418 24.1307L64.4452 27.0838C64.2961 27.0391 64.1221 27.0043 63.9232 26.9794C63.7244 26.9496 63.5504 26.9347 63.4012 26.9347C63.0134 26.9347 62.7524 27.0167 62.6182 27.1808C62.4839 27.3448 62.4168 27.5611 62.4168 27.8295V28.3367H64.5049Z" fill="white"/>
<path d="M65.2384 39.7912V28.3367H69.3549V39.7912H65.2384ZM67.2966 27.1435C66.7398 27.1435 66.2626 26.9595 65.8648 26.5916C65.4671 26.2237 65.2682 25.7813 65.2682 25.2642C65.2682 24.7472 65.4671 24.3047 65.8648 23.9368C66.2626 23.5689 66.7398 23.3849 67.2966 23.3849C67.8584 23.3849 68.3357 23.5689 68.7285 23.9368C69.1262 24.3047 69.3251 24.7472 69.3251 25.2642C69.3251 25.7813 69.1262 26.2237 68.7285 26.5916C68.3357 26.9595 67.8584 27.1435 67.2966 27.1435Z" fill="white"/>
<path d="M74.7288 33.348V39.7912H70.6123V28.3367H74.52V30.5142H74.6393C74.8878 29.7884 75.3253 29.2191 75.9518 28.8065C76.5832 28.3938 77.319 28.1875 78.1592 28.1875C78.9695 28.1875 79.673 28.3739 80.2696 28.7468C80.8712 29.1147 81.336 29.6218 81.6641 30.2681C81.9972 30.9144 82.1613 31.6527 82.1563 32.483V39.7912H78.0398V33.348C78.0448 32.7813 77.9006 32.3363 77.6073 32.0131C77.319 31.69 76.9163 31.5284 76.3992 31.5284C75.8871 31.5284 75.4819 31.69 75.1837 32.0131C74.8854 32.3363 74.7337 32.7813 74.7288 33.348Z" fill="white"/>
<path d="M86.5402 39.9702C85.4465 39.9702 84.5516 39.6992 83.8556 39.1573C83.1595 38.6104 82.8115 37.7678 82.8115 36.6293C82.8115 35.7891 82.9979 35.1129 83.3708 34.6009C83.7437 34.0888 84.2483 33.706 84.8847 33.4524C85.521 33.1989 86.232 33.0447 87.0175 32.9901C87.982 32.9205 88.6656 32.8185 89.0683 32.6843C89.471 32.5451 89.6723 32.3089 89.6723 31.9759V31.946C89.6723 31.6477 89.558 31.419 89.3293 31.2599C89.1006 31.1009 88.8073 31.0213 88.4493 31.0213C88.0565 31.0213 87.7359 31.1083 87.4873 31.2823C87.2437 31.4514 87.097 31.7124 87.0473 32.0653H83.259C83.3087 31.3693 83.5299 30.728 83.9227 30.1413C84.3204 29.5497 84.8996 29.0774 85.6602 28.7244C86.4209 28.3665 87.3705 28.1875 88.509 28.1875C89.6027 28.1875 90.5423 28.354 91.3279 28.6871C92.1183 29.0202 92.7249 29.4702 93.1475 30.0369C93.575 30.6037 93.7888 31.2401 93.7888 31.946V39.7912H89.9408V38.1804H89.8513C89.5033 38.8217 89.0509 39.2816 88.494 39.56C87.9372 39.8335 87.2859 39.9702 86.5402 39.9702ZM87.8825 37.375C88.3499 37.375 88.77 37.2333 89.1428 36.9499C89.5157 36.6616 89.7021 36.2564 89.7021 35.7344V34.7798C89.2945 34.9489 88.7476 35.0881 88.0615 35.1974C87.5842 35.272 87.2362 35.4162 87.0175 35.63C86.7987 35.8438 86.6894 36.0973 86.6894 36.3906C86.6894 36.7088 86.8012 36.9524 87.0249 37.1215C87.2487 37.2905 87.5345 37.375 87.8825 37.375Z" fill="white"/>
<path d="M99.0322 33.348V39.7912H94.9157V28.3367H98.8233V30.5142H98.9427C99.1912 29.7884 99.6287 29.2191 100.255 28.8065C100.887 28.3938 101.622 28.1875 102.463 28.1875C103.273 28.1875 103.976 28.3739 104.573 28.7468C105.175 29.1147 105.639 29.6218 105.968 30.2681C106.301 30.9144 106.465 31.6527 106.46 32.483V39.7912H102.343V33.348C102.348 32.7813 102.204 32.3363 101.911 32.0131C101.622 31.69 101.22 31.5284 100.703 31.5284C100.191 31.5284 99.7853 31.69 99.4871 32.0131C99.1888 32.3363 99.0371 32.7813 99.0322 33.348Z" fill="white"/>
<path d="M107.771 39.7912V37.5242L112.783 31.5284V31.4688H107.95V28.3367H117.645V30.8423L113.081 36.5994V36.6591H117.824V39.7912H107.771Z" fill="white"/>
<path d="M126.3 28.3367V31.3196H124.212V39.7912H120.095V31.3196H118.634V28.3367H120.095V28.0085C120.095 26.5916 120.468 25.5376 121.214 24.8466C121.96 24.1506 122.959 23.8026 124.212 23.8026C124.734 23.8026 125.241 23.8423 125.733 23.9219C126.23 24.0014 126.598 24.071 126.837 24.1307L126.24 27.0838C126.091 27.0391 125.917 27.0043 125.718 26.9794C125.519 26.9496 125.345 26.9347 125.196 26.9347C124.808 26.9347 124.547 27.0167 124.413 27.1808C124.279 27.3448 124.212 27.5611 124.212 27.8295V28.3367H126.3Z" fill="white"/>
<path d="M132.203 40C130.96 40 129.896 39.7539 129.011 39.2617C128.127 38.7646 127.448 38.0735 126.976 37.1886C126.503 36.2987 126.267 35.267 126.267 34.0938C126.267 32.9205 126.503 31.8913 126.976 31.0064C127.448 30.1165 128.127 29.4254 129.011 28.9332C129.896 28.4361 130.96 28.1875 132.203 28.1875C133.446 28.1875 134.51 28.4361 135.395 28.9332C136.28 29.4254 136.959 30.1165 137.431 31.0064C137.903 31.8913 138.139 32.9205 138.139 34.0938C138.139 35.267 137.903 36.2987 137.431 37.1886C136.959 38.0735 136.28 38.7646 135.395 39.2617C134.51 39.7539 133.446 40 132.203 40ZM132.233 36.9574C132.755 36.9574 133.168 36.7014 133.471 36.1893C133.779 35.6722 133.933 34.9638 133.933 34.0639C133.933 33.1641 133.779 32.4581 133.471 31.946C133.168 31.429 132.755 31.1705 132.233 31.1705C131.681 31.1705 131.249 31.429 130.935 31.946C130.627 32.4581 130.473 33.1641 130.473 34.0639C130.473 34.9638 130.627 35.6722 130.935 36.1893C131.249 36.7014 131.681 36.9574 132.233 36.9574Z" fill="white"/>
<path d="M143.086 33.348V39.7912H138.97V28.3367H142.877V30.5142H142.997C143.245 29.7884 143.683 29.2191 144.309 28.8065C144.941 28.3938 145.676 28.1875 146.517 28.1875C147.327 28.1875 148.03 28.3739 148.627 28.7468C149.229 29.1147 149.693 29.6218 150.022 30.2681C150.355 30.9144 150.519 31.6527 150.514 32.483V39.7912H146.397V33.348C146.402 32.7813 146.258 32.3363 145.965 32.0131C145.676 31.69 145.274 31.5284 144.757 31.5284C144.245 31.5284 143.839 31.69 143.541 32.0131C143.243 32.3363 143.091 32.7813 143.086 33.348Z" fill="white"/>
<path d="M155.852 39.9403C155.037 39.9403 154.286 39.7266 153.6 39.299C152.919 38.8715 152.372 38.2227 151.959 37.3526C151.552 36.4826 151.348 35.3864 151.348 34.0639C151.348 32.6818 151.562 31.5582 151.989 30.6932C152.422 29.8281 152.979 29.1942 153.66 28.7915C154.346 28.3889 155.067 28.1875 155.822 28.1875C156.673 28.1875 157.366 28.4013 157.903 28.8288C158.44 29.2514 158.82 29.7536 159.044 30.3352H159.104V24.5185H163.22V39.7912H159.133V37.9119H159.044C158.805 38.4936 158.415 38.9783 157.873 39.3661C157.331 39.7489 156.658 39.9403 155.852 39.9403ZM157.374 36.7784C157.94 36.7784 158.385 36.5348 158.708 36.0476C159.032 35.5604 159.193 34.8992 159.193 34.0639C159.193 33.2138 159.032 32.5501 158.708 32.0728C158.385 31.5906 157.94 31.3494 157.374 31.3494C156.807 31.3494 156.367 31.5906 156.054 32.0728C155.74 32.5501 155.584 33.2138 155.584 34.0639C155.584 34.9141 155.74 35.5803 156.054 36.0625C156.367 36.5398 156.807 36.7784 157.374 36.7784Z" fill="white"/>
<path d="M174.871 32.0653H171.083C171.053 31.7124 170.889 31.4364 170.591 31.2376C170.292 31.0337 169.939 30.9318 169.532 30.9318C169.179 30.9318 168.875 30.9965 168.622 31.1257C168.368 31.255 168.244 31.4389 168.249 31.6776C168.244 31.8466 168.316 32.0032 168.465 32.1474C168.619 32.2915 168.915 32.4034 169.353 32.483L171.679 32.9006C173.991 33.3182 175.155 34.3523 175.17 36.0028C175.165 36.8182 174.921 37.5266 174.439 38.1282C173.961 38.7248 173.308 39.1871 172.477 39.5153C171.652 39.8384 170.71 40 169.651 40C167.901 40 166.531 39.642 165.542 38.9261C164.558 38.2102 164.008 37.2656 163.894 36.0923H167.981C168.035 36.4553 168.214 36.7362 168.518 36.935C168.826 37.1289 169.214 37.2259 169.681 37.2259C170.059 37.2259 170.369 37.1612 170.613 37.032C170.862 36.9027 170.988 36.7188 170.993 36.4801C170.978 36.0824 170.541 35.804 169.681 35.6449L167.652 35.2869C165.311 34.8743 164.148 33.7507 164.162 31.9162C164.157 30.723 164.627 29.8033 165.572 29.157C166.516 28.5107 167.807 28.1875 169.442 28.1875C171.098 28.1875 172.403 28.5305 173.357 29.2166C174.317 29.9027 174.822 30.8523 174.871 32.0653Z" fill="white"/>
</svg>
