<svg width="22" height="22" viewBox="0 0 22 22" fill="none" xmlns="http://www.w3.org/2000/svg">
  <path fill-rule="evenodd" clip-rule="evenodd"
        d="M10.7637 15.9539H12.0788C12.0788 15.9539 12.476 15.9157 12.6788 15.7241C12.8654 15.5482 12.8595 15.2179 12.8595 15.2179C12.8595 15.2179 12.8338 13.6714 13.6527 13.4436C14.46 13.2193 15.4967 14.9383 16.5955 15.5993C17.4264 16.0995 18.0577 15.9898 18.0577 15.9898L20.9957 15.9539C20.9957 15.9539 22.5326 15.871 21.8039 14.8119C21.7442 14.7252 21.3795 14.0284 19.6195 12.5966C17.7773 11.098 18.024 11.3403 20.2431 8.74809C21.5945 7.16939 22.1348 6.20557 21.9661 5.79277C21.8051 5.3996 20.8111 5.50352 20.8111 5.50352L17.5031 5.52158C17.5031 5.52158 17.2579 5.49226 17.076 5.58754C16.8983 5.68099 16.7839 5.89878 16.7839 5.89878C16.7839 5.89878 16.2604 7.12044 15.5621 8.15938C14.0891 10.3517 13.5001 10.4674 13.2594 10.3312C12.6994 10.014 12.8392 9.05671 12.8392 8.37665C12.8392 6.25216 13.2068 5.36635 12.1233 5.13705C11.7637 5.06087 11.499 5.01061 10.5795 5.0025C9.39913 4.99177 8.4001 5.00564 7.83443 5.24856C7.45811 5.41007 7.16781 5.76999 7.34462 5.79067C7.56324 5.81633 8.05843 5.90768 8.32095 6.22101C8.65994 6.62518 8.64799 7.53298 8.64799 7.53298C8.64799 7.53298 8.84272 10.0339 8.19312 10.3446C7.74722 10.5577 7.13555 10.1226 5.82232 8.13373C5.14943 7.11494 4.6414 5.98883 4.6414 5.98883C4.6414 5.98883 4.54344 5.77837 4.36872 5.66581C4.15666 5.52943 3.86039 5.48598 3.86039 5.48598L0.716936 5.50404C0.716936 5.50404 0.245045 5.51556 0.0718194 5.69539C-0.0822918 5.85533 0.059574 6.1862 0.059574 6.1862C0.059574 6.1862 2.52058 11.2325 5.30712 13.7755C7.8622 16.1071 10.7637 15.9539 10.7637 15.9539Z"
        fill="currentColor"/>
</svg>
