<svg width="22" height="22" viewBox="0 0 22 22" fill="none" xmlns="http://www.w3.org/2000/svg">
  <path fill-rule="evenodd" clip-rule="evenodd"
        d="M18.1937 4.40341C19.0243 4.62538 19.6783 5.27956 19.9003 6.11009C20.3038 7.61558 20.3038 10.7565 20.3038 10.7565C20.3038 10.7565 20.3038 13.8976 19.9003 15.4031C19.6783 16.2335 19.0243 16.8877 18.1937 17.1097C16.6883 17.5132 10.6518 17.5132 10.6518 17.5132C10.6518 17.5132 4.61543 17.5132 3.10999 17.1097C2.2795 16.8877 1.62535 16.2335 1.40339 15.4031C1 13.8976 1 10.7565 1 10.7565C1 10.7565 1 7.61558 1.40339 6.11009C1.62535 5.27956 2.2795 4.62538 3.10999 4.40341C4.61543 4 10.6518 4 10.6518 4C10.6518 4 16.6883 4 18.1937 4.40341ZM13.7366 10.7558L8.72142 13.6512V7.86029L13.7366 10.7558Z"
        fill="currentColor"/>
</svg>
