<svg width="210" height="30" viewBox="0 0 210 30" fill="none" xmlns="http://www.w3.org/2000/svg">
  <path d="M174.743 7L163.725 28.9791H185.704L174.743 7Z" fill="#363C4E"/>
  <path
    d="M147.001 27.1709H151.012L148.978 24.3459L147.001 27.1709ZM160.844 28.9225H159.092V10.277L150.052 22.8768L153.385 27.5665L152.651 28.979H145.193L144.458 27.5665L147.792 22.8768L138.752 10.277V28.9225H137V7.56491L138.582 7.0564L148.865 21.4078L159.149 7.0564L160.731 7.56491V28.9225H160.844Z"
    fill="#363C4E"/>
  <path
    d="M190.224 11.4071C191.467 11.4071 192.428 10.3901 192.428 9.20356C192.428 7.96053 191.411 7 190.224 7C188.981 7 188.021 8.01703 188.021 9.20356C188.021 10.3901 188.981 11.4071 190.224 11.4071Z"
    fill="#363C4E"/>
  <path
    d="M207.796 24.5156C206.553 24.5156 205.593 25.5327 205.593 26.7192C205.593 27.9622 206.61 28.9227 207.796 28.9227C209.039 28.9227 210 27.9057 210 26.7192C210 25.4761 208.983 24.5156 207.796 24.5156Z"
    fill="#363C4E"/>
  <path
    d="M203.333 20.2212C202.09 20.2212 201.129 21.2382 201.129 22.4248C201.129 23.6678 202.146 24.6283 203.333 24.6283C204.576 24.6283 205.536 23.6113 205.536 22.4248C205.536 21.1817 204.519 20.2212 203.333 20.2212Z"
    fill="#363C4E"/>
  <path
    d="M194.632 15.7577C195.875 15.7577 196.835 14.7407 196.835 13.5541C196.835 12.3111 195.818 11.3506 194.632 11.3506C193.389 11.3506 192.428 12.3676 192.428 13.5541C192.371 14.7972 193.389 15.7577 194.632 15.7577Z"
    fill="#363C4E"/>
  <path
    d="M207.796 11.4071C209.039 11.4071 210 10.3901 210 9.20356C210 7.96053 208.983 7 207.796 7C206.553 7 205.593 8.01703 205.593 9.20356C205.536 10.3901 206.553 11.4071 207.796 11.4071Z"
    fill="#363C4E"/>
  <path
    d="M190.224 24.5156C188.981 24.5156 188.021 25.5327 188.021 26.7192C188.021 27.9622 189.038 28.9227 190.224 28.9227C191.467 28.9227 192.428 27.9057 192.428 26.7192C192.428 25.4761 191.467 24.5156 190.224 24.5156Z"
    fill="#363C4E"/>
  <path
    d="M198.982 15.7576C197.739 15.7576 196.779 16.7746 196.779 17.9611C196.779 19.2042 197.796 20.1647 198.982 20.1647C200.225 20.1647 201.186 19.1477 201.186 17.9611C201.242 16.7181 200.225 15.7576 198.982 15.7576Z"
    fill="#363C4E"/>
  <path
    d="M194.519 20.052C193.276 20.052 192.315 21.069 192.315 22.2556C192.315 23.4986 193.332 24.4591 194.519 24.4591C195.762 24.4591 196.722 23.4421 196.722 22.2556C196.779 21.0125 195.762 20.052 194.519 20.052Z"
    fill="#363C4E"/>
  <path
    d="M203.389 15.7577C204.632 15.7577 205.593 14.7407 205.593 13.5541C205.593 12.3111 204.576 11.3506 203.389 11.3506C202.146 11.3506 201.186 12.3676 201.186 13.5541C201.186 14.7972 202.146 15.7577 203.389 15.7577Z"
    fill="#363C4E"/>
  <path
    d="M112.819 18.9005C112.519 21.7504 111.169 24.1503 109.219 24.1503C107.269 24.1503 106.669 21.7504 106.969 18.9005C107.269 16.0507 108.619 13.6508 110.419 13.6508C112.369 13.6508 113.119 15.9007 112.819 18.9005ZM121.668 26.7001C122.118 25.6502 119.418 27.0001 120.168 20.8504C120.468 18.1506 121.818 9.301 121.818 9.301C121.818 9.15101 121.668 9.151 121.668 9.151H114.018C114.018 9.151 113.718 9.15101 113.718 9.45099C113.718 9.45099 113.568 10.5009 113.418 12.1509C112.519 10.051 110.719 8.40104 108.169 8.40104C103.069 8.40104 99.7692 13.2008 99.1692 18.4506C98.5692 23.7003 100.519 29.55 105.469 29.55C108.169 29.55 110.419 27.7501 112.069 25.2002C112.219 27.9001 114.168 29.55 116.718 29.55C118.818 29.55 121.068 27.9001 121.668 26.7001ZM87.0198 10.201C87.4697 8.85102 88.5197 5.1012 90.1696 5.1012C91.0696 5.1012 91.2196 5.70117 91.0696 6.15115C90.7696 8.40104 87.0198 10.201 87.0198 10.201ZM87.6197 17.1006C89.5696 17.4006 90.1696 18.7505 90.0196 20.8504C90.0196 21.9004 88.9697 25.2002 87.0198 25.2002C84.1699 25.2002 85.0699 19.0505 85.3698 17.4006C85.3698 17.4006 86.5698 16.9506 87.6197 17.1006ZM97.0693 19.0505C96.6193 13.5008 90.4696 12.4508 85.9698 13.9508L86.1198 13.2008C101.869 11.4009 99.3192 -0.148545 91.5195 0.00144794C82.52 0.301433 77.5702 11.4009 77.5702 19.9505C77.5702 25.3502 80.7201 29.7 86.5698 29.7C92.5695 29.7 97.5193 25.3502 97.0693 19.0505ZM73.5204 28.8001C73.5204 28.8001 75.7703 10.6509 75.9203 9.75097C75.9203 9.60098 75.9203 9.60098 75.7703 9.60098C69.7706 8.40104 64.3708 8.40104 58.9711 9.60098C58.9711 9.60098 58.8212 9.60098 58.8212 9.75097C58.8212 9.75097 58.0712 16.0507 56.8712 19.0505C54.6213 24.6003 52.2214 24.9002 52.2214 25.6502C52.0714 26.4002 53.1214 29.85 56.7212 29.85C59.8711 29.85 61.971 27.9001 63.1709 23.2503C63.9209 20.2505 64.3709 16.8006 64.5209 13.2008H67.6707C66.9208 18.9005 65.7208 28.95 65.7208 28.95C65.7208 29.1 65.8708 29.1 65.8708 29.1H73.3704C73.3704 28.95 73.5204 28.95 73.5204 28.8001ZM42.022 18.9005C41.722 21.7504 40.372 24.1503 38.4221 24.1503C36.4722 24.1503 35.8723 21.7504 36.1722 18.9005C36.4722 16.0507 37.8222 13.6508 39.6221 13.6508C41.722 13.6508 42.3219 15.9007 42.022 18.9005ZM50.8715 26.7001C51.3215 25.6502 48.6216 27.0001 49.3716 20.8504C49.6716 18.1506 51.0215 9.301 51.0215 9.301C51.0215 9.15101 50.8715 9.151 50.8715 9.151H43.2219C43.2219 9.151 42.9219 9.15101 42.9219 9.45099C42.9219 9.45099 42.7719 10.5009 42.6219 12.1509C41.722 10.051 40.072 8.40104 37.3722 8.40104C32.2724 8.40104 28.9726 13.2008 28.3726 18.4506C27.7726 23.7003 29.7226 29.55 34.6723 29.55C37.3722 29.55 39.6221 27.7501 41.272 25.2002C41.422 27.9001 43.3719 29.55 45.9218 29.55C48.0217 29.55 50.2715 27.9001 50.8715 26.7001ZM26.5727 28.95H16.2232C16.0732 28.95 15.9232 28.8001 15.9232 28.8001L11.7234 18.6005C7.97359 21.3004 10.0735 25.5002 10.8235 26.2502C11.1235 26.7002 9.17357 30 5.57375 30C2.27391 30 -0.275987 27.3001 0.0239983 23.8503C0.323984 19.8005 4.5238 15.7507 10.0735 14.2508L3.77382 1.80137C3.77382 1.80137 3.77383 1.50137 4.07382 1.50137H13.8233C13.9733 1.50137 14.1233 1.80137 14.1233 1.80137L18.1731 12.0009C22.0729 9.60098 19.8231 4.35124 19.0731 3.60128C18.7731 3.30129 19.823 0.901406 23.4229 0.601421C27.3227 0.301436 29.7226 3.00131 29.5726 6.45114C29.5726 10.5009 25.5227 14.7007 19.973 16.3507L26.7227 29.25C26.5727 28.8001 26.7227 28.95 26.5727 28.95Z"
    fill="#363C4E"/>
</svg>
