<svg width="17" height="18" viewBox="0 0 17 18" fill="none" xmlns="http://www.w3.org/2000/svg">
  <path d="M15.0488 5.86947H15.0955C15.694 5.86947 16.1819 6.35295 16.1819 6.94251V11.6143C16.1819 12.2062 15.694 12.6881 15.0955 12.6881H15.048C14.4495 12.6881 13.9615 12.2047 13.9615 11.6143V6.94247C13.9623 6.35295 14.4511 5.86947 15.0488 5.86947Z" fill="white"/>
  <path d="M13.4419 13.4173C13.4419 13.96 12.9929 14.402 12.4434 14.402H11.3764V16.9254C11.3764 17.5181 10.8869 18 10.29 18H10.2433C9.644 18 9.15527 17.5173 9.15527 16.9254V14.402H7.66412V16.9254C7.66412 17.5181 7.17305 18 6.57612 18H6.53019C5.93095 18 5.44298 17.5173 5.44298 16.9254V14.402H4.37522C3.82657 14.402 3.37749 13.96 3.37749 13.4173V6.04059H13.4419V13.4173Z" fill="white"/>
  <path d="M5.9028 1.56727L5.05527 0.275191C5.00079 0.193696 5.02492 0.0822692 5.1082 0.0292105C5.19067 -0.0245965 5.30353 -0.00228978 5.35725 0.0814852L6.23588 1.41818C6.89505 1.15146 7.63128 1.00159 8.40878 1.00159C9.18704 1.00159 9.92172 1.15146 10.5824 1.41818L11.4595 0.0814852C11.5132 -0.00228978 11.6269 -0.0245965 11.7101 0.0292105C11.7934 0.0822336 11.8175 0.193696 11.7631 0.275191L10.9148 1.56727C12.444 2.30749 13.4752 3.70259 13.4752 5.3029C13.4752 5.40129 13.469 5.49814 13.4604 5.59421H3.35638C3.34782 5.49814 3.34238 5.40129 3.34238 5.3029C3.34234 3.70259 4.37431 2.30749 5.9028 1.56727ZM10.7513 3.8809C11.0198 3.8809 11.2377 3.66721 11.2377 3.40127C11.2377 3.13534 11.0198 2.92239 10.7513 2.92239C10.4813 2.92239 10.2649 3.1353 10.2649 3.40127C10.2649 3.66724 10.4828 3.8809 10.7513 3.8809ZM6.067 3.8809C6.3355 3.8809 6.55342 3.66721 6.55342 3.40127C6.55342 3.13534 6.3355 2.92239 6.067 2.92239C5.79774 2.92239 5.58137 3.1353 5.58137 3.40127C5.58137 3.66721 5.79774 3.8809 6.067 3.8809Z" fill="white"/>
  <path d="M1.72372 5.86947H1.76885C2.36733 5.86947 2.85685 6.35295 2.85685 6.94251V11.6143C2.85685 12.2062 2.36654 12.6881 1.76885 12.6881H1.72292C1.12369 12.6881 0.636475 12.2047 0.636475 11.6143V6.94247C0.636475 6.35295 1.12524 5.86947 1.72372 5.86947Z" fill="white"/>
</svg>
