<svg width="21" height="24" viewBox="0 0 21 24" fill="none" xmlns="http://www.w3.org/2000/svg">
  <path d="M19.3983 7.82595H19.4606C20.2585 7.82595 20.9092 8.47059 20.9092 9.25667V15.4858C20.9092 16.275 20.2585 16.9175 19.4606 16.9175H19.3973C18.5993 16.9175 17.9487 16.2729 17.9487 15.4858V9.25663C17.9497 8.47059 18.6013 7.82595 19.3983 7.82595Z" fill="white"/>
  <path d="M17.2558 17.8898C17.2558 18.6133 16.6571 19.2026 15.9245 19.2026H14.5018V22.5672C14.5018 23.3574 13.8491 24 13.0532 24H12.9909C12.1919 24 11.5403 23.3564 11.5403 22.5672V19.2026H9.55208V22.5672C9.55208 23.3574 8.89732 24 8.10141 24H8.04017C7.24119 24 6.59056 23.3564 6.59056 22.5672V19.2026H5.16688C4.43534 19.2026 3.83657 18.6133 3.83657 17.8898V8.05412H17.2558V17.8898Z" fill="white"/>
  <path d="M7.20365 2.0897L6.07361 0.366921C6.00097 0.258261 6.03315 0.109692 6.14418 0.0389473C6.25415 -0.0327954 6.40462 -0.00305304 6.47625 0.108647L7.64776 1.89091C8.52665 1.53528 9.50829 1.33545 10.545 1.33545C11.5826 1.33545 12.5622 1.53528 13.4432 1.89091L14.6126 0.108647C14.6842 -0.00305304 14.8357 -0.0327954 14.9468 0.0389473C15.0578 0.109645 15.09 0.258261 15.0173 0.366921L13.8863 2.0897C15.9253 3.07666 17.3002 4.93679 17.3002 7.07054C17.3002 7.20172 17.2919 7.33085 17.2805 7.45895H3.80842C3.79702 7.33085 3.78975 7.20172 3.78975 7.07054C3.78971 4.93679 5.16567 3.07666 7.20365 2.0897ZM13.6684 5.17454C14.0264 5.17454 14.3169 4.88961 14.3169 4.53503C14.3169 4.18045 14.0264 3.89652 13.6684 3.89652C13.3083 3.89652 13.0198 4.1804 13.0198 4.53503C13.0198 4.88966 13.3104 5.17454 13.6684 5.17454ZM7.42258 5.17454C7.78058 5.17454 8.07114 4.88961 8.07114 4.53503C8.07114 4.18045 7.78058 3.89652 7.42258 3.89652C7.06357 3.89652 6.77508 4.1804 6.77508 4.53503C6.77508 4.88961 7.06357 5.17454 7.42258 5.17454Z" fill="white"/>
  <path d="M1.63154 7.82595H1.69172C2.48969 7.82595 3.14239 8.47059 3.14239 9.25667V15.4858C3.14239 16.275 2.48864 16.9175 1.69172 16.9175H1.63048C0.8315 16.9175 0.181885 16.2729 0.181885 15.4858V9.25663C0.181885 8.47059 0.833568 7.82595 1.63154 7.82595Z" fill="white"/>
</svg>
