<svg width="17" height="18" viewBox="0 0 17 18" fill="none" xmlns="http://www.w3.org/2000/svg">
  <path d="M15.0487 5.86947H15.0954C15.6938 5.86947 16.1818 6.35295 16.1818 6.94251V11.6143C16.1818 12.2062 15.6938 12.6881 15.0954 12.6881H15.0479C14.4494 12.6881 13.9614 12.2047 13.9614 11.6143V6.94247C13.9622 6.35295 14.451 5.86947 15.0487 5.86947Z" fill="#717784"/>
  <path d="M13.4418 13.4173C13.4418 13.96 12.9927 14.402 12.4433 14.402H11.3763V16.9254C11.3763 17.5181 10.8868 18 10.2898 18H10.2432C9.64388 18 9.15516 17.5173 9.15516 16.9254V14.402H7.66401V16.9254C7.66401 17.5181 7.17294 18 6.57601 18H6.53008C5.93084 18 5.44287 17.5173 5.44287 16.9254V14.402H4.37511C3.82646 14.402 3.37738 13.96 3.37738 13.4173V6.04059H13.4418V13.4173Z" fill="#717784"/>
  <path d="M5.90269 1.56727L5.05516 0.275191C5.00068 0.193696 5.02481 0.0822692 5.10808 0.0292105C5.19056 -0.0245965 5.30342 -0.00228978 5.35714 0.0814852L6.23577 1.41818C6.89494 1.15146 7.63117 1.00159 8.40867 1.00159C9.18693 1.00159 9.92161 1.15146 10.5823 1.41818L11.4594 0.0814852C11.5131 -0.00228978 11.6267 -0.0245965 11.71 0.0292105C11.7933 0.0822336 11.8174 0.193696 11.7629 0.275191L10.9147 1.56727C12.4439 2.30749 13.4751 3.70259 13.4751 5.3029C13.4751 5.40129 13.4689 5.49814 13.4603 5.59421H3.35626C3.34771 5.49814 3.34227 5.40129 3.34227 5.3029C3.34223 3.70259 4.3742 2.30749 5.90269 1.56727ZM10.7512 3.8809C11.0197 3.8809 11.2376 3.66721 11.2376 3.40127C11.2376 3.13534 11.0197 2.92239 10.7512 2.92239C10.4812 2.92239 10.2648 3.1353 10.2648 3.40127C10.2648 3.66724 10.4827 3.8809 10.7512 3.8809ZM6.06689 3.8809C6.33539 3.8809 6.5533 3.66721 6.5533 3.40127C6.5533 3.13534 6.33539 2.92239 6.06689 2.92239C5.79763 2.92239 5.58126 3.1353 5.58126 3.40127C5.58126 3.66721 5.79763 3.8809 6.06689 3.8809Z" fill="#717784"/>
  <path d="M1.72361 5.86947H1.76874C2.36722 5.86947 2.85674 6.35295 2.85674 6.94251V11.6143C2.85674 12.2062 2.36643 12.6881 1.76874 12.6881H1.72281C1.12358 12.6881 0.636364 12.2047 0.636364 11.6143V6.94247C0.636364 6.35295 1.12513 5.86947 1.72361 5.86947Z" fill="#717784"/>
</svg>
