<svg width="19" height="23" viewBox="0 0 19 23" fill="none" xmlns="http://www.w3.org/2000/svg">
  <path d="M10.5598 1.75483C11.4007 0.769862 12.8076 0.0479109 13.9805 0.000142964C14.0767 -0.00365169 14.1622 0.0685211 14.1729 0.165694C14.309 1.40573 13.8593 2.7901 12.9701 3.86883C12.1252 4.8904 10.8881 5.52486 9.74132 5.52486C9.66081 5.52478 9.58001 5.52166 9.50084 5.51548C9.41327 5.50871 9.34243 5.44152 9.3309 5.35447C9.14697 3.9631 9.84511 2.58274 10.5598 1.75483Z" fill="white"/>
  <path d="M2.65246 19.7875C0.530882 16.7241 -0.688763 11.6717 1.22977 8.34249C2.2387 6.58773 4.06876 5.47969 6.00552 5.45119C6.02479 5.45082 6.04436 5.4506 6.06422 5.4506C6.89719 5.4506 7.68402 5.7628 8.37822 6.03832C8.89709 6.24418 9.34576 6.42218 9.69109 6.42218C9.99853 6.42218 10.4443 6.24643 10.9604 6.04294C11.708 5.74814 12.6386 5.38125 13.61 5.38125C13.7344 5.38125 13.8583 5.38728 13.9783 5.39926C14.8054 5.43482 16.8597 5.73044 18.2 7.6919C18.2283 7.73327 18.2387 7.78446 18.2288 7.83364C18.2188 7.88289 18.1894 7.92598 18.1472 7.95313L18.1291 7.96444C17.7396 8.20537 15.7978 9.53461 15.8227 12.0447C15.8496 15.1343 18.4048 16.2679 18.6961 16.387L18.7097 16.3928C18.7961 16.4325 18.8386 16.5308 18.8085 16.6209L18.8021 16.6411C18.6439 17.1481 18.1748 18.4748 17.2398 19.8413C16.3437 21.1499 15.328 22.6334 13.6739 22.6642C12.9029 22.6787 12.3804 22.4527 11.8737 22.2334L11.8694 22.2316C11.354 22.0086 10.8207 21.7778 9.98559 21.7778C9.10761 21.7778 8.54786 22.0163 8.00664 22.2469C7.52476 22.4521 7.02569 22.6646 6.33602 22.6921C6.3076 22.6933 6.27985 22.6938 6.25217 22.6938C4.78364 22.6938 3.71147 21.319 2.65246 19.7875Z" fill="white"/>
</svg>
