<svg width="15" height="18" viewBox="0 0 15 18" fill="none" xmlns="http://www.w3.org/2000/svg">
  <path d="M8.16985 1.31613C8.80054 0.577396 9.85573 0.0359332 10.7354 0.000107223C10.8076 -0.00273876 10.8717 0.0513908 10.8797 0.12427C10.9817 1.05429 10.6445 2.09258 9.9776 2.90162C9.34396 3.6678 8.41611 4.14364 7.55601 4.14364C7.49562 4.14359 7.43502 4.14124 7.37565 4.13661C7.30997 4.13153 7.25684 4.08114 7.24819 4.01585C7.11024 2.97232 7.63385 1.93705 8.16985 1.31613Z" fill="#717784"/>
  <path d="M2.23936 14.8406C0.648179 12.543 -0.266555 8.75381 1.17234 6.25687C1.92904 4.9408 3.30159 4.10977 4.75416 4.0884C4.76861 4.08812 4.78329 4.08795 4.79819 4.08795C5.42291 4.08795 6.01303 4.3221 6.53368 4.52874C6.92283 4.68313 7.25934 4.81663 7.51833 4.81663C7.74891 4.81663 8.08324 4.68482 8.47029 4.5322C9.031 4.31111 9.72894 4.03594 10.4575 4.03594C10.5508 4.03594 10.6437 4.04046 10.7337 4.04944C11.3541 4.07612 12.8948 4.29783 13.9 5.76892C13.9212 5.79995 13.9291 5.83834 13.9216 5.87523C13.9141 5.91217 13.8921 5.94448 13.8604 5.96485L13.8468 5.97333C13.5547 6.15402 12.0984 7.15096 12.1171 9.03355C12.1372 11.3507 14.0536 12.2009 14.2721 12.2903L14.2823 12.2946C14.3471 12.3243 14.379 12.3981 14.3564 12.4657L14.3516 12.4808C14.2329 12.8611 13.8811 13.8561 13.1798 14.8809C12.5078 15.8624 11.746 16.9751 10.5054 16.9982C9.92718 17.009 9.53529 16.8395 9.15527 16.6751L9.15204 16.6737C8.7655 16.5064 8.36555 16.3333 7.73921 16.3333C7.08072 16.3333 6.66091 16.5122 6.255 16.6852C5.89358 16.8391 5.51929 16.9985 5.00204 17.0191C4.98072 17.0199 4.9599 17.0203 4.93915 17.0203C3.83775 17.0203 3.03362 15.9893 2.23936 14.8406Z" fill="#717784"/>
</svg>
