<svg width="19" height="23" viewBox="0 0 19 23" fill="none" xmlns="http://www.w3.org/2000/svg">
  <path d="M10.5358 1.75471C11.3768 0.76974 12.7837 0.0477888 13.9565 2.08939e-05C14.0528 -0.00377376 14.1383 0.068399 14.149 0.165572C14.285 1.4056 13.8354 2.78998 12.9462 3.8687C12.1013 4.89028 10.8642 5.52473 9.71739 5.52473C9.63688 5.52466 9.55608 5.52153 9.47691 5.51536C9.38934 5.50859 9.31851 5.4414 9.30697 5.35435C9.12304 3.96297 9.82119 2.58261 10.5358 1.75471Z" fill="white"/>
  <path d="M2.62854 19.7873C0.506956 16.7239 -0.712689 11.6716 1.20584 8.34237C2.21477 6.58761 4.04483 5.47957 5.98159 5.45107C6.00086 5.4507 6.02043 5.45048 6.0403 5.45048C6.87326 5.45048 7.66009 5.76268 8.35429 6.0382C8.87316 6.24405 9.32183 6.42206 9.66716 6.42206C9.9746 6.42206 10.4204 6.24631 10.9364 6.04281C11.6841 5.74802 12.6146 5.38113 13.5861 5.38113C13.7105 5.38113 13.8344 5.38716 13.9544 5.39914C14.7815 5.4347 16.8358 5.73031 18.1761 7.69178C18.2044 7.73314 18.2148 7.78434 18.2048 7.83352C18.1949 7.88277 18.1655 7.92585 18.1233 7.95301L18.1051 7.96432C17.7157 8.20524 15.7739 9.53449 15.7988 12.0446C15.8257 15.1342 18.3809 16.2678 18.6722 16.3869L18.6858 16.3927C18.7722 16.4323 18.8147 16.5307 18.7846 16.6208L18.7782 16.641C18.6199 17.148 18.1509 18.4747 17.2158 19.8411C16.3198 21.1498 15.3041 22.6333 13.65 22.6641C12.879 22.6786 12.3564 22.4525 11.8497 22.2333L11.8454 22.2315C11.3301 22.0084 10.7968 21.7777 9.96166 21.7777C9.08368 21.7777 8.52393 22.0161 7.98271 22.2468C7.50083 22.452 7.00177 22.6645 6.3121 22.692C6.28368 22.6931 6.25592 22.6937 6.22824 22.6937C4.75972 22.6937 3.68754 21.3189 2.62854 19.7873Z" fill="white"/>
</svg>
