<svg width="15" height="18" viewBox="0 0 15 18" fill="none" xmlns="http://www.w3.org/2000/svg">
  <path d="M8.16989 1.31613C8.80058 0.577396 9.85577 0.0359332 10.7354 0.000107223C10.8076 -0.00273876 10.8717 0.0513908 10.8798 0.12427C10.9818 1.05429 10.6446 2.09258 9.97765 2.90162C9.344 3.6678 8.41615 4.14364 7.55605 4.14364C7.49567 4.14359 7.43507 4.14124 7.37569 4.13661C7.31001 4.13153 7.25688 4.08114 7.24824 4.01585C7.11029 2.97232 7.63389 1.93705 8.16989 1.31613Z" fill="white"/>
  <path d="M2.23941 14.8406C0.648222 12.543 -0.266511 8.75381 1.17239 6.25687C1.92908 4.9408 3.30163 4.10977 4.7542 4.0884C4.76865 4.08812 4.78333 4.08795 4.79823 4.08795C5.42295 4.08795 6.01307 4.3221 6.53372 4.52874C6.92288 4.68313 7.25938 4.81663 7.51838 4.81663C7.74896 4.81663 8.08328 4.68482 8.47033 4.5322C9.03105 4.31111 9.72898 4.03594 10.4576 4.03594C10.5509 4.03594 10.6438 4.04046 10.7338 4.04944C11.3541 4.07612 12.8948 4.29783 13.9001 5.76892C13.9213 5.79995 13.9291 5.83834 13.9216 5.87523C13.9141 5.91217 13.8921 5.94448 13.8605 5.96485L13.8468 5.97333C13.5548 6.15402 12.0984 7.15096 12.1171 9.03355C12.1372 11.3507 14.0537 12.2009 14.2721 12.2903L14.2823 12.2946C14.3471 12.3243 14.379 12.3981 14.3564 12.4657L14.3516 12.4808C14.233 12.8611 13.8812 13.8561 13.1799 14.8809C12.5079 15.8624 11.746 16.9751 10.5055 16.9982C9.92722 17.009 9.53533 16.8395 9.15532 16.6751L9.15209 16.6737C8.76554 16.5064 8.36559 16.3333 7.73925 16.3333C7.08077 16.3333 6.66095 16.5122 6.25504 16.6852C5.89363 16.8391 5.51933 16.9985 5.00208 17.0191C4.98076 17.0199 4.95995 17.0203 4.93919 17.0203C3.83779 17.0203 3.03366 15.9893 2.23941 14.8406Z" fill="white"/>
</svg>
