<svg width="12" height="15" viewBox="0 0 12 15" fill="none" xmlns="http://www.w3.org/2000/svg">
  <path d="M6.47483 1.09677C7.0004 0.481163 7.87973 0.0299443 8.61276 8.93526e-05C8.67293 -0.0022823 8.72637 0.0428257 8.73306 0.103559C8.81807 0.878579 8.53705 1.74381 7.98129 2.41802C7.45325 3.0565 6.68005 3.45303 5.96329 3.45303C5.91298 3.45299 5.86247 3.45103 5.813 3.44718C5.75826 3.44294 5.71399 3.40095 5.70678 3.34654C5.59183 2.47694 6.02817 1.61421 6.47483 1.09677Z" fill="white"/>
  <path d="M1.53276 12.3672C0.206771 10.4525 -0.555508 7.29484 0.643574 5.21406C1.27416 4.11733 2.41794 3.42481 3.62842 3.407C3.64046 3.40676 3.65269 3.40662 3.66511 3.40662C4.18571 3.40662 4.67748 3.60175 5.11135 3.77395C5.43565 3.90261 5.71607 4.01386 5.9319 4.01386C6.12405 4.01386 6.40265 3.90402 6.7252 3.77684C7.19246 3.59259 7.77407 3.36328 8.38122 3.36328C8.45897 3.36328 8.5364 3.36705 8.61141 3.37454C9.12834 3.39677 10.4123 3.58152 11.25 4.80744C11.2677 4.83329 11.2742 4.86529 11.2679 4.89602C11.2617 4.92681 11.2433 4.95373 11.217 4.97071L11.2056 4.97778C10.9622 5.12835 9.74859 5.95913 9.76417 7.52796C9.78096 9.45895 11.378 10.1674 11.56 10.2419L11.5685 10.2455C11.6225 10.2703 11.6491 10.3318 11.6303 10.3881L11.6263 10.4007C11.5274 10.7176 11.2342 11.5468 10.6498 12.4008C10.0898 13.2187 9.45496 14.1459 8.42116 14.1652C7.93927 14.1742 7.6127 14.0329 7.29602 13.8959L7.29332 13.8947C6.97121 13.7553 6.63791 13.6111 6.11596 13.6111C5.56723 13.6111 5.21738 13.7602 4.87912 13.9043C4.57794 14.0326 4.26603 14.1654 3.83499 14.1826C3.81722 14.1833 3.79988 14.1836 3.78258 14.1836C2.86475 14.1836 2.19464 13.3244 1.53276 12.3672Z" fill="white"/>
</svg>
