<svg width="15" height="14" viewBox="0 0 15 14" fill="none" xmlns="http://www.w3.org/2000/svg">
  <path d="M13.9159 6.99999H1.18863M13.9159 6.99999C13.9159 5.90291 13.6383 4.87067 13.1495 3.96969M13.9159 6.99999C13.9159 7.97599 13.6962 8.90067 13.3035 9.72726M7.55227 13.3636C10.0908 13.3636 12.2822 11.8772 13.3035 9.72726M7.55227 13.3636C5.01372 13.3636 2.82235 11.8772 1.80102 9.72726M7.55227 13.3636C9.39321 13.3636 10.8856 10.5145 10.8856 6.99999C10.8856 3.48545 9.39321 0.636353 7.55227 0.636353M7.55227 13.3636C5.71132 13.3636 4.21893 10.5145 4.21893 6.99999C4.21893 3.48545 5.71132 0.636353 7.55227 0.636353M1.18863 6.99999C1.18863 5.90291 1.46625 4.87067 1.95507 3.96969M1.18863 6.99999C1.18863 7.97599 1.40835 8.90067 1.80102 9.72726M7.55227 0.636353C5.13481 0.636353 3.03219 1.98435 1.95507 3.96969M7.55227 0.636353C9.96972 0.636353 12.0723 1.98435 13.1495 3.96969M1.95507 3.96969H13.1495M13.3035 9.72726H1.80102" stroke="#717784" stroke-width="0.8"/>
</svg>
