<svg width="86" height="79" viewBox="0 0 86 79" fill="none" xmlns="http://www.w3.org/2000/svg">
  <g filter="url(#filter0_b)">
    <path d="M31.5686 33.5621H85.3958V7.97361C85.3958 3.60099 81.7434 0 77.2679 0H51.5686C40.5229 0 31.5686 8.95431 31.5686 20V33.5621Z" fill="url(#paint0_linear)"/>
  </g>
  <g filter="url(#filter1_b)">
    <path d="M9.3125 7.97361C9.3125 3.60099 12.9135 0 17.389 0H77.6284C73.1529 0 69.5519 3.54954 69.5519 7.97361L69.5004 52.986C69.5004 52.986 69.2947 69.2418 69.2947 69.3447C69.0889 75.4664 65.5908 77.0611 65.5908 77.0611C64.3562 77.7813 62.9158 78.2443 61.3725 78.2443H9.3125V7.97361Z" fill="#DCE7F3" fill-opacity="0.6"/>
  </g>
  <g filter="url(#filter2_b)">
    <path fill-rule="evenodd" clip-rule="evenodd" d="M53.4127 28.1699L35.8294 45.7531L25.1865 35.1102L28.2436 32.0531L35.8294 39.6389L50.3556 25.1128L53.4127 28.1699Z" fill="url(#paint1_linear)"/>
  </g>
  <g filter="url(#filter3_b)">
    <path d="M53.5518 70.2707V64.0701H0V70.2707C0 74.6434 3.65243 78.2444 8.12794 78.2444H61.6798C57.2043 78.1929 53.5518 74.6434 53.5518 70.2707Z" fill="url(#paint2_linear)"/>
  </g>
  <defs>
    <filter id="filter0_b" x="11.5686" y="-20" width="93.8272" height="73.5621" filterUnits="userSpaceOnUse" color-interpolation-filters="sRGB">
      <feFlood flood-opacity="0" result="BackgroundImageFix"/>
      <feGaussianBlur in="BackgroundImage" stdDeviation="10"/>
      <feComposite in2="SourceAlpha" operator="in" result="effect1_backgroundBlur"/>
      <feBlend mode="normal" in="SourceGraphic" in2="effect1_backgroundBlur" result="shape"/>
    </filter>
    <filter id="filter1_b" x="-10.6875" y="-20" width="108.316" height="118.244" filterUnits="userSpaceOnUse" color-interpolation-filters="sRGB">
      <feFlood flood-opacity="0" result="BackgroundImageFix"/>
      <feGaussianBlur in="BackgroundImage" stdDeviation="10"/>
      <feComposite in2="SourceAlpha" operator="in" result="effect1_backgroundBlur"/>
      <feBlend mode="normal" in="SourceGraphic" in2="effect1_backgroundBlur" result="shape"/>
    </filter>
    <filter id="filter2_b" x="5.18652" y="5.11279" width="68.2262" height="60.6403" filterUnits="userSpaceOnUse" color-interpolation-filters="sRGB">
      <feFlood flood-opacity="0" result="BackgroundImageFix"/>
      <feGaussianBlur in="BackgroundImage" stdDeviation="10"/>
      <feComposite in2="SourceAlpha" operator="in" result="effect1_backgroundBlur"/>
      <feBlend mode="normal" in="SourceGraphic" in2="effect1_backgroundBlur" result="shape"/>
    </filter>
    <filter id="filter3_b" x="-20" y="44.0701" width="101.68" height="54.1743" filterUnits="userSpaceOnUse" color-interpolation-filters="sRGB">
      <feFlood flood-opacity="0" result="BackgroundImageFix"/>
      <feGaussianBlur in="BackgroundImage" stdDeviation="10"/>
      <feComposite in2="SourceAlpha" operator="in" result="effect1_backgroundBlur"/>
      <feBlend mode="normal" in="SourceGraphic" in2="effect1_backgroundBlur" result="shape"/>
    </filter>
    <linearGradient id="paint0_linear" x1="31.0385" y1="3.2416" x2="87.6698" y2="8.55013" gradientUnits="userSpaceOnUse">
      <stop stop-color="#104BA6"/>
      <stop offset="1" stop-color="#316ECC"/>
    </linearGradient>
    <linearGradient id="paint1_linear" x1="24.9085" y1="27.1063" x2="54.6759" y2="29.4856" gradientUnits="userSpaceOnUse">
      <stop stop-color="#104BA6"/>
      <stop offset="1" stop-color="#316ECC"/>
    </linearGradient>
    <linearGradient id="paint2_linear" x1="-0.607452" y1="65.4391" x2="60.8784" y2="81.0771" gradientUnits="userSpaceOnUse">
      <stop stop-color="#104BA6"/>
      <stop offset="1" stop-color="#316ECC"/>
    </linearGradient>
  </defs>
</svg>
