<svg width="18" height="19" viewBox="0 0 18 19" fill="none" xmlns="http://www.w3.org/2000/svg">
  <path d="M1.38477 8.08295V16.2841C1.38477 17.2547 2.17158 18.0415 3.14216 18.0415H14.8581C15.8287 18.0415 16.6155 17.2547 16.6155 16.2841V8.08295M1.38477 8.08295V5.73975C1.38477 4.76917 2.17158 3.98236 3.14216 3.98236H14.8581C15.8287 3.98236 16.6155 4.76917 16.6155 5.73975V8.08295M1.38477 8.08295H16.6155M4.31376 1.63916V5.73975M13.6865 1.63916V5.73975" stroke="#ADB3C5" stroke-width="1.5" stroke-linecap="round" stroke-linejoin="round"/>
  <path d="M5.06348 11.3047C5.06348 11.2336 5.1211 11.176 5.19217 11.176C5.26325 11.176 5.32087 11.2336 5.32087 11.3047C5.32087 11.3758 5.26325 11.4334 5.19217 11.4334C5.1211 11.4334 5.06348 11.3758 5.06348 11.3047ZM5.06348 14.8195C5.06348 14.7484 5.1211 14.6908 5.19217 14.6908C5.26325 14.6908 5.32087 14.7484 5.32087 14.8195C5.32087 14.8906 5.26325 14.9482 5.19217 14.9482C5.1211 14.9482 5.06348 14.8906 5.06348 14.8195ZM9.16407 11.3047C9.16407 11.2336 9.22169 11.176 9.29277 11.176C9.36384 11.176 9.42146 11.2336 9.42146 11.3047C9.42146 11.3758 9.36384 11.4334 9.29277 11.4334C9.22169 11.4334 9.16407 11.3758 9.16407 11.3047ZM9.16407 14.8195C9.16407 14.7484 9.22169 14.6908 9.29277 14.6908C9.36384 14.6908 9.42146 14.7484 9.42146 14.8195C9.42146 14.8906 9.36384 14.9482 9.29277 14.9482C9.22169 14.9482 9.16407 14.8906 9.16407 14.8195ZM13.2647 11.3047C13.2647 11.2336 13.3223 11.176 13.3934 11.176C13.4644 11.176 13.5221 11.2336 13.5221 11.3047C13.5221 11.3758 13.4644 11.4334 13.3934 11.4334C13.3223 11.4334 13.2647 11.3758 13.2647 11.3047ZM13.2647 14.8195C13.2647 14.7484 13.3223 14.6908 13.3934 14.6908C13.4644 14.6908 13.5221 14.7484 13.5221 14.8195C13.5221 14.8906 13.4644 14.9482 13.3934 14.9482C13.3223 14.9482 13.2647 14.8906 13.2647 14.8195Z" fill="#ADB3C5" stroke="#ADB3C5" stroke-width="1.5" stroke-linecap="round" stroke-linejoin="round"/>
</svg>
