<svg width="13" height="16" viewBox="0 0 13 16" fill="none" xmlns="http://www.w3.org/2000/svg">
  <path d="M10.6093 5.83272L10.0863 6.95133H0.63623L1.06479 5.83272H10.6093ZM9.27276 8.85442L8.74977 9.97303H0.63623L1.06479 8.85442H9.27276ZM12.4034 1.82317L11.8732 2.97083C11.5584 2.6706 11.2218 2.41395 10.8635 2.20088C10.5052 1.98781 10.1274 1.82559 9.73037 1.71421C9.33329 1.59799 8.91684 1.53988 8.48101 1.53988C7.56579 1.53988 6.74741 1.79411 6.02589 2.30257C5.30436 2.80619 4.73537 3.53498 4.31892 4.48894C3.90247 5.43806 3.69424 6.57604 3.69424 7.90288C3.69424 9.22971 3.90247 10.3701 4.31892 11.3241C4.73537 12.2732 5.30436 13.002 6.02589 13.5104C6.74741 14.0141 7.56579 14.2659 8.48101 14.2659C8.92168 14.2659 9.33813 14.2102 9.73037 14.0988C10.1274 13.9826 10.5003 13.8228 10.849 13.6194C11.1976 13.4112 11.5197 13.1715 11.815 12.9003L12.3671 14.0625C11.8586 14.5467 11.2703 14.9148 10.602 15.1666C9.93375 15.4184 9.22675 15.5443 8.48101 15.5443C7.28977 15.5443 6.23411 15.2295 5.31405 14.6C4.39882 13.9705 3.67972 13.0843 3.15673 11.9415C2.63859 10.7938 2.37952 9.44762 2.37952 7.90288C2.37952 6.35813 2.63859 5.01435 3.15673 3.87153C3.67972 2.72387 4.39882 1.83527 5.31405 1.20575C6.23411 0.576234 7.28977 0.261475 8.48101 0.261475C9.25097 0.261475 9.96765 0.397064 10.6311 0.668241C11.2945 0.939419 11.8853 1.32439 12.4034 1.82317Z" fill="#fff"/>
</svg>
