<svg width="11" height="20" viewBox="0 0 11 20" fill="none" xmlns="http://www.w3.org/2000/svg">
  <path
    d="M4.75411 19.22V0.625H5.70565V19.22H4.75411ZM8.84356 6.20351C8.76124 5.37545 8.39564 4.71688 7.74675 4.22779C7.09786 3.7387 6.2819 3.49416 5.29888 3.49416C4.60641 3.49416 3.99626 3.6128 3.46844 3.85008C2.94545 4.08736 2.53384 4.41665 2.23361 4.83794C1.93822 5.25439 1.79052 5.72895 1.79052 6.26162C1.79052 6.65386 1.87527 6.99768 2.04475 7.29307C2.21424 7.58846 2.44183 7.84269 2.72754 8.05575C3.01809 8.26398 3.33769 8.44315 3.68635 8.59327C4.03985 8.74338 4.39577 8.86929 4.75411 8.97098L6.32306 9.42133C6.79763 9.55207 7.27219 9.71914 7.74675 9.92252C8.22131 10.1259 8.65471 10.3826 9.04695 10.6925C9.44403 10.9975 9.76121 11.3728 9.99849 11.8183C10.2406 12.259 10.3617 12.7893 10.3617 13.4091C10.3617 14.2033 10.1559 14.9175 9.74426 15.5519C9.33265 16.1862 8.74187 16.6899 7.97192 17.0627C7.20197 17.4308 6.27948 17.6148 5.20446 17.6148C4.19238 17.6148 3.31348 17.4477 2.56774 17.1136C1.822 16.7746 1.23606 16.3073 0.809925 15.7117C0.383789 15.1161 0.144087 14.426 0.0908203 13.6415H1.48545C1.53387 14.2275 1.72757 14.7238 2.06654 15.1306C2.40552 15.5374 2.84618 15.8473 3.38853 16.0603C3.93089 16.2686 4.5362 16.3727 5.20446 16.3727C5.94535 16.3727 6.60393 16.2492 7.18018 16.0022C7.76128 15.7504 8.21647 15.4018 8.54575 14.9563C8.87988 14.5059 9.04695 13.9829 9.04695 13.3873C9.04695 12.8837 8.9162 12.4624 8.65471 12.1234C8.39322 11.7796 8.02761 11.4915 7.55789 11.259C7.09302 11.0266 6.55308 10.8208 5.93809 10.6416L4.15849 10.1186C2.99145 9.76998 2.08591 9.28816 1.44187 8.67317C0.797819 8.05818 0.475796 7.2737 0.475796 6.31973C0.475796 5.52073 0.688864 4.81857 1.115 4.21326C1.54598 3.60311 2.12707 3.12855 2.85829 2.78958C3.59434 2.44576 4.41998 2.27386 5.3352 2.27386C6.26011 2.27386 7.07849 2.44334 7.79033 2.78232C8.50217 3.12129 9.06632 3.58859 9.48277 4.18421C9.90406 4.77499 10.1292 5.44809 10.1583 6.20351H8.84356Z"
    fill="#fff"/>
</svg>
