<svg width="13" height="15" viewBox="0 0 13 15" fill="none" xmlns="http://www.w3.org/2000/svg">
  <path d="M7.37684 8.86139H0.272949V7.64109H7.37684C8.09352 7.64109 8.69883 7.5055 9.19276 7.23432C9.68669 6.96314 10.062 6.59028 10.3186 6.11571C10.5753 5.63631 10.7036 5.08911 10.7036 4.47412C10.7036 3.85913 10.5753 3.31435 10.3186 2.83979C10.062 2.36039 9.68669 1.9851 9.19276 1.71392C8.69883 1.4379 8.09352 1.29989 7.37684 1.29989H3.81763V14.9556H2.45932V0.0795898H7.37684C8.39375 0.0795898 9.24603 0.275709 9.93366 0.667948C10.6261 1.06019 11.1491 1.58802 11.5026 2.25143C11.861 2.91485 12.0401 3.65575 12.0401 4.47412C12.0401 5.2925 11.861 6.03339 11.5026 6.69681C11.1491 7.36023 10.6261 7.88805 9.93366 8.28029C9.24603 8.66769 8.39375 8.86139 7.37684 8.86139ZM7.31873 10.227V11.4473H0.272949V10.227H7.31873Z" fill="#fff"/>
</svg>
