<svg width="22" height="16" viewBox="0 0 22 16" fill="none" xmlns="http://www.w3.org/2000/svg">
  <path fill-rule="evenodd" clip-rule="evenodd" d="M18.8477 0.803609C19.7538 1.04576 20.4673 1.75941 20.7094 2.66544C21.1496 4.30779 21.1496 7.73429 21.1496 7.73429C21.1496 7.73429 21.1496 11.1609 20.7094 12.8032C20.4673 13.7092 19.7538 14.4229 18.8477 14.665C17.2054 15.1052 10.6202 15.1052 10.6202 15.1052C10.6202 15.1052 4.03502 15.1052 2.39272 14.665C1.48673 14.4229 0.773114 13.7092 0.530974 12.8032C0.0909119 11.1609 0.0909119 7.73429 0.0909119 7.73429C0.0909119 7.73429 0.0909119 4.30779 0.530974 2.66544C0.773114 1.75941 1.48673 1.04576 2.39272 0.803609C4.03502 0.363526 10.6202 0.363525 10.6202 0.363525C10.6202 0.363525 17.2054 0.363526 18.8477 0.803609ZM13.9853 7.73348L8.51428 10.8921V4.57475L13.9853 7.73348Z" fill="white"/>
</svg>
