<svg width="17" height="12" viewBox="0 0 17 12" fill="none" xmlns="http://www.w3.org/2000/svg">
  <path fill-rule="evenodd" clip-rule="evenodd" d="M14.8858 0.602768C15.5653 0.784382 16.1004 1.31962 16.2821 1.99914C16.6122 3.2309 16.6122 5.80078 16.6122 5.80078C16.6122 5.80078 16.6122 8.37076 16.2821 9.60247C16.1004 10.2819 15.5653 10.8172 14.8858 10.9988C13.654 11.3289 8.71513 11.3289 8.71513 11.3289C8.71513 11.3289 3.77625 11.3289 2.54454 10.9988C1.86504 10.8172 1.32983 10.2819 1.14822 9.60247C0.818176 8.37076 0.818176 5.80078 0.818176 5.80078C0.818176 5.80078 0.818176 3.2309 1.14822 1.99914C1.32983 1.31962 1.86504 0.784382 2.54454 0.602768C3.77625 0.272705 8.71513 0.272705 8.71513 0.272705C8.71513 0.272705 13.654 0.272705 14.8858 0.602768ZM11.239 5.80017L7.1357 8.16916V3.43112L11.239 5.80017Z" fill="#363C4E"/>
</svg>
