<svg width="24" height="13" viewBox="0 0 24 13" fill="none" xmlns="http://www.w3.org/2000/svg">
  <path fill-rule="evenodd" clip-rule="evenodd" d="M11.7423 12.4952H13.1768C13.1768 12.4952 13.6102 12.4535 13.8314 12.2444C14.035 12.0525 14.0285 11.6922 14.0285 11.6922C14.0285 11.6922 14.0005 10.0051 14.8939 9.75663C15.7746 9.51191 16.9055 11.3872 18.1042 12.1082C19.0106 12.6539 19.6994 12.5343 19.6994 12.5343L22.9044 12.4952C22.9044 12.4952 24.5811 12.4046 23.7861 11.2493C23.7209 11.1547 23.3231 10.3946 21.403 8.83256C19.3934 7.19772 19.6625 7.46215 22.0834 4.63423C23.5577 2.91201 24.1471 1.86058 23.963 1.41025C23.7874 0.981333 22.7031 1.0947 22.7031 1.0947L19.0943 1.11441C19.0943 1.11441 18.8268 1.08242 18.6284 1.18637C18.4345 1.28831 18.3097 1.5259 18.3097 1.5259C18.3097 1.5259 17.7386 2.85861 16.9768 3.99201C15.3699 6.38358 14.7274 6.5098 14.4648 6.36131C13.8539 6.01521 14.0064 4.97091 14.0064 4.22902C14.0064 1.91141 14.4074 0.945068 13.2254 0.694916C12.8331 0.611818 12.5444 0.55699 11.5412 0.548138C10.2536 0.53643 9.16374 0.551564 8.54665 0.816565C8.13612 0.992756 7.81942 1.3854 8.01231 1.40796C8.2508 1.43595 8.79101 1.53561 9.0774 1.87743C9.4472 2.31833 9.43417 3.30866 9.43417 3.30866C9.43417 3.30866 9.6466 6.03691 8.93795 6.37587C8.45151 6.60832 7.78424 6.13372 6.35162 3.96402C5.61756 2.85262 5.06334 1.62413 5.06334 1.62413C5.06334 1.62413 4.95647 1.39454 4.76587 1.27175C4.53454 1.12297 4.21133 1.07557 4.21133 1.07557L0.782112 1.09527C0.782112 1.09527 0.267322 1.10784 0.0783484 1.30402C-0.0897729 1.4785 0.0649898 1.83945 0.0649898 1.83945C0.0649898 1.83945 2.74972 7.3445 5.78959 10.1187C8.57695 12.6622 11.7423 12.4952 11.7423 12.4952Z" fill="white"/>
</svg>
