<svg width="18" height="10" viewBox="0 0 18 10" fill="none" xmlns="http://www.w3.org/2000/svg">
  <path fill-rule="evenodd" clip-rule="evenodd" d="M8.80669 9.87144H9.88262C9.88262 9.87144 10.2076 9.84017 10.3735 9.6834C10.5263 9.53947 10.5214 9.26919 10.5214 9.26919C10.5214 9.26919 10.5004 8.00387 11.1704 7.81754C11.8309 7.63399 12.6791 9.04045 13.5781 9.58124C14.2579 9.99052 14.7745 9.90078 14.7745 9.90078L17.1783 9.87144C17.1783 9.87144 18.4358 9.80354 17.8396 8.93701C17.7907 8.86612 17.4923 8.296 16.0523 7.12448C14.5451 5.89835 14.7469 6.09667 16.5625 3.97574C17.6683 2.68407 18.1103 1.89549 17.9722 1.55775C17.8405 1.23606 17.0273 1.32109 17.0273 1.32109L14.3207 1.33586C14.3207 1.33586 14.1201 1.31188 13.9713 1.38984C13.8259 1.46629 13.7323 1.64449 13.7323 1.64449C13.7323 1.64449 13.3039 2.64402 12.7326 3.49407C11.5274 5.28775 11.0455 5.38241 10.8486 5.27104C10.3904 5.01147 10.5048 4.22825 10.5048 3.67183C10.5048 1.93362 10.8056 1.20886 9.91903 1.02125C9.62482 0.958924 9.40831 0.917804 8.65592 0.911164C7.6902 0.902383 6.87281 0.913734 6.40999 1.11248C6.10209 1.24463 5.86457 1.53911 6.00923 1.55603C6.1881 1.57702 6.59326 1.65177 6.80805 1.90813C7.0854 2.23881 7.07563 2.98156 7.07563 2.98156C7.07563 2.98156 7.23495 5.02775 6.70346 5.28197C6.33863 5.4563 5.83818 5.10035 4.76372 3.47308C4.21317 2.63952 3.79751 1.71816 3.79751 1.71816C3.79751 1.71816 3.71736 1.54597 3.5744 1.45387C3.40091 1.34229 3.1585 1.30674 3.1585 1.30674L0.586584 1.32152C0.586584 1.32152 0.200492 1.33094 0.0587613 1.47807C-0.0673297 1.60893 0.0487424 1.87965 0.0487424 1.87965C0.0487424 1.87965 2.06229 6.00843 4.34219 8.08911C6.43271 9.99673 8.80669 9.87144 8.80669 9.87144Z" fill="#363C4E"/>
</svg>
