<svg width="22" height="22" viewBox="0 0 22 22" fill="none" xmlns="http://www.w3.org/2000/svg">
  <path d="M11.0037 5.39724C7.91011 5.39724 5.40556 7.90447 5.40556 10.9953C5.40556 14.0889 7.91284 16.5934 11.0037 16.5934C14.0974 16.5934 16.6019 14.0862 16.6019 10.9953C16.6019 7.90174 14.0947 5.39724 11.0037 5.39724ZM11.0037 14.6289C8.99556 14.6289 7.37011 13.0026 7.37011 10.9953C7.37011 8.98809 8.99647 7.36175 11.0037 7.36175C13.011 7.36175 14.6374 8.98809 14.6374 10.9953C14.6383 13.0026 13.0119 14.6289 11.0037 14.6289Z" fill="white"/>
  <path d="M15.4984 0.159352C13.4911 0.0657177 8.5193 0.0702631 6.51021 0.159352C4.74476 0.242078 3.18748 0.668434 1.93203 1.92387C-0.166154 4.02201 0.102028 6.84924 0.102028 10.9955C0.102028 15.2391 -0.134336 18.0009 1.93203 20.0672C4.03839 22.1726 6.90657 21.8972 11.0038 21.8972C15.2075 21.8972 16.6584 21.8999 18.1448 21.3244C20.1657 20.5399 21.6911 18.7336 21.8402 15.4891C21.9348 13.4809 21.9293 8.51012 21.8402 6.50106C21.6602 2.67113 19.6048 0.34844 15.4984 0.159352ZM18.6757 18.679C17.3002 20.0545 15.392 19.9317 10.9775 19.9317C6.43203 19.9317 4.6093 19.999 3.2793 18.6654C1.74748 17.1409 2.02476 14.6927 2.02476 10.981C2.02476 5.95834 1.5093 2.34113 6.55021 2.08295C7.70839 2.04205 8.0493 2.02841 10.9648 2.02841L11.0057 2.05568C15.8502 2.05568 19.6511 1.54842 19.8793 6.58833C19.9311 7.73831 19.9429 8.08376 19.9429 10.9946C19.942 15.4873 20.0275 17.3209 18.6757 18.679Z" fill="white"/>
  <path d="M16.8238 6.48484C17.5463 6.48484 18.132 5.89916 18.132 5.17668C18.132 4.4542 17.5463 3.86852 16.8238 3.86852C16.1013 3.86852 15.5156 4.4542 15.5156 5.17668C15.5156 5.89916 16.1013 6.48484 16.8238 6.48484Z" fill="white"/>
</svg>
