<svg width="22" height="22" viewBox="0 0 22 22" fill="none" xmlns="http://www.w3.org/2000/svg">
  <path
    d="M10.2 5.05C9.78579 5.05 9.45 5.38579 9.45 5.8C9.45 6.21421 9.78579 6.55 10.2 6.55V5.05ZM15.4 6.55C15.8142 6.55 16.15 6.21421 16.15 5.8C16.15 5.38579 15.8142 5.05 15.4 5.05V6.55ZM10.2 8.45C9.78579 8.45 9.45 8.78579 9.45 9.2C9.45 9.61421 9.78579 9.95 10.2 9.95V8.45ZM15.4 9.95C15.8142 9.95 16.15 9.61421 16.15 9.2C16.15 8.78579 15.8142 8.45 15.4 8.45V9.95ZM18.25 3.4V18.6H19.75V3.4H18.25ZM3.75 18.6V3.4H2.25V18.6H3.75ZM5.4 1.75H6.6V0.25H5.4V1.75ZM6.6 1.75H16.6V0.25H6.6V1.75ZM16.6 20.25H6.6V21.75H16.6V20.25ZM6.6 20.25H5.4V21.75H6.6V20.25ZM5.85 1V21H7.35V1H5.85ZM2.25 18.6C2.25 20.3397 3.6603 21.75 5.4 21.75V20.25C4.48873 20.25 3.75 19.5113 3.75 18.6H2.25ZM18.25 18.6C18.25 19.5113 17.5113 20.25 16.6 20.25V21.75C18.3397 21.75 19.75 20.3397 19.75 18.6H18.25ZM19.75 3.4C19.75 1.6603 18.3397 0.25 16.6 0.25V1.75C17.5113 1.75 18.25 2.48873 18.25 3.4H19.75ZM3.75 3.4C3.75 2.48873 4.48873 1.75 5.4 1.75V0.25C3.6603 0.25 2.25 1.6603 2.25 3.4H3.75ZM10.2 6.55H15.4V5.05H10.2V6.55ZM10.2 9.95H15.4V8.45H10.2V9.95Z"
    fill="currentColor"/>
</svg>
