<svg width="22" height="22" viewBox="0 0 22 22" fill="none" xmlns="http://www.w3.org/2000/svg">
  <path
    d="M2.05679 19.7801L2.38516 19.1619L2.05679 19.7801ZM1.21096 18.8983L0.582055 19.2057L1.21096 18.8983ZM19.9432 19.7801L19.6148 19.1619L19.9432 19.7801ZM20.789 18.8983L21.4179 19.2057L20.789 18.8983ZM19.9432 5.42346L19.6148 6.04166L19.9432 5.42346ZM20.789 6.30523L21.4179 5.99784L20.789 6.30523ZM9.01307 12.4046L9.24613 11.7446L9.01307 12.4046ZM10.4958 12.8466L10.4008 13.5401L10.4958 12.8466ZM12.9869 12.4046L12.7539 11.7446L12.9869 12.4046ZM11.5042 12.8466L11.5992 13.5401L11.5042 12.8466ZM2.05679 5.42346L2.38516 6.04166L2.05679 5.42346ZM1.21096 6.30523L0.582055 5.99784L1.21096 6.30523ZM8.07885 1.00001L8.07885 0.300014H8.07885V1.00001ZM13.9211 1.00002L13.9211 1.70002H13.9211V1.00002ZM4.09677 5.90354H17.9032V4.50354H4.09677V5.90354ZM17.9032 19.3H4.09677V20.7H17.9032V19.3ZM1.7 16.7717V9.57522H0.3V16.7717H1.7ZM1.7 9.57522V8.43186H0.3V9.57522H1.7ZM0.766935 10.2353L8.78 13.0647L9.24613 11.7446L1.23307 8.91516L0.766935 10.2353ZM20.3 8.43186V9.57522H21.7V8.43186H20.3ZM20.3 9.57522V16.7717H21.7V9.57522H20.3ZM13.22 13.0647L21.2331 10.2353L20.7669 8.91516L12.7539 11.7446L13.22 13.0647ZM4.09677 19.3C3.54275 19.3 3.17111 19.2994 2.88496 19.275C2.60787 19.2514 2.47453 19.2094 2.38516 19.1619L1.72842 20.3983C2.05308 20.5707 2.39774 20.6386 2.76615 20.67C3.12548 20.7006 3.56682 20.7 4.09677 20.7V19.3ZM0.3 16.7717C0.3 17.3256 0.299499 17.7814 0.328509 18.1516C0.358097 18.5291 0.421587 18.8774 0.582055 19.2057L1.83986 18.5909C1.78937 18.4876 1.74738 18.3376 1.72423 18.0422C1.7005 17.7395 1.7 17.3478 1.7 16.7717H0.3ZM2.38516 19.1619C2.15486 19.0396 1.96227 18.8414 1.83986 18.5909L0.582055 19.2057C0.830765 19.7146 1.23035 20.1337 1.72842 20.3983L2.38516 19.1619ZM17.9032 20.7C18.4332 20.7 18.8745 20.7006 19.2339 20.67C19.6023 20.6386 19.9469 20.5707 20.2716 20.3983L19.6148 19.1619C19.5255 19.2094 19.3921 19.2514 19.115 19.275C18.8289 19.2994 18.4572 19.3 17.9032 19.3V20.7ZM20.3 16.7717C20.3 17.3478 20.2995 17.7395 20.2758 18.0422C20.2526 18.3376 20.2106 18.4876 20.1601 18.5909L21.4179 19.2057C21.5784 18.8774 21.6419 18.5291 21.6715 18.1516C21.7005 17.7814 21.7 17.3256 21.7 16.7717H20.3ZM20.2716 20.3983C20.7696 20.1337 21.1692 19.7146 21.4179 19.2057L20.1601 18.5909C20.0377 18.8414 19.8451 19.0396 19.6148 19.1619L20.2716 20.3983ZM17.9032 5.90354C18.4572 5.90354 18.8289 5.90413 19.115 5.92851C19.3921 5.95211 19.5255 5.99419 19.6148 6.04166L20.2716 4.80526C19.9469 4.63281 19.6023 4.56494 19.2339 4.53356C18.8745 4.50295 18.4332 4.50354 17.9032 4.50354V5.90354ZM21.7 8.43186C21.7 7.87794 21.7005 7.4221 21.6715 7.05195C21.6419 6.67443 21.5784 6.32616 21.4179 5.99784L20.1601 6.61261C20.2106 6.7159 20.2526 6.86594 20.2758 7.16133C20.2995 7.46409 20.3 7.85577 20.3 8.43186H21.7ZM19.6148 6.04166C19.8451 6.16399 20.0377 6.36216 20.1601 6.61261L21.4179 5.99784C21.1692 5.48898 20.7696 5.06981 20.2716 4.80526L19.6148 6.04166ZM8.78 13.0647C9.49032 13.3155 9.93643 13.4765 10.4008 13.5401L10.5907 12.1531C10.3006 12.1134 10.0098 12.0142 9.24613 11.7446L8.78 13.0647ZM12.7539 11.7446C11.9902 12.0142 11.6994 12.1134 11.4093 12.1531L11.5992 13.5401C12.0636 13.4765 12.5097 13.3155 13.22 13.0647L12.7539 11.7446ZM10.4008 13.5401C10.7985 13.5946 11.2015 13.5946 11.5992 13.5401L11.4093 12.1531C11.1376 12.1903 10.8624 12.1903 10.5907 12.1531L10.4008 13.5401ZM4.09677 4.50354C3.56682 4.50354 3.12548 4.50295 2.76615 4.53356C2.39774 4.56494 2.05308 4.63281 1.72842 4.80526L2.38516 6.04166C2.47453 5.99419 2.60787 5.95211 2.88496 5.92851C3.17111 5.90413 3.54275 5.90354 4.09677 5.90354V4.50354ZM1.7 8.43186C1.7 7.85577 1.7005 7.46409 1.72423 7.16133C1.74738 6.86594 1.78937 6.7159 1.83986 6.61261L0.582055 5.99784C0.421587 6.32616 0.358097 6.67443 0.328509 7.05195C0.299499 7.4221 0.3 7.87794 0.3 8.43186H1.7ZM1.72842 4.80526C1.23036 5.06981 0.830766 5.48899 0.582055 5.99784L1.83986 6.61261C1.96227 6.36216 2.15486 6.16399 2.38516 6.04166L1.72842 4.80526ZM7.81111 5.20354V2.00886H6.41111V5.20354H7.81111ZM8.07885 1.70001L13.9211 1.70002L13.9211 0.300023L8.07885 0.300014L8.07885 1.70001ZM14.1889 2.00887V5.20355H15.5889V2.00887H14.1889ZM13.9211 1.70002C14.0419 1.70002 14.1889 1.81057 14.1889 2.00887H15.5889C15.5889 1.09283 14.8694 0.300023 13.9211 0.300023V1.70002ZM7.81111 2.00886C7.81111 1.81056 7.95814 1.70001 8.07885 1.70001V0.300014C7.13063 0.300014 6.41111 1.09282 6.41111 2.00886H7.81111Z"
    fill="currentColor"/>
</svg>
