<svg width="8" height="11" viewBox="0 0 8 11" fill="none" xmlns="http://www.w3.org/2000/svg">
  <path
    d="M2.93056 7.71635V7.58416C2.93378 6.97067 2.98849 6.48258 3.09469 6.11991C3.2041 5.75724 3.35857 5.46574 3.5581 5.24543C3.75762 5.02172 4.00059 4.81666 4.287 4.63024C4.4833 4.50144 4.65869 4.36077 4.81316 4.20825C4.97085 4.05233 5.09475 3.87947 5.18485 3.68966C5.27496 3.49646 5.32001 3.28123 5.32001 3.04396C5.32001 2.7762 5.26048 2.54402 5.14141 2.34743C5.02234 2.15084 4.86143 1.99831 4.65869 1.88985C4.45917 1.78139 4.23551 1.72715 3.98772 1.72715C3.75923 1.72715 3.54201 1.77969 3.33605 1.88477C3.13331 1.98645 2.96436 2.14236 2.82919 2.35251C2.69725 2.55927 2.62324 2.82195 2.60714 3.14056H0.888672C0.904762 2.49656 1.0528 1.95764 1.33277 1.52379C1.61597 1.08993 1.98927 0.764545 2.45267 0.547618C2.9193 0.330692 3.4342 0.222229 3.99737 0.222229C4.61203 0.222229 5.15267 0.335776 5.6193 0.562871C6.08914 0.789966 6.4544 1.11366 6.71507 1.53395C6.97895 1.95086 7.11089 2.44572 7.11089 3.01854C7.11089 3.40494 7.05136 3.75067 6.93229 4.05572C6.81644 4.36077 6.6507 4.63193 6.43509 4.86919C6.21948 5.10646 5.96364 5.3183 5.66757 5.50472C5.4069 5.67419 5.1929 5.85045 5.02556 6.03348C4.86143 6.21651 4.73915 6.43174 4.65869 6.67917C4.58146 6.92321 4.54123 7.22488 4.53801 7.58416V7.71635H2.93056ZM3.77049 10.8889C3.48086 10.8889 3.23146 10.7804 3.02228 10.5635C2.8131 10.3466 2.70852 10.0822 2.70852 9.77037C2.70852 9.46532 2.8131 9.20433 3.02228 8.9874C3.23146 8.77048 3.48086 8.66201 3.77049 8.66201C4.0569 8.66201 4.3047 8.77048 4.51388 8.9874C4.72627 9.20433 4.83247 9.46532 4.83247 9.77037C4.83247 9.97713 4.78259 10.1652 4.68283 10.3347C4.58628 10.5042 4.45756 10.6398 4.29665 10.7415C4.13897 10.8397 3.96358 10.8889 3.77049 10.8889Z"
    fill="currentColor"/>
</svg>
