<svg width="22" height="22" viewBox="0 0 22 22" fill="none" xmlns="http://www.w3.org/2000/svg">
  <path
    d="M17.6667 6.31707V4.65854C17.6667 3.74255 16.9205 3 16 3H3.16667C1.97005 3 1 3.96532 1 5.1561V12.122C1 13.0379 1.74619 13.7805 2.66667 13.7805H4.33333M4.33333 15.327V7.97561C4.33333 7.05962 5.07953 6.31707 6 6.31707H19.3333C20.2538 6.31707 21 7.05963 21 7.97561V15.327C21 16.2429 20.2538 16.9855 19.3333 16.9855H18.5379L17.8182 20L14.75 16.9855H6C5.07953 16.9855 4.33333 16.2429 4.33333 15.327Z"
    stroke="currentColor" stroke-width="1.5" stroke-linecap="round" stroke-linejoin="round"/>
</svg>
