<svg width="22" height="22" viewBox="0 0 22 22" fill="none" xmlns="http://www.w3.org/2000/svg">
  <path
    d="M21 11H1M21 11C21 9.27601 20.5637 7.65392 19.7956 6.2381M21 11C21 12.5337 20.6547 13.9868 20.0377 15.2857M11 21C14.9891 21 18.4327 18.6642 20.0377 15.2857M11 21C7.01086 21 3.56728 18.6642 1.96233 15.2857M11 21C13.8929 21 16.2381 16.5228 16.2381 11C16.2381 5.47715 13.8929 1 11 1M11 21C8.10708 21 5.7619 16.5228 5.7619 11C5.7619 5.47715 8.10708 1 11 1M1 11C1 9.27601 1.43626 7.65392 2.2044 6.2381M1 11C1 12.5337 1.34527 13.9868 1.96233 15.2857M11 1C7.20114 1 3.89703 3.11828 2.2044 6.2381M11 1C14.7989 1 18.103 3.11828 19.7956 6.2381M2.2044 6.2381H19.7956M20.0377 15.2857H1.96233"
    stroke="currentColor" stroke-width="1.4"/>
</svg>
