<svg width="109" height="44" viewBox="0 0 109 44" fill="none" xmlns="http://www.w3.org/2000/svg">
  <path fill-rule="evenodd" clip-rule="evenodd"
        d="M28.1769 0.974409C28.1769 0.899717 27.9841 0.647766 27.7484 0.414762C27.5129 0.181636 27.3042 -0.0049135 27.285 9.86845e-05C27.1563 0.0335947 25.9524 1.35717 25.9524 1.46511C25.9524 1.53895 25.7299 1.8107 25.458 2.06914C25.1862 2.32757 24.9637 2.60373 24.9637 2.68282C24.9637 2.76203 24.7969 2.98098 24.593 3.16936C24.3891 3.35774 24.2222 3.57779 24.2222 3.65835C24.2222 3.73891 24.0554 3.95896 23.8515 4.14734C23.6476 4.33572 23.4807 4.5658 23.4807 4.65834C23.4807 4.751 23.3695 4.90613 23.2336 5.00307C23.0976 5.10002 22.9864 5.27715 22.9864 5.39683C22.9864 5.51639 22.9308 5.61431 22.8628 5.61431C22.7948 5.61431 22.7392 5.71223 22.7392 5.83179C22.7392 5.95147 22.628 6.12861 22.4921 6.22555C22.3561 6.32249 22.2449 6.49963 22.2449 6.61931C22.2449 6.73887 22.1893 6.83679 22.1213 6.83679C22.0533 6.83679 21.9977 6.94681 21.9977 7.08128C21.9977 7.21575 21.9421 7.32578 21.8741 7.32578C21.8062 7.32578 21.7506 7.4237 21.7506 7.54325C21.7506 7.66293 21.6393 7.84007 21.5034 7.93701C21.3583 8.04055 21.2562 8.25351 21.2562 8.45302C21.2562 8.63981 21.2006 8.79274 21.1327 8.79274C21.0647 8.79274 21.0091 8.90277 21.0091 9.03724C21.0091 9.17171 20.9535 9.28173 20.8855 9.28173C20.8175 9.28173 20.7619 9.39176 20.7619 9.52623C20.7619 9.6607 20.7063 9.77072 20.6383 9.77072C20.5704 9.77072 20.5147 9.88075 20.5147 10.0152C20.5147 10.1497 20.4591 10.2597 20.3912 10.2597C20.3232 10.2597 20.2676 10.4247 20.2676 10.6265C20.2676 10.8282 20.212 10.9932 20.144 10.9932C20.076 10.9932 20.0204 11.1582 20.0204 11.3599C20.0204 11.5616 19.9648 11.7267 19.8968 11.7267C19.8289 11.7267 19.7732 11.8917 19.7732 12.0934C19.7732 12.2951 19.7176 12.4602 19.6497 12.4602C19.5817 12.4602 19.5261 12.6802 19.5261 12.9492C19.5261 13.2181 19.4705 13.4381 19.4025 13.4381C19.3345 13.4381 19.2789 13.6582 19.2789 13.9271C19.2789 14.1961 19.2233 14.4161 19.1553 14.4161C19.0874 14.4161 19.0317 14.6912 19.0317 15.0274C19.0317 15.3635 18.9761 15.6386 18.9082 15.6386C18.8361 15.6386 18.7846 16.0461 18.7846 16.6166C18.7846 17.1871 18.733 17.5946 18.661 17.5946C18.5819 17.5946 18.5374 18.6948 18.5374 20.6507C18.5374 22.6067 18.5819 23.7069 18.661 23.7069C18.729 23.7069 18.7846 23.958 18.7846 24.265C18.7846 24.7738 18.8391 24.8756 19.4025 25.4184C19.7423 25.7459 20.0204 26.0735 20.0204 26.1466C20.0204 26.2197 20.9102 27.1574 21.9977 28.2301C23.0853 29.3028 23.9751 30.2643 23.9751 30.3667C23.9751 30.469 24.0307 30.5528 24.0986 30.5528C24.1666 30.5528 24.2222 30.3327 24.2222 30.0638C24.2222 29.7948 24.1666 29.5748 24.0986 29.5748C24.0307 29.5748 23.9751 29.2997 23.9751 28.9636C23.9751 28.6274 23.9194 28.3523 23.8515 28.3523C23.7828 28.3523 23.7279 28.0263 23.7279 27.6188C23.7279 27.2114 23.673 26.8854 23.6043 26.8854C23.5356 26.8854 23.4807 26.5593 23.4807 26.1519C23.4807 25.7444 23.4259 25.4184 23.3571 25.4184C23.2839 25.4184 23.2336 24.9701 23.2336 24.3182C23.2336 23.6662 23.1833 23.2179 23.11 23.2179C23.0367 23.2179 22.9864 22.7697 22.9864 22.1177C22.9864 21.5126 23.0169 21.0175 23.0541 21.0175C23.0914 21.0175 23.5058 21.4026 23.9751 21.8732C24.4443 22.3439 24.9143 22.7289 25.0196 22.7289C25.1285 22.7289 25.2109 22.8342 25.2109 22.9734C25.2109 23.1079 25.2665 23.2179 25.3345 23.2179C25.4148 23.2179 25.458 24.9294 25.458 28.1078C25.458 32.4201 25.4357 32.9977 25.2686 32.9977C25.055 32.9977 24.2222 32.2201 24.2222 32.0207C24.2222 31.9496 23.4437 31.1239 22.4921 30.186C21.5405 29.2482 20.7619 28.4231 20.7619 28.3526C20.7619 28.282 19.9277 27.4017 18.9082 26.3964C17.8886 25.391 17.0544 24.5107 17.0544 24.4402C17.0544 24.3696 16.2759 23.5446 15.3243 22.6067C14.3727 21.6688 13.5941 20.8438 13.5941 20.7732C13.5941 20.7027 12.7599 19.8224 11.7404 18.817C10.7208 17.8117 9.88662 16.9314 9.88662 16.8608C9.88662 16.7903 9.10805 15.9652 8.15646 15.0274C7.20487 14.0895 6.4263 13.2643 6.4263 13.1937C6.4263 13.123 5.64773 12.2978 4.69615 11.3599C3.74456 10.4221 2.96599 9.59775 2.96599 9.52806C2.96599 9.40349 0.186242 6.59229 0.0631491 6.59229C0.0284216 6.59229 0 14.734 0 24.6849V42.7775H2.91297C5.2729 42.7775 5.85955 42.7444 6.00254 42.6028C6.15281 42.4543 6.17914 40.9031 6.17914 32.2118C6.17914 26.5928 6.20769 21.9955 6.24254 21.9955C6.3655 21.9955 8.65079 24.3168 8.65079 24.4418C8.65079 24.5114 9.48498 25.391 10.5045 26.3964C11.5241 27.4017 12.3583 28.2819 12.3583 28.3523C12.3583 28.4227 13.1925 29.3029 14.212 30.3083C15.2316 31.3137 16.0658 32.1938 16.0658 32.2642C16.0658 32.3347 16.8999 33.2148 17.9195 34.2202C18.9391 35.2256 19.7732 36.1058 19.7732 36.1762C19.7732 36.2466 20.6074 37.1268 21.627 38.1321C22.6465 39.1375 23.4807 40.0178 23.4807 40.0883C23.4807 40.1589 24.2593 40.9839 25.2109 41.9218C26.1625 42.8597 26.941 43.711 26.941 43.8136C26.941 43.9161 27.0269 44 27.132 44C27.3538 44 27.9297 43.4658 27.9297 43.26C27.9297 43.183 28.0965 42.9659 28.3005 42.7775C28.5044 42.5891 28.6712 42.3691 28.6712 42.2885C28.6712 42.208 28.838 41.9879 29.042 41.7995C29.2459 41.6112 29.4127 41.3811 29.4127 41.2886C29.4127 41.1959 29.5239 41.0408 29.6599 40.9438C29.7958 40.8469 29.907 40.6818 29.907 40.5771C29.907 40.4723 30.0183 40.3073 30.1542 40.2103C30.2901 40.1134 30.4014 39.9362 30.4014 39.8166C30.4014 39.697 30.457 39.5991 30.5249 39.5991C30.5929 39.5991 30.6485 39.5012 30.6485 39.3816C30.6485 39.2619 30.7598 39.0848 30.8957 38.9879C31.0316 38.8909 31.1429 38.7138 31.1429 38.5941C31.1429 38.4745 31.1985 38.3766 31.2664 38.3766C31.3344 38.3766 31.39 38.2787 31.39 38.1591C31.39 38.0395 31.5012 37.8623 31.6372 37.7654C31.7731 37.6684 31.8844 37.4913 31.8844 37.3716C31.8844 37.2521 31.94 37.1541 32.0079 37.1541C32.0759 37.1541 32.1315 37.0441 32.1315 36.9096C32.1315 36.7752 32.1871 36.6652 32.2551 36.6652C32.3231 36.6652 32.3787 36.5551 32.3787 36.4207C32.3787 36.2862 32.4343 36.1762 32.5023 36.1762C32.5702 36.1762 32.6259 36.0661 32.6259 35.9317C32.6259 35.7972 32.6815 35.6872 32.7494 35.6872C32.8174 35.6872 32.873 35.5221 32.873 35.3204C32.873 35.1187 32.9286 34.9537 32.9966 34.9537C33.0646 34.9537 33.1202 34.8437 33.1202 34.7092C33.1202 34.5747 33.1758 34.4647 33.2438 34.4647C33.3117 34.4647 33.3673 34.3547 33.3673 34.2202C33.3673 34.0857 33.423 33.9757 33.4909 33.9757C33.5589 33.9757 33.6145 33.8107 33.6145 33.609C33.6145 33.4073 33.6701 33.2422 33.7381 33.2422C33.8061 33.2422 33.8617 33.1322 33.8617 32.9977C33.8617 32.8633 33.9173 32.7532 33.9853 32.7532C34.0532 32.7532 34.1088 32.5882 34.1088 32.3865C34.1088 32.1848 34.1645 32.0198 34.2324 32.0198C34.3004 32.0198 34.356 31.8547 34.356 31.653C34.356 31.4513 34.4116 31.2863 34.4796 31.2863C34.5476 31.2863 34.6032 31.1212 34.6032 30.9195C34.6032 30.7178 34.6588 30.5528 34.7268 30.5528C34.7947 30.5528 34.8503 30.3327 34.8503 30.0638C34.8503 29.7948 34.906 29.5748 34.9739 29.5748C35.0419 29.5748 35.0975 29.3548 35.0975 29.0858C35.0975 28.8169 35.1531 28.5968 35.2211 28.5968C35.2891 28.5968 35.3447 28.3218 35.3447 27.9856C35.3447 27.6494 35.4003 27.3744 35.4683 27.3744C35.537 27.3744 35.5918 27.0483 35.5918 26.6409C35.5918 26.2334 35.6467 25.9074 35.7154 25.9074C35.7896 25.9074 35.839 25.4184 35.839 24.6849C35.839 23.9514 35.8884 23.4624 35.9626 23.4624C36.0386 23.4624 36.0862 22.8512 36.0862 21.8732C36.0862 20.8952 36.0386 20.284 35.9626 20.284C35.8877 20.284 35.839 19.7543 35.839 18.9393C35.839 18.1243 35.7903 17.5946 35.7154 17.5946C35.6467 17.5946 35.5918 17.2685 35.5918 16.8611C35.5918 16.4536 35.537 16.1276 35.4683 16.1276C35.4003 16.1276 35.3447 15.8525 35.3447 15.5164C35.3447 15.1802 35.2891 14.9051 35.2211 14.9051C35.1531 14.9051 35.0975 14.6851 35.0975 14.4161C35.0975 14.1472 35.0419 13.9271 34.9739 13.9271C34.906 13.9271 34.8503 13.7621 34.8503 13.5604C34.8503 13.3587 34.7947 13.1937 34.7268 13.1937C34.6588 13.1937 34.6032 12.9736 34.6032 12.7047C34.6032 12.4357 34.5476 12.2157 34.4796 12.2157C34.4116 12.2157 34.356 12.0506 34.356 11.8489C34.356 11.6472 34.3004 11.4822 34.2324 11.4822C34.1645 11.4822 34.1088 11.3722 34.1088 11.2377C34.1088 11.1032 34.0532 10.9932 33.9853 10.9932C33.9173 10.9932 33.8617 10.8282 33.8617 10.6265C33.8617 10.4247 33.8061 10.2597 33.7381 10.2597C33.6701 10.2597 33.6145 10.1497 33.6145 10.0152C33.6145 9.88075 33.5589 9.77072 33.4909 9.77072C33.423 9.77072 33.3673 9.60569 33.3673 9.40398C33.3673 9.20227 33.3117 9.03724 33.2438 9.03724C33.1758 9.03724 33.1202 8.92722 33.1202 8.79274C33.1202 8.65827 33.0646 8.54825 32.9966 8.54825C32.9286 8.54825 32.873 8.43823 32.873 8.30375C32.873 8.16928 32.8174 8.05926 32.7494 8.05926C32.6815 8.05926 32.6259 7.94924 32.6259 7.81476C32.6259 7.68029 32.5702 7.57027 32.5023 7.57027C32.4343 7.57027 32.3787 7.46025 32.3787 7.32578C32.3787 7.1913 32.3231 7.08128 32.2551 7.08128C32.1871 7.08128 32.1315 6.97126 32.1315 6.83679C32.1315 6.70231 32.0759 6.59229 32.0079 6.59229C31.94 6.59229 31.8844 6.49437 31.8844 6.37481C31.8844 6.25513 31.7731 6.078 31.6372 5.98105C31.5012 5.88411 31.39 5.70697 31.39 5.58729C31.39 5.46774 31.3344 5.36982 31.2664 5.36982C31.1985 5.36982 31.1429 5.2719 31.1429 5.15234C31.1429 5.03266 31.0316 4.85552 30.8957 4.75858C30.7598 4.66164 30.6485 4.4966 30.6485 4.39184C30.6485 4.28707 30.5373 4.12204 30.4014 4.0251C30.2654 3.92815 30.1542 3.76312 30.1542 3.65835C30.1542 3.55359 30.043 3.38855 29.907 3.29161C29.7711 3.19467 29.6599 3.02963 29.6599 2.92487C29.6599 2.8201 29.5486 2.65507 29.4127 2.55813C29.2768 2.46118 29.1655 2.30727 29.1655 2.21595C29.1655 2.12464 28.9431 1.83858 28.6712 1.58015C28.3993 1.32171 28.1769 1.04923 28.1769 0.974409ZM24.9637 10.9269C24.9637 10.756 25.0333 10.5381 25.1182 10.4426C25.2032 10.3471 25.3143 10.2669 25.3654 10.2644C25.4164 10.2618 25.458 12.1301 25.458 14.4161C25.458 16.7022 25.4295 18.5725 25.3945 18.5725C25.3596 18.5725 24.859 18.1057 24.2823 17.5351C23.3297 16.5929 23.0238 16.1276 23.3571 16.1276C23.4251 16.1276 23.4807 15.8525 23.4807 15.5164C23.4807 15.1802 23.5363 14.9051 23.6043 14.9051C23.6723 14.9051 23.7279 14.6851 23.7279 14.4161C23.7279 14.1472 23.7835 13.9271 23.8515 13.9271C23.9194 13.9271 23.9751 13.7621 23.9751 13.5604C23.9751 13.3587 24.0307 13.1937 24.0986 13.1937C24.1666 13.1937 24.2222 13.0286 24.2222 12.8269C24.2222 12.6252 24.2778 12.4602 24.3458 12.4602C24.4138 12.4602 24.4694 12.2951 24.4694 12.0934C24.4694 11.8917 24.525 11.7267 24.593 11.7267C24.6609 11.7267 24.7166 11.6167 24.7166 11.4822C24.7166 11.3477 24.7722 11.2377 24.8401 11.2377C24.9081 11.2377 24.9637 11.0978 24.9637 10.9269ZM29.042 13.4381C28.9659 13.4381 28.9184 12.8269 28.9184 11.8489C28.9184 10.871 28.9659 10.2597 29.042 10.2597C29.1099 10.2597 29.1655 10.3697 29.1655 10.5042C29.1655 10.6387 29.2211 10.7487 29.2891 10.7487C29.3571 10.7487 29.4127 10.9137 29.4127 11.1154C29.4127 11.3172 29.4683 11.4822 29.5363 11.4822C29.6042 11.4822 29.6599 11.6472 29.6599 11.8489C29.6599 12.0506 29.7155 12.2157 29.7834 12.2157C29.971 12.2157 29.9311 12.8206 29.7304 13.019C29.6334 13.115 29.4666 13.1937 29.3597 13.1937C29.2529 13.1937 29.1655 13.2487 29.1655 13.3159C29.1655 13.3831 29.1099 13.4381 29.042 13.4381ZM28.9184 18.6915L29.9379 17.6636C30.4987 17.0982 30.9991 16.6314 31.0502 16.6261C31.1012 16.6209 31.1429 16.7816 31.1429 16.9833C31.1429 17.185 31.1985 17.3501 31.2664 17.3501C31.3385 17.3501 31.39 17.7575 31.39 18.328C31.39 18.8986 31.4416 19.306 31.5136 19.306C31.5816 19.306 31.6372 19.3893 31.6372 19.491C31.6372 19.7322 29.3492 21.9955 29.1053 21.9955C28.9477 21.9955 28.9184 21.7367 28.9184 20.3435V18.6915ZM80.0816 19.306C79.6697 19.306 79.3401 19.2517 79.3401 19.1838C79.3401 19.1091 78.7634 19.0615 77.8571 19.0615C76.9509 19.0615 76.3741 19.1091 76.3741 19.1838C76.3741 19.251 76.0961 19.306 75.7562 19.306C75.4164 19.306 75.1383 19.361 75.1383 19.4283C75.1383 19.4955 74.9159 19.5505 74.644 19.5505C74.3721 19.5505 74.1497 19.6055 74.1497 19.6728C74.1497 19.74 73.9828 19.795 73.7789 19.795C73.575 19.795 73.4082 19.85 73.4082 19.9173C73.4082 19.9845 73.2969 20.0395 73.161 20.0395C73.0251 20.0395 72.9138 20.0945 72.9138 20.1618C72.9138 20.229 72.8026 20.284 72.6667 20.284C72.5307 20.284 72.4195 20.339 72.4195 20.4062C72.4195 20.4735 72.3083 20.5285 72.1723 20.5285C72.0364 20.5285 71.9252 20.5835 71.9252 20.6507C71.9252 20.718 71.8262 20.773 71.7053 20.773C71.5843 20.773 71.4053 20.883 71.3073 21.0175C71.2093 21.152 71.0524 21.262 70.9587 21.262C70.8652 21.262 70.6326 21.427 70.4422 21.6287C70.2517 21.8304 70.0332 21.9955 69.9567 21.9955C69.7758 21.9955 68.712 23.0478 68.712 23.2267C68.712 23.3024 68.5452 23.5185 68.3413 23.7069C68.1374 23.8953 67.9705 24.1254 67.9705 24.2179C67.9705 24.3106 67.8593 24.4657 67.7234 24.5627C67.5874 24.6596 67.4762 24.8367 67.4762 24.9564C67.4762 25.076 67.4206 25.1739 67.3526 25.1739C67.2846 25.1739 67.229 25.2839 67.229 25.4184C67.229 25.5529 67.1734 25.6629 67.1054 25.6629C67.0375 25.6629 66.9819 25.7729 66.9819 25.9074C66.9819 26.0419 66.9263 26.1519 66.8583 26.1519C66.7903 26.1519 66.7347 26.2619 66.7347 26.3964C66.7347 26.5308 66.6791 26.6409 66.6111 26.6409C66.5431 26.6409 66.4875 26.8059 66.4875 27.0076C66.4875 27.2093 66.4319 27.3744 66.3639 27.3744C66.296 27.3744 66.2404 27.5394 66.2404 27.7411C66.2404 27.9428 66.1848 28.1078 66.1168 28.1078C66.0488 28.1078 65.9932 28.3829 65.9932 28.7191C65.9932 29.0553 65.9376 29.3303 65.8696 29.3303C65.7931 29.3303 65.746 29.9823 65.746 31.0418C65.746 32.1013 65.7931 32.7532 65.8696 32.7532C65.9376 32.7532 65.9932 33.0283 65.9932 33.3645C65.9932 33.7007 66.0488 33.9757 66.1168 33.9757C66.1848 33.9757 66.2404 34.1407 66.2404 34.3425C66.2404 34.5442 66.296 34.7092 66.3639 34.7092C66.4319 34.7092 66.4875 34.8742 66.4875 35.0759C66.4875 35.2776 66.5431 35.4427 66.6111 35.4427C66.6791 35.4427 66.7347 35.6077 66.7347 35.8094C66.7347 36.0111 66.7903 36.1762 66.8583 36.1762C66.9263 36.1762 66.9819 36.2741 66.9819 36.3936C66.9819 36.5133 67.0931 36.6905 67.229 36.7874C67.365 36.8843 67.4762 37.0615 67.4762 37.1812C67.4762 37.3007 67.5318 37.3986 67.5998 37.3986C67.6677 37.3986 67.7234 37.4865 67.7234 37.5941C67.7234 37.7016 67.8902 37.9437 68.0941 38.1321C68.298 38.3205 68.4649 38.5362 68.4649 38.6113C68.4649 38.7893 70.025 40.3326 70.2049 40.3326C70.2809 40.3326 70.4989 40.4976 70.6893 40.6993C70.8798 40.901 71.1124 41.0661 71.2059 41.0661C71.2996 41.0661 71.4564 41.1761 71.5544 41.3106C71.6524 41.445 71.8315 41.555 71.9525 41.555C72.0733 41.555 72.1723 41.6101 72.1723 41.6773C72.1723 41.7445 72.2836 41.7995 72.4195 41.7995C72.5554 41.7995 72.6667 41.8546 72.6667 41.9218C72.6667 41.989 72.8335 42.044 73.0374 42.044C73.2413 42.044 73.4082 42.0991 73.4082 42.1663C73.4082 42.2335 73.5194 42.2885 73.6553 42.2885C73.7913 42.2885 73.9025 42.3435 73.9025 42.4108C73.9025 42.478 74.1249 42.533 74.3968 42.533C74.6687 42.533 74.8912 42.588 74.8912 42.6553C74.8912 42.7225 75.1136 42.7775 75.3855 42.7775C75.6574 42.7775 75.8798 42.8325 75.8798 42.8998C75.8798 42.9762 76.6213 43.022 77.8571 43.022C79.093 43.022 79.8345 42.9762 79.8345 42.8998C79.8345 42.8325 80.1125 42.7775 80.4524 42.7775C80.7922 42.7775 81.0703 42.7225 81.0703 42.6553C81.0703 42.588 81.2371 42.533 81.441 42.533C81.645 42.533 81.8118 42.478 81.8118 42.4108C81.8118 42.3435 81.923 42.2885 82.059 42.2885C82.1949 42.2885 82.3061 42.2335 82.3061 42.1663C82.3061 42.0991 82.473 42.044 82.6769 42.044C82.8808 42.044 83.0476 41.989 83.0476 41.9218C83.0476 41.8546 83.1588 41.7995 83.2948 41.7995C83.4307 41.7995 83.5419 41.7445 83.5419 41.6773C83.5419 41.6101 83.6409 41.555 83.7618 41.555C83.8828 41.555 84.0619 41.445 84.1599 41.3106C84.2579 41.1761 84.4369 41.0661 84.5579 41.0661C84.761 41.0661 84.7778 40.8886 84.7778 38.7434C84.7778 37.4659 84.7445 36.4207 84.7038 36.4207C84.6631 36.4207 84.4739 36.5857 84.2834 36.7874C84.093 36.9891 83.8706 37.1541 83.7891 37.1541C83.7077 37.1541 83.4852 37.3192 83.2948 37.5209C83.1043 37.7226 82.8718 37.8876 82.7782 37.8876C82.6845 37.8876 82.5277 37.9977 82.4297 38.1321C82.3317 38.2666 82.1526 38.3766 82.0317 38.3766C81.9108 38.3766 81.8118 38.4316 81.8118 38.4989C81.8118 38.5661 81.645 38.6211 81.441 38.6211C81.2371 38.6211 81.0703 38.6761 81.0703 38.7434C81.0703 38.8106 80.9035 38.8656 80.6995 38.8656C80.4956 38.8656 80.3288 38.9206 80.3288 38.9879C80.3288 39.0551 80.0507 39.1101 79.7109 39.1101C79.371 39.1101 79.093 39.1651 79.093 39.2323C79.093 39.3036 78.6811 39.3546 78.1043 39.3546C77.5275 39.3546 77.1156 39.3036 77.1156 39.2323C77.1156 39.1644 76.786 39.1101 76.3741 39.1101C75.9622 39.1101 75.6327 39.0558 75.6327 38.9879C75.6327 38.9206 75.4658 38.8656 75.2619 38.8656C75.058 38.8656 74.8912 38.8106 74.8912 38.7434C74.8912 38.6761 74.7799 38.6211 74.644 38.6211C74.508 38.6211 74.3968 38.5661 74.3968 38.4989C74.3968 38.4316 74.2856 38.3766 74.1497 38.3766C74.0137 38.3766 73.9025 38.3216 73.9025 38.2544C73.9025 38.1871 73.8035 38.1321 73.6826 38.1321C73.5617 38.1321 73.3826 38.0221 73.2846 37.8876C73.1866 37.7532 73.0342 37.6431 72.9461 37.6431C72.7371 37.6431 71.1837 36.1065 71.1837 35.8998C71.1837 35.8126 71.0724 35.6619 70.9365 35.5649C70.8006 35.468 70.6893 35.2908 70.6893 35.1712C70.6893 35.0516 70.6337 34.9537 70.5658 34.9537C70.4978 34.9537 70.4422 34.8437 70.4422 34.7092C70.4422 34.5747 70.3866 34.4647 70.3186 34.4647C70.2506 34.4647 70.195 34.3547 70.195 34.2202C70.195 34.0857 70.1394 33.9757 70.0714 33.9757C70.0034 33.9757 69.9478 33.8107 69.9478 33.609C69.9478 33.4073 69.8922 33.2422 69.8243 33.2422C69.7563 33.2422 69.7007 33.0222 69.7007 32.7532C69.7007 32.4843 69.6451 32.2642 69.5771 32.2642C69.503 32.2642 69.4535 31.7753 69.4535 31.0418C69.4535 30.3083 69.503 29.8193 69.5771 29.8193C69.6451 29.8193 69.7007 29.5993 69.7007 29.3303C69.7007 29.0614 69.7563 28.8413 69.8243 28.8413C69.8922 28.8413 69.9478 28.6763 69.9478 28.4746C69.9478 28.2729 70.0034 28.1078 70.0714 28.1078C70.1394 28.1078 70.195 27.9549 70.195 27.7681C70.195 27.5686 70.2971 27.3556 70.4422 27.2521C70.5781 27.1552 70.6893 26.978 70.6893 26.8583C70.6893 26.7388 70.7449 26.6409 70.8129 26.6409C70.8809 26.6409 70.9365 26.5575 70.9365 26.4555C70.9365 26.2301 72.7215 24.4404 72.9463 24.4404C73.0344 24.4404 73.1866 24.3304 73.2846 24.1959C73.3826 24.0614 73.5617 23.9514 73.6826 23.9514C73.8035 23.9514 73.9025 23.8964 73.9025 23.8292C73.9025 23.7619 74.0137 23.7069 74.1497 23.7069C74.2856 23.7069 74.3968 23.6519 74.3968 23.5847C74.3968 23.5174 74.508 23.4624 74.644 23.4624C74.7799 23.4624 74.8912 23.4074 74.8912 23.3402C74.8912 23.273 75.058 23.2179 75.2619 23.2179C75.4658 23.2179 75.6327 23.1629 75.6327 23.0957C75.6327 23.0285 75.9107 22.9734 76.2506 22.9734C76.5904 22.9734 76.8685 22.9184 76.8685 22.8512C76.8685 22.7787 77.3217 22.7289 77.9807 22.7289C78.6398 22.7289 79.093 22.7787 79.093 22.8512C79.093 22.9192 79.4226 22.9734 79.8345 22.9734C80.2464 22.9734 80.576 23.0277 80.576 23.0957C80.576 23.1629 80.6872 23.2179 80.8231 23.2179C80.9591 23.2179 81.0703 23.273 81.0703 23.3402C81.0703 23.4074 81.2371 23.4624 81.441 23.4624C81.645 23.4624 81.8118 23.5174 81.8118 23.5847C81.8118 23.6519 81.9108 23.7069 82.0317 23.7069C82.1526 23.7069 82.3317 23.8169 82.4297 23.9514C82.5277 24.0859 82.6945 24.1959 82.8005 24.1959C82.9064 24.1959 83.0732 24.3059 83.1712 24.4404C83.2692 24.5749 83.4248 24.6849 83.5171 24.6849C83.6094 24.6849 83.8986 24.905 84.1599 25.1739C84.4211 25.4428 84.6669 25.6629 84.7063 25.6629C84.7456 25.6629 84.7778 24.6977 84.7778 23.5181C84.7778 21.4037 84.7734 21.3688 84.4744 21.0731C84.3075 20.9081 84.0851 20.773 83.98 20.773C83.875 20.773 83.7891 20.718 83.7891 20.6507C83.7891 20.5835 83.6779 20.5285 83.5419 20.5285C83.406 20.5285 83.2948 20.4735 83.2948 20.4062C83.2948 20.339 83.1836 20.284 83.0476 20.284C82.9117 20.284 82.8005 20.229 82.8005 20.1618C82.8005 20.0945 82.6892 20.0395 82.5533 20.0395C82.4174 20.0395 82.3061 19.9845 82.3061 19.9173C82.3061 19.85 82.1393 19.795 81.9354 19.795C81.7315 19.795 81.5646 19.74 81.5646 19.6728C81.5646 19.6055 81.3978 19.5505 81.1939 19.5505C80.99 19.5505 80.8231 19.4955 80.8231 19.4283C80.8231 19.3603 80.4935 19.306 80.0816 19.306ZM98.9898 19.306C98.6499 19.306 98.3719 19.251 98.3719 19.1838C98.3719 19.1086 97.754 19.0615 96.7653 19.0615C95.7766 19.0615 95.1587 19.1086 95.1587 19.1838C95.1587 19.251 94.8807 19.306 94.5408 19.306C94.201 19.306 93.9229 19.361 93.9229 19.4283C93.9229 19.4955 93.7004 19.5505 93.4286 19.5505C93.1567 19.5505 92.9342 19.6055 92.9342 19.6728C92.9342 19.74 92.823 19.795 92.6871 19.795C92.5511 19.795 92.4399 19.85 92.4399 19.9173C92.4399 19.9845 92.2731 20.0395 92.0692 20.0395C91.8652 20.0395 91.6984 20.0945 91.6984 20.1618C91.6984 20.229 91.5872 20.284 91.4512 20.284C91.3153 20.284 91.2041 20.339 91.2041 20.4062C91.2041 20.4735 91.1051 20.5285 90.9842 20.5285C90.8633 20.5285 90.6842 20.6385 90.5862 20.773C90.4882 20.9075 90.3213 21.0175 90.2154 21.0175C90.1095 21.0175 89.9427 21.1275 89.8447 21.262C89.7467 21.3965 89.5946 21.5065 89.5067 21.5065C89.3118 21.5065 87.2494 23.5264 87.2494 23.7173C87.2494 23.7921 87.0826 24.0075 86.8787 24.1959C86.6748 24.3843 86.5079 24.6265 86.5079 24.7339C86.5079 24.8415 86.4523 24.9294 86.3844 24.9294C86.3164 24.9294 86.2608 25.0394 86.2608 25.1739C86.2608 25.3084 86.2052 25.4184 86.1372 25.4184C86.0692 25.4184 86.0136 25.5284 86.0136 25.6629C86.0136 25.7974 85.958 25.9074 85.89 25.9074C85.822 25.9074 85.7664 26.0174 85.7664 26.1519C85.7664 26.2864 85.7108 26.3964 85.6429 26.3964C85.5749 26.3964 85.5193 26.5064 85.5193 26.6409C85.5193 26.7753 85.4637 26.8854 85.3957 26.8854C85.3277 26.8854 85.2721 27.0504 85.2721 27.2521C85.2721 27.4538 85.2165 27.6188 85.1485 27.6188C85.0806 27.6188 85.0249 27.8939 85.0249 28.2301C85.0249 28.5663 84.9693 28.8413 84.9014 28.8413C84.8235 28.8413 84.7778 29.6563 84.7778 31.0418C84.7778 32.4272 84.8235 33.2422 84.9014 33.2422C84.9693 33.2422 85.0249 33.5173 85.0249 33.8535C85.0249 34.1896 85.0806 34.4647 85.1485 34.4647C85.2165 34.4647 85.2721 34.6297 85.2721 34.8314C85.2721 35.0332 85.3277 35.1982 85.3957 35.1982C85.4637 35.1982 85.5193 35.3082 85.5193 35.4427C85.5193 35.5771 85.5749 35.6872 85.6429 35.6872C85.7108 35.6872 85.7664 35.8401 85.7664 36.0269C85.7664 36.2264 85.8685 36.4394 86.0136 36.5429C86.1495 36.6399 86.2608 36.817 86.2608 36.9367C86.2608 37.0562 86.3164 37.1541 86.3844 37.1541C86.4523 37.1541 86.5079 37.2521 86.5079 37.3716C86.5079 37.4913 86.6192 37.6684 86.7551 37.7654C86.891 37.8623 87.0023 38.0126 87.0023 38.0994C87.0023 38.3053 89.546 40.8216 89.7542 40.8216C89.842 40.8216 89.9938 40.9316 90.0918 41.0661C90.1898 41.2005 90.3689 41.3106 90.4899 41.3106C90.6108 41.3106 90.7097 41.3656 90.7097 41.4328C90.7097 41.5 90.821 41.555 90.9569 41.555C91.0928 41.555 91.2041 41.6101 91.2041 41.6773C91.2041 41.7445 91.3153 41.7995 91.4512 41.7995C91.5872 41.7995 91.6984 41.8546 91.6984 41.9218C91.6984 41.989 91.8096 42.044 91.9456 42.044C92.0815 42.044 92.1927 42.0991 92.1927 42.1663C92.1927 42.2335 92.3596 42.2885 92.5635 42.2885C92.7674 42.2885 92.9342 42.3435 92.9342 42.4108C92.9342 42.478 93.1011 42.533 93.305 42.533C93.5089 42.533 93.6757 42.588 93.6757 42.6553C93.6757 42.7225 93.9538 42.7775 94.2936 42.7775C94.6335 42.7775 94.9116 42.8325 94.9116 42.8998C94.9116 42.9758 95.6119 43.022 96.7653 43.022C97.9187 43.022 98.619 42.9758 98.619 42.8998C98.619 42.8325 98.8971 42.7775 99.237 42.7775C99.5768 42.7775 99.8549 42.7225 99.8549 42.6553C99.8549 42.588 100.022 42.533 100.226 42.533C100.43 42.533 100.596 42.478 100.596 42.4108C100.596 42.3435 100.763 42.2885 100.967 42.2885C101.171 42.2885 101.338 42.2335 101.338 42.1663C101.338 42.0991 101.449 42.044 101.585 42.044C101.721 42.044 101.832 41.989 101.832 41.9218C101.832 41.8546 101.943 41.7995 102.079 41.7995C102.215 41.7995 102.327 41.7445 102.327 41.6773C102.327 41.6101 102.438 41.555 102.574 41.555C102.71 41.555 102.821 41.5 102.821 41.4328C102.821 41.3656 102.92 41.3106 103.041 41.3106C103.162 41.3106 103.341 41.2005 103.439 41.0661C103.537 40.9316 103.692 40.8216 103.785 40.8216C103.877 40.8216 104.166 40.6015 104.427 40.3326C104.689 40.0636 104.966 39.8436 105.044 39.8436C105.227 39.8436 105.54 39.5355 105.54 39.3554C105.54 39.279 105.818 38.9486 106.158 38.6211C106.497 38.2936 106.776 37.9518 106.776 37.8615C106.776 37.771 106.887 37.6178 107.023 37.5209C107.159 37.4239 107.27 37.2468 107.27 37.1271C107.27 37.0076 107.325 36.9096 107.393 36.9096C107.461 36.9096 107.517 36.7996 107.517 36.6652C107.517 36.5307 107.573 36.4207 107.641 36.4207C107.709 36.4207 107.764 36.3106 107.764 36.1762C107.764 36.0417 107.82 35.9317 107.888 35.9317C107.956 35.9317 108.011 35.7666 108.011 35.5649C108.011 35.3632 108.067 35.1982 108.135 35.1982C108.203 35.1982 108.258 35.0332 108.258 34.8314C108.258 34.6297 108.314 34.4647 108.382 34.4647C108.45 34.4647 108.506 34.2997 108.506 34.098C108.506 33.8962 108.561 33.7312 108.629 33.7312C108.697 33.7312 108.753 33.4562 108.753 33.12C108.753 32.7838 108.808 32.5087 108.876 32.5087C108.952 32.5087 109 31.9382 109 31.0418C109 30.1453 108.952 29.5748 108.876 29.5748C108.808 29.5748 108.753 29.3548 108.753 29.0858C108.753 28.8169 108.697 28.5968 108.629 28.5968C108.561 28.5968 108.506 28.3768 108.506 28.1078C108.506 27.8389 108.45 27.6188 108.382 27.6188C108.314 27.6188 108.258 27.4538 108.258 27.2521C108.258 27.0504 108.203 26.8854 108.135 26.8854C108.067 26.8854 108.011 26.7203 108.011 26.5186C108.011 26.3169 107.956 26.1519 107.888 26.1519C107.82 26.1519 107.764 26.0419 107.764 25.9074C107.764 25.7729 107.709 25.6629 107.641 25.6629C107.573 25.6629 107.517 25.565 107.517 25.4454C107.517 25.3257 107.406 25.1486 107.27 25.0517C107.134 24.9547 107.023 24.7897 107.023 24.6849C107.023 24.5801 106.911 24.4151 106.776 24.3182C106.64 24.2212 106.528 24.0709 106.528 23.9839C106.528 23.7915 104.239 21.5065 104.046 21.5065C103.971 21.5065 103.753 21.3414 103.562 21.1397C103.372 20.938 103.127 20.773 103.018 20.773C102.91 20.773 102.821 20.718 102.821 20.6507C102.821 20.5835 102.71 20.5285 102.574 20.5285C102.438 20.5285 102.327 20.4735 102.327 20.4062C102.327 20.339 102.215 20.284 102.079 20.284C101.943 20.284 101.832 20.229 101.832 20.1618C101.832 20.0945 101.721 20.0395 101.585 20.0395C101.449 20.0395 101.338 19.9845 101.338 19.9173C101.338 19.85 101.171 19.795 100.967 19.795C100.763 19.795 100.596 19.74 100.596 19.6728C100.596 19.6055 100.374 19.5505 100.102 19.5505C99.8302 19.5505 99.6077 19.4955 99.6077 19.4283C99.6077 19.361 99.3297 19.306 98.9898 19.306ZM51.1633 23.2179V19.5505H38.0635V30.9893C38.0635 40.74 38.0896 42.4541 38.2401 42.6028C38.5038 42.8638 50.7229 42.8638 50.9867 42.6028C51.1224 42.4687 51.1633 42.044 51.1633 40.7691V39.1101H42.5125V31.7753H50.6689V28.1078H42.5125V23.2179H51.1633ZM64.5102 23.4624V19.5505H53.1406V28.2301C53.1406 33.935 53.183 36.9096 53.2642 36.9096C53.3431 36.9096 53.3878 37.9692 53.3878 39.8436V42.7775H55.3121C56.8151 42.7775 57.2752 42.7393 57.413 42.6028C57.5604 42.4571 57.5896 41.5783 57.5896 37.2764C57.5896 32.9745 57.6187 32.0957 57.7662 31.9499C57.9686 31.7496 58.3311 31.716 58.3311 31.8975C58.3311 31.9754 59.3432 32.0198 61.1205 32.0198C63.3732 32.0198 63.9439 31.9861 64.0864 31.8451C64.2234 31.7097 64.263 31.27 64.263 29.8891V28.1078H57.5896V23.4624H64.5102ZM95.0351 22.9734C95.375 22.9734 95.6531 22.9184 95.6531 22.8512C95.6531 22.7787 96.1062 22.7289 96.7653 22.7289C97.4244 22.7289 97.8775 22.7787 97.8775 22.8512C97.8775 22.9184 98.1556 22.9734 98.4955 22.9734C98.8353 22.9734 99.1134 23.0285 99.1134 23.0957C99.1134 23.1629 99.2802 23.2179 99.4841 23.2179C99.688 23.2179 99.8549 23.273 99.8549 23.3402C99.8549 23.4074 99.9661 23.4624 100.102 23.4624C100.238 23.4624 100.349 23.5174 100.349 23.5847C100.349 23.6519 100.46 23.7069 100.596 23.7069C100.732 23.7069 100.844 23.7619 100.844 23.8292C100.844 23.8964 100.943 23.9514 101.063 23.9514C101.184 23.9514 101.363 24.0614 101.461 24.1959C101.559 24.3304 101.712 24.4404 101.8 24.4404C102.009 24.4404 103.562 25.9771 103.562 26.1838C103.562 26.2709 103.674 26.4217 103.81 26.5186C103.945 26.6156 104.057 26.7927 104.057 26.9124C104.057 27.0319 104.112 27.1299 104.18 27.1299C104.248 27.1299 104.304 27.2399 104.304 27.3744C104.304 27.5088 104.359 27.6188 104.427 27.6188C104.495 27.6188 104.551 27.7289 104.551 27.8633C104.551 27.9978 104.607 28.1078 104.675 28.1078C104.743 28.1078 104.798 28.3279 104.798 28.5968C104.798 28.8658 104.854 29.0858 104.922 29.0858C104.99 29.0858 105.045 29.4118 105.045 29.8193C105.045 30.2268 105.1 30.5528 105.169 30.5528C105.237 30.5528 105.293 30.7728 105.293 31.0418C105.293 31.3107 105.237 31.5308 105.169 31.5308C105.1 31.5308 105.045 31.8568 105.045 32.2642C105.045 32.6717 104.99 32.9977 104.922 32.9977C104.854 32.9977 104.798 33.2178 104.798 33.4867C104.798 33.7557 104.743 33.9757 104.675 33.9757C104.607 33.9757 104.551 34.0857 104.551 34.2202C104.551 34.3547 104.495 34.4647 104.427 34.4647C104.359 34.4647 104.304 34.5747 104.304 34.7092C104.304 34.8437 104.248 34.9537 104.18 34.9537C104.112 34.9537 104.057 35.0516 104.057 35.1712C104.057 35.2908 103.945 35.468 103.81 35.5649C103.674 35.6619 103.562 35.8124 103.562 35.8995C103.562 36.106 101.761 37.8876 101.553 37.8876C101.464 37.8876 101.312 37.9977 101.214 38.1321C101.116 38.2666 100.937 38.3766 100.816 38.3766C100.695 38.3766 100.596 38.4316 100.596 38.4989C100.596 38.5661 100.43 38.6211 100.226 38.6211C100.022 38.6211 99.8549 38.6761 99.8549 38.7434C99.8549 38.8106 99.7436 38.8656 99.6077 38.8656C99.4718 38.8656 99.3605 38.9206 99.3605 38.9879C99.3605 39.0551 99.1381 39.1101 98.8662 39.1101C98.5943 39.1101 98.3719 39.1651 98.3719 39.2323C98.3719 39.3075 97.754 39.3546 96.7653 39.3546C95.7766 39.3546 95.1587 39.3075 95.1587 39.2323C95.1587 39.1651 94.9363 39.1101 94.6644 39.1101C94.3925 39.1101 94.1701 39.0551 94.1701 38.9879C94.1701 38.9206 94.0588 38.8656 93.9229 38.8656C93.787 38.8656 93.6757 38.8106 93.6757 38.7434C93.6757 38.6761 93.5645 38.6211 93.4286 38.6211C93.2926 38.6211 93.1814 38.5661 93.1814 38.4989C93.1814 38.4316 93.0702 38.3766 92.9342 38.3766C92.7983 38.3766 92.6871 38.3216 92.6871 38.2544C92.6871 38.1871 92.5881 38.1321 92.4672 38.1321C92.3462 38.1321 92.1672 38.0221 92.0692 37.8876C91.9712 37.7532 91.8187 37.6431 91.7303 37.6431C91.5339 37.6431 90.2154 36.3581 90.2154 36.1667C90.2154 36.0914 90.0486 35.8756 89.8447 35.6872C89.6408 35.4988 89.4739 35.2566 89.4739 35.1492C89.4739 35.0416 89.4183 34.9537 89.3503 34.9537C89.2824 34.9537 89.2268 34.8437 89.2268 34.7092C89.2268 34.5747 89.1712 34.4647 89.1032 34.4647C89.0352 34.4647 88.9796 34.2997 88.9796 34.098C88.9796 33.8962 88.924 33.7312 88.856 33.7312C88.788 33.7312 88.7324 33.5662 88.7324 33.3645C88.7324 33.1628 88.6768 32.9977 88.6088 32.9977C88.532 32.9977 88.4853 32.305 88.4853 31.164C88.4853 30.0231 88.532 29.3303 88.6088 29.3303C88.6768 29.3303 88.7324 29.1103 88.7324 28.8413C88.7324 28.5724 88.788 28.3523 88.856 28.3523C88.924 28.3523 88.9796 28.2423 88.9796 28.1078C88.9796 27.9734 89.0352 27.8633 89.1032 27.8633C89.1712 27.8633 89.2268 27.7104 89.2268 27.5236C89.2268 27.3241 89.3288 27.1112 89.4739 27.0076C89.6099 26.9107 89.7211 26.7456 89.7211 26.6409C89.7211 26.5361 89.8323 26.3711 89.9683 26.2741C90.1042 26.1772 90.2154 26.0261 90.2154 25.9383C90.2154 25.7433 91.2665 24.6849 91.4601 24.6849C91.5366 24.6849 91.7551 24.5199 91.9456 24.3182C92.136 24.1165 92.3808 23.9514 92.4895 23.9514C92.5982 23.9514 92.6871 23.8964 92.6871 23.8292C92.6871 23.7619 92.7983 23.7069 92.9342 23.7069C93.0702 23.7069 93.1814 23.6519 93.1814 23.5847C93.1814 23.5174 93.2926 23.4624 93.4286 23.4624C93.5645 23.4624 93.6757 23.4074 93.6757 23.3402C93.6757 23.273 93.8426 23.2179 94.0465 23.2179C94.2504 23.2179 94.4172 23.1629 94.4172 23.0957C94.4172 23.0285 94.6953 22.9734 95.0351 22.9734ZM29.9339 26.1452C30.0211 26.1415 30.3427 25.8695 30.6485 25.5406C30.9544 25.2118 31.2463 24.9398 31.2973 24.9361C31.3484 24.9325 31.39 25.1494 31.39 25.4184C31.39 25.6873 31.3344 25.9074 31.2664 25.9074C31.1985 25.9074 31.1429 26.1274 31.1429 26.3964C31.1429 26.6653 31.0872 26.8854 31.0193 26.8854C30.9513 26.8854 30.8957 27.1604 30.8957 27.4966C30.8957 27.8328 30.8401 28.1078 30.7721 28.1078C30.7041 28.1078 30.6485 28.2729 30.6485 28.4746C30.6485 28.6763 30.5929 28.8413 30.5249 28.8413C30.457 28.8413 30.4014 29.0064 30.4014 29.2081C30.4014 29.4098 30.3457 29.5748 30.2778 29.5748C30.2098 29.5748 30.1542 29.7398 30.1542 29.9415C30.1542 30.1433 30.0986 30.3083 30.0306 30.3083C29.9626 30.3083 29.907 30.4733 29.907 30.675C29.907 30.8767 29.8514 31.0418 29.7834 31.0418C29.7155 31.0418 29.6599 31.2068 29.6599 31.4085C29.6599 31.6102 29.6042 31.7753 29.5363 31.7753C29.4683 31.7753 29.4127 31.8853 29.4127 32.0198C29.4127 32.1542 29.3571 32.2642 29.2891 32.2642C29.2211 32.2642 29.1655 32.3743 29.1655 32.5087C29.1655 32.6432 29.1099 32.7532 29.042 32.7532C28.9631 32.7532 28.9184 31.7128 28.9184 29.8764V26.9994L29.3468 26.5757C29.5824 26.3426 29.8466 26.1488 29.9339 26.1452Z"
        fill="white"/>
</svg>
